<?xml version="1.0" encoding="utf-8"?>
<!-- Generator: Adobe Illustrator 27.4.0, SVG Export Plug-In . SVG Version: 6.00 Build 0)  -->
<svg version="1.1" id="Layer_1" xmlns="http://www.w3.org/2000/svg" xmlns:xlink="http://www.w3.org/1999/xlink" x="0px" y="0px"
	 viewBox="0 0 144 144" enable-background="new 0 0 144 144" xml:space="preserve">
<path fill="#FFFFFF" d="M132,39.5H90v-12h42V39.5z M142.35,99.5c-2.65,7.78-12.17,18-30.61,18c-18.44,0-33.38-10.37-33.38-34.05
	c0-23.46,13.95-35.52,32.8-35.52c18.49,0,29.78,10.69,32.25,26.56c0.47,3.04,0.65,7.13,0.57,12.84H95.82
	c0.78,19.27,20.9,19.87,27.53,12.17C123.35,99.5,142.35,99.5,142.35,99.5z M96.24,75.5h29.79c-0.63-9.28-6.82-13.31-14.86-13.31
	C102.37,62.19,97.51,66.79,96.24,75.5z M38.8,117.43H0v-89.8h41.72c32.86,0.49,33.48,32.66,16.32,41.44
	C78.8,76.62,79.5,117.43,38.8,117.43z M18,63.5h21.5c15.05,0,17.44-18-1.87-18H18C18,45.5,18,63.5,18,63.5z M38.35,81.5H18v18.1
	h20.05C56.38,99.6,55.25,81.5,38.35,81.5z"/>
</svg>
