<?xml version="1.0" encoding="UTF-8"?>
<svg id="a" xmlns="http://www.w3.org/2000/svg" width="299.98" height="299.37" viewBox="0 0 299.98 299.37">
  <path d="m299.98,157.91c0,12.2-1.56,24.04-4.48,35.33-.14.08-.29.14-.44.21-17.13,8.17-36.31,12.74-56.55,12.74-36.26,0-69.1-14.66-92.91-38.38-3.89-3.88-7.55-8-10.94-12.34,6.42,21.09,17.99,39.93,33.24,55.07,23.79,23.61,56.56,38.2,92.73,38.2,1.81,0,3.62-.04,5.42-.11.26,0,.52-.02.79-.03.38-.02.77-.04,1.16-.06-25.94,31.06-64.97,50.83-108.6,50.83-17.77,0-34.77-3.28-50.43-9.26.09-.27.18-.54.27-.81.05-.17.11-.33.16-.5,2.51-7.87,3.85-16.25,3.85-24.95,0-22.73-9.21-43.31-24.11-58.21-14.9-14.89-35.47-24.11-58.21-24.11-3.4,0-6.75.2-10.04.61-1.37-7.87-2.08-15.96-2.08-24.22,0-12.51,1.63-24.64,4.7-36.18,17.13-8.17,36.31-12.74,56.55-12.74,36.26,0,69.1,14.66,92.91,38.38,3.89,3.88,7.55,8,10.94,12.34-6.42-21.09-17.99-39.93-33.24-55.07-23.79-23.61-56.56-38.2-92.73-38.2-1.81,0-3.62.04-5.42.11,25.78-30.14,64.09-49.24,106.87-49.24,17.53,0,34.32,3.21,49.8,9.08,39.14,14.83,69.93,46.62,83.4,86.4,0,.03.02.06.03.09,2.2,6.52,3.94,13.25,5.17,20.16,1.44,8.07,2.19,16.38,2.19,24.87h0Z" fill="#de9168"/>
  <path d="m281.17,140.59c0,12.2-1.56,24.04-4.48,35.33-.14.08-.29.14-.44.21-17.13,8.17-36.31,12.74-56.55,12.74-36.26,0-69.1-14.66-92.91-38.38-3.89-3.88-7.55-8-10.94-12.34,6.42,21.09,17.99,39.93,33.24,55.07,23.79,23.61,56.56,38.2,92.73,38.2,1.81,0,3.62-.04,5.42-.11.26,0,.52-.02.79-.03.38-.02.77-.04,1.16-.06-25.94,31.06-64.97,50.83-108.6,50.83-17.77,0-34.77-3.28-50.43-9.26.09-.27.18-.54.27-.81.05-.17.11-.33.16-.5,2.51-7.87,3.85-16.25,3.85-24.95,0-22.73-9.21-43.31-24.11-58.21-14.9-14.89-35.47-24.11-58.21-24.11-3.4,0-6.75.2-10.04.61-1.37-7.87-2.08-15.96-2.08-24.22,0-12.51,1.63-24.64,4.7-36.18,17.13-8.17,36.31-12.74,56.55-12.74,36.26,0,69.1,14.66,92.91,38.38,3.89,3.88,7.55,8,10.94,12.34-6.42-21.09-17.99-39.93-33.24-55.07-23.79-23.61-56.56-38.2-92.73-38.2-1.81,0-3.62.04-5.42.11C59.49,19.1,97.8,0,140.58,0c17.53,0,34.32,3.21,49.8,9.08,39.14,14.83,69.93,46.62,83.4,86.4,0,.03.02.06.03.09,2.2,6.52,3.94,13.25,5.17,20.16,1.44,8.07,2.19,16.38,2.19,24.87h0Z" fill="#fff"/>
</svg>