<?xml version="1.0" encoding="UTF-8"?>
<svg id="Layer_1" data-name="Layer 1" xmlns="http://www.w3.org/2000/svg" viewBox="0 0 500 168.15">
  <path d="m48.7,12.74H16.01v13.12h30.01v10.73h-30.01v15.88h34.2v11.11H3.39V1.8h45.3v10.94Z" fill="#fff"/>
  <path d="m106.71,1.8h13.41l-21.06,61.77h-12.19L65.97,1.8h13.79l13.41,46.89L106.71,1.8Z" fill="#fff"/>
  <path d="m149.44,1.8h14.6l21.85,61.77h-14l-4.08-12.7h-22.75l-4.19,12.7h-13.5L149.44,1.8Zm-.85,38.43h15.82l-7.8-24.31-8.02,24.31Z" fill="#fff"/>
  <path d="m203.85,1.8h13.53l24.52,43.07V1.8h12.03v61.77h-12.9l-25.15-43.83v43.83h-12.03V1.8Z" fill="#fff"/>
  <path d="m285.64,44.5c.4,2.82,1.18,4.93,2.35,6.33,2.14,2.54,5.8,3.81,11,3.81,3.11,0,5.63-.33,7.57-1.01,3.68-1.29,5.52-3.67,5.52-7.17,0-2.04-.9-3.62-2.7-4.74-1.8-1.09-4.66-2.05-8.58-2.89l-6.69-1.47c-6.57-1.45-11.09-3.03-13.55-4.74-4.16-2.85-6.24-7.31-6.24-13.37,0-5.53,2.04-10.13,6.11-13.79,4.07-3.66,10.05-5.49,17.95-5.49,6.59,0,12.21,1.73,16.86,5.18,4.65,3.45,7.09,8.46,7.32,15.02h-12.4c-.23-3.72-1.89-6.36-4.98-7.92-2.06-1.03-4.63-1.55-7.69-1.55-3.41,0-6.13.67-8.16,2.01-2.03,1.34-3.05,3.21-3.05,5.62,0,2.21,1,3.86,3.01,4.95,1.29.73,4.02,1.58,8.21,2.56l10.84,2.56c4.75,1.12,8.31,2.61,10.68,4.48,3.68,2.91,5.52,7.11,5.52,12.61s-2.18,10.33-6.54,14.06c-4.36,3.73-10.53,5.59-18.49,5.59s-14.53-1.84-19.19-5.51c-4.66-3.67-6.99-8.72-6.99-15.15h12.32Z" fill="#fff"/>
  <path d="m12.32,147.49c.4,2.82,1.18,4.93,2.35,6.33,2.14,2.54,5.8,3.81,11,3.81,3.11,0,5.63-.33,7.57-1.01,3.68-1.29,5.52-3.67,5.52-7.17,0-2.04-.9-3.62-2.7-4.74-1.8-1.09-4.66-2.05-8.58-2.89l-6.69-1.47c-6.57-1.45-11.09-3.03-13.55-4.74-4.16-2.85-6.24-7.31-6.24-13.37,0-5.53,2.04-10.13,6.11-13.79,4.07-3.66,10.05-5.49,17.95-5.49,6.59,0,12.21,1.73,16.86,5.18,4.65,3.45,7.09,8.46,7.32,15.02h-12.4c-.23-3.72-1.89-6.36-4.98-7.92-2.06-1.03-4.63-1.55-7.69-1.55-3.41,0-6.13.67-8.16,2.01-2.03,1.34-3.05,3.21-3.05,5.61,0,2.21,1,3.86,3.01,4.95,1.29.73,4.02,1.58,8.21,2.56l10.84,2.56c4.75,1.12,8.31,2.61,10.68,4.48,3.68,2.91,5.52,7.11,5.52,12.61s-2.18,10.33-6.54,14.06c-4.36,3.73-10.53,5.59-18.49,5.59s-14.53-1.84-19.19-5.51c-4.66-3.67-6.99-8.72-6.99-15.15h12.32Z" fill="#fff"/>
  <path d="m115.44,104.79v10.94h-18.48v50.83h-12.99v-50.83h-18.56v-10.94h50.04Z" fill="#fff"/>
  <path d="m178.96,115.73h-32.69v13.12h30.01v10.73h-30.01v15.88h34.2v11.11h-46.81v-61.77h45.3v10.94Z" fill="#fff"/>
  <path d="m200.62,104.79h13.53l24.52,43.07v-43.07h12.03v61.77h-12.9l-25.15-43.83v43.83h-12.03v-61.77Z" fill="#fff"/>
  <path d="m290.77,104.79h14.6l21.85,61.77h-14l-4.08-12.7h-22.75l-4.19,12.7h-13.5l22.05-61.77Zm-.85,38.43h15.82l-7.8-24.31-8.02,24.31Z" fill="#fff"/>
  <path d="m345.59,104.79h12.7v25.45l23.87-25.45h16.68l-25.35,25.4,26.65,36.37h-16.6l-19.03-26.96-6.22,6.3v20.66h-12.7v-61.77Z" fill="#fff"/>
  <path d="m429.44,166.56h-12.82v-61.77h12.82v61.77Z" fill="#fff"/>
  <path d="m461.11,147.49c.4,2.82,1.18,4.93,2.35,6.33,2.14,2.54,5.8,3.81,11,3.81,3.11,0,5.63-.33,7.57-1.01,3.68-1.29,5.52-3.67,5.52-7.17,0-2.04-.9-3.62-2.7-4.74-1.8-1.09-4.66-2.05-8.58-2.89l-6.69-1.47c-6.57-1.45-11.09-3.03-13.55-4.74-4.16-2.85-6.24-7.31-6.24-13.37,0-5.53,2.04-10.13,6.11-13.79s10.05-5.49,17.95-5.49c6.59,0,12.21,1.73,16.86,5.18,4.65,3.45,7.09,8.46,7.32,15.02h-12.4c-.23-3.72-1.89-6.36-4.98-7.92-2.06-1.03-4.63-1.55-7.69-1.55-3.41,0-6.13.67-8.16,2.01-2.03,1.34-3.05,3.21-3.05,5.61,0,2.21,1,3.86,3.01,4.95,1.29.73,4.02,1.58,8.21,2.56l10.84,2.56c4.75,1.12,8.31,2.61,10.68,4.48,3.68,2.91,5.52,7.11,5.52,12.61s-2.18,10.33-6.54,14.06c-4.36,3.73-10.53,5.59-18.49,5.59s-14.53-1.84-19.19-5.51c-4.66-3.67-6.99-8.72-6.99-15.15h12.32Z" fill="#fff"/>
</svg>