<?xml version="1.0" encoding="UTF-8"?>
<svg id="Layer_1" data-name="Layer 1" xmlns="http://www.w3.org/2000/svg" viewBox="0 0 106 79.42">
  <path d="m106,22.32v48.65c-.04.05-.1.1-.12.17-1.4,5.61-4.82,8.28-10.61,8.28-28.19,0-56.37,0-84.56,0-.34,0-.69,0-1.03,0C4.12,79.22.02,75.04.01,69.48c-.02-15.46,0-30.91,0-46.37,0-.25.05-.5.08-.81.22.13.34.2.45.27,14.34,9.56,28.68,19.13,43.03,28.69,6.18,4.12,12.68,4.13,18.87,0,14.15-9.42,28.28-18.86,42.42-28.28.37-.24.76-.45,1.14-.67Z"/>
  <path d="m106,11.14c-.38,1.03-.57,2.18-1.17,3.05-.87,1.25-1.87,2.54-3.11,3.37-14.39,9.68-28.82,19.3-43.27,28.88-3.56,2.36-7.33,2.35-10.89,0-14.48-9.6-28.93-19.25-43.38-28.91C.7,15.21-.73,11.2.37,7.19,1.5,3.1,5,.31,9.37.02c.31-.02.62-.02.93-.02,28.46,0,56.93,0,85.39,0,4.71,0,8.4,2.52,9.79,6.68.19.58.35,1.18.52,1.77v2.69Z"/>
</svg>