<svg width="714" height="228" viewBox="0 0 714 228" fill="none" xmlns="http://www.w3.org/2000/svg">
<mask id="path-1-outside-1_473_127" maskUnits="userSpaceOnUse" x="14.0549" y="18.8213" width="696" height="185" fill="black">
<rect fill="white" x="14.0549" y="18.8213" width="696" height="185"/>
<path d="M15.5667 63.8213V20.6377H24.5022V37.1025H41.3772V20.6377H50.342V63.8213H41.3772V44.5439H24.5022V63.8213H15.5667ZM93.9182 28.2842H71.0667V37.4541H92.0432V44.9541H71.0667V56.0576H94.9729V63.8213H62.2483V20.6377H93.9182V28.2842ZM129.643 20.6377H139.867L125.424 47.5908V63.8213H116.401V47.5908L101.459 20.6377H112.094L121.059 39.4463L129.643 20.6377ZM198.045 20.6377V28.2842H185.125V63.8213H176.043V28.2842H163.065V20.6377H198.045ZM206.289 63.8213V20.6377H215.225V37.1025H232.1V20.6377H241.065V63.8213H232.1V44.5439H215.225V63.8213H206.289ZM284.641 28.2842H261.789V37.4541H282.766V44.9541H261.789V56.0576H285.696V63.8213H252.971V20.6377H284.641V28.2842ZM304.75 28.1377V39.7393H314.975C317.006 39.7393 318.53 39.5049 319.545 39.0361C321.342 38.2158 322.24 36.5947 322.24 34.1729C322.24 31.5557 321.371 29.7979 319.633 28.8994C318.656 28.3916 317.192 28.1377 315.239 28.1377H304.75ZM317.114 20.6377C320.141 20.6963 322.465 21.0674 324.086 21.751C325.727 22.4346 327.114 23.4404 328.246 24.7686C329.184 25.8623 329.926 27.0732 330.473 28.4014C331.02 29.7295 331.293 31.2432 331.293 32.9424C331.293 34.9932 330.776 37.0146 329.74 39.0068C328.705 40.9795 326.996 42.376 324.614 43.1963C326.606 43.9971 328.012 45.1396 328.832 46.624C329.672 48.0889 330.092 50.335 330.092 53.3623V56.2627C330.092 58.2354 330.17 59.5732 330.326 60.2764C330.561 61.3896 331.108 62.21 331.967 62.7373V63.8213H322.035C321.762 62.8643 321.567 62.0928 321.449 61.5068C321.215 60.2959 321.088 59.0557 321.069 57.7861L321.01 53.7725C320.971 51.0186 320.463 49.1826 319.487 48.2646C318.53 47.3467 316.723 46.8877 314.067 46.8877H304.75V63.8213H295.932V20.6377H317.114ZM374.02 28.2842H351.168V37.4541H372.145V44.9541H351.168V56.0576H375.074V63.8213H342.35V20.6377H374.02V28.2842ZM383.992 70.7646C385.672 70.2959 386.903 69.5146 387.684 68.4209C388.485 67.3271 388.944 65.7939 389.061 63.8213H383.992V55.0908H393.016V62.6494C393.016 63.9775 392.84 65.3643 392.489 66.8096C392.137 68.2549 391.483 69.5049 390.526 70.5596C389.49 71.6924 388.27 72.542 386.864 73.1084C385.477 73.6943 384.52 73.9873 383.992 73.9873V70.7646ZM36.3479 199.821H18.6775V114.703H36.3479V199.821ZM120.738 114.703V129.775H95.2723V199.821H77.3709V129.775H51.7892V114.703H120.738ZM136.007 141.382C139.779 140.189 142.378 138.167 143.802 135.319C144.572 133.625 144.9 131.912 144.784 130.179H135.718V114.992H152.176V127.176C152.176 132.989 150.751 137.571 147.902 140.92C145.092 144.269 141.127 146.444 136.007 147.445V141.382ZM188.81 173.547C189.349 177.435 190.408 180.342 191.986 182.266C194.873 185.77 199.82 187.521 206.827 187.521C211.023 187.521 214.43 187.059 217.048 186.135C222.014 184.365 224.497 181.073 224.497 176.261C224.497 173.45 223.265 171.275 220.801 169.735C218.338 168.234 214.469 166.906 209.194 165.751L200.186 163.73C191.331 161.728 185.21 159.553 181.823 157.204C176.086 153.278 173.218 147.137 173.218 138.783C173.218 131.161 175.99 124.828 181.534 119.785C187.078 114.742 195.22 112.22 205.961 112.22C214.931 112.22 222.572 114.607 228.886 119.381C235.238 124.116 238.568 131.007 238.876 140.054H221.783C221.475 134.934 219.242 131.296 215.085 129.14C212.313 127.715 208.867 127.003 204.748 127.003C200.167 127.003 196.509 127.927 193.776 129.775C191.043 131.623 189.676 134.202 189.676 137.513C189.676 140.554 191.024 142.826 193.718 144.327C195.451 145.328 199.146 146.502 204.806 147.85L219.473 151.372C225.902 152.912 230.753 154.972 234.025 157.551C239.107 161.555 241.648 167.349 241.648 174.933C241.648 182.709 238.664 189.177 232.697 194.335C226.769 199.456 218.376 202.016 207.52 202.016C196.432 202.016 187.713 199.494 181.361 194.451C175.009 189.369 171.832 182.401 171.832 173.547H188.81ZM362.499 129.775H317.457V147.85H358.804V162.633H317.457V184.518H364.578V199.821H300.076V114.703H362.499V129.775ZM434.186 114.703H452.665L423.618 199.821H406.814L378.056 114.703H397.055L415.534 179.321L434.186 114.703ZM483.64 167.657H505.237L494.612 134.164L483.64 167.657ZM484.737 114.703H504.833L534.976 199.821H515.689L510.203 182.324H478.847L472.957 199.821H454.362L484.737 114.703ZM551.457 114.703H570.109L604.006 174.124V114.703H620.58V199.821H602.794L568.03 139.361V199.821H551.457V114.703ZM656.001 173.547C656.54 177.435 657.599 180.342 659.177 182.266C662.065 185.77 667.012 187.521 674.018 187.521C678.214 187.521 681.622 187.059 684.239 186.135C689.206 184.365 691.689 181.073 691.689 176.261C691.689 173.45 690.457 171.275 687.993 169.735C685.529 168.234 681.66 166.906 676.386 165.751L667.377 163.73C658.523 161.728 652.402 159.553 649.014 157.204C643.278 153.278 640.41 147.137 640.41 138.783C640.41 131.161 643.182 124.828 648.725 119.785C654.269 114.742 662.411 112.22 673.152 112.22C682.122 112.22 689.764 114.607 696.077 119.381C702.429 124.116 705.76 131.007 706.067 140.054H688.975C688.667 134.934 686.434 131.296 682.276 129.14C679.504 127.715 676.059 127.003 671.939 127.003C667.358 127.003 663.701 127.927 660.968 129.775C658.234 131.623 656.868 134.202 656.868 137.513C656.868 140.554 658.215 142.826 660.91 144.327C662.642 145.328 666.338 146.502 671.997 147.85L686.665 151.372C693.094 152.912 697.944 154.972 701.217 157.551C706.298 161.555 708.839 167.349 708.839 174.933C708.839 182.709 705.856 189.177 699.889 194.335C693.96 199.456 685.568 202.016 674.711 202.016C663.624 202.016 654.904 199.494 648.552 194.451C642.2 189.369 639.024 182.401 639.024 173.547H656.001Z"/>
</mask>
<path d="M15.5667 63.8213H14.5667V64.8213H15.5667V63.8213ZM15.5667 20.6377V19.6377H14.5667V20.6377H15.5667ZM24.5022 20.6377H25.5022V19.6377H24.5022V20.6377ZM24.5022 37.1025H23.5022V38.1025H24.5022V37.1025ZM41.3772 37.1025V38.1025H42.3772V37.1025H41.3772ZM41.3772 20.6377V19.6377H40.3772V20.6377H41.3772ZM50.342 20.6377H51.342V19.6377H50.342V20.6377ZM50.342 63.8213V64.8213H51.342V63.8213H50.342ZM41.3772 63.8213H40.3772V64.8213H41.3772V63.8213ZM41.3772 44.5439H42.3772V43.5439H41.3772V44.5439ZM24.5022 44.5439V43.5439H23.5022V44.5439H24.5022ZM24.5022 63.8213V64.8213H25.5022V63.8213H24.5022ZM16.5667 63.8213V20.6377H14.5667V63.8213H16.5667ZM15.5667 21.6377H24.5022V19.6377H15.5667V21.6377ZM23.5022 20.6377V37.1025H25.5022V20.6377H23.5022ZM24.5022 38.1025H41.3772V36.1025H24.5022V38.1025ZM42.3772 37.1025V20.6377H40.3772V37.1025H42.3772ZM41.3772 21.6377H50.342V19.6377H41.3772V21.6377ZM49.342 20.6377V63.8213H51.342V20.6377H49.342ZM50.342 62.8213H41.3772V64.8213H50.342V62.8213ZM42.3772 63.8213V44.5439H40.3772V63.8213H42.3772ZM41.3772 43.5439H24.5022V45.5439H41.3772V43.5439ZM23.5022 44.5439V63.8213H25.5022V44.5439H23.5022ZM24.5022 62.8213H15.5667V64.8213H24.5022V62.8213ZM93.9182 28.2842V29.2842H94.9182V28.2842H93.9182ZM71.0667 28.2842V27.2842H70.0667V28.2842H71.0667ZM71.0667 37.4541H70.0667V38.4541H71.0667V37.4541ZM92.0432 37.4541H93.0432V36.4541H92.0432V37.4541ZM92.0432 44.9541V45.9541H93.0432V44.9541H92.0432ZM71.0667 44.9541V43.9541H70.0667V44.9541H71.0667ZM71.0667 56.0576H70.0667V57.0576H71.0667V56.0576ZM94.9729 56.0576H95.9729V55.0576H94.9729V56.0576ZM94.9729 63.8213V64.8213H95.9729V63.8213H94.9729ZM62.2483 63.8213H61.2483V64.8213H62.2483V63.8213ZM62.2483 20.6377V19.6377H61.2483V20.6377H62.2483ZM93.9182 20.6377H94.9182V19.6377H93.9182V20.6377ZM93.9182 27.2842H71.0667V29.2842H93.9182V27.2842ZM70.0667 28.2842V37.4541H72.0667V28.2842H70.0667ZM71.0667 38.4541H92.0432V36.4541H71.0667V38.4541ZM91.0432 37.4541V44.9541H93.0432V37.4541H91.0432ZM92.0432 43.9541H71.0667V45.9541H92.0432V43.9541ZM70.0667 44.9541V56.0576H72.0667V44.9541H70.0667ZM71.0667 57.0576H94.9729V55.0576H71.0667V57.0576ZM93.9729 56.0576V63.8213H95.9729V56.0576H93.9729ZM94.9729 62.8213H62.2483V64.8213H94.9729V62.8213ZM63.2483 63.8213V20.6377H61.2483V63.8213H63.2483ZM62.2483 21.6377H93.9182V19.6377H62.2483V21.6377ZM92.9182 20.6377V28.2842H94.9182V20.6377H92.9182ZM129.643 20.6377V19.6377H129L128.733 20.2225L129.643 20.6377ZM139.867 20.6377L140.749 21.11L141.538 19.6377H139.867V20.6377ZM125.424 47.5908L124.543 47.1185L124.424 47.3398V47.5908H125.424ZM125.424 63.8213V64.8213H126.424V63.8213H125.424ZM116.401 63.8213H115.401V64.8213H116.401V63.8213ZM116.401 47.5908H117.401V47.3322L117.275 47.106L116.401 47.5908ZM101.459 20.6377V19.6377H99.7615L100.585 21.1225L101.459 20.6377ZM112.094 20.6377L112.997 20.2074L112.725 19.6377H112.094V20.6377ZM121.059 39.4463L120.156 39.8766L121.079 41.8117L121.969 39.8615L121.059 39.4463ZM129.643 21.6377H139.867V19.6377H129.643V21.6377ZM138.986 20.1654L124.543 47.1185L126.305 48.0631L140.749 21.11L138.986 20.1654ZM124.424 47.5908V63.8213H126.424V47.5908H124.424ZM125.424 62.8213H116.401V64.8213H125.424V62.8213ZM117.401 63.8213V47.5908H115.401V63.8213H117.401ZM117.275 47.106L102.334 20.1529L100.585 21.1225L115.526 48.0757L117.275 47.106ZM101.459 21.6377H112.094V19.6377H101.459V21.6377ZM111.191 21.068L120.156 39.8766L121.962 39.016L112.997 20.2074L111.191 21.068ZM121.969 39.8615L130.553 21.0529L128.733 20.2225L120.149 39.0311L121.969 39.8615ZM198.045 20.6377H199.045V19.6377H198.045V20.6377ZM198.045 28.2842V29.2842H199.045V28.2842H198.045ZM185.125 28.2842V27.2842H184.125V28.2842H185.125ZM185.125 63.8213V64.8213H186.125V63.8213H185.125ZM176.043 63.8213H175.043V64.8213H176.043V63.8213ZM176.043 28.2842H177.043V27.2842H176.043V28.2842ZM163.065 28.2842H162.065V29.2842H163.065V28.2842ZM163.065 20.6377V19.6377H162.065V20.6377H163.065ZM197.045 20.6377V28.2842H199.045V20.6377H197.045ZM198.045 27.2842H185.125V29.2842H198.045V27.2842ZM184.125 28.2842V63.8213H186.125V28.2842H184.125ZM185.125 62.8213H176.043V64.8213H185.125V62.8213ZM177.043 63.8213V28.2842H175.043V63.8213H177.043ZM176.043 27.2842H163.065V29.2842H176.043V27.2842ZM164.065 28.2842V20.6377H162.065V28.2842H164.065ZM163.065 21.6377H198.045V19.6377H163.065V21.6377ZM206.289 63.8213H205.289V64.8213H206.289V63.8213ZM206.289 20.6377V19.6377H205.289V20.6377H206.289ZM215.225 20.6377H216.225V19.6377H215.225V20.6377ZM215.225 37.1025H214.225V38.1025H215.225V37.1025ZM232.1 37.1025V38.1025H233.1V37.1025H232.1ZM232.1 20.6377V19.6377H231.1V20.6377H232.1ZM241.065 20.6377H242.065V19.6377H241.065V20.6377ZM241.065 63.8213V64.8213H242.065V63.8213H241.065ZM232.1 63.8213H231.1V64.8213H232.1V63.8213ZM232.1 44.5439H233.1V43.5439H232.1V44.5439ZM215.225 44.5439V43.5439H214.225V44.5439H215.225ZM215.225 63.8213V64.8213H216.225V63.8213H215.225ZM207.289 63.8213V20.6377H205.289V63.8213H207.289ZM206.289 21.6377H215.225V19.6377H206.289V21.6377ZM214.225 20.6377V37.1025H216.225V20.6377H214.225ZM215.225 38.1025H232.1V36.1025H215.225V38.1025ZM233.1 37.1025V20.6377H231.1V37.1025H233.1ZM232.1 21.6377H241.065V19.6377H232.1V21.6377ZM240.065 20.6377V63.8213H242.065V20.6377H240.065ZM241.065 62.8213H232.1V64.8213H241.065V62.8213ZM233.1 63.8213V44.5439H231.1V63.8213H233.1ZM232.1 43.5439H215.225V45.5439H232.1V43.5439ZM214.225 44.5439V63.8213H216.225V44.5439H214.225ZM215.225 62.8213H206.289V64.8213H215.225V62.8213ZM284.641 28.2842V29.2842H285.641V28.2842H284.641ZM261.789 28.2842V27.2842H260.789V28.2842H261.789ZM261.789 37.4541H260.789V38.4541H261.789V37.4541ZM282.766 37.4541H283.766V36.4541H282.766V37.4541ZM282.766 44.9541V45.9541H283.766V44.9541H282.766ZM261.789 44.9541V43.9541H260.789V44.9541H261.789ZM261.789 56.0576H260.789V57.0576H261.789V56.0576ZM285.696 56.0576H286.696V55.0576H285.696V56.0576ZM285.696 63.8213V64.8213H286.696V63.8213H285.696ZM252.971 63.8213H251.971V64.8213H252.971V63.8213ZM252.971 20.6377V19.6377H251.971V20.6377H252.971ZM284.641 20.6377H285.641V19.6377H284.641V20.6377ZM284.641 27.2842H261.789V29.2842H284.641V27.2842ZM260.789 28.2842V37.4541H262.789V28.2842H260.789ZM261.789 38.4541H282.766V36.4541H261.789V38.4541ZM281.766 37.4541V44.9541H283.766V37.4541H281.766ZM282.766 43.9541H261.789V45.9541H282.766V43.9541ZM260.789 44.9541V56.0576H262.789V44.9541H260.789ZM261.789 57.0576H285.696V55.0576H261.789V57.0576ZM284.696 56.0576V63.8213H286.696V56.0576H284.696ZM285.696 62.8213H252.971V64.8213H285.696V62.8213ZM253.971 63.8213V20.6377H251.971V63.8213H253.971ZM252.971 21.6377H284.641V19.6377H252.971V21.6377ZM283.641 20.6377V28.2842H285.641V20.6377H283.641ZM304.75 28.1377V27.1377H303.75V28.1377H304.75ZM304.75 39.7393H303.75V40.7393H304.75V39.7393ZM319.545 39.0361L319.13 38.1264L319.126 38.1282L319.545 39.0361ZM319.633 28.8994L319.172 29.7866L319.174 29.7878L319.633 28.8994ZM317.114 20.6377L317.133 19.6379L317.123 19.6377H317.114V20.6377ZM324.086 21.751L323.698 22.6724L323.702 22.6741L324.086 21.751ZM328.246 24.7686L327.486 25.4175L327.487 25.4193L328.246 24.7686ZM329.74 39.0068L330.626 39.4715L330.628 39.4679L329.74 39.0068ZM324.614 43.1963L324.288 42.2508L321.752 43.1238L324.241 44.1241L324.614 43.1963ZM328.832 46.624L327.957 47.1077L327.961 47.1146L327.965 47.1214L328.832 46.624ZM330.326 60.2764L331.305 60.0703L331.303 60.0594L330.326 60.2764ZM331.967 62.7373H332.967V62.1777L332.49 61.885L331.967 62.7373ZM331.967 63.8213V64.8213H332.967V63.8213H331.967ZM322.035 63.8213L321.074 64.096L321.281 64.8213H322.035V63.8213ZM321.449 61.5068L320.468 61.6969L320.469 61.703L321.449 61.5068ZM321.069 57.7861L320.069 57.8007L320.069 57.8015L321.069 57.7861ZM321.01 53.7725L320.01 53.7866V53.7871L321.01 53.7725ZM319.487 48.2646L318.794 48.9864L318.802 48.9933L319.487 48.2646ZM304.75 46.8877V45.8877H303.75V46.8877H304.75ZM304.75 63.8213V64.8213H305.75V63.8213H304.75ZM295.932 63.8213H294.932V64.8213H295.932V63.8213ZM295.932 20.6377V19.6377H294.932V20.6377H295.932ZM303.75 28.1377V39.7393H305.75V28.1377H303.75ZM304.75 40.7393H314.975V38.7393H304.75V40.7393ZM314.975 40.7393C317.052 40.7393 318.75 40.5046 319.964 39.9441L319.126 38.1282C318.309 38.5052 316.961 38.7393 314.975 38.7393V40.7393ZM319.96 39.9458C321.04 39.453 321.881 38.7002 322.441 37.6898C322.994 36.6923 323.24 35.5029 323.24 34.1729H321.24C321.24 35.2647 321.038 36.0968 320.692 36.7203C320.354 37.3311 319.847 37.7989 319.13 38.1264L319.96 39.9458ZM323.24 34.1729C323.24 31.3283 322.275 29.1394 320.092 28.0111L319.174 29.7878C320.467 30.4563 321.24 31.7831 321.24 34.1729H323.24ZM320.094 28.0122C318.904 27.3932 317.246 27.1377 315.239 27.1377V29.1377C317.138 29.1377 318.409 29.39 319.172 29.7866L320.094 28.0122ZM315.239 27.1377H304.75V29.1377H315.239V27.1377ZM317.094 21.6375C320.073 21.6952 322.249 22.0614 323.698 22.6724L324.475 20.8296C322.681 20.0734 320.209 19.6974 317.133 19.6379L317.094 21.6375ZM323.702 22.6741C325.2 23.2983 326.457 24.2113 327.486 25.4175L329.007 24.1196C327.77 22.6695 326.254 21.5709 324.471 20.8279L323.702 22.6741ZM327.487 25.4193C328.356 26.4327 329.042 27.5525 329.548 28.7821L331.398 28.0206C330.81 26.594 330.012 25.2919 329.006 24.1178L327.487 25.4193ZM329.548 28.7821C330.037 29.9695 330.293 31.3503 330.293 32.9424H332.293C332.293 31.136 332.002 29.4895 331.398 28.0206L329.548 28.7821ZM330.293 32.9424C330.293 34.8178 329.821 36.6822 328.853 38.5458L330.628 39.4679C331.73 37.3471 332.293 35.1685 332.293 32.9424H330.293ZM328.855 38.5422C327.954 40.2589 326.464 41.5017 324.288 42.2508L324.939 44.1418C327.529 43.2503 329.457 41.7001 330.626 39.4715L328.855 38.5422ZM324.241 44.1241C326.077 44.8624 327.275 45.8734 327.957 47.1077L329.708 46.1403C328.749 44.4059 327.134 43.1317 324.986 42.2684L324.241 44.1241ZM327.965 47.1214C328.673 48.3574 329.092 50.3907 329.092 53.3623H331.092C331.092 50.2792 330.671 47.8203 329.7 46.1266L327.965 47.1214ZM329.092 53.3623V56.2627H331.092V53.3623H329.092ZM329.092 56.2627C329.092 58.224 329.167 59.6677 329.35 60.4933L331.303 60.0594C331.174 59.4788 331.092 58.2467 331.092 56.2627H329.092ZM329.348 60.4824C329.631 61.8266 330.319 62.8995 331.444 63.5896L332.49 61.885C331.896 61.5205 331.491 60.9527 331.305 60.0704L329.348 60.4824ZM330.967 62.7373V63.8213H332.967V62.7373H330.967ZM331.967 62.8213H322.035V64.8213H331.967V62.8213ZM322.997 63.5466C322.727 62.6009 322.54 61.8586 322.43 61.3107L320.469 61.703C320.594 62.3269 320.797 63.1276 321.074 64.096L322.997 63.5466ZM322.431 61.3168C322.208 60.1651 322.087 58.9834 322.068 57.7707L320.069 57.8015C320.089 59.128 320.222 60.4267 320.468 61.6969L322.431 61.3168ZM322.069 57.7715L322.01 53.7579L320.01 53.7871L320.069 57.8007L322.069 57.7715ZM322.01 53.7583C321.99 52.3304 321.848 51.0913 321.564 50.0635C321.28 49.0395 320.838 48.1627 320.171 47.536L318.802 48.9933C319.112 49.2845 319.411 49.7847 319.636 50.5967C319.86 51.4048 319.991 52.4607 320.01 53.7866L322.01 53.7583ZM320.179 47.543C318.92 46.336 316.758 45.8877 314.067 45.8877V47.8877C316.688 47.8877 318.139 48.3573 318.794 48.9863L320.179 47.543ZM314.067 45.8877H304.75V47.8877H314.067V45.8877ZM303.75 46.8877V63.8213H305.75V46.8877H303.75ZM304.75 62.8213H295.932V64.8213H304.75V62.8213ZM296.932 63.8213V20.6377H294.932V63.8213H296.932ZM295.932 21.6377H317.114V19.6377H295.932V21.6377ZM374.02 28.2842V29.2842H375.02V28.2842H374.02ZM351.168 28.2842V27.2842H350.168V28.2842H351.168ZM351.168 37.4541H350.168V38.4541H351.168V37.4541ZM372.145 37.4541H373.145V36.4541H372.145V37.4541ZM372.145 44.9541V45.9541H373.145V44.9541H372.145ZM351.168 44.9541V43.9541H350.168V44.9541H351.168ZM351.168 56.0576H350.168V57.0576H351.168V56.0576ZM375.074 56.0576H376.074V55.0576H375.074V56.0576ZM375.074 63.8213V64.8213H376.074V63.8213H375.074ZM342.35 63.8213H341.35V64.8213H342.35V63.8213ZM342.35 20.6377V19.6377H341.35V20.6377H342.35ZM374.02 20.6377H375.02V19.6377H374.02V20.6377ZM374.02 27.2842H351.168V29.2842H374.02V27.2842ZM350.168 28.2842V37.4541H352.168V28.2842H350.168ZM351.168 38.4541H372.145V36.4541H351.168V38.4541ZM371.145 37.4541V44.9541H373.145V37.4541H371.145ZM372.145 43.9541H351.168V45.9541H372.145V43.9541ZM350.168 44.9541V56.0576H352.168V44.9541H350.168ZM351.168 57.0576H375.074V55.0576H351.168V57.0576ZM374.074 56.0576V63.8213H376.074V56.0576H374.074ZM375.074 62.8213H342.35V64.8213H375.074V62.8213ZM343.35 63.8213V20.6377H341.35V63.8213H343.35ZM342.35 21.6377H374.02V19.6377H342.35V21.6377ZM373.02 20.6377V28.2842H375.02V20.6377H373.02ZM383.992 70.7646L383.724 69.8015L382.992 70.0055V70.7646H383.992ZM387.684 68.4209L386.877 67.8301L386.87 67.8397L387.684 68.4209ZM389.061 63.8213L390.059 63.8806L390.122 62.8213H389.061V63.8213ZM383.992 63.8213H382.992V64.8213H383.992V63.8213ZM383.992 55.0908V54.0908H382.992V55.0908H383.992ZM393.016 55.0908H394.016V54.0908H393.016V55.0908ZM390.526 70.5596L391.264 71.2341L391.266 71.2316L390.526 70.5596ZM386.864 73.1084L386.49 72.1808L386.482 72.184L386.474 72.1873L386.864 73.1084ZM383.992 73.9873H382.992V74.9873H383.992V73.9873ZM384.261 71.7278C386.095 71.2162 387.549 70.3308 388.498 69.0021L386.87 67.8397C386.257 68.6985 385.25 69.3756 383.724 69.8015L384.261 71.7278ZM388.491 69.0116C389.446 67.7071 389.935 65.9621 390.059 63.8806L388.063 63.762C387.952 65.6258 387.523 66.9472 386.877 67.8302L388.491 69.0116ZM389.061 62.8213H383.992V64.8213H389.061V62.8213ZM384.992 63.8213V55.0908H382.992V63.8213H384.992ZM383.992 56.0908H393.016V54.0908H383.992V56.0908ZM392.016 55.0908V62.6494H394.016V55.0908H392.016ZM392.016 62.6494C392.016 63.8891 391.852 65.1962 391.517 66.5732L393.46 67.0459C393.828 65.5323 394.016 64.066 394.016 62.6494H392.016ZM391.517 66.5732C391.203 67.8638 390.625 68.9621 389.785 69.8876L391.266 71.2316C392.34 70.0477 393.071 68.646 393.46 67.0459L391.517 66.5732ZM389.787 69.885C388.852 70.9086 387.755 71.6711 386.49 72.1808L387.237 74.036C388.784 73.4129 390.129 72.4761 391.264 71.2341L389.787 69.885ZM386.474 72.1873C385.798 72.4728 385.247 72.6786 384.813 72.8114C384.36 72.9499 384.104 72.9873 383.992 72.9873V74.9873C384.408 74.9873 384.894 74.8782 385.398 74.7238C385.922 74.5636 386.542 74.3299 387.253 74.0295L386.474 72.1873ZM384.992 73.9873V70.7646H382.992V73.9873H384.992ZM36.3479 199.821V200.821H37.3479V199.821H36.3479ZM18.6775 199.821H17.6775V200.821H18.6775V199.821ZM18.6775 114.703V113.703H17.6775V114.703H18.6775ZM36.3479 114.703H37.3479V113.703H36.3479V114.703ZM36.3479 198.821H18.6775V200.821H36.3479V198.821ZM19.6775 199.821V114.703H17.6775V199.821H19.6775ZM18.6775 115.703H36.3479V113.703H18.6775V115.703ZM35.3479 114.703V199.821H37.3479V114.703H35.3479ZM120.738 114.703H121.738V113.703H120.738V114.703ZM120.738 129.775V130.775H121.738V129.775H120.738ZM95.2723 129.775V128.775H94.2723V129.775H95.2723ZM95.2723 199.821V200.821H96.2723V199.821H95.2723ZM77.3709 199.821H76.3709V200.821H77.3709V199.821ZM77.3709 129.775H78.3709V128.775H77.3709V129.775ZM51.7892 129.775H50.7892V130.775H51.7892V129.775ZM51.7892 114.703V113.703H50.7892V114.703H51.7892ZM119.738 114.703V129.775H121.738V114.703H119.738ZM120.738 128.775H95.2723V130.775H120.738V128.775ZM94.2723 129.775V199.821H96.2723V129.775H94.2723ZM95.2723 198.821H77.3709V200.821H95.2723V198.821ZM78.3709 199.821V129.775H76.3709V199.821H78.3709ZM77.3709 128.775H51.7892V130.775H77.3709V128.775ZM52.7892 129.775V114.703H50.7892V129.775H52.7892ZM51.7892 115.703H120.738V113.703H51.7892V115.703ZM136.007 141.382L135.705 140.428L135.007 140.649V141.382H136.007ZM143.802 135.319L144.697 135.766L144.705 135.749L144.713 135.732L143.802 135.319ZM144.784 130.179L145.782 130.113L145.72 129.179H144.784V130.179ZM135.718 130.179H134.718V131.179H135.718V130.179ZM135.718 114.992V113.992H134.718V114.992H135.718ZM152.176 114.992H153.176V113.992H152.176V114.992ZM147.902 140.92L147.141 140.272L147.136 140.277L147.902 140.92ZM136.007 147.445H135.007V148.66L136.198 148.427L136.007 147.445ZM136.308 142.335C140.272 141.081 143.123 138.913 144.697 135.766L142.908 134.871C141.632 137.422 139.286 139.296 135.705 140.428L136.308 142.335ZM144.713 135.732C145.546 133.899 145.909 132.022 145.782 130.113L143.786 130.246C143.89 131.801 143.599 133.35 142.892 134.905L144.713 135.732ZM144.784 129.179H135.718V131.179H144.784V129.179ZM136.718 130.179V114.992H134.718V130.179H136.718ZM135.718 115.992H152.176V113.992H135.718V115.992ZM151.176 114.992V127.176H153.176V114.992H151.176ZM151.176 127.176C151.176 132.829 149.792 137.155 147.141 140.272L148.664 141.568C151.71 137.986 153.176 133.149 153.176 127.176H151.176ZM147.136 140.277C144.5 143.419 140.756 145.498 135.815 146.464L136.198 148.427C141.498 147.391 145.684 145.12 148.668 141.563L147.136 140.277ZM137.007 147.445V141.382H135.007V147.445H137.007ZM188.81 173.547L189.8 173.409L189.681 172.547H188.81V173.547ZM191.986 182.266L191.213 182.9L191.214 182.902L191.986 182.266ZM217.048 186.135L217.381 187.078L217.384 187.077L217.048 186.135ZM220.801 169.735L221.331 168.887L221.322 168.881L220.801 169.735ZM209.194 165.751L208.975 166.727L208.98 166.728L209.194 165.751ZM200.186 163.73L199.965 164.705L199.967 164.706L200.186 163.73ZM181.823 157.204L182.392 156.383L182.387 156.379L181.823 157.204ZM228.886 119.381L228.283 120.178L228.288 120.182L228.886 119.381ZM238.876 140.054V141.054H239.911L239.875 140.02L238.876 140.054ZM221.783 140.054L220.785 140.114L220.841 141.054H221.783V140.054ZM215.085 129.14L215.545 128.252L215.542 128.25L215.085 129.14ZM193.776 129.775L193.216 128.946L193.776 129.775ZM193.718 144.327L194.219 143.461L194.212 143.457L194.205 143.453L193.718 144.327ZM204.806 147.85L205.039 146.877L205.037 146.877L204.806 147.85ZM219.473 151.372L219.24 152.344L219.24 152.345L219.473 151.372ZM234.025 157.551L233.406 158.336L233.406 158.336L234.025 157.551ZM232.697 194.335L233.351 195.092L233.351 195.092L232.697 194.335ZM181.361 194.451L180.736 195.232L180.739 195.234L181.361 194.451ZM171.832 173.547V172.547H170.832V173.547H171.832ZM187.819 173.684C188.37 177.659 189.468 180.773 191.213 182.9L192.759 181.632C191.347 179.91 190.327 177.211 189.8 173.409L187.819 173.684ZM191.214 182.902C194.376 186.738 199.685 188.521 206.827 188.521V186.521C199.955 186.521 195.371 184.801 192.758 181.63L191.214 182.902ZM206.827 188.521C211.084 188.521 214.616 188.054 217.381 187.078L216.715 185.192C214.244 186.065 210.962 186.521 206.827 186.521V188.521ZM217.384 187.077C220 186.144 222.045 184.781 223.433 182.941C224.827 181.094 225.497 178.846 225.497 176.261H223.497C223.497 178.487 222.926 180.292 221.837 181.736C220.741 183.188 219.062 184.355 216.712 185.193L217.384 187.077ZM225.497 176.261C225.497 173.092 224.076 170.603 221.331 168.887L220.271 170.583C222.455 171.948 223.497 173.809 223.497 176.261H225.497ZM221.322 168.881C218.714 167.292 214.714 165.936 209.408 164.774L208.98 166.728C214.224 167.876 217.962 169.176 220.281 170.589L221.322 168.881ZM209.413 164.775L200.405 162.754L199.967 164.706L208.975 166.727L209.413 164.775ZM200.406 162.754C191.563 160.755 185.609 158.612 182.392 156.383L181.253 158.026C184.812 160.493 191.1 162.701 199.965 164.705L200.406 162.754ZM182.387 156.379C176.981 152.678 174.218 146.883 174.218 138.783H172.218C172.218 147.391 175.192 153.877 181.258 158.03L182.387 156.379ZM174.218 138.783C174.218 131.437 176.875 125.375 182.207 120.524L180.861 119.045C175.105 124.281 172.218 130.885 172.218 138.783H174.218ZM182.207 120.524C187.5 115.709 195.362 113.22 205.961 113.22V111.22C195.078 111.22 186.655 113.774 180.861 119.045L182.207 120.524ZM205.961 113.22C214.743 113.22 222.166 115.553 228.283 120.178L229.489 118.583C222.979 113.661 215.118 111.22 205.961 111.22V113.22ZM228.288 120.182C234.36 124.709 237.577 131.296 237.877 140.088L239.875 140.02C239.559 130.718 236.116 123.523 229.484 118.579L228.288 120.182ZM238.876 139.054H221.783V141.054H238.876V139.054ZM222.781 139.994C222.455 134.563 220.049 130.588 215.545 128.252L214.624 130.027C218.435 132.004 220.496 135.305 220.785 140.114L222.781 139.994ZM215.542 128.25C212.59 126.734 208.977 126.003 204.748 126.003V128.003C208.757 128.003 212.035 128.697 214.627 130.029L215.542 128.25ZM204.748 126.003C200.042 126.003 196.168 126.951 193.216 128.946L194.336 130.603C196.851 128.903 200.291 128.003 204.748 128.003V126.003ZM193.216 128.946C190.206 130.981 188.676 133.871 188.676 137.513H190.676C190.676 134.533 191.879 132.264 194.336 130.603L193.216 128.946ZM188.676 137.513C188.676 139.185 189.048 140.695 189.827 142.008C190.605 143.319 191.756 144.378 193.232 145.201L194.205 143.453C192.986 142.774 192.116 141.947 191.547 140.987C190.978 140.028 190.676 138.882 190.676 137.513H188.676ZM193.218 145.193C195.097 146.279 198.937 147.48 204.574 148.822L205.037 146.877C199.356 145.524 195.804 144.377 194.219 143.461L193.218 145.193ZM204.572 148.822L219.24 152.344L219.707 150.4L205.039 146.877L204.572 148.822ZM219.24 152.345C225.602 153.868 230.295 155.884 233.406 158.336L234.644 156.766C231.211 154.059 226.202 151.956 219.706 150.4L219.24 152.345ZM233.406 158.336C238.204 162.117 240.648 167.596 240.648 174.933H242.648C242.648 167.101 240.01 160.993 234.644 156.765L233.406 158.336ZM240.648 174.933C240.648 182.414 237.794 188.607 232.043 193.579L233.351 195.092C239.534 189.746 242.648 183.004 242.648 174.933H240.648ZM232.044 193.579C226.356 198.491 218.228 201.016 207.52 201.016V203.016C218.524 203.016 227.181 200.421 233.351 195.092L232.044 193.579ZM207.52 201.016C196.576 201.016 188.103 198.527 181.982 193.668L180.739 195.234C187.323 200.461 196.289 203.016 207.52 203.016V201.016ZM181.985 193.67C175.893 188.797 172.832 182.128 172.832 173.547H170.832C170.832 182.674 174.124 189.942 180.736 195.232L181.985 193.67ZM171.832 174.547H188.81V172.547H171.832V174.547ZM362.499 129.775V130.775H363.499V129.775H362.499ZM317.457 129.775V128.775H316.457V129.775H317.457ZM317.457 147.85H316.457V148.85H317.457V147.85ZM358.804 147.85H359.804V146.85H358.804V147.85ZM358.804 162.633V163.633H359.804V162.633H358.804ZM317.457 162.633V161.633H316.457V162.633H317.457ZM317.457 184.518H316.457V185.518H317.457V184.518ZM364.578 184.518H365.578V183.518H364.578V184.518ZM364.578 199.821V200.821H365.578V199.821H364.578ZM300.076 199.821H299.076V200.821H300.076V199.821ZM300.076 114.703V113.703H299.076V114.703H300.076ZM362.499 114.703H363.499V113.703H362.499V114.703ZM362.499 128.775H317.457V130.775H362.499V128.775ZM316.457 129.775V147.85H318.457V129.775H316.457ZM317.457 148.85H358.804V146.85H317.457V148.85ZM357.804 147.85V162.633H359.804V147.85H357.804ZM358.804 161.633H317.457V163.633H358.804V161.633ZM316.457 162.633V184.518H318.457V162.633H316.457ZM317.457 185.518H364.578V183.518H317.457V185.518ZM363.578 184.518V199.821H365.578V184.518H363.578ZM364.578 198.821H300.076V200.821H364.578V198.821ZM301.076 199.821V114.703H299.076V199.821H301.076ZM300.076 115.703H362.499V113.703H300.076V115.703ZM361.499 114.703V129.775H363.499V114.703H361.499ZM434.186 114.703V113.703H433.434L433.225 114.426L434.186 114.703ZM452.665 114.703L453.611 115.026L454.063 113.703H452.665V114.703ZM423.618 199.821V200.821H424.334L424.565 200.144L423.618 199.821ZM406.814 199.821L405.867 200.141L406.096 200.821H406.814V199.821ZM378.056 114.703V113.703H376.663L377.109 115.023L378.056 114.703ZM397.055 114.703L398.016 114.428L397.809 113.703H397.055V114.703ZM415.534 179.321L414.572 179.596L415.529 182.943L416.495 179.599L415.534 179.321ZM434.186 115.703H452.665V113.703H434.186V115.703ZM451.718 114.38L422.672 199.498L424.565 200.144L453.611 115.026L451.718 114.38ZM423.618 198.821H406.814V200.821H423.618V198.821ZM407.761 199.501L379.004 114.383L377.109 115.023L405.867 200.141L407.761 199.501ZM378.056 115.703H397.055V113.703H378.056V115.703ZM396.093 114.978L414.572 179.596L416.495 179.046L398.016 114.428L396.093 114.978ZM416.495 179.599L435.147 114.98L433.225 114.426L414.573 179.044L416.495 179.599ZM483.64 167.657L482.69 167.345L482.26 168.657H483.64V167.657ZM505.237 167.657V168.657H506.603L506.19 167.354L505.237 167.657ZM494.612 134.164L495.565 133.861L494.627 130.905L493.661 133.852L494.612 134.164ZM484.737 114.703V113.703H484.032L483.795 114.367L484.737 114.703ZM504.833 114.703L505.775 114.369L505.54 113.703H504.833V114.703ZM534.976 199.821V200.821H536.391L535.919 199.487L534.976 199.821ZM515.689 199.821L514.735 200.12L514.955 200.821H515.689V199.821ZM510.203 182.324L511.157 182.025L510.938 181.324H510.203V182.324ZM478.847 182.324V181.324H478.128L477.899 182.005L478.847 182.324ZM472.957 199.821V200.821H473.675L473.905 200.14L472.957 199.821ZM454.362 199.821L453.421 199.485L452.944 200.821H454.362V199.821ZM483.64 168.657H505.237V166.657H483.64V168.657ZM506.19 167.354L495.565 133.861L493.659 134.466L504.284 167.959L506.19 167.354ZM493.661 133.852L482.69 167.345L484.59 167.968L495.562 134.475L493.661 133.852ZM484.737 115.703H504.833V113.703H484.737V115.703ZM503.89 115.037L534.034 200.155L535.919 199.487L505.775 114.369L503.89 115.037ZM534.976 198.821H515.689V200.821H534.976V198.821ZM516.643 199.522L511.157 182.025L509.249 182.623L514.735 200.12L516.643 199.522ZM510.203 181.324H478.847V183.324H510.203V181.324ZM477.899 182.005L472.009 199.502L473.905 200.14L479.795 182.643L477.899 182.005ZM472.957 198.821H454.362V200.821H472.957V198.821ZM455.304 200.157L485.679 115.039L483.795 114.367L453.421 199.485L455.304 200.157ZM551.457 114.703V113.703H550.457V114.703H551.457ZM570.109 114.703L570.978 114.208L570.69 113.703H570.109V114.703ZM604.006 174.124L603.138 174.62L605.006 177.895V174.124H604.006ZM604.006 114.703V113.703H603.006V114.703H604.006ZM620.58 114.703H621.58V113.703H620.58V114.703ZM620.58 199.821V200.821H621.58V199.821H620.58ZM602.794 199.821L601.927 200.32L602.215 200.821H602.794V199.821ZM568.03 139.361L568.897 138.862L567.03 135.615V139.361H568.03ZM568.03 199.821V200.821H569.03V199.821H568.03ZM551.457 199.821H550.457V200.821H551.457V199.821ZM551.457 115.703H570.109V113.703H551.457V115.703ZM569.241 115.199L603.138 174.62L604.875 173.629L570.978 114.208L569.241 115.199ZM605.006 174.124V114.703H603.006V174.124H605.006ZM604.006 115.703H620.58V113.703H604.006V115.703ZM619.58 114.703V199.821H621.58V114.703H619.58ZM620.58 198.821H602.794V200.821H620.58V198.821ZM603.661 199.323L568.897 138.862L567.164 139.859L601.927 200.32L603.661 199.323ZM567.03 139.361V199.821H569.03V139.361H567.03ZM568.03 198.821H551.457V200.821H568.03V198.821ZM552.457 199.821V114.703H550.457V199.821H552.457ZM656.001 173.547L656.992 173.409L656.872 172.547H656.001V173.547ZM659.177 182.266L658.404 182.9L658.406 182.902L659.177 182.266ZM684.239 186.135L684.572 187.078L684.575 187.077L684.239 186.135ZM687.993 169.735L688.523 168.887L688.513 168.881L687.993 169.735ZM676.386 165.751L676.167 166.727L676.172 166.728L676.386 165.751ZM667.377 163.73L667.157 164.705L667.159 164.706L667.377 163.73ZM649.014 157.204L649.584 156.383L649.579 156.379L649.014 157.204ZM696.077 119.381L695.474 120.178L695.48 120.182L696.077 119.381ZM706.068 140.054V141.054H707.102L707.067 140.02L706.068 140.054ZM688.975 140.054L687.976 140.114L688.033 141.054H688.975V140.054ZM682.276 129.14L682.736 128.252L682.733 128.25L682.276 129.14ZM660.968 129.775L660.407 128.946L660.968 129.775ZM660.91 144.327L661.41 143.461L661.403 143.457L661.396 143.453L660.91 144.327ZM671.997 147.85L672.231 146.877L672.229 146.877L671.997 147.85ZM686.665 151.372L686.431 152.344L686.432 152.345L686.665 151.372ZM701.217 157.551L700.598 158.336L700.598 158.336L701.217 157.551ZM699.889 194.335L700.542 195.092L700.543 195.092L699.889 194.335ZM648.552 194.451L647.927 195.232L647.93 195.234L648.552 194.451ZM639.024 173.547V172.547H638.024V173.547H639.024ZM655.011 173.684C655.562 177.659 656.66 180.773 658.404 182.9L659.951 181.632C658.538 179.91 657.519 177.211 656.992 173.409L655.011 173.684ZM658.406 182.902C661.567 186.738 666.877 188.521 674.018 188.521V186.521C667.147 186.521 662.562 184.801 659.949 181.63L658.406 182.902ZM674.018 188.521C678.276 188.521 681.807 188.054 684.572 187.078L683.907 185.192C681.436 186.065 678.153 186.521 674.018 186.521V188.521ZM684.575 187.077C687.191 186.144 689.237 184.781 690.625 182.941C692.018 181.094 692.689 178.846 692.689 176.261H690.689C690.689 178.487 690.118 180.292 689.028 181.736C687.933 183.188 686.253 184.355 683.904 185.193L684.575 187.077ZM692.689 176.261C692.689 173.092 691.267 170.603 688.523 168.887L687.463 170.583C689.646 171.948 690.689 173.809 690.689 176.261H692.689ZM688.513 168.881C685.905 167.292 681.905 165.936 676.6 164.774L676.172 166.728C681.415 167.876 685.153 169.176 687.472 170.589L688.513 168.881ZM676.605 164.775L667.596 162.754L667.159 164.706L676.167 166.727L676.605 164.775ZM667.598 162.754C658.754 160.755 652.8 158.612 649.584 156.383L648.444 158.026C652.004 160.493 658.292 162.701 667.157 164.705L667.598 162.754ZM649.579 156.379C644.172 152.678 641.41 146.883 641.41 138.783H639.41C639.41 147.391 642.383 153.877 648.449 158.03L649.579 156.379ZM641.41 138.783C641.41 131.437 644.067 125.375 649.398 120.524L648.052 119.045C642.296 124.281 639.41 130.885 639.41 138.783H641.41ZM649.398 120.524C654.692 115.709 662.553 113.22 673.152 113.22V111.22C662.269 111.22 653.846 113.774 648.052 119.045L649.398 120.524ZM673.152 113.22C681.935 113.22 689.357 115.553 695.474 120.178L696.68 118.583C690.17 113.661 682.309 111.22 673.152 111.22V113.22ZM695.48 120.182C701.552 124.709 704.769 131.296 705.068 140.088L707.067 140.02C706.75 130.718 703.307 123.523 696.675 118.579L695.48 120.182ZM706.068 139.054H688.975V141.054H706.068V139.054ZM689.973 139.994C689.646 134.563 687.241 130.588 682.736 128.252L681.816 130.027C685.627 132.004 687.687 135.305 687.976 140.114L689.973 139.994ZM682.733 128.25C679.782 126.734 676.168 126.003 671.939 126.003V128.003C675.949 128.003 679.227 128.697 681.819 130.029L682.733 128.25ZM671.939 126.003C667.234 126.003 663.359 126.951 660.407 128.946L661.528 130.603C664.043 128.903 667.483 128.003 671.939 128.003V126.003ZM660.407 128.946C657.398 130.981 655.868 133.871 655.868 137.513H657.868C657.868 134.533 659.071 132.264 661.528 130.603L660.407 128.946ZM655.868 137.513C655.868 139.185 656.24 140.695 657.018 142.008C657.796 143.319 658.948 144.378 660.423 145.201L661.396 143.453C660.177 142.774 659.308 141.947 658.738 140.987C658.169 140.028 657.868 138.882 657.868 137.513H655.868ZM660.41 145.193C662.289 146.279 666.128 147.48 671.766 148.822L672.229 146.877C666.548 145.524 662.996 144.377 661.41 143.461L660.41 145.193ZM671.764 148.822L686.431 152.344L686.898 150.4L672.231 146.877L671.764 148.822ZM686.432 152.345C692.794 153.868 697.486 155.884 700.598 158.336L701.836 156.766C698.403 154.059 693.394 151.956 686.898 150.4L686.432 152.345ZM700.598 158.336C705.396 162.117 707.839 167.596 707.839 174.933H709.839C709.839 167.101 707.201 160.993 701.836 156.765L700.598 158.336ZM707.839 174.933C707.839 182.414 704.986 188.607 699.235 193.579L700.543 195.092C706.726 189.746 709.839 183.004 709.839 174.933H707.839ZM699.235 193.579C693.547 198.491 685.42 201.016 674.711 201.016V203.016C685.715 203.016 694.373 200.421 700.542 195.092L699.235 193.579ZM674.711 201.016C663.768 201.016 655.294 198.527 649.174 193.668L647.93 195.234C654.514 200.461 663.48 203.016 674.711 203.016V201.016ZM649.177 193.67C643.085 188.797 640.024 182.128 640.024 173.547H638.024C638.024 182.674 641.315 189.942 647.927 195.232L649.177 193.67ZM639.024 174.547H656.001V172.547H639.024V174.547Z" fill="white" mask="url(#path-1-outside-1_473_127)"/>
<path d="M5.44043 55.9238V12.7402H14.376V29.2051H31.251V12.7402H40.2158V55.9238H31.251V36.6465H14.376V55.9238H5.44043ZM83.792 20.3867H60.9404V29.5566H81.917V37.0566H60.9404V48.1602H84.8467V55.9238H52.1221V12.7402H83.792V20.3867ZM119.517 12.7402H129.741L115.298 39.6934V55.9238H106.274V39.6934L91.333 12.7402H101.968L110.933 31.5488L119.517 12.7402ZM187.919 12.7402V20.3867H174.999V55.9238H165.917V20.3867H152.938V12.7402H187.919ZM196.163 55.9238V12.7402H205.099V29.2051H221.974V12.7402H230.938V55.9238H221.974V36.6465H205.099V55.9238H196.163ZM274.515 20.3867H251.663V29.5566H272.64V37.0566H251.663V48.1602H275.569V55.9238H242.845V12.7402H274.515V20.3867ZM294.624 20.2402V31.8418H304.849C306.88 31.8418 308.403 31.6074 309.419 31.1387C311.216 30.3184 312.114 28.6973 312.114 26.2754C312.114 23.6582 311.245 21.9004 309.507 21.002C308.53 20.4941 307.065 20.2402 305.112 20.2402H294.624ZM306.987 12.7402C310.015 12.7988 312.339 13.1699 313.96 13.8535C315.601 14.5371 316.987 15.543 318.12 16.8711C319.058 17.9648 319.8 19.1758 320.347 20.5039C320.894 21.832 321.167 23.3457 321.167 25.0449C321.167 27.0957 320.649 29.1172 319.614 31.1094C318.579 33.082 316.87 34.4785 314.487 35.2988C316.479 36.0996 317.886 37.2422 318.706 38.7266C319.546 40.1914 319.966 42.4375 319.966 45.4648V48.3652C319.966 50.3379 320.044 51.6758 320.2 52.3789C320.435 53.4922 320.981 54.3125 321.841 54.8398V55.9238H311.909C311.636 54.9668 311.44 54.1953 311.323 53.6094C311.089 52.3984 310.962 51.1582 310.942 49.8887L310.884 45.875C310.845 43.1211 310.337 41.2852 309.36 40.3672C308.403 39.4492 306.597 38.9902 303.94 38.9902H294.624V55.9238H285.806V12.7402H306.987ZM363.894 20.3867H341.042V29.5566H362.019V37.0566H341.042V48.1602H364.948V55.9238H332.224V12.7402H363.894V20.3867ZM373.866 62.8672C375.546 62.3984 376.776 61.6172 377.558 60.5234C378.358 59.4297 378.817 57.8965 378.935 55.9238H373.866V47.1934H382.89V54.752C382.89 56.0801 382.714 57.4668 382.362 58.9121C382.011 60.3574 381.356 61.6074 380.399 62.6621C379.364 63.7949 378.144 64.6445 376.737 65.2109C375.351 65.7969 374.394 66.0898 373.866 66.0898V62.8672ZM26.2216 191.924H8.55124V106.806H26.2216V191.924ZM110.612 106.806V121.877H85.1461V191.924H67.2447V121.877H41.663V106.806H110.612ZM125.88 133.484C129.653 132.291 132.252 130.27 133.676 127.421C134.446 125.727 134.773 124.014 134.658 122.282H125.592V107.094H142.049V119.279C142.049 125.092 140.625 129.673 137.776 133.023C134.966 136.372 131.001 138.547 125.88 139.548V133.484ZM178.684 165.649C179.223 169.537 180.281 172.444 181.86 174.369C184.747 177.872 189.694 179.624 196.701 179.624C200.897 179.624 204.304 179.162 206.922 178.238C211.888 176.467 214.371 173.175 214.371 168.363C214.371 165.553 213.139 163.378 210.675 161.838C208.211 160.337 204.342 159.008 199.068 157.853L190.06 155.832C181.205 153.83 175.084 151.655 171.696 149.307C165.96 145.38 163.092 139.24 163.092 130.886C163.092 123.263 165.864 116.931 171.408 111.887C176.951 106.844 185.094 104.323 195.834 104.323C204.804 104.323 212.446 106.709 218.76 111.483C225.112 116.218 228.442 123.109 228.75 132.156H211.657C211.349 127.036 209.116 123.398 204.958 121.242C202.186 119.818 198.741 119.106 194.622 119.106C190.04 119.106 186.383 120.03 183.65 121.877C180.917 123.725 179.55 126.305 179.55 129.615C179.55 132.657 180.897 134.928 183.592 136.43C185.325 137.43 189.02 138.605 194.679 139.952L209.347 143.475C215.776 145.015 220.627 147.074 223.899 149.653C228.981 153.657 231.522 159.451 231.522 167.035C231.522 174.812 228.538 181.279 222.571 186.438C216.642 191.558 208.25 194.118 197.394 194.118C186.306 194.118 177.586 191.597 171.234 186.553C164.882 181.472 161.706 174.504 161.706 165.649H178.684ZM352.373 121.877H307.331V139.952H348.678V154.735H307.331V176.621H354.452V191.924H289.949V106.806H352.373V121.877ZM424.06 106.806H442.538L413.492 191.924H396.688L367.93 106.806H386.929L405.408 171.424L424.06 106.806ZM473.514 159.759H495.111L484.485 126.266L473.514 159.759ZM474.611 106.806H494.707L524.85 191.924H505.563L500.077 174.427H468.721L462.831 191.924H444.236L474.611 106.806ZM541.331 106.806H559.983L593.88 166.227V106.806H610.453V191.924H592.668L557.904 131.463V191.924H541.331V106.806ZM645.875 165.649C646.414 169.537 647.473 172.444 649.051 174.369C651.939 177.872 656.885 179.624 663.892 179.624C668.088 179.624 671.495 179.162 674.113 178.238C679.079 176.467 681.562 173.175 681.562 168.363C681.562 165.553 680.33 163.378 677.867 161.838C675.403 160.337 671.534 159.008 666.26 157.853L657.251 155.832C648.397 153.83 642.276 151.655 638.888 149.307C633.152 145.38 630.284 139.24 630.284 130.886C630.284 123.263 633.055 116.931 638.599 111.887C644.143 106.844 652.285 104.323 663.026 104.323C671.996 104.323 679.638 106.709 685.951 111.483C692.303 116.218 695.633 123.109 695.941 132.156H678.848C678.54 127.036 676.307 123.398 672.15 121.242C669.378 119.818 665.932 119.106 661.813 119.106C657.232 119.106 653.575 120.03 650.841 121.877C648.108 123.725 646.741 126.305 646.741 129.615C646.741 132.657 648.089 134.928 650.784 136.43C652.516 137.43 656.212 138.605 661.871 139.952L676.538 143.475C682.968 145.015 687.818 147.074 691.091 149.653C696.172 153.657 698.713 159.451 698.713 167.035C698.713 174.812 695.73 181.279 689.762 186.438C683.834 191.558 675.441 194.118 664.585 194.118C653.498 194.118 644.778 191.597 638.426 186.553C632.074 181.472 628.898 174.504 628.898 165.649H645.875Z" fill="#FDC692"/>
</svg>
