<svg width="710" height="207" viewBox="0 0 710 207" fill="none" xmlns="http://www.w3.org/2000/svg">
<g clip-path="url(#clip0_593_49)">
<path d="M20.4884 96.6847V192.439H9.00244V96.6847H20.4884Z" fill="#F5B18C" stroke="#F5B18C" stroke-width="3.77206" stroke-miterlimit="10"/>
<path d="M37.3308 108.189V96.6847H109.207V108.171H78.9555V192.42H67.4696V108.189H37.3497H37.3308Z" fill="#F5B18C" stroke="#F5B18C" stroke-width="3.77206" stroke-miterlimit="10"/>
<path d="M124.277 127.484C126.578 127.106 128.332 125.824 129.52 123.617C130.708 121.411 131.312 118.883 131.312 116.016C131.312 115.734 131.312 115.47 131.274 115.243C131.255 115.017 131.199 114.753 131.123 114.47H124.277V100.891H137.611V113.414C137.611 118.732 136.517 123.259 134.311 126.974C132.104 130.69 128.766 132.821 124.277 133.368V127.502V127.484Z" fill="#F5B18C" stroke="#F5B18C" stroke-width="3.77206" stroke-miterlimit="10"/>
<path d="M162.45 161.281C162.45 175.577 170.107 184.008 185.177 184.008C195.267 184.008 209.695 180.424 209.695 167.543C209.695 151.587 189.778 150.437 178.934 147.758C165.788 144.571 153.906 138.177 153.906 121.335C153.906 101.683 168.202 94.1385 185.177 94.1385C203.811 94.1385 218.748 105.379 218.748 119.411L207.507 124.013C207.507 112.018 198.19 105.379 185.29 105.379C175.463 105.379 165.637 109.585 165.637 121.335C165.637 133.085 181.461 135.499 193.72 138.441C207.771 142.025 221.162 148.532 221.162 167.543C221.162 186.554 203.546 194.985 185.158 194.985C168.315 194.985 150.945 184.008 150.945 165.619L162.431 161.281H162.45Z" fill="#F5B18C" stroke="#F5B18C" stroke-width="3.77206" stroke-miterlimit="10"/>
<path d="M345.376 96.6847V108.303H289.719V131.161C293.548 134.481 299.81 137.291 310.145 137.291H327.515V148.4H310.673C299.942 148.4 293.567 145.854 289.738 142.647V180.821H347.696V192.439H278.252V96.6847H345.395H345.376Z" fill="#F5B18C" stroke="#F5B18C" stroke-width="3.77206" stroke-miterlimit="10"/>
<path d="M356.108 96.6847H368.876L398.11 172.899L426.966 96.6847H440.112L403.221 192.439H393.263L356.108 96.6847Z" fill="#F5B18C" stroke="#F5B18C" stroke-width="3.77206" stroke-miterlimit="10"/>
<path d="M447.75 192.439H434.981L472.136 96.6847H482.094L518.985 192.439H505.971L496.654 167.92C490.902 169.448 482.094 171.372 474.192 171.372C467.93 171.372 461.687 170.221 456.821 168.939L447.75 192.42V192.439ZM476.983 116.224L460.895 158.471C464.856 159.358 469.458 159.999 474.173 159.999C480.435 159.999 487.451 158.716 492.675 157.453L476.964 116.224H476.983Z" fill="#F5B18C" stroke="#F5B18C" stroke-width="3.77206" stroke-miterlimit="10"/>
<path d="M533.922 96.6847H545.408C558.931 130.52 573.623 144.684 597.614 160.508V96.6847H609.1V192.439H597.614V173.672C575.151 161.413 557.913 146.099 545.408 123.749V192.439H533.922V96.6847Z" fill="#F5B18C" stroke="#F5B18C" stroke-width="3.77206" stroke-miterlimit="10"/>
<path d="M641.785 161.281C641.785 175.577 649.442 184.008 664.512 184.008C674.602 184.008 689.03 180.424 689.03 167.543C689.03 151.587 669.114 150.437 658.269 147.758C645.123 144.571 633.241 138.177 633.241 121.335C633.241 101.683 647.537 94.1385 664.512 94.1385C683.146 94.1385 698.083 105.379 698.083 119.411L686.842 124.013C686.842 112.018 677.525 105.379 664.625 105.379C654.799 105.379 644.972 109.585 644.972 121.335C644.972 133.085 660.796 135.499 673.055 138.441C687.106 142.025 700.497 148.532 700.497 167.543C700.497 186.554 682.882 194.985 664.493 194.985C647.651 194.985 630.28 184.008 630.28 165.619L641.766 161.281H641.785Z" fill="#F5B18C" stroke="#F5B18C" stroke-width="3.77206" stroke-miterlimit="10"/>
<path d="M28.1457 103.833H12.8877V203.359H28.1457V103.833Z" stroke="#F5B18C" stroke-width="1.88603" stroke-miterlimit="10"/>
<path d="M41.2349 119.091H71.3548V203.34H86.6128V119.091H116.884V103.833H41.2349V119.091Z" stroke="#F5B18C" stroke-width="1.88603" stroke-miterlimit="10"/>
<path d="M128.162 125.371H135.197C135.159 127.767 134.631 129.917 133.632 131.746C132.708 133.443 131.463 134.368 129.728 134.651L128.143 134.915V144.496L130.256 144.25C135.329 143.647 139.177 141.176 141.685 136.951C144.043 132.953 145.25 128.068 145.25 122.429V108.02H128.143V125.371H128.162Z" stroke="#F5B18C" stroke-width="1.88603" stroke-miterlimit="10"/>
<path d="M199.945 145.627C198.719 145.326 197.474 145.043 196.191 144.76C184.951 142.195 173.314 139.554 173.314 130.35C173.314 117.299 186.912 116.281 191.08 116.281C203.622 116.281 211.412 122.693 211.412 133.029V135.839L226.424 129.69V128.427C226.424 113.188 210.846 101.268 190.967 101.268C169.9 101.268 157.811 111.867 157.811 130.35C157.811 149.927 172.918 155.85 184.272 158.603C185.931 159.018 187.817 159.395 189.798 159.791C200.397 161.923 213.599 164.563 213.599 176.558C213.599 190.439 194.758 191.137 190.967 191.137C177.331 191.137 170.126 183.933 170.126 170.297V167.562L154.868 173.333V174.634C154.868 194.193 173.22 205.886 190.967 205.886C208.715 205.886 228.857 198.21 228.857 176.558C228.857 154.907 213.43 149.041 199.963 145.608L199.945 145.627Z" stroke="#F5B18C" stroke-width="1.88603" stroke-miterlimit="10"/>
<path d="M297.396 155.246C302.148 157.943 308.542 159.301 316.444 159.301H335.173V144.42H315.916C307.938 144.42 301.696 142.685 297.377 139.29V119.204H353.033V103.833H282.119V203.359H355.334V187.969H297.377V155.265L297.396 155.246Z" stroke="#F5B18C" stroke-width="1.88603" stroke-miterlimit="10"/>
<path d="M431.417 103.833L403.862 176.634L375.949 103.833H359.125L397.733 203.34H410.275L448.618 103.833H431.417Z" stroke="#F5B18C" stroke-width="1.88603" stroke-miterlimit="10"/>
<path d="M476.626 103.833L438.019 203.359H454.842L463.763 180.217C468.025 181.235 473.853 182.292 479.964 182.292C487.338 182.292 495.354 180.707 501.276 179.217L510.461 203.359H527.53L489.187 103.833H476.644H476.626ZM495.939 165.148C491.846 166.053 485.679 167.166 479.964 167.166C476.531 167.166 472.872 166.807 469.232 166.128L482.774 130.577L495.939 165.167V165.148Z" stroke="#F5B18C" stroke-width="1.88603" stroke-miterlimit="10"/>
<path d="M601.518 166.015C579.527 151.116 565.702 136.914 552.934 105.002L552.462 103.814H537.808V203.34H553.066V139.63C564.59 157.83 580.149 171.994 601.499 183.8V203.34H616.757V103.833H601.499V166.015H601.518Z" stroke="#F5B18C" stroke-width="1.88603" stroke-miterlimit="10"/>
<path d="M679.28 145.627C678.054 145.326 676.809 145.043 675.527 144.76C664.286 142.195 652.649 139.554 652.649 130.35C652.649 117.299 666.247 116.281 670.415 116.281C682.958 116.281 690.747 122.693 690.747 133.029V135.839L705.76 129.69V128.427C705.76 113.188 690.181 101.268 670.302 101.268C649.235 101.268 637.146 111.867 637.146 130.35C637.146 149.927 652.253 155.85 663.607 158.603C665.267 159.018 667.153 159.395 669.133 159.791C679.732 161.923 692.935 164.563 692.935 176.558C692.935 190.439 674.093 191.137 670.302 191.137C656.666 191.137 649.462 183.933 649.462 170.297V167.562L634.204 173.333V174.634C634.204 194.193 652.555 205.886 670.302 205.886C688.05 205.886 708.193 198.21 708.193 176.558C708.193 154.907 692.765 149.041 679.299 145.608L679.28 145.627Z" stroke="#F5B18C" stroke-width="1.88603" stroke-miterlimit="10"/>
</g>
<path d="M61.158 41.8618C61.4236 41.8618 61.6394 41.9448 61.8055 42.1108C62.0047 42.2768 62.1043 42.4927 62.1043 42.7583C62.1043 42.9907 61.9881 43.19 61.7557 43.356C61.5564 43.522 61.3074 43.605 61.0085 43.605C60.9421 43.6382 60.8591 43.6548 60.7595 43.6548C55.4799 44.5182 48.9883 45.2985 41.2846 45.9958C38.1301 51.8399 34.5274 58.8462 30.4763 67.0147C29.9118 68.9406 29.1813 70.8831 28.2848 72.8422C27.3882 74.8014 26.3755 76.5944 25.2465 78.2215C24.6488 79.4169 24.0511 80.0146 23.4534 80.0146C22.9221 80.0146 22.6565 79.7323 22.6565 79.1678C22.6565 78.8026 24.0511 75.7809 26.8404 70.1028C27.3384 69.1067 27.6705 68.4093 27.8365 68.0109L28.2848 67.1641C28.3844 66.8985 28.5172 66.6163 28.6833 66.3174C29.613 63.1297 30.0779 60.0416 30.0779 57.0532C30.0779 51.8731 28.5338 48.4364 25.4457 46.7429L21.2619 46.992C18.4062 52.4376 15.7996 57.6841 13.4421 62.7313C11.1177 67.7452 8.6605 73.1909 6.07049 79.0682C4.2442 83.2521 3.03221 85.9417 2.43452 87.1371C1.83682 88.3657 1.40516 88.9634 1.13951 88.9302C0.907077 88.9302 0.724448 88.8472 0.591627 88.6811C0.425601 88.5483 0.342588 88.3491 0.342588 88.0834C0.342588 87.9506 0.60823 87.2035 1.13951 85.8421C1.6708 84.5139 2.08586 83.5011 2.38471 82.8038C8.52768 68.6916 14.1394 56.7875 19.2198 47.0916C17.0282 47.0252 15.9324 46.4109 15.9324 45.2487C15.9324 44.2193 17.0448 43.7047 19.2696 43.7047C19.5684 43.7047 20.1495 43.7379 21.0128 43.8043C25.2631 35.7022 30.4265 26.687 36.5031 16.7586C36.5695 16.659 36.6691 16.576 36.8019 16.5096C36.968 16.4432 37.1174 16.41 37.2502 16.41C37.5158 16.41 37.7151 16.493 37.8479 16.659C38.0139 16.825 38.0969 17.0409 38.0969 17.3065C38.0969 17.4393 37.9143 17.8212 37.549 18.4521C37.217 19.083 36.6857 19.9961 35.9552 21.1915C34.8926 22.885 33.6308 24.9769 32.1698 27.4673C29.779 31.4519 27.4879 35.4864 25.2963 39.5706L22.8557 44.0035C23.7855 44.2027 24.7484 44.5182 25.7446 44.9498H26.6909C26.9234 44.8834 27.4381 44.8502 28.235 44.8502C29.0319 44.817 29.6296 44.8004 30.0281 44.8004C33.8799 44.734 37.1838 44.568 39.9398 44.3023C45.95 33.0458 51.6613 22.968 57.0737 14.069C57.1401 13.9362 57.2397 13.8365 57.3726 13.7701C57.5386 13.7037 57.688 13.6705 57.8208 13.6705C58.1529 13.6705 58.4185 13.8199 58.6178 14.1188C58.817 14.3844 58.8502 14.6501 58.7174 14.9157L57.4224 17.1571L55.2308 20.9425C53.3381 24.1302 51.7277 26.9194 50.3995 29.3102C47.3446 34.6562 44.6384 39.6038 42.2808 44.1529C49.9844 43.4224 56.227 42.6587 61.0085 41.8618H61.158ZM31.7713 60.3405C34.3281 55.1605 36.7853 50.3789 39.1429 45.9958L33.5146 46.2947C32.3856 46.3279 30.659 46.4109 28.3346 46.5437C30.7918 48.6688 32.0204 51.8897 32.0204 56.2064C32.0204 57.4682 31.9374 58.8462 31.7713 60.3405ZM43.7735 84.2482C43.375 84.2482 43.0762 84.2316 42.8769 84.1984C41.1171 84.0988 39.8553 83.3683 39.0915 82.0069C38.3278 80.6455 37.9958 79.1014 38.0954 77.3748C38.3278 75.316 38.9255 73.2407 39.8885 71.1488C40.8514 69.0568 42.1796 66.6993 43.8731 64.0761C46.7619 59.4605 50.0493 55.0442 53.735 50.8272C57.454 46.5769 60.9904 43.0073 64.3441 40.1185C64.8754 39.6868 65.1908 39.4378 65.2905 39.3714C65.4233 39.2718 65.7221 39.0393 66.187 38.6741C66.6851 38.3088 67.0337 37.9768 67.233 37.6779C67.4322 37.3791 67.482 37.1134 67.3824 36.881C67.0835 36.1837 66.1206 35.4366 64.4935 34.6396C63.929 34.3408 63.4808 34.0585 63.1487 33.7929C62.5842 33.2948 62.136 32.7303 61.8039 32.0994C61.5051 31.4685 61.3556 30.8376 61.3556 30.2067C61.3556 29.7419 61.4387 29.2936 61.6047 28.8619C62.3684 26.7036 65.1742 24.6116 70.0222 22.5861C74.9034 20.5274 79.5521 18.9003 83.9684 17.705C87.8866 16.6092 92.5187 15.7126 97.8648 15.0153C103.211 14.2848 107.843 13.9196 111.761 13.9196C112.226 13.9196 112.575 13.9362 112.807 13.9694H113.704C118.585 14.3678 121.025 16.0115 121.025 18.9003C121.025 21.5568 118.635 24.18 113.853 26.77C112.06 27.8326 110.167 28.7623 108.175 29.5592C106.216 30.3562 103.842 31.2527 101.052 32.2488L100.007 32.6473C96.1879 33.9423 93.05 35.1543 90.5928 36.2833C90.4932 36.3165 90.377 36.3331 90.2442 36.3331C89.9785 36.2999 89.7461 36.2003 89.5469 36.0342C89.3809 35.835 89.2978 35.6192 89.2978 35.3867C89.2978 35.0547 89.4805 34.7891 89.8457 34.5898L92.2863 33.5937L94.1292 32.8964L94.8763 32.6473L95.3246 32.4481L98.5123 31.2527C102.397 29.8581 105.27 28.7789 107.129 28.0152C115.032 24.7611 119.083 21.7726 119.282 19.0498C119.282 18.7841 119.266 18.5683 119.232 18.4023C119.199 18.2362 119.133 18.0868 119.033 17.954C118.734 17.3895 118.253 16.9744 117.589 16.7088C116.958 16.41 116.128 16.1609 115.098 15.9617C114.6 15.8621 113.853 15.7791 112.857 15.7126C111.861 15.613 111.064 15.5632 110.466 15.5632C108.441 15.5632 105.602 15.7957 101.949 16.2605C94.6107 17.2567 87.704 18.6015 81.229 20.295C74.7539 21.9552 69.4079 24.263 65.1908 27.2183C63.7962 28.148 63.0989 29.1608 63.0989 30.2565C63.0989 30.489 63.1653 30.7712 63.2981 31.1033C63.5306 31.6013 63.846 32.033 64.2445 32.3983C64.6762 32.7303 65.2905 33.162 66.0874 33.6933C66.353 33.8261 66.5523 33.9423 66.6851 34.0419C67.4156 34.5068 67.9967 34.9717 68.4284 35.4366C68.86 35.8682 69.0759 36.4161 69.0759 37.0802C69.0759 37.4455 68.9928 37.8107 68.8268 38.176C68.6608 38.5412 68.4284 38.8567 68.1295 39.1223C67.5982 39.6536 66.5689 40.5834 65.0414 41.9116C62.9495 43.7379 61.0734 45.4645 59.4131 47.0916C57.7861 48.6854 55.8602 50.8438 53.6354 53.5666C51.4107 56.2894 49.0531 59.5269 46.5627 63.2791C44.4376 66.5332 42.7773 69.3391 41.5819 71.6967C40.3865 74.0874 39.7888 76.2458 39.7888 78.1717C39.7888 79.5995 40.1043 80.6787 40.7352 81.4092C41.3329 82.1397 42.2128 82.505 43.375 82.505C45.3341 82.505 47.9739 81.5586 51.2945 79.6659C54.6482 77.7732 57.9521 75.5153 61.2062 72.8921C64.4935 70.302 66.9839 68.0773 68.6774 66.2178L68.9762 65.8691C69.8396 64.7734 70.5369 63.9764 71.0682 63.4784C71.5995 62.9803 72.0311 62.7313 72.3632 62.7313C72.5956 62.7313 72.7782 62.8143 72.9111 62.9803C73.0771 63.1131 73.1435 63.2957 73.1103 63.5282C72.8114 64.8232 70.7859 67.1143 67.0337 70.4017C63.2815 73.7222 59.1973 76.7771 54.781 79.5663C50.3979 82.3887 47.0276 83.9328 44.67 84.1984C44.4376 84.2316 44.1387 84.2482 43.7735 84.2482ZM131.415 20.793C131.647 20.9591 131.764 21.2247 131.764 21.59C131.764 21.756 131.714 21.9884 131.614 22.2873C131.249 23.6155 130.718 24.9935 130.02 26.4213C129.323 27.816 128.393 29.5426 127.231 31.6013L126.434 33.0458C124.94 35.6026 123.811 37.6613 123.047 39.2219C119.029 47.324 115.427 55.5257 112.239 63.827C108.885 72.4936 106.013 80.9609 103.622 89.229L103.572 89.3784C103.108 90.8063 102.659 91.5202 102.228 91.5202C102.028 91.5202 101.846 91.404 101.68 91.1715C101.514 90.9723 101.431 90.6901 101.431 90.3248C101.431 89.7935 101.613 89.146 101.979 88.3823V88.4321L102.228 87.6352C102.792 85.7093 103.722 82.7208 105.017 78.6698C106.345 74.6519 107.507 71.2816 108.503 68.5588C110.994 61.7517 113.816 54.8782 116.971 47.9383C113.584 52.421 110.214 56.1898 106.86 59.2447C104.602 61.2702 102.277 62.9803 99.8867 64.3749C97.5291 65.7695 95.4704 66.4668 93.7105 66.4668C92.2827 66.4668 91.1703 65.9688 90.3734 64.9726C89.4768 63.8768 89.0286 62.4324 89.0286 60.6393C89.0286 59.0123 89.4104 57.1362 90.1741 55.011C90.9711 52.8859 92.1 50.6611 93.5611 48.3368L94.7565 46.5437C95.1217 45.8464 95.5036 45.2321 95.902 44.7008C98.0272 41.3803 99.5712 38.8733 100.534 37.1798C101.929 34.8555 103.008 32.7635 103.772 30.904C104.569 29.0445 104.967 27.1851 104.967 25.3256C104.967 22.0382 102.842 19.9463 98.5917 19.0498C98.3592 19.0166 98.16 18.9336 97.994 18.8007C97.8612 18.6347 97.7947 18.4355 97.7947 18.203C97.7947 17.9706 97.8944 17.7714 98.0936 17.6053C98.326 17.4061 98.5751 17.3231 98.8407 17.3563C99.538 17.4227 100.401 17.6385 101.431 18.0038C102.46 18.3691 103.29 18.7675 103.921 19.1992C104.95 19.9297 105.681 20.8595 106.113 21.9884C106.544 23.1174 106.76 24.2464 106.76 25.3754C106.76 25.7738 106.727 26.2387 106.661 26.77C106.328 29.2272 105.565 31.6346 104.369 33.9921C103.207 36.3165 101.613 39.0891 99.5878 42.31L94.7565 49.831C93.7935 51.3585 93.0298 52.6701 92.4653 53.7658C91.934 54.8284 91.519 55.9408 91.2201 57.103C90.9213 58.6636 90.7718 59.8424 90.7718 60.6393C90.7718 62.2 91.1869 63.3621 92.017 64.1259C92.5483 64.5907 93.1958 64.8232 93.9595 64.8232C95.6862 64.8232 97.8778 63.8602 100.534 61.9343C103.191 60.0084 105.897 57.6342 108.653 54.8118C111.409 51.9562 113.783 49.1835 115.775 46.4939C120.623 39.8528 124.89 32.5145 128.576 24.4788L130.07 21.2911C130.236 20.8927 130.518 20.6934 130.917 20.6934C131.05 20.6934 131.216 20.7266 131.415 20.793ZM160.016 83.7004C159.817 83.7004 159.651 83.6173 159.518 83.4513C159.386 83.2853 159.319 83.0861 159.319 82.8536C159.319 82.4552 159.402 82.0069 159.568 81.5088C160.398 78.5867 161.843 74.3697 163.901 68.8576C165.96 63.3788 168.069 58.2153 170.227 53.3674C173.78 45.5309 177.814 37.6115 182.33 29.609L183.227 28.1148L183.725 27.2681C185.286 24.6116 186.863 22.0216 188.457 19.498C183.576 20.295 178.694 20.6934 173.813 20.6934C164.483 20.6934 156.065 19.1328 148.561 16.0115C148.361 15.9783 148.195 15.8787 148.063 15.7126C147.963 15.5134 147.913 15.3142 147.913 15.115C147.913 14.8825 147.963 14.6833 148.063 14.5173C148.195 14.3512 148.361 14.2682 148.561 14.2682C148.693 14.2682 149.358 14.5007 150.553 14.9655V15.0651C150.653 14.9655 150.736 14.9489 150.802 15.0153C151.001 15.0485 151.267 15.1316 151.599 15.2644L154.289 16.2107C157.078 17.0077 159.535 17.5721 161.66 17.9042C165.545 18.5683 169.895 18.9003 174.71 18.9003C176.071 18.9003 177.001 18.8837 177.499 18.8505C181.683 18.6513 185.734 18.2196 189.652 17.5555C191.08 15.2976 192.292 13.4381 193.288 11.9771C194.284 10.4828 195.347 9.055 196.476 7.69358C199.663 4.10742 202.901 1.79965 206.188 0.770291C207.55 0.371829 208.961 0.172599 210.422 0.172599C211.983 0.172599 213.327 0.454842 214.456 1.01933C215.585 1.55061 216.432 2.33094 216.997 3.3603C217.461 4.19043 217.694 5.00396 217.694 5.80089C217.694 7.1623 217.146 8.49051 216.05 9.78551C214.954 11.0805 213.709 12.0933 212.315 12.8238C209.924 14.0856 206.653 15.281 202.503 16.41C198.385 17.5057 194.467 18.4189 190.748 19.1494C181.351 33.9589 173.614 49.0175 167.537 64.3251C165.91 68.4093 164.366 72.6098 162.905 76.9265L162.258 78.9686C161.66 80.9277 161.262 82.1563 161.062 82.6544C160.896 83.1525 160.73 83.4679 160.564 83.6007C160.398 83.6671 160.216 83.7004 160.016 83.7004ZM191.943 17.1571C199.713 15.696 205.64 14.0192 209.725 12.1265C213.809 10.2006 215.851 8.12525 215.851 5.9005C215.851 5.2696 215.702 4.58889 215.403 3.85838C215.071 3.22748 214.456 2.746 213.56 2.41395C212.697 2.0819 211.651 1.91587 210.422 1.91587C209.658 1.91587 209.027 1.96568 208.529 2.0653C206.172 2.43055 204.047 3.3271 202.154 4.75492C200.261 6.14954 198.601 7.77659 197.173 9.63609C195.778 11.4624 194.035 13.9694 191.943 17.1571ZM244.338 41.8618C244.604 41.8618 244.819 41.9448 244.985 42.1108C245.185 42.2768 245.284 42.4927 245.284 42.7583C245.284 42.9907 245.168 43.19 244.936 43.356C244.736 43.522 244.487 43.605 244.189 43.605C244.122 43.6382 244.039 43.6548 243.94 43.6548C238.66 44.5182 232.168 45.2985 224.465 45.9958C221.31 51.8399 217.707 58.8462 213.656 67.0147C213.092 68.9406 212.361 70.8831 211.465 72.8422C210.568 74.8014 209.555 76.5944 208.427 78.2215C207.829 79.4169 207.231 80.0146 206.633 80.0146C206.102 80.0146 205.837 79.7323 205.837 79.1678C205.837 78.8026 207.231 75.7809 210.02 70.1028C210.518 69.1067 210.85 68.4093 211.017 68.0109L211.465 67.1641C211.564 66.8985 211.697 66.6163 211.863 66.3174C212.793 63.1297 213.258 60.0416 213.258 57.0532C213.258 51.8731 211.714 48.4364 208.626 46.7429L204.442 46.992C201.586 52.4376 198.98 57.6841 196.622 62.7313C194.298 67.7452 191.841 73.1909 189.25 79.0682C187.424 83.2521 186.212 85.9417 185.615 87.1371C185.017 88.3657 184.585 88.9634 184.32 88.9302C184.087 88.9302 183.904 88.8472 183.772 88.6811C183.606 88.5483 183.523 88.3491 183.523 88.0834C183.523 87.9506 183.788 87.2035 184.32 85.8421C184.851 84.5139 185.266 83.5011 185.565 82.8038C191.708 68.6916 197.319 56.7875 202.4 47.0916C200.208 47.0252 199.112 46.4109 199.112 45.2487C199.112 44.2193 200.225 43.7047 202.45 43.7047C202.748 43.7047 203.33 43.7379 204.193 43.8043C208.443 35.7022 213.607 26.687 219.683 16.7586C219.75 16.659 219.849 16.576 219.982 16.5096C220.148 16.4432 220.297 16.41 220.43 16.41C220.696 16.41 220.895 16.493 221.028 16.659C221.194 16.825 221.277 17.0409 221.277 17.3065C221.277 17.4393 221.094 17.8212 220.729 18.4521C220.397 19.083 219.866 19.9961 219.135 21.1915C218.073 22.885 216.811 24.9769 215.35 27.4673C212.959 31.4519 210.668 35.4864 208.476 39.5706L206.036 44.0035C206.965 44.2027 207.928 44.5182 208.925 44.9498H209.871C210.103 44.8834 210.618 44.8502 211.415 44.8502C212.212 44.817 212.81 44.8004 213.208 44.8004C217.06 44.734 220.364 44.568 223.12 44.3023C229.13 33.0458 234.841 22.968 240.254 14.069C240.32 13.9362 240.42 13.8365 240.553 13.7701C240.719 13.7037 240.868 13.6705 241.001 13.6705C241.333 13.6705 241.599 13.8199 241.798 14.1188C241.997 14.3844 242.03 14.6501 241.897 14.9157L240.602 17.1571L238.411 20.9425C236.518 24.1302 234.908 26.9194 233.579 29.3102C230.525 34.6562 227.818 39.6038 225.461 44.1529C233.164 43.4224 239.407 42.6587 244.189 41.8618H244.338ZM214.951 60.3405C217.508 55.1605 219.965 50.3789 222.323 45.9958L216.695 46.2947C215.566 46.3279 213.839 46.4109 211.515 46.5437C213.972 48.6688 215.2 51.8897 215.2 56.2064C215.2 57.4682 215.117 58.8462 214.951 60.3405ZM226.953 84.2482C226.555 84.2482 226.256 84.2316 226.057 84.1984C224.297 84.0988 223.035 83.3683 222.272 82.0069C221.508 80.6455 221.176 79.1014 221.275 77.3748C221.508 75.316 222.106 73.2407 223.068 71.1488C224.031 69.0568 225.36 66.6993 227.053 64.0761C229.942 59.4605 233.229 55.0442 236.915 50.8272C240.634 46.5769 244.17 43.0073 247.524 40.1185C248.055 39.6868 248.371 39.4378 248.47 39.3714C248.603 39.2718 248.902 39.0393 249.367 38.6741C249.865 38.3088 250.214 37.9768 250.413 37.6779C250.612 37.3791 250.662 37.1134 250.562 36.881C250.264 36.1837 249.301 35.4366 247.674 34.6396C247.109 34.3408 246.661 34.0585 246.329 33.7929C245.764 33.2948 245.316 32.7303 244.984 32.0994C244.685 31.4685 244.536 30.8376 244.536 30.2067C244.536 29.7419 244.619 29.2936 244.785 28.8619C245.548 26.7036 248.354 24.6116 253.202 22.5861C258.083 20.5274 262.732 18.9003 267.148 17.705C271.067 16.6092 275.699 15.7126 281.045 15.0153C286.391 14.2848 291.023 13.9196 294.941 13.9196C295.406 13.9196 295.755 13.9362 295.987 13.9694H296.884C301.765 14.3678 304.205 16.0115 304.205 18.9003C304.205 21.5568 301.815 24.18 297.033 26.77C295.24 27.8326 293.347 28.7623 291.355 29.5592C289.396 30.3562 287.022 31.2527 284.233 32.2488L283.187 32.6473C279.368 33.9423 276.23 35.1543 273.773 36.2833C273.673 36.3165 273.557 36.3331 273.424 36.3331C273.159 36.2999 272.926 36.2003 272.727 36.0342C272.561 35.835 272.478 35.6192 272.478 35.3867C272.478 35.0547 272.66 34.7891 273.026 34.5898L275.466 33.5937L277.309 32.8964L278.056 32.6473L278.505 32.4481L281.692 31.2527C285.577 29.8581 288.45 28.7789 290.309 28.0152C298.212 24.7611 302.263 21.7726 302.462 19.0498C302.462 18.7841 302.446 18.5683 302.412 18.4023C302.379 18.2362 302.313 18.0868 302.213 17.954C301.914 17.3895 301.433 16.9744 300.769 16.7088C300.138 16.41 299.308 16.1609 298.278 15.9617C297.78 15.8621 297.033 15.7791 296.037 15.7126C295.041 15.613 294.244 15.5632 293.646 15.5632C291.621 15.5632 288.782 15.7957 285.129 16.2605C277.791 17.2567 270.884 18.6015 264.409 20.295C257.934 21.9552 252.588 24.263 248.371 27.2183C246.976 28.148 246.279 29.1608 246.279 30.2565C246.279 30.489 246.345 30.7712 246.478 31.1033C246.711 31.6013 247.026 32.033 247.425 32.3983C247.856 32.7303 248.47 33.162 249.267 33.6933C249.533 33.8261 249.732 33.9423 249.865 34.0419C250.596 34.5068 251.177 34.9717 251.608 35.4366C252.04 35.8682 252.256 36.4161 252.256 37.0802C252.256 37.4455 252.173 37.8107 252.007 38.176C251.841 38.5412 251.608 38.8567 251.31 39.1223C250.778 39.6536 249.749 40.5834 248.221 41.9116C246.13 43.7379 244.253 45.4645 242.593 47.0916C240.966 48.6854 239.04 50.8438 236.815 53.5666C234.591 56.2894 232.233 59.5269 229.743 63.2791C227.618 66.5332 225.957 69.3391 224.762 71.6967C223.567 74.0874 222.969 76.2458 222.969 78.1717C222.969 79.5995 223.284 80.6787 223.915 81.4092C224.513 82.1397 225.393 82.505 226.555 82.505C228.514 82.505 231.154 81.5586 234.474 79.6659C237.828 77.7732 241.132 75.5153 244.386 72.8921C247.674 70.302 250.164 68.0773 251.857 66.2178L252.156 65.8691C253.02 64.7734 253.717 63.9764 254.248 63.4784C254.779 62.9803 255.211 62.7313 255.543 62.7313C255.776 62.7313 255.958 62.8143 256.091 62.9803C256.257 63.1131 256.324 63.2957 256.29 63.5282C255.991 64.8232 253.966 67.1143 250.214 70.4017C246.462 73.7222 242.377 76.7771 237.961 79.5663C233.578 82.3887 230.208 83.9328 227.85 84.1984C227.618 84.2316 227.319 84.2482 226.953 84.2482ZM329.786 101.88C330.019 102.113 330.135 102.345 330.135 102.578C330.135 103.042 329.703 103.275 328.84 103.275C328.143 103.275 326.848 103.059 324.955 102.627C318.879 101.233 313.4 98.5597 308.519 94.6083C303.671 90.6901 299.354 85.8587 295.568 80.1142C291.816 74.3697 288.247 67.6622 284.86 59.9918L281.871 52.9689C279.813 52.9689 278.053 52.6037 276.592 51.8731L274.799 55.6087C274.566 56.0404 274.251 56.6879 273.852 57.5512L272.956 59.4439C270.1 65.5205 267.659 71.6801 265.634 77.9226C265.335 78.8524 265.003 80.0312 264.638 81.459C264.239 82.8868 263.94 83.8166 263.741 84.2482C263.509 84.7131 263.227 84.9289 262.895 84.8957C262.629 84.8957 262.413 84.7961 262.247 84.5969C262.081 84.4309 261.998 84.1984 261.998 83.8996C262.23 83.0362 262.629 81.6748 263.193 79.8153C263.725 77.9891 264.156 76.5612 264.488 75.5319C265.883 71.4144 266.946 68.3595 267.676 66.3672C269.569 61.3864 271.827 55.9076 274.45 49.9306C274.317 49.665 274.251 49.3163 274.251 48.8847C274.251 48.1874 274.433 47.5565 274.799 46.992C275.197 46.4275 275.728 46.0124 276.392 45.7468C281.406 35.2871 286.935 25.558 292.978 16.5594C293.078 16.4598 293.261 16.41 293.526 16.41C294.058 16.41 294.34 16.7254 294.373 17.3563C294.373 17.3563 294.356 17.3729 294.323 17.4061C294.29 17.6385 294.091 18.037 293.726 18.6015C293.161 19.4316 292.729 20.1123 292.431 20.6436L291.982 21.2911C291.152 22.5861 289.94 24.5286 288.346 27.1186C284.926 32.9628 281.622 39.0559 278.435 45.3981C280.161 42.5093 281.755 40.0189 283.216 37.9269C284.71 35.835 286.42 33.8925 288.346 32.0994C290.305 30.3063 292.464 28.9449 294.821 28.0152C296.681 27.3179 298.507 26.9692 300.3 26.9692C302.625 26.9692 304.517 27.5503 305.978 28.7125C306.842 29.443 307.506 30.3395 307.971 31.4021C308.435 32.4315 308.668 33.5771 308.668 34.8389C308.668 36.5655 308.352 38.1096 307.722 39.471C306.294 42.7915 303.737 45.5143 300.051 47.6395C296.365 49.7646 292.397 51.3087 288.147 52.2716C286.487 52.6369 285.009 52.8693 283.714 52.9689L285.557 57.103C287.549 61.5857 289.426 65.5869 291.185 69.1067C295.203 76.9099 299.62 83.3517 304.434 88.4321C308.087 92.1179 312.038 95.123 316.289 97.4473C320.572 99.7717 324.54 101.083 328.193 101.382C329.056 101.449 329.587 101.615 329.786 101.88ZM279.779 46.3445C280.975 47.1746 282.054 48.8017 283.017 51.2256C284.578 51.2256 286.454 50.9434 288.645 50.3789C292.829 49.2831 296.515 47.6893 299.703 45.5974C302.06 44.1031 303.853 42.4595 305.082 40.6664C306.31 38.8401 306.925 36.9142 306.925 34.8887C306.925 32.9628 306.294 31.4353 305.032 30.3063C303.77 29.1774 302.06 28.6129 299.902 28.6129C296.083 28.6129 292.464 30.3894 289.044 33.9423C285.657 37.4953 282.552 41.6127 279.73 46.2947C279.73 46.2947 279.73 46.3113 279.73 46.3445C279.763 46.3445 279.779 46.3445 279.779 46.3445ZM277.438 50.3789C278.7 50.877 279.929 51.1592 281.124 51.2256C280.759 50.2627 280.327 49.4492 279.829 48.7851C279.53 48.3534 279.215 48.0213 278.883 47.7889L278.086 49.1835C277.953 49.5488 277.754 49.914 277.488 50.2793L277.438 50.3789ZM297.307 84.2482C296.909 84.2482 296.61 84.2316 296.411 84.1984C294.651 84.0988 293.389 83.3683 292.625 82.0069C291.861 80.6455 291.529 79.1014 291.629 77.3748C291.861 75.316 292.459 73.2407 293.422 71.1488C294.385 69.0568 295.713 66.6993 297.407 64.0761C300.296 59.4605 303.583 55.0442 307.269 50.8272C310.988 46.5769 314.524 43.0073 317.878 40.1185C318.409 39.6868 318.724 39.4378 318.824 39.3714C318.957 39.2718 319.256 39.0393 319.721 38.6741C320.219 38.3088 320.567 37.9768 320.767 37.6779C320.966 37.3791 321.016 37.1134 320.916 36.881C320.617 36.1837 319.654 35.4366 318.027 34.6396C317.463 34.3408 317.014 34.0585 316.682 33.7929C316.118 33.2948 315.67 32.7303 315.338 32.0994C315.039 31.4685 314.889 30.8376 314.889 30.2067C314.889 29.7419 314.972 29.2936 315.138 28.8619C315.902 26.7036 318.708 24.6116 323.556 22.5861C328.437 20.5274 333.086 18.9003 337.502 17.705C341.42 16.6092 346.052 15.7126 351.398 15.0153C356.744 14.2848 361.377 13.9196 365.295 13.9196C365.76 13.9196 366.108 13.9362 366.341 13.9694H367.237C372.118 14.3678 374.559 16.0115 374.559 18.9003C374.559 21.5568 372.168 24.18 367.387 26.77C365.594 27.8326 363.701 28.7623 361.709 29.5592C359.75 30.3562 357.375 31.2527 354.586 32.2488L353.54 32.6473C349.722 33.9423 346.584 35.1543 344.126 36.2833C344.027 36.3165 343.911 36.3331 343.778 36.3331C343.512 36.2999 343.28 36.2003 343.08 36.0342C342.914 35.835 342.831 35.6192 342.831 35.3867C342.831 35.0547 343.014 34.7891 343.379 34.5898L345.82 33.5937L347.663 32.8964L348.41 32.6473L348.858 32.4481L352.046 31.2527C355.931 29.8581 358.803 28.7789 360.663 28.0152C368.565 24.7611 372.617 21.7726 372.816 19.0498C372.816 18.7841 372.799 18.5683 372.766 18.4023C372.733 18.2362 372.666 18.0868 372.567 17.954C372.268 17.3895 371.786 16.9744 371.122 16.7088C370.491 16.41 369.661 16.1609 368.632 15.9617C368.134 15.8621 367.387 15.7791 366.391 15.7126C365.394 15.613 364.597 15.5632 364 15.5632C361.974 15.5632 359.135 15.7957 355.483 16.2605C348.144 17.2567 341.238 18.6015 334.763 20.295C328.288 21.9552 322.942 24.263 318.724 27.2183C317.33 28.148 316.633 29.1608 316.633 30.2565C316.633 30.489 316.699 30.7712 316.832 31.1033C317.064 31.6013 317.38 32.033 317.778 32.3983C318.21 32.7303 318.824 33.162 319.621 33.6933C319.887 33.8261 320.086 33.9423 320.219 34.0419C320.949 34.5068 321.53 34.9717 321.962 35.4366C322.394 35.8682 322.609 36.4161 322.609 37.0802C322.609 37.4455 322.526 37.8107 322.36 38.176C322.194 38.5412 321.962 38.8567 321.663 39.1223C321.132 39.6536 320.102 40.5834 318.575 41.9116C316.483 43.7379 314.607 45.4645 312.947 47.0916C311.32 48.6854 309.394 50.8438 307.169 53.5666C304.944 56.2894 302.587 59.5269 300.096 63.2791C297.971 66.5332 296.311 69.3391 295.116 71.6967C293.92 74.0874 293.322 76.2458 293.322 78.1717C293.322 79.5995 293.638 80.6787 294.269 81.4092C294.866 82.1397 295.746 82.505 296.909 82.505C298.868 82.505 301.508 81.5586 304.828 79.6659C308.182 77.7732 311.486 75.5153 314.74 72.8921C318.027 70.302 320.518 68.0773 322.211 66.2178L322.51 65.8691C323.373 64.7734 324.07 63.9764 324.602 63.4784C325.133 62.9803 325.565 62.7313 325.897 62.7313C326.129 62.7313 326.312 62.8143 326.445 62.9803C326.611 63.1131 326.677 63.2957 326.644 63.5282C326.345 64.8232 324.32 67.1143 320.567 70.4017C316.815 73.7222 312.731 76.7771 308.315 79.5663C303.932 82.3887 300.561 83.9328 298.204 84.1984C297.971 84.2316 297.672 84.2482 297.307 84.2482Z" fill="white"/>
<defs>
<clipPath id="clip0_593_49">
<rect width="702" height="114.595" fill="white" transform="translate(7.11646 92.2526)"/>
</clipPath>
</defs>
</svg>
