<?xml version="1.0" encoding="utf-8"?>
<!-- Generator: Adobe Illustrator 27.4.0, SVG Export Plug-In . SVG Version: 6.00 Build 0)  -->
<svg version="1.1" id="Layer_1" xmlns="http://www.w3.org/2000/svg" xmlns:xlink="http://www.w3.org/1999/xlink" x="0px" y="0px"
	 viewBox="0 0 628.66 1000" enable-background="new 0 0 628.66 1000" xml:space="preserve">
<linearGradient id="XMLID_00000120548366750341527270000008319240716983677092_" gradientUnits="userSpaceOnUse" x1="-4397.4487" y1="20.2295" x2="-4397.4487" y2="-4252.3555">
	<stop  offset="0" style="stop-color:#2EAFE3"/>
	<stop  offset="1" style="stop-color:#ABDFF4"/>
</linearGradient>
<path id="XMLID_191_" fill="url(#XMLID_00000120548366750341527270000008319240716983677092_)" d="M-3549.06-1253.19
	c-128.2-58.57-290.15-55.13-428.48-71.32c-79.63-9.32-159.23-18.83-238.88-27.97c-50.82-5.83-135.03-27.1-183.76-4.58
	c-112.78,52.1-93.1,185.36-37.3,270.59c46.42,70.91,120.08,118.86,199.27,145.74c75.26,25.55,153.31,31.4,232.04,34.64
	c32.57,1.34,66.63-0.84,95.1,17.49c80.9,52.06,38.33,193.75,30.18,269.46c-7.05,65.53-109.38,67.41-104.11,0
	c3.42-43.7,17.85-99.43,13.14-142.55c-8.01-73.36-73.33-47.59-130.02-53.56c-71.61-7.54-142.38-22.48-208.7-51.16
	c-16.53-7.14-32.72-15.21-48.46-24.11c20.17,69.96,33.33,141.8,41.96,209.92c14.77,116.54,13.11,262.46-92.05,339.14
	c-125.83,91.75-247.65,38.86-352.47-65.17c-3.2,124.43-54.68,248.86-161.92,290c-96.31,36.95-223.6-44.84-295.46-100.38
	c-102.53-79.23-175.12-187.7-237.93-299.48c-16.53-29.42-33.62-59.99-50.51-91.28c7.01,27.35,14.23,54.66,22.19,81.73
	c42.67,145.12,99.29,285.18,166.54,420.63c63.06,127,132.25,271.45,280.7,310.51c148.75,39.14,322.41,33.01,475.28,32.57
	c163.76-0.48,333.79-5.35,495.21-35.03c196.35-36.1,329.01-184.78,427.27-348.51c80.75-134.54,160.22-270.1,231.41-409.99
	c29.45-57.87,79.71-120.87,105.05-184.34c19.05-47.7,24.41-98.38-0.4-160.35C-3354.45-1026.12-3419.76-1194.11-3549.06-1253.19z"/>
<linearGradient id="XMLID_00000168804157295531983800000011390576318507086005_" gradientUnits="userSpaceOnUse" x1="-4349.8628" y1="20.2288" x2="-4349.8628" y2="-4252.3491">
	<stop  offset="0" style="stop-color:#2EAFE3"/>
	<stop  offset="1" style="stop-color:#ABDFF4"/>
</linearGradient>
<path id="XMLID_192_" fill="url(#XMLID_00000168804157295531983800000011390576318507086005_)" d="M-4567.55-1434.25
	c32.8,51.21,31.65,37.97,84.92,17.01c35.88-14.12,68.88-25.83,107.47-31.26c154.47-21.74,310.22,20.33,462.76,38.55
	c83.18,9.93,177,13.62,265.99,30.41c-104.64-187.46-53.16-460.97-30.49-657.68c36.39-315.8,102.27-627.48,136.14-943.53
	c9.08-84.7,32.58-459.74-161.51-373.78c-99.68,44.14-127.07,300.32-148.82,396.68c-63.03,279.27-99.01,563.66-138.49,846.94
	c-15.26,109.46-11.77,467.45-210.61,424.5c-88.88-19.2-116.48-116.34-142.16-191.26c-43.21-126.02-86.04-252.15-129.95-377.94
	c-65.55-187.78-180.41-513.11-252-698.67c-42.9-111.2-99.14-333.56-232.62-372.11c-88.97-25.7-180.24,55.08-200.99,145.33
	c-20.75,90.25,8.44,183.67,37.56,271.58c57.2,172.64,162.88,482.86,224.03,653.72c65.05,181.74,131.91,362.7,199.63,543.3
	C-4654.26-1623.01-4620.79-1517.37-4567.55-1434.25z"/>
<linearGradient id="XMLID_00000005985303909393018320000004066869485065561756_" gradientUnits="userSpaceOnUse" x1="-4776.6348" y1="20.23" x2="-4776.6348" y2="-4252.354">
	<stop  offset="0" style="stop-color:#2EAFE3"/>
	<stop  offset="1" style="stop-color:#ABDFF4"/>
</linearGradient>
<path id="XMLID_193_" fill="url(#XMLID_00000005985303909393018320000004066869485065561756_)" d="M-4741.61-553.42
	c71.01,79.55,237.33,206.87,294.53,44.88c33.22-94.07-4.13-223.37-29.11-314.67c-26.44-96.66-71.94-184.68-89.23-282.4
	c-14.03-79.3-31.75-152.02-69.72-225.08c-76.65-147.47-207.86-239.02-375.87-177.22c-249.12,91.64-0.77,501.46,74.46,646.76
	C-4881.12-754.07-4822.37-643.9-4741.61-553.42z"/>
<linearGradient id="XMLID_00000109744351562605303550000013866058277024323766_" gradientUnits="userSpaceOnUse" x1="-5225.8252" y1="20.2295" x2="-5225.8252" y2="-4252.355">
	<stop  offset="0" style="stop-color:#2EAFE3"/>
	<stop  offset="1" style="stop-color:#ABDFF4"/>
</linearGradient>
<path id="XMLID_194_" fill="url(#XMLID_00000109744351562605303550000013866058277024323766_)" d="M-5020.66-239.58
	c173.63,2.97,118.88-273.29,99.28-369.25c-0.62-3.04-0.91-6.05-0.96-9.03c-58.6-95.38-104.46-189.57-132.61-247.34
	c-57.14-117.23-150.2-304.24-160.89-463.63c-156.68-160.25-339.26,170.02-338.26,300.66c1.25,163.19,103.74,323.72,182.79,461.66
	C-5307.98-455.99-5170.96-242.15-5020.66-239.58z"/>
<linearGradient id="XMLID_00000008142729993541051940000005814372293400297607_" gradientUnits="userSpaceOnUse" x1="-5647.2446" y1="-1558.7106" x2="-3187.6387" y2="-1558.7106">
	<stop  offset="0" style="stop-color:#696969"/>
	<stop  offset="1" style="stop-color:#1A1A1A"/>
</linearGradient>
<path id="XMLID_226_" fill="url(#XMLID_00000008142729993541051940000005814372293400297607_)" d="M-3325.26-1161.45
	c-43.75-72.31-107.47-120.38-156.4-187.25c-94.42-129.05-100.92-298.16-95.03-451.86c6.43-167.67,26.64-334.15,50.88-500.07
	c40.7-278.66,123.39-585.42,98.5-868.06c-14.7-166.95-165.81-405.74-351.71-256.49c-81.3,65.27-104.44,177.81-130.61,273.53
	c-43.32,158.45-75.81,319.66-103.36,481.52c-25.23,148.17-46.11,297.03-67.15,445.84c-10.02,70.89-19.99,141.79-30.48,212.61
	c-6.43,43.45-5.55,234.74-97.97,188.24c-36.41-18.32-67.82-189.44-81.74-229.58c-26.69-76.97-53.84-153.77-81.92-230.25
	c-56.16-152.98-114.07-305.35-173.21-457.21c-55.33-142.1-160.44-421.33-216.83-562.99c-42.38-106.43-130.24-155.41-253.14-135.83
	c-99.51,15.85-165.59,58.66-210.4,148.91c-117.82,237.3,100.04,719.23,182.58,947.93c90.76,251.49,215.31,532.25,306.06,783.74
	c-6.43-17.81-174.01-64.44-194.76-65.39c-58.45-2.68-121.42,18.21-170.93,48.11c-28.4,17.16-149.3,132.13-111.6,176.12
	c-95.94-108.91-304.94,38.8-369.12,140.93c-74.68,118.85-75.89,245.66-43.33,369.88c-4.79,9.65-2.4,21.06,6.72,28.79
	c-13.54,123.71,40.51,287.34,67.94,394.67c41.1,160.8,98.38,317.5,172.14,466.19c59.95,120.86,133.11,244.93,264.22,297.4
	c145.77,58.34,331.2,51.08,485.47,53.96c305.83,5.7,695.34,24.53,927.32-209.63c98.05-98.98,166.14-221.91,230.63-344.02
	c97.53-184.66,361.75-487.99,263.18-710.5C-3246.35-995.82-3277.74-1082.91-3325.26-1161.45z M-4896.31-2255.77
	c-61.16-170.86-166.84-481.09-224.03-653.72c-29.13-87.91-58.31-181.33-37.56-271.58c20.75-90.26,112.02-171.03,200.99-145.33
	c133.48,38.56,189.73,260.92,232.62,372.11c71.58,185.56,186.44,510.89,252,698.67c43.91,125.78,86.74,251.91,129.95,377.94
	c25.68,74.92,53.28,172.06,142.16,191.26c198.84,42.95,195.35-315.04,210.61-424.5c39.48-283.28,75.46-567.66,138.49-846.94
	c21.75-96.35,49.14-352.54,148.82-396.68c194.1-85.96,170.59,289.07,161.51,373.78c-33.87,316.04-99.75,627.73-136.14,943.53
	c-22.67,196.72-74.16,470.22,30.49,657.68c-88.99-16.78-182.81-20.48-265.99-30.41c-152.54-18.21-308.3-60.29-462.76-38.55
	c-38.59,5.43-71.59,17.15-107.47,31.26c-53.27,20.96-52.12,34.2-84.92-17.01c-53.23-83.12-86.71-188.76-129.13-278.22
	C-4764.41-1893.07-4831.26-2074.03-4896.31-2255.77z M-5011.01-1507.9c168.01-61.8,299.22,29.75,375.87,177.22
	c37.97,73.06,55.69,145.78,69.72,225.08c17.29,97.72,62.79,185.74,89.23,282.4c24.98,91.3,62.33,220.6,29.11,314.67
	c-57.21,161.99-223.53,34.67-294.53-44.88c-80.76-90.48-139.51-200.65-194.94-307.72
	C-5011.78-1006.45-5260.13-1416.26-5011.01-1507.9z M-5554.11-1028.18c-1-130.63,181.59-460.91,338.26-300.66
	c10.69,159.39,103.75,346.4,160.89,463.63c28.16,57.78,74.02,151.97,132.61,247.34c0.06,2.99,0.34,6,0.96,9.03
	c19.6,95.96,74.35,372.22-99.28,369.25c-150.31-2.57-287.32-216.41-350.66-326.94C-5450.37-704.46-5552.86-864.99-5554.11-1028.18z
	 M-3303.77-740.19c-25.35,63.47-75.61,126.48-105.05,184.34c-71.19,139.9-150.66,275.45-231.41,409.99
	c-98.26,163.72-230.92,312.4-427.27,348.51c-161.42,29.68-331.46,34.55-495.21,35.03c-152.87,0.44-326.53,6.57-475.28-32.57
	c-148.45-39.07-217.64-183.51-280.7-310.51c-67.25-135.44-123.87-275.5-166.54-420.63c-7.96-27.07-15.17-54.38-22.19-81.73
	c16.89,31.29,33.98,61.85,50.51,91.28c62.81,111.78,135.4,220.25,237.93,299.48c71.87,55.54,199.16,137.32,295.46,100.38
	c107.24-41.14,158.73-165.58,161.92-290c104.82,104.03,226.64,156.92,352.47,65.17c105.16-76.68,106.81-222.6,92.05-339.14
	c-8.63-68.12-21.79-139.96-41.96-209.92c15.75,8.9,31.94,16.97,48.46,24.11c66.32,28.67,137.09,43.62,208.7,51.16
	c56.69,5.97,122.01-19.8,130.02,53.56c4.71,43.12-9.72,98.85-13.14,142.55c-5.27,67.41,97.07,65.53,104.11,0
	c8.15-75.71,50.71-217.4-30.18-269.46c-28.48-18.33-62.54-16.14-95.1-17.49c-78.73-3.25-156.78-9.1-232.04-34.64
	c-79.19-26.88-152.85-74.83-199.27-145.74c-55.8-85.23-75.48-218.49,37.3-270.59c48.73-22.51,132.95-1.25,183.76,4.58
	c79.65,9.14,159.25,18.64,238.88,27.97c138.33,16.19,300.28,12.75,428.48,71.32c129.31,59.07,194.61,227.06,244.89,352.64
	C-3279.36-838.57-3284.72-787.89-3303.77-740.19z"/>
<linearGradient id="XMLID_00000165927342095113787520000009425953501077832073_" gradientUnits="userSpaceOnUse" x1="-3439.3984" y1="-600.852" x2="-5207.0015" y2="-600.852">
	<stop  offset="0" style="stop-color:#333333"/>
	<stop  offset="1" style="stop-color:#1A1A1A"/>
</linearGradient>
<path id="XMLID_981_" fill="url(#XMLID_00000165927342095113787520000009425953501077832073_)" d="M-3595.74-1224l-0.01-0.02
	c-87.02-39.76-196.39-48.32-302.17-56.6c-36.18-2.84-73.59-5.77-109.18-9.93l-79.86-9.39c-52.96-6.26-105.91-12.5-158.89-18.58
	c-11.4-1.3-24.41-3.31-38.32-5.5c-36.72-5.75-92.21-14.47-114.93-3.98c-23.85,11.02-38.56,27.24-44.97,49.6
	c-10.67,37.21,2.01,92.53,31.56,137.68c45.42,69.36,117.4,105.12,169.78,122.9c70.43,23.88,145.33,28.73,216.01,31.64l13.5,0.4
	c32.27,0.83,72.43,1.83,110.21,26.14c98.04,63.08,76.63,194.16,62.47,280.9c-2.56,15.7-4.98,30.23-6.33,42.84
	c-7.47,69.45-69.33,105.28-124.88,100.47c-58.62-5.43-97.83-52.15-93.22-111.05c1.35-17.29,4.1-35.49,6.76-53.09
	c4.33-28.56,8.8-58.09,6.54-78.8c-0.08-0.69-0.16-1.34-0.23-1.92c-7.71-0.67-20.11-0.31-29.04-0.04
	c-15.06,0.45-32.14,0.96-49.84-0.89c-62.37-6.57-118.19-17.89-169.07-34.35c6.51,33.65,12.08,68.69,16.66,104.87
	c24.08,190.14-13.57,318.56-115.12,392.6c-76.14,55.49-189.8,93.92-328.41,7.97c-4.13,2.83-8.2,5.77-12.1,9.05
	c-4.01,3.37-7.54,7.2-11.19,10.92c-31.28,98.25-93.07,172.31-175.91,204.09c-24.5,9.4-50.02,13.05-75.91,12.67
	c-62.43,29.12-129.51,50.79-195.54,69.07c-3.2,0.89-6.42,1.75-9.63,2.63c41.04,61.09,90.82,110.17,160.67,128.55
	c6.31,1.66,12.87,2.87,19.27,4.36c76.35-23.12,146.08-68.25,197.17-129.58c25.96-31.16,47.35-66.25,76.33-94.62
	c114.41-111.97,314.79-92.74,428.12-205.8c63.13-62.98,94.66-163,177.98-194.77c62.29-23.75,132.54,0.13,198.51-9.47
	c134.01-19.5,206.55-161.27,279.35-275.45c53.19-83.43,117.19-159.96,189.89-227.07c12.93-11.94,26.38-23.64,40.31-34.72
	C-3478.28-1119.88-3527.17-1192.68-3595.74-1224z"/>
<linearGradient id="XMLID_00000114066733341597595480000013860059597965668792_" gradientUnits="userSpaceOnUse" x1="-3614.7322" y1="-2869.572" x2="-3916.7585" y2="-2869.572">
	<stop  offset="0" style="stop-color:#333333"/>
	<stop  offset="1" style="stop-color:#1A1A1A"/>
</linearGradient>
<path id="XMLID_982_" fill="url(#XMLID_00000114066733341597595480000013860059597965668792_)" d="M-3701.99-3325.1
	c-54.53,24.15-88.76,211.36-103.38,291.3c-4.67,25.58-8.83,48.14-12.78,65.65c-41.66,184.58-71.79,374.39-98.61,561.9
	c32.47-86.76,56.82-176.55,71.29-268.05c7.83-49.49,14.11-102.22,45.29-141.44c31.18-39.22,97.84-54.84,130.42-16.77
	c11.04,12.89,16.24,29.4,20.45,46.01c10.8-74.42,20.79-149.07,28.74-223.27c15.92-148.57-1.82-291.86-39.57-319.41
	C-3663.18-3331.39-3672.51-3338.14-3701.99-3325.1z"/>
<linearGradient id="XMLID_00000040544278890434051820000000576173213554200511_" gradientUnits="userSpaceOnUse" x1="-4616.7075" y1="-2722.4624" x2="-5130.4546" y2="-2722.4624">
	<stop  offset="0" style="stop-color:#333333"/>
	<stop  offset="1" style="stop-color:#1A1A1A"/>
</linearGradient>
<path id="XMLID_983_" fill="url(#XMLID_00000040544278890434051820000000576173213554200511_)" d="M-4800.61-2956.59
	c-6.75-17.51-13.84-37.7-21.48-59.48c-35.41-101.05-88.93-253.78-173.61-278.24c-24.46-7.07-47.2,1.81-62,10.53
	c-32.33,19.01-58.75,55.37-67.32,92.64c-17.89,77.79,12.05,168.13,36.1,240.74c59.82,180.52,163.94,485.77,223.59,652.43
	c17.51,48.92,35.53,98.79,54.12,149.91c-7.27-95.76-10.51-191.81-8.51-287.83c1.17-56.23,18.81-129.06,74.88-133.64
	c39.89-3.25,70.79,32.82,93.54,65.75c11.85,17.15,23.14,34.68,34.58,52.11C-4674.66-2615.53-4748.73-2822.13-4800.61-2956.59z"/>
<linearGradient id="XMLID_00000123430782728114934890000007452596306900602527_" gradientUnits="userSpaceOnUse" x1="-4648.979" y1="-1252.5894" x2="-5085.2378" y2="-1252.5894">
	<stop  offset="0" style="stop-color:#333333"/>
	<stop  offset="1" style="stop-color:#1A1A1A"/>
</linearGradient>
<path id="XMLID_984_" fill="url(#XMLID_00000123430782728114934890000007452596306900602527_)" d="M-4930.54-1492.98
	c-25.64,0-53.47,4.83-83.6,15.92c-32.1,11.81-51.83,29.87-62.09,56.89c-37.36,98.38,49.41,284.72,113.59,407.97
	c8.03-32.09,20.48-62.7,39.04-90.35c48.58-72.34,148.81-115.38,226.69-76.28c18.4,9.24,34.04,22.1,47.92,37.01
	c-11.54-60.28-27.73-123.56-59.85-185.36C-4743.8-1394.48-4814.82-1492.98-4930.54-1492.98z"/>
<linearGradient id="XMLID_00000142873436773220824170000009780453699398275969_" gradientUnits="userSpaceOnUse" x1="-5090.6479" y1="-986.0955" x2="-5519.771" y2="-986.0955">
	<stop  offset="0" style="stop-color:#333333"/>
	<stop  offset="1" style="stop-color:#1A1A1A"/>
</linearGradient>
<path id="XMLID_985_" fill="url(#XMLID_00000142873436773220824170000009780453699398275969_)" d="M-5338.22-1002.5
	c12.51-5.49,26.63-8.72,39.88-5.39c16.77,4.21,29.2,17.93,40.55,30.97c55.71,63.98,111.43,127.96,167.14,191.95
	c-15.09-29.71-27.97-56.12-38.28-77.27l-5-10.24c-57.21-117.26-142.27-291.63-159.83-451.72c-13.19-9.84-24.85-13.26-35.27-13.26
	c-8.65,0-16.46,2.35-23.59,5.3c-83.7,34.48-167.73,204.96-167.15,280.63c1.02,133.12,81.7,272.25,152.88,394.99
	c4.28,7.38,8.4,14.55,12.59,21.8c-14.28-39.03-31.85-77.78-45.2-116.54C-5430.4-841.06-5425.17-964.34-5338.22-1002.5z"/>
<linearGradient id="XMLID_00000162317623386843406280000010068555331578908561_" gradientUnits="userSpaceOnUse" x1="-5001.8276" y1="-122.082" x2="-5332.4365" y2="-122.082">
	<stop  offset="0" style="stop-color:#333333"/>
	<stop  offset="1" style="stop-color:#1A1A1A"/>
</linearGradient>
<path id="XMLID_1136_" fill="url(#XMLID_00000162317623386843406280000010068555331578908561_)" d="M-5001.83-73.41
	c-96.96-1.4-199.36-62.68-275.06-121.19c-19.61-15.16-38.09-31.17-55.54-47.85c13.41,29.58,27.44,59.17,42.11,88.71l3.59,7.22
	c24.78,49.94,49.98,100.51,79.74,144.81c3.21-0.88,6.43-1.74,9.63-2.63C-5131.33-22.62-5064.26-44.29-5001.83-73.41z"/>
<linearGradient id="XMLID_00000043442438983138411180000016482397764436142470_" gradientUnits="userSpaceOnUse" x1="-4726.7207" y1="-304.741" x2="-4750.0151" y2="-304.741">
	<stop  offset="0" style="stop-color:#333333"/>
	<stop  offset="1" style="stop-color:#1A1A1A"/>
</linearGradient>
<path id="XMLID_1137_" fill="url(#XMLID_00000043442438983138411180000016482397764436142470_)" d="M-4726.72-310.13
	c-4.89-3.03-9.73-5.83-14.68-9.17c-2.45,10.03-5.57,19.55-8.62,29.13c3.65-3.71,7.18-7.55,11.19-10.92
	C-4734.92-304.37-4730.85-307.31-4726.72-310.13z"/>
<path id="XMLID_00000044866329419525491430000011102311987557480619_" d="M6202.89-1278c-43.75-72.3-107.46-120.38-156.4-187.25
	c-94.42-129.05-100.92-298.16-95.03-451.86c6.43-167.67,26.65-334.15,50.88-500.07c40.7-278.66,123.39-585.42,98.5-868.06
	c-14.7-166.95-165.81-405.74-351.71-256.49c-81.3,65.27-104.44,177.81-130.61,273.53c-43.31,158.45-75.81,319.66-103.36,481.52
	c-25.23,148.17-46.11,297.03-67.15,445.84c-10.02,70.89-19.99,141.79-30.48,212.61c-6.43,43.45-5.55,234.74-97.97,188.24
	c-36.41-18.32-67.82-189.44-81.74-229.58c-26.69-76.97-53.84-153.77-81.92-230.25c-56.16-152.98-114.07-305.35-173.21-457.21
	c-55.33-142.1-160.44-421.33-216.83-562.99c-42.38-106.43-130.24-155.41-253.14-135.83c-99.51,15.85-165.59,58.66-210.4,148.91
	c-117.82,237.3,100.04,719.23,182.58,947.93c90.76,251.49,215.3,532.25,306.06,783.74c-6.43-17.81-174.01-64.44-194.76-65.39
	c-58.45-2.68-121.42,18.21-170.93,48.11c-28.4,17.16-149.3,132.13-111.6,176.12c-95.94-108.91-304.94,38.8-369.12,140.93
	c-74.68,118.85-75.89,245.66-43.33,369.88c-4.79,9.65-2.4,21.06,6.72,28.79c-13.54,123.71,40.51,287.34,67.94,394.67
	c41.1,160.8,98.38,317.5,172.14,466.19c59.95,120.86,133.11,244.93,264.22,297.4c145.77,58.34,331.2,51.08,485.47,53.96
	c305.83,5.7,695.34,24.53,927.32-209.63c98.05-98.98,166.14-221.91,230.63-344.02c97.53-184.66,361.75-487.99,263.18-710.5
	C6281.8-1112.37,6250.41-1199.46,6202.89-1278z M4631.83-2372.31c-61.16-170.86-166.84-481.09-224.03-653.72
	c-29.13-87.91-58.31-181.33-37.56-271.58c20.75-90.26,112.02-171.03,200.99-145.33c133.48,38.56,189.73,260.92,232.62,372.11
	c71.59,185.56,186.44,510.89,252,698.67c43.91,125.78,86.74,251.91,129.95,377.94c25.69,74.92,53.28,172.06,142.16,191.26
	c198.84,42.95,195.35-315.04,210.61-424.5c39.48-283.28,75.46-567.66,138.49-846.94c21.75-96.35,49.14-352.54,148.82-396.68
	c194.1-85.96,170.59,289.07,161.51,373.78c-33.87,316.04-99.75,627.73-136.14,943.53c-22.67,196.72-74.16,470.22,30.49,657.68
	c-88.99-16.78-182.81-20.48-265.99-30.41c-152.54-18.21-308.3-60.29-462.76-38.55c-38.59,5.43-71.59,17.15-107.47,31.26
	c-53.27,20.96-52.13,34.2-84.92-17.01c-53.23-83.12-86.71-188.76-129.13-278.22C4763.74-2009.62,4696.89-2190.57,4631.83-2372.31z
	 M4517.14-1624.45c168.01-61.8,299.22,29.75,375.87,177.22c37.97,73.06,55.69,145.78,69.72,225.08
	c17.29,97.72,62.79,185.74,89.23,282.4c24.97,91.3,62.33,220.6,29.11,314.67c-57.21,161.99-223.53,34.67-294.53-44.88
	c-80.76-90.48-139.51-200.65-194.94-307.72C4516.37-1122.99,4268.02-1532.8,4517.14-1624.45z M3974.04-1144.73
	c-1-130.63,181.59-460.91,338.26-300.66c10.69,159.39,103.75,346.4,160.89,463.63c28.16,57.78,74.02,151.97,132.61,247.34
	c0.06,2.99,0.34,6,0.96,9.03c19.6,95.96,74.35,372.22-99.28,369.25c-150.31-2.57-287.32-216.41-350.66-326.94
	C4077.78-821,3975.28-981.54,3974.04-1144.73z M6224.38-856.74c-25.35,63.47-75.61,126.47-105.05,184.34
	c-71.19,139.9-150.66,275.45-231.41,409.99C5789.65-98.68,5656.99,50,5460.64,86.1c-161.42,29.68-331.46,34.55-495.21,35.03
	c-152.87,0.44-326.53,6.57-475.28-32.57c-148.45-39.07-217.64-183.51-280.7-310.51c-67.25-135.44-123.87-275.5-166.54-420.63
	c-7.96-27.07-15.17-54.38-22.19-81.73c16.89,31.29,33.98,61.85,50.51,91.28c62.81,111.78,135.4,220.25,237.93,299.48
	c71.87,55.54,199.16,137.32,295.46,100.38c107.24-41.14,158.73-165.58,161.92-290c104.82,104.03,226.64,156.92,352.47,65.17
	c105.16-76.68,106.82-222.6,92.05-339.14c-8.63-68.12-21.79-139.96-41.96-209.92c15.75,8.9,31.94,16.97,48.46,24.11
	c66.32,28.67,137.09,43.62,208.7,51.16c56.69,5.97,122.01-19.8,130.02,53.56c4.71,43.12-9.72,98.85-13.14,142.55
	c-5.27,67.41,97.07,65.53,104.11,0c8.15-75.71,50.71-217.4-30.19-269.46c-28.48-18.33-62.54-16.14-95.1-17.49
	c-78.73-3.25-156.78-9.1-232.04-34.64c-79.19-26.88-152.85-74.83-199.27-145.74c-55.8-85.23-75.48-218.49,37.3-270.59
	c48.73-22.51,132.95-1.25,183.76,4.58c79.65,9.14,159.25,18.64,238.88,27.97c138.33,16.19,300.28,12.75,428.48,71.32
	c129.31,59.07,194.61,227.06,244.89,352.64C6248.79-955.11,6243.43-904.44,6224.38-856.74z"/>
<g>
	<path fill="#FFFFFF" d="M624.03,684.15c-13.95-34.83-32.06-81.42-67.92-97.81c-35.56-16.24-80.47-15.29-118.84-19.78
		c-22.08-2.59-44.16-5.22-66.25-7.76c-14.09-1.62-37.45-7.52-50.97-1.27c-31.28,14.45-25.82,51.41-10.34,75.05
		c12.88,19.67,33.3,32.97,55.27,40.42c20.87,7.09,42.52,8.71,64.36,9.61c9.03,0.37,18.48-0.23,26.38,4.85
		c22.44,14.44,10.63,53.74,8.37,74.74c-1.95,18.17-30.34,18.7-28.88,0c0.95-12.12,4.95-27.58,3.64-39.54
		c-2.22-20.35-20.34-13.2-36.06-14.86c-19.86-2.09-39.49-6.24-57.88-14.19c-4.58-1.98-9.07-4.22-13.44-6.69
		c5.59,19.4,9.24,39.33,11.64,58.22c4.1,32.32,3.64,72.79-25.53,94.06c-34.9,25.45-68.69,10.78-97.76-18.08
		c-0.89,34.51-15.17,69.02-44.91,80.43c-26.71,10.25-62.01-12.44-81.95-27.84c-28.44-21.97-48.57-52.06-65.99-83.06
		c-4.59-8.16-9.33-16.64-14.01-25.32c1.95,7.59,3.95,15.16,6.15,22.67c11.83,40.25,27.54,79.1,46.19,116.66
		c17.49,35.22,36.68,75.29,77.85,86.12c41.26,10.86,89.42,9.16,131.82,9.03c45.42-0.13,92.58-1.48,137.35-9.72
		c54.46-10.01,91.25-51.25,118.5-96.66c22.4-37.32,44.44-74.91,64.18-113.71c8.17-16.05,22.11-33.52,29.14-51.13
		C629.42,715.39,630.91,701.33,624.03,684.15z"/>
	<path fill="#FFFFFF" d="M182.44,308.27c18.04,50.41,36.58,100.59,55.37,150.69c11.77,24.81,21.05,54.11,35.81,77.16
		c9.1,14.2,8.78,10.53,23.55,4.72c9.95-3.92,19.1-7.16,29.81-8.67c42.84-6.03,86.04,5.64,128.35,10.69
		c23.07,2.75,49.09,3.78,73.77,8.43c-29.02-51.99-14.74-127.85-8.46-182.41c10.09-87.59,28.36-174.03,37.76-261.69
		c2.52-23.49,9.04-127.51-44.8-103.67c-27.65,12.24-35.24,83.29-41.28,110.02c-17.48,77.46-27.46,156.33-38.41,234.9
		c-4.23,30.36-3.26,129.65-58.41,117.74c-24.65-5.32-32.3-32.27-39.43-53.05c-11.98-34.95-23.86-69.94-36.04-104.82
		c-18.18-52.08-50.04-142.31-69.89-193.78c-11.9-30.84-27.5-92.51-64.52-103.21c-24.68-7.13-49.99,15.28-55.75,40.31
		c-5.76,25.03,2.34,50.94,10.42,75.32C136.17,174.84,165.48,260.88,182.44,308.27z"/>
	<path fill="#FFFFFF" d="M254.88,564.85c-21.26-40.9-57.65-66.29-104.25-49.15c-69.09,25.42-0.21,139.08,20.65,179.38
		c15.37,29.7,31.67,60.25,54.07,85.35c19.69,22.06,65.82,57.38,81.69,12.45c9.21-26.09-1.15-61.95-8.07-87.27
		c-7.33-26.81-19.95-51.22-24.75-78.32C270.33,605.28,265.41,585.11,254.88,564.85z"/>
	<path fill="#FFFFFF" d="M147.96,867.47c48.16,0.82,32.97-75.8,27.53-102.41c-0.17-0.84-0.25-1.68-0.27-2.51
		c-16.25-26.45-28.97-52.58-36.78-68.6c-15.85-32.51-41.66-84.38-44.62-128.59C50.36,520.91-0.28,612.51,0,648.75
		c0.35,45.26,28.77,89.79,50.7,128.04C68.27,807.44,106.27,866.75,147.96,867.47z"/>
</g>
<g>
	
		<linearGradient id="XMLID_00000056428269991894677700000003914990412445421188_" gradientUnits="userSpaceOnUse" x1="3997.3772" y1="-3585.3018" x2="3997.3772" y2="-7857.8867">
		<stop  offset="0" style="stop-color:#E3CF35"/>
		<stop  offset="1" style="stop-color:#F4ECAE"/>
	</linearGradient>
	
		<path id="XMLID_00000116197853165087663800000013843467929473642381_" fill="url(#XMLID_00000056428269991894677700000003914990412445421188_)" d="
		M4845.76-4858.72c-128.2-58.57-290.15-55.13-428.48-71.32c-79.63-9.32-159.23-18.83-238.88-27.97
		c-50.82-5.83-135.03-27.1-183.76-4.58c-112.78,52.1-93.1,185.36-37.3,270.59c46.42,70.91,120.08,118.86,199.27,145.74
		c75.26,25.55,153.31,31.4,232.04,34.64c32.57,1.34,66.62-0.84,95.1,17.49c80.9,52.06,38.33,193.75,30.18,269.46
		c-7.05,65.53-109.38,67.41-104.11,0c3.42-43.7,17.85-99.43,13.14-142.55c-8.01-73.36-73.33-47.59-130.02-53.56
		c-71.61-7.54-142.38-22.48-208.7-51.16c-16.53-7.14-32.72-15.21-48.46-24.11c20.17,69.96,33.33,141.8,41.96,209.92
		c14.77,116.54,13.11,262.46-92.05,339.14c-125.83,91.75-247.65,38.86-352.47-65.17c-3.2,124.43-54.68,248.86-161.92,290
		c-96.31,36.95-223.6-44.84-295.46-100.38c-102.53-79.23-175.12-187.7-237.93-299.48c-16.53-29.42-33.62-59.99-50.51-91.28
		c7.01,27.35,14.23,54.66,22.19,81.73c42.67,145.12,99.29,285.18,166.54,420.63c63.06,127,132.25,271.45,280.7,310.51
		c148.75,39.14,322.41,33.01,475.28,32.57c163.76-0.48,333.79-5.35,495.21-35.03c196.35-36.1,329.01-184.78,427.27-348.51
		c80.75-134.54,160.22-270.1,231.41-409.99c29.45-57.87,79.71-120.87,105.05-184.34c19.05-47.7,24.41-98.38-0.4-160.35
		C5040.38-4631.65,4975.07-4799.64,4845.76-4858.72z"/>
	
		<linearGradient id="XMLID_00000051364139725693584650000004943097069887901571_" gradientUnits="userSpaceOnUse" x1="4044.9629" y1="-3585.3025" x2="4044.9629" y2="-7857.8804">
		<stop  offset="0" style="stop-color:#E3CF35"/>
		<stop  offset="1" style="stop-color:#F4ECAE"/>
	</linearGradient>
	
		<path id="XMLID_00000036968364084392840600000012280980459445249672_" fill="url(#XMLID_00000051364139725693584650000004943097069887901571_)" d="
		M3827.27-5039.78c32.8,51.21,31.65,37.97,84.92,17.01c35.88-14.12,68.88-25.83,107.47-31.26
		c154.47-21.74,310.22,20.33,462.76,38.54c83.18,9.93,177,13.62,265.99,30.41c-104.64-187.46-53.16-460.97-30.49-657.68
		c36.39-315.8,102.27-627.48,136.14-943.53c9.08-84.7,32.58-459.74-161.51-373.78c-99.68,44.14-127.07,300.32-148.82,396.68
		c-63.03,279.27-99.01,563.66-138.49,846.94c-15.26,109.46-11.77,467.45-210.61,424.5c-88.88-19.2-116.48-116.34-142.16-191.26
		c-43.21-126.02-86.04-252.15-129.95-377.94c-65.55-187.78-180.41-513.11-252-698.67c-42.9-111.2-99.14-333.56-232.62-372.11
		c-88.97-25.7-180.24,55.08-200.99,145.33c-20.75,90.25,8.44,183.67,37.56,271.58c57.2,172.64,162.88,482.86,224.03,653.72
		c65.05,181.74,131.91,362.7,199.63,543.3C3740.56-5228.54,3774.04-5122.9,3827.27-5039.78z"/>
	
		<linearGradient id="XMLID_00000012447804436630189400000004029372169812776107_" gradientUnits="userSpaceOnUse" x1="3618.1914" y1="-3585.3013" x2="3618.1914" y2="-7857.8853">
		<stop  offset="0" style="stop-color:#E3CF35"/>
		<stop  offset="1" style="stop-color:#F4ECAE"/>
	</linearGradient>
	
		<path id="XMLID_00000088119559271343331460000002238729765438415252_" fill="url(#XMLID_00000012447804436630189400000004029372169812776107_)" d="
		M3653.21-4158.95c71.01,79.55,237.33,206.87,294.53,44.88c33.22-94.07-4.13-223.37-29.11-314.67
		c-26.44-96.66-71.94-184.68-89.23-282.4c-14.03-79.3-31.75-152.02-69.72-225.08c-76.65-147.47-207.86-239.02-375.87-177.22
		c-249.12,91.64-0.77,501.46,74.46,646.76C3513.71-4359.6,3572.46-4249.43,3653.21-4158.95z"/>
	
		<linearGradient id="XMLID_00000016755934976569876420000011740909809738676129_" gradientUnits="userSpaceOnUse" x1="3169.0005" y1="-3585.3018" x2="3169.0005" y2="-7857.8862">
		<stop  offset="0" style="stop-color:#E3CF35"/>
		<stop  offset="1" style="stop-color:#F4ECAE"/>
	</linearGradient>
	
		<path id="XMLID_00000042710461230672814900000011191191206853286032_" fill="url(#XMLID_00000016755934976569876420000011740909809738676129_)" d="
		M3374.17-3845.11c173.63,2.97,118.88-273.29,99.28-369.25c-0.62-3.04-0.91-6.05-0.96-9.03c-58.6-95.38-104.46-189.57-132.61-247.34
		c-57.14-117.23-150.2-304.24-160.89-463.63c-156.68-160.25-339.26,170.02-338.26,300.66c1.25,163.19,103.74,323.72,182.79,461.66
		C3086.85-4061.52,3223.87-3847.68,3374.17-3845.11z"/>
	
		<linearGradient id="XMLID_00000181785866915507736190000003082444960723036056_" gradientUnits="userSpaceOnUse" x1="4955.4272" y1="-4206.3833" x2="3187.8242" y2="-4206.3833">
		<stop  offset="0" style="stop-color:#333333"/>
		<stop  offset="1" style="stop-color:#1A1A1A"/>
	</linearGradient>
	
		<path id="XMLID_00000092444688668177795210000002879253070223982469_" fill="url(#XMLID_00000181785866915507736190000003082444960723036056_)" d="
		M4799.08-4829.53l-0.01-0.02c-87.02-39.76-196.39-48.32-302.17-56.6c-36.18-2.84-73.59-5.77-109.18-9.93l-79.86-9.39
		c-52.96-6.26-105.91-12.5-158.89-18.58c-11.4-1.3-24.41-3.31-38.32-5.5c-36.72-5.75-92.21-14.47-114.93-3.98
		c-23.85,11.02-38.56,27.24-44.97,49.6c-10.67,37.21,2.01,92.53,31.56,137.68c45.42,69.36,117.4,105.12,169.78,122.9
		c70.43,23.88,145.33,28.73,216.01,31.64l13.49,0.4c32.27,0.83,72.43,1.83,110.21,26.14c98.04,63.08,76.63,194.16,62.47,280.9
		c-2.56,15.7-4.98,30.23-6.33,42.84c-7.47,69.45-69.33,105.28-124.88,100.47c-58.62-5.43-97.83-52.15-93.22-111.05
		c1.35-17.29,4.1-35.49,6.76-53.09c4.33-28.56,8.8-58.09,6.54-78.8c-0.08-0.69-0.16-1.34-0.23-1.92
		c-7.71-0.67-20.11-0.31-29.04-0.04c-15.06,0.45-32.14,0.96-49.84-0.89c-62.37-6.57-118.19-17.89-169.07-34.35
		c6.51,33.65,12.07,68.69,16.66,104.87c24.08,190.14-13.57,318.56-115.12,392.6c-76.14,55.49-189.8,93.92-328.41,7.97
		c-4.13,2.83-8.2,5.77-12.1,9.05c-4.01,3.37-7.54,7.2-11.19,10.92c-31.28,98.25-93.07,172.31-175.91,204.09
		c-24.5,9.4-50.02,13.05-75.91,12.67c-62.43,29.12-129.51,50.79-195.54,69.07c-3.2,0.89-6.42,1.75-9.63,2.63
		c41.04,61.09,90.82,110.17,160.67,128.55c6.31,1.66,12.87,2.87,19.27,4.36c76.35-23.12,146.08-68.25,197.17-129.58
		c25.96-31.16,47.35-66.25,76.33-94.62c114.41-111.97,314.79-92.74,428.12-205.8c63.13-62.98,94.66-163,177.98-194.77
		c62.29-23.75,132.54,0.13,198.51-9.47c134-19.5,206.55-161.27,279.35-275.45c53.19-83.43,117.19-159.96,189.89-227.07
		c12.93-11.94,26.38-23.64,40.31-34.72C4916.55-4725.41,4867.66-4798.21,4799.08-4829.53z"/>
	
		<linearGradient id="XMLID_00000131332720563979394470000000707374863057810055_" gradientUnits="userSpaceOnUse" x1="4780.0938" y1="-6475.103" x2="4478.0674" y2="-6475.103">
		<stop  offset="0" style="stop-color:#333333"/>
		<stop  offset="1" style="stop-color:#1A1A1A"/>
	</linearGradient>
	
		<path id="XMLID_00000177442468516247354560000016015751655524694671_" fill="url(#XMLID_00000131332720563979394470000000707374863057810055_)" d="
		M4692.83-6930.63c-54.53,24.15-88.76,211.36-103.38,291.3c-4.67,25.58-8.83,48.14-12.78,65.65
		c-41.66,184.58-71.79,374.39-98.61,561.9c32.47-86.76,56.82-176.55,71.29-268.05c7.83-49.49,14.11-102.22,45.29-141.44
		c31.18-39.22,97.84-54.83,130.42-16.77c11.04,12.89,16.24,29.4,20.45,46.01c10.8-74.42,20.79-149.07,28.74-223.27
		c15.92-148.57-1.82-291.86-39.57-319.41C4731.64-6936.92,4722.32-6943.67,4692.83-6930.63z"/>
	
		<linearGradient id="XMLID_00000067209261869152787270000016260620987463062443_" gradientUnits="userSpaceOnUse" x1="3778.1182" y1="-6327.9937" x2="3264.3713" y2="-6327.9937">
		<stop  offset="0" style="stop-color:#333333"/>
		<stop  offset="1" style="stop-color:#1A1A1A"/>
	</linearGradient>
	
		<path id="XMLID_00000109004405746468683300000012783268094685056183_" fill="url(#XMLID_00000067209261869152787270000016260620987463062443_)" d="
		M3594.22-6562.12c-6.75-17.51-13.84-37.7-21.48-59.48c-35.41-101.05-88.93-253.78-173.61-278.24c-24.46-7.07-47.2,1.81-62,10.53
		c-32.33,19.01-58.75,55.37-67.32,92.64c-17.89,77.79,12.05,168.13,36.1,240.74c59.82,180.52,163.94,485.77,223.59,652.43
		c17.51,48.92,35.53,98.79,54.12,149.91c-7.27-95.76-10.51-191.81-8.51-287.83c1.17-56.23,18.81-129.06,74.88-133.64
		c39.89-3.25,70.79,32.82,93.54,65.75c11.85,17.15,23.14,34.68,34.58,52.11C3720.17-6221.06,3646.09-6427.66,3594.22-6562.12z"/>
	
		<linearGradient id="XMLID_00000083069170361901915300000008683294914791772578_" gradientUnits="userSpaceOnUse" x1="3745.8467" y1="-4858.1206" x2="3309.5879" y2="-4858.1206">
		<stop  offset="0" style="stop-color:#333333"/>
		<stop  offset="1" style="stop-color:#1A1A1A"/>
	</linearGradient>
	
		<path id="XMLID_00000026147602369324305020000002177050467592774049_" fill="url(#XMLID_00000083069170361901915300000008683294914791772578_)" d="
		M3464.29-5098.51c-25.64,0-53.47,4.83-83.6,15.92c-32.1,11.81-51.83,29.87-62.09,56.89c-37.36,98.38,49.41,284.72,113.59,407.98
		c8.03-32.09,20.48-62.7,39.04-90.35c48.58-72.34,148.81-115.38,226.69-76.28c18.4,9.24,34.04,22.1,47.92,37.01
		c-11.54-60.28-27.73-123.56-59.85-185.36C3651.03-5000.01,3580.01-5098.51,3464.29-5098.51z"/>
	
		<linearGradient id="XMLID_00000027583347134298440860000014335035990898511524_" gradientUnits="userSpaceOnUse" x1="3304.178" y1="-4591.6265" x2="2875.0549" y2="-4591.6265">
		<stop  offset="0" style="stop-color:#333333"/>
		<stop  offset="1" style="stop-color:#1A1A1A"/>
	</linearGradient>
	
		<path id="XMLID_00000057835671944709372610000015899840037269207713_" fill="url(#XMLID_00000027583347134298440860000014335035990898511524_)" d="
		M3056.61-4608.04c12.51-5.49,26.63-8.72,39.88-5.39c16.77,4.21,29.2,17.93,40.55,30.97c55.71,63.98,111.43,127.96,167.14,191.95
		c-15.09-29.71-27.97-56.12-38.28-77.27l-5-10.24c-57.21-117.26-142.27-291.63-159.83-451.72c-13.19-9.84-24.85-13.26-35.27-13.26
		c-8.65,0-16.46,2.35-23.59,5.3c-83.7,34.48-167.73,204.96-167.15,280.63c1.02,133.12,81.7,272.25,152.88,394.99
		c4.28,7.38,8.4,14.55,12.59,21.81c-14.28-39.03-31.85-77.77-45.2-116.54C2964.43-4446.59,2969.66-4569.88,3056.61-4608.04z"/>
	
		<linearGradient id="XMLID_00000031904943833465072970000017950842704142356910_" gradientUnits="userSpaceOnUse" x1="3392.998" y1="-3727.6133" x2="3062.3892" y2="-3727.6133">
		<stop  offset="0" style="stop-color:#333333"/>
		<stop  offset="1" style="stop-color:#1A1A1A"/>
	</linearGradient>
	
		<path id="XMLID_00000085951015452153049110000011940902551256577423_" fill="url(#XMLID_00000031904943833465072970000017950842704142356910_)" d="
		M3393-3678.94c-96.96-1.4-199.36-62.68-275.06-121.19c-19.61-15.16-38.09-31.17-55.55-47.85c13.41,29.58,27.44,59.17,42.11,88.71
		l3.59,7.22c24.78,49.94,49.98,100.51,79.74,144.81c3.21-0.88,6.43-1.74,9.63-2.63C3263.49-3628.15,3330.56-3649.82,3393-3678.94z"
		/>
	
		<linearGradient id="XMLID_00000155843307434275543210000003058295961202091425_" gradientUnits="userSpaceOnUse" x1="3668.1052" y1="-3910.2722" x2="3644.8105" y2="-3910.2722">
		<stop  offset="0" style="stop-color:#333333"/>
		<stop  offset="1" style="stop-color:#1A1A1A"/>
	</linearGradient>
	
		<path id="XMLID_00000153677074561806012700000009932625552848199053_" fill="url(#XMLID_00000155843307434275543210000003058295961202091425_)" d="
		M3668.11-3915.67c-4.89-3.03-9.73-5.83-14.68-9.17c-2.45,10.03-5.57,19.55-8.62,29.13c3.65-3.71,7.18-7.55,11.19-10.92
		C3659.9-3909.9,3663.98-3912.84,3668.11-3915.67z"/>
</g>
</svg>
