<?xml version="1.0" encoding="UTF-8"?><svg id="Layer_1" xmlns="http://www.w3.org/2000/svg" viewBox="0 0 648.74 800"><path d="m296.21,733.97c-.83,3.85-1.65,7.7-2.48,11.55-.13.61-.26,1.25-.06,1.84.19.55.64.95,1.09,1.31,7.98,6.35,18.37,8.02,27.15,13.02,3.88,2.2,7.67,5.44,8.66,10,1.32,6.04-3.04,12.21-8.45,14.5-5.41,2.29-11.51,1.57-17.21.35-6.47-1.38-12.83-3.37-18.97-5.93-8.85-3.7-17.81-9.16-21.91-18.29-.86-1.92-1.5-3.99-2.74-5.65-1.25-1.66-3.34-2.85-5.24-2.2-3.95,1.36-3.55,8.73-7.54,9.95-1.15.35-2.39.05-3.53-.3-3.85-1.18-7.55-2.94-10.95-5.21-1.04-.7-2.09-1.47-2.74-2.59-1.37-2.37-.55-5.44.34-8.07,3.6-10.58,7.77-20.94,12.51-31.01" fill="#ab5e48"/><path d="m364.52,453.4c8.26,4.61,38.96,27.49,38.83,35.1-.13,7.63-25.48,64.46-54.39,121.48l-.11-.02c9.27-46.52,17.86-94.41,20.21-113.52,1.77-14.34-4.26-22.27-3.13-32.49l-1.42-10.55Z" fill="#537f7a"/><path d="m351.44,290.24c-2.41,4.45-22.64-3.47-22.64-3.47-3.62,1.36-8.15,3.47-8.15,3.47-3.26,6.15-18.39,30.59-33.32,36.88-5.32-10.4-8.37-22.36-9.89-34.4,2.28.41,3.92.32,4.91-.32,4.94-3.2,10.79-28.45,15.12-31.11,4.31-2.67,4.61-.46,12.66-6.56,8.06-6.13,10.69-7.21,12.69-6.5,1.99.72,7.53,4.11,12.2,11.68l-.03.03c1.17,1.09,2.28,2.35,3.25,3.7,5.06,3.66,14.84,12.57,13.19,14.31-1.76,1.82-18.51-5.89-18.51-5.89-2.2,1.17-12.28,5-12.28,5,7.68-1.64,12.28,0,12.28,0,6.34,2.62,20.93,8.74,18.51,13.19Z" fill="#ab5e48"/><path d="m286.57,718.87c-.65-11.97-1.09-20.74-1.09-20.74v-.05c14.46.85,52.13,2.48,63.37,2.98l-.03.14c-5.79,19.12-9.27,35.56-11.33,47.51-16.44-.11-33.29,2.66-48.76,6.22-.78-11.94-1.56-25.3-2.16-36.06h0Z" fill="#f4ac91"/><path d="m295.52,475.01c-1.09,6.42-2.12,12.75-3.07,18.94l-.1-.02c-7.5-2.89-59.58-19.02-59.58-19.02v-5.34c18.63.33,62.75,5.43,62.75,5.43h0Z" fill="#537f7a"/><path d="m283.84,566.83c-2.12,7.52-43.45,112.75-51.07,151.44l57.79,21.11-6.69-172.6" fill="#537f7a"/><path d="m37.74,477.18l195.02-7.74v21.6s-5.54.2-14.92.54c-7.96.27-18.7.67-31.09,1.09-39.29,1.44-95.4,3.47-133.77,4.9-12.25.47-22.75.85-30.44,1.16-8.01.31-12.96.54-13.66.6.95-.83-.08-21.03-.08-21.03l28.93-1.14Z" fill="#282324"/><path d="m192.43,693.77c-1.43-49.68-3.09-108.86-4.26-150.07-.84-30.27-1.41-50.82-1.41-50.82v-.2c12.4-.43,23.13-.83,31.09-1.1-.1,1.23,5.49,292.98,5.86,295.35,0-.9-28.24.33-28.49.02-.08-.11-1.01-31.12-2.21-72.99-.19-6.49-.38-13.27-.59-20.2h0Z" fill="#282324"/><path d="m193.01,713.97h-.32c-.48-.02-126.83,2.39-135.45,2.57-.1-6.33-.25-12.9-.38-19.66,3.78-.09,128.91-2.95,135.55-3.11.21,6.93.4,13.71.59,20.2h0Z" fill="#282324"/><path d="m188.16,543.7c-4.9-.11-134.18,3.89-134.18,3.89h-.06c-.55-28.63-.92-48.45-.92-50.02,38.36-1.43,94.48-3.46,133.76-4.9v.2s.57,20.56,1.41,50.82h0Z" fill="#282324"/><path d="m185.68,166.07c.17-.07.34-.16.51-.22.25,5.39,1.07,10.9.52,16.26-.73,7.45-5.08,13.62-6.53,20.87-.19.9-.29,1.79-.36,2.71-.36,4.34.25,8.81-.99,13.02-1.64,5.52-5.36,10.06-8.49,14.65-3.49,5.14-6.51,10.51-8.7,16.4-5.69-1.83-9.14-2.86-9.14-2.86,3.04-30.87,11.05-86.7,11.05-86.7l.02-.18c.92.15,1.45.24,1.45.24,0,0,3.61-12.01,3.93-15.05,0,0-.55-.18-1.53-.49v-.02l.04-.11c3.93-20.2,5.72-41.14,2.69-48.18.61,1.12,1.22,2.24,1.81,3.4,9.94,19.73,13.74,42.21,14.16,64.35l.06,1.61c-.23.16-.42.27-.51.31h0Z" fill="#f37b3a"/><path d="m170.16,96.39c3.02,7.05,1.24,27.98-2.69,48.18l-.04.11c-6.37-2.06-30.99-9.71-42.8-8.17-11.91,1.59-35.67,24.09-41.79,29.77l-.06-.07c-.95-15.55-2.92-52.68,5.84-69.05,8.76-16.4,36.35-30.8,66.45-21.79l.17-.16c5.48,6.6,10.67,13.56,14.92,21.16h0Z" fill="#f37b3a"/><path d="m167.43,144.7c.99.31,1.53.49,1.53.49-.32,3.04-3.93,15.05-3.93,15.05,0,0-.53-.09-1.45-.24-5.8-.99-27.75-4.34-38.95-1.88-12.98,2.86-42.06,19.8-42.06,19.8-.53-3.82-1.18-10.33-1.18-10.33.04,0,.57-.47,1.45-1.3,6.11-5.68,29.87-28.18,41.79-29.77,11.81-1.54,36.43,6.11,42.8,8.16v.02Z" fill="#f37b3a"/><path d="m14.52,406.25c-3.49,5.34-5,8.9-5.25,9.51-.02.07-.04.09-.04.09-24.16-92.47,4.41-223.17,25.17-278.01,20.76-54.85,79.52-83.03,97.25-84.33,2.63,1.59,5.21,3.45,7.71,5.53,5.63,4.61,10.82,10.16,15.32,15.52.19.22.38.45.57.67l-.16.15c-30.11-9.01-57.69,5.39-66.45,21.79-8.76,16.37-6.79,53.5-5.84,69.05l.06.07c-.88.83-1.41,1.3-1.45,1.3,0,0,.65,6.51,1.18,10.33h2.81s0,108.46,15.52,117.75c4.94,1.79,22.17,5.46,44.06,9.55-3.45,5.9-3.57,18.39-1.72,26.3,1.89,8.19,0,16.28,0,16.28,0,0-31.7-6.87-49.46,0-47.88,18.52-70.21,44.58-79.27,58.45h0Z" fill="#f37b3a"/><path d="m57.26,716.54c.86,42.52,1.49,74.17,1.49,74.17h-28.36c-1.56-17.09-7.84-291.83-7.84-291.83v-.14c7.69-.31,18.19-.69,30.44-1.16,0,1.56.38,21.38.92,50.01.8,40.86,1.98,99.72,2.96,149.28.13,6.76.28,13.33.38,19.66h0Z" fill="#282324"/><path d="m15.66,416.25l-.25.04c-3.04-.04-5.78-.47-6.13-.54.25-.6,1.77-4.16,5.25-9.51,0,1.7.38,5.28,1.14,10h0Z" fill="#f37b3a"/><path d="m352.67,136.3c2.96-2.41,6.95-.2-.83,8.08l.03.06c-1.49.4-2.85.76-4,.99-3.57.74-9.16.82-13.64,1.08v-.03c5.09-1.62,15.5-7.77,18.44-10.18h0Z" fill="#ab5e48"/><path d="m367.37,140.64c1.3.6-2.42,9.5-11.66,13.58-9.24,4.11-17.53,3.97-17.53,3.97-.03.03-2.88,1.9-4.72,2.84-.9-.99-1.6-1.65-2-1.82-2.4-1.05-10.31,1.16-15.08,3.35-2.48.34-4.77.71-6.34.94l-.06-.03c1.76-2.89,3.38-6.15,4.29-9.3.93-.39,11.11-5.02,13.51-6.55,1.01-.63,3.46-.91,6.44-1.11,4.48-.26,10.07-.34,13.64-1.08,1.14-.23,2.5-.59,3.99-.99,6.23-1.67,14.44-4.28,15.5-3.8h0Z" fill="#ab5e48"/><path d="m352.16,184.03c9.11,8.79,16.09,11.65,15.1,14.69-.96,3.03-16.28,3.54-31.24-12.59h-.03c.05-.85.08-1.58.03-2.24-.51-7.6-1.95-20.79-4.23-22.09-1.62-.94-9.19-.11-15.4.77,4.77-2.18,12.68-4.4,15.08-3.35.4.17,1.09.82,2,1.81,4.37,4.9,13.69,18.18,18.7,23h0Z" fill="#ab5e48"/><path d="m316.39,162.57c6.21-.88,13.77-1.7,15.4-.77,2.29,1.3,3.73,14.49,4.23,22.09.05.65.03,1.39-.03,2.24-.67,9.25-6.82,29.61-7.33,38.46-.58,9.67-9.99-1.84-6.93-24.08,0,0-1.7-8.51-2.1-14.38-.08-1.76-.08-3.29.13-4.25,0,0-13.4,1.45-17.47-3.4.72-3.01.72-5.22.72-5.3,0,0,3.68-4.23,6.98-9.7l.06.03c1.57-.23,3.86-.6,6.34-.94h0Z" fill="#ab5e48"/><path d="m319.63,186.13h-.07c-6.93.97-16.87,9.7-26.38,16.78-9.51,7.06-22.61.63-24.39,0-.94-.33-5.28,2.99-14.49,11.09-.68-2.62-1.31-5.3-1.89-8.05-1.85-8.7-2.25-18.98-3.29-28.4,8.42-4.75,12.46-7.13,15.33-9.95,4.78-4.67,15.6-1.9,28.63-5.72,4.58-3.91,9.18-9.05,12.82-14.21,7.29-10.37,13.05-13.52,8.73,5.25-.12.42-.22.83-.35,1.25-.91,3.15-2.53,6.41-4.3,9.3-3.29,5.48-6.96,9.7-6.96,9.7,0,.09,0,2.29-.73,5.3,4.09,4.86,17.47,3.4,17.47,3.4-.2.97-.2,2.5-.13,4.26Z" fill="#ab5e48"/><path d="m279.75,196.93c-.36,0-.72,0-1.08-.01-.65-.02-1.16-.6-1.14-1.28.02-.69.63-1.28,1.21-1.22,7.31.21,13.08-1.79,17.08-5.94,5.97-6.19,6.04-15.21,6.04-15.29,0-.32.11-.62.31-.85.07-.09,7.59-8.82,10.55-17.1.23-.64.9-.97,1.52-.72.61.24.91.97.68,1.61-2.81,7.87-9.23,15.78-10.71,17.55-.09,2.13-.82,10.43-6.72,16.57-4.27,4.44-10.23,6.69-17.73,6.69h0Z" fill="#ab5e48"/><path d="m280.52,170.05c-.62,0-1.13-.51-1.17-1.18-.04-.69.45-1.28,1.1-1.33,2.38-.16,5.62-1.73,9.35-4.56.53-.4,1.26-.27,1.64.29.38.57.25,1.35-.28,1.75-4.15,3.14-7.71,4.83-10.57,5.02-.02,0-.05,0-.07,0h0Z" fill="#ab5e48"/><path d="m319.61,186.37c-.63,0-1.15-.53-1.18-1.2-.02-.72-.02-1.35,0-1.91-3.82.25-13.47.41-17.09-4.01-.43-.52-.38-1.31.11-1.77.49-.45,1.23-.4,1.66.12,2.97,3.62,12.95,3.42,16.55,3.04.38-.04.75.12,1,.42.25.31.35.72.26,1.11-.09.42-.2,1.27-.14,2.9.02.69-.48,1.27-1.13,1.29h-.04Z" fill="#ab5e48"/><path d="m336.03,186.36h-.04c-.65-.02-1.16-.6-1.14-1.29,0-.4,0-.76-.02-1.09-.77-11.98-2.47-20.27-3.61-21.08-.89-.51-5.27-.61-20.99,1.82-.65.08-1.24-.37-1.33-1.06-.09-.68.35-1.32,1-1.42,14.06-2.17,20.56-2.62,22.45-1.55,3.15,1.79,4.44,16.76,4.84,23.11.02.41.03.85.02,1.33-.02.68-.54,1.22-1.18,1.22h0Z" fill="#ab5e48"/><path d="m338.82,147.54c-.62,0-1.14-.52-1.17-1.2-.03-.69.47-1.28,1.12-1.31,3.21-.16,6.54-.35,8.89-.83.76-.16,1.63-.37,2.57-.61.63-.15,1.27.25,1.42.92.15.67-.24,1.35-.87,1.51-.97.25-1.87.46-2.67.63-2.5.52-5.93.72-9.23.88-.02,0-.04,0-.05,0h0Z" fill="#ab5e48"/><path d="m286.16,718.28c-.5,0-.9-.42-.93-.95-.29-7.76-.51-13.99-.61-17.06-.02-.54.38-1,.89-1.02.5.01.94.41.96.95.11,3.07.33,9.3.62,17.06.02.54-.38,1-.89,1.02h-.04Z" fill="#d86e48"/><path d="m171.21,382.46c-.63,0-.63,1.05,0,1.05s.63-1.05,0-1.05h0Z" fill="#35a79e"/><path d="m477.75,218.66h0c2.06,1.05,4.5.15,5.45-2.03,13.28-30.22,26.9-60.52,40.96-90.9,1.01-2.18.19-4.8-1.83-5.85-2.03-1.04-4.49-.12-5.5,2.06-14.11,30.37-27.76,60.66-41.07,90.87-.96,2.17-.06,4.78,1.99,5.84h0Z" fill="#282324"/><path d="m423.7,778.16c.06,9.84-7.48,17.66-16.77,17.46-9.29-.19-16.81-8.31-16.87-18.12-.06-9.81,7.37-17.63,16.67-17.46,9.29.17,16.92,8.28,16.98,18.12h0Z" fill="#282324"/><path d="m635.35,782.3c.06,9.97-7.48,17.88-16.77,17.69-9.29-.19-16.81-8.41-16.87-18.35-.06-9.94,7.37-17.86,16.66-17.69,9.29.17,16.92,8.39,16.98,18.35h0Z" fill="#282324"/><path d="m648.45,751.82c-28.37-.5-56.74-1.01-85.11-1.51-1.98-128.5-11.2-256.99-18.09-385.49,28.34-.16,56.68-.33,85.02-.49,6.92,129.16,16.19,258.32,18.18,387.48h0Z" fill="#282324"/><path d="m641.85,783.61c-92.66-1.82-185.31-3.64-277.97-5.46-3.84-.07-6.96-3.41-6.99-7.45-.02-2.22-.04-4.44-.06-6.66-.09-9.6,7.16-17.25,16.27-17.09,91.79,1.63,183.57,3.25,275.36,4.88.12,8.16.22,16.32.28,24.48.03,4.12-3.05,7.39-6.89,7.31h0Z" fill="#282324"/><path d="m466.81,220.96c.16,5.44.33,10.89.51,16.33.24,7.35-6.14,15.3-14.68,15.86,0,0-94.28,7.37-122.83,10.44-8.05.87-14.17,7.65-13.82,16.2,1.28,30.81,2.82,61.62,4.49,92.43.23,4.17,3.61,7.53,7.56,7.51,105.38-.51,210.76-1.03,316.14-1.54-.12-2.15-.24-4.31-.35-6.46-2.46-45.24-4.64-90.48-6.15-135.72-.19-5.84-.38-11.68-.55-17.52-56.77.83-113.54,1.65-170.32,2.48h0Z" fill="#282324"/><path d="m473.29,738.15c33.84-175.37-64.32-274.52-43.68-382.12-11.65.07-23.3.15-34.95.22-19.73,104.67,79.4,249.51,46.4,372.03-1.24,4.61,2.05,9.35,6.62,9.43,8.54.14,17.07.29,25.61.44h0Z" fill="#282324"/><path d="m641.22,219.57c-59.96.87-119.93,1.74-179.9,2.61-.13-4.41-.25-8.82-.37-13.23,59.96-.92,119.92-1.83,179.89-2.75.12,4.46.24,8.92.37,13.37h0Z" fill="#282324"/><path d="m473.3,748.72c-8.65-.15-17.29-.3-25.93-.46-.05-3.52-.12-7.04-.18-10.56,8.64.15,17.29.3,25.93.44.07,3.53.13,7.05.18,10.57h0Z" fill="#282324"/><path d="m168.12,108.14c1.79,1.51,3.78,2.83,5.99,3.91,15.44,7.56,34.05,7.42,53.43-.83,15.18-6.47,29.18-12.34,42.11-23.84,10.98-9.77,18.33-22.1,20.57-34.87,1.89-10.8-.42-20.97-5.38-29.09C277.06,10.68,263.62.13,246.38,0c-12.8-.09-26.14,4.87-38.49,12.23-15.1,9-32.08,20.06-41.65,35.17-13.27,20.97-13.2,47.97,1.87,60.74Z" fill="#ab5e48"/><path d="m344.93,740.04c.21,3.94.42,7.89.63,11.83.03.62.08,1.28.42,1.79.32.47.87.72,1.39.93,9.32,3.74,19.74,2.26,29.48,4.46,4.3.97,8.79,2.95,10.94,7.04,2.84,5.41.27,12.62-4.33,16.43-4.6,3.8-10.64,4.92-16.44,5.43-6.58.59-13.2.56-19.77-.08-9.47-.93-19.5-3.53-25.83-11.08-1.32-1.59-2.49-3.39-4.11-4.61-1.64-1.23-3.95-1.75-5.6-.56-3.43,2.47-1.13,9.43-4.64,11.79-1.01.68-2.28.75-3.48.76-4.01,0-8.02-.59-11.88-1.76-1.18-.36-2.39-.8-3.3-1.68-1.94-1.87-1.95-5.07-1.78-7.85.69-11.23,1.99-22.42,3.91-33.49" fill="#ab5e48"/><path d="m270.31,749.22c-1.18-12.97,7.88-114.01,13.53-182.39t.02-.05c1.81-22.06,4.56-46.43,8.59-72.83.94-6.2,1.98-12.53,3.07-18.94,0,0-44.12-5.1-62.75-5.43v-.13l-195.03,7.74c-11.56-10.49-19.31-43.49-22.08-60.93-.76-4.72-1.14-8.3-1.14-10,9.06-13.87,31.39-39.93,79.27-58.45,17.75-6.87,49.46,0,49.46,0v.02c4.51.47,64.41,6.78,117.46,25.54,55.15,19.53,107.78,47.2,113.16,56.79l-12.88,313.05-90.68,6.01Z" fill="#73ad91"/><path d="m281.93,293.56s6.88,29.71,9.19,34.28c0,0-126.94-10.74-140.17-16.94-13.23-6.2,9.23-59.75,9.23-59.75l121.76,42.41Z" fill="#ab5e48"/></svg>