<svg width="78" height="78" viewBox="0 0 78 78" fill="none" xmlns="http://www.w3.org/2000/svg">
<circle cx="39" cy="39" r="39" fill="#DE9168"/>
<path d="M24.5858 51.5858C23.8047 52.3668 23.8047 53.6332 24.5858 54.4142C25.3668 55.1953 26.6332 55.1953 27.4142 54.4142L24.5858 51.5858ZM54 27C54 25.8954 53.1046 25 52 25L34 25C32.8954 25 32 25.8954 32 27C32 28.1046 32.8954 29 34 29L50 29L50 45C50 46.1046 50.8954 47 52 47C53.1046 47 54 46.1046 54 45L54 27ZM26 53L27.4142 54.4142L53.4142 28.4142L52 27L50.5858 25.5858L24.5858 51.5858L26 53Z" fill="#121212"/>
</svg>
