<?xml version="1.0" encoding="UTF-8"?><svg id="Layer_1" xmlns="http://www.w3.org/2000/svg" viewBox="0 0 345.37 190.59"><path d="m191.18,97.05v.19l-.04.11v.07l-.04.11-.04.07-.04.11-.04.07-.04.07-.04.08-.04.11-.07.08-.04.07-.07.07-.07.08-.08.04-.04.07-.07.08-.08.04-.07.07-.11.04-.07.07-.07.04-.08.04-.11.04h-.08l-.11.04-.07.04h-.11l-.07.04h-.56l-.3-.04c-3.47-.19-6.99.11-10.5,0h-.19l-.07-.04h-.11l-.07-.04h-.11l-.08-.04-.07-.04-.11-.04-.07-.04-.07-.04-.11-.04-.07-.07-.08-.04-.07-.08-.07-.07-.07-.04-.04-.08-.07-.07-.07-.07-.04-.08-.04-.07-.07-.11-.04-.07-.04-.07-.04-.07-.04-.11-.04-.08v-.11l-.04-.08v-.11l-.04-.08v-.37l.04-.11v-.19l.04-.07.04-.11.04-.07v-.11l.07-.07.04-.08.04-.07.04-.11.08-.07.04-.07.07-.08.08-.07.04-.04.08-.08.07-.07.07-.04.07-.07.11-.04.07-.04.08-.07.07-.04.11-.04h.07l.11-.04.07-.04h.11l.07-.04h2.88v-.26l-.04-.6v-1.16c-.07-5.08-.26-10.16-.26-15.25v-.26l-.04-.19v-.33l-.04-.11v-.34l-.04-.26-.04-.26v-.3l-.04-.11v-.15s-.04.04-.04.04l-.15.22-.11.19-.15.22-.15.19-.11.22-.15.22-.15.22-.11.22-.15.22-.15.22-.15.26-.15.22-.15.26-.15.22c-3.25,5.49-6.28,11.14-9.23,16.78l-.26.56-.22.41-.19.34-.07.11-.08.15-.07.11-.07.11-.11.07-.11.11-.11.07-.11.07-.15.08-.11.07-.15.04-.11.04-.15.04-.15.04h-.56l-.11-.04s-.11.04-.11.04h-.22l-.07-.04h-.08l-.19-.04h-.11l-.07-.04h-.07l-.07-.04-.08-.04-.22-.07-.08-.04-.04-.04-.08-.04-.11-.07-.04-.04-.11-.07-.07-.04-.04-.04-.04-.04-.08-.04-.07-.07-.04-.04-.04-.04-.04-.04-.04-.04-.08-.07-.04-.04-.08-.11-.07-.07-.07-.08-.07-.07-.04-.07-.07-.07-.04-.11-.07-.07-.04-.08-.07-.07-.04-.07-.07-.07-.04-.11-.11-.15-.11-.22-.04-.07-.07-.11-.11-.22-.07-.11-.07-.15-.04-.15-.07-.11c-2.73-5.46-5.08-11.1-7.66-16.63l-.15-.37-.11-.19-.07-.19-.07-.19-.11-.19-.07-.19-.08-.19-.04-.07-.08-.15-.07-.19-.07-.19-.11-.26-.11-.26-.11-.26-.04-.11v.15l-.04.15v.9l-.04.15v2.62c-.04,4.75.19,9.53.37,14.28l.04.71v.67l.08,1.08h.67l.26-.04h.56l.3-.04h.6l.3-.04h.34l.3-.04h.37l.11.04h.08l.07.04h.11l.07.04.07.04.11.04.07.04.08.04.07.04.07.07.07.04.08.08.07.04.07.07.07.08.04.07.07.07.04.08.07.07.04.07.04.07.04.07.04.08.04.11.04.07.04.11v.07l.04.07v.11l.04.07v.3l-.04.08v.19l-.04.11v.07l-.04.07-.04.11-.04.07-.04.07-.04.08-.04.11-.04.07-.07.07-.04.07-.07.08-.07.04-.04.07-.07.08-.07.07-.08.04-.07.04-.07.08-.07.04-.08.04-.11.04-.07.04-.07.04c-3.06.86-7.02.34-10.2.45h-.41l-.45.04h-.07l-.11-.04h-.26l-.11-.04-.08-.04h-.11l-.07-.04-.07-.04-.07-.04-.11-.04-.07-.04-.08-.08-.07-.04-.07-.07-.07-.04-.08-.07-.04-.07-.08-.04-.07-.07-.04-.08-.08-.07-.04-.07-.04-.11-.04-.07-.04-.07-.04-.08-.04-.11-.04-.07-.04-.07v-.11l-.04-.07v-.56l.04-.07v-.11l.04-.07v-.11l.04-.07.04-.07.04-.11.04-.07.04-.08.04-.07.07-.07.04-.08.07-.07.04-.07.08-.07.07-.07.07-.04.07-.07.08-.04.07-.07.07-.04.07-.04.08-.04.11-.04.07-.04.07-.04.11-.04h.07l.07-.04h.19l.11-.04h.86l.41-.04h.41l.37-.04h.75c.08,0,0-1.01,0-1.01v-.67c-.19-6.69-.86-13.34-.3-20.03v-.11l.04-.15v-.22l.04-.11v-.11l.04-.26v-.11s-.04,0-.04,0h-.82l-.37.04h-.49s-.19.04-.19.04l-.11.04h-.49l-.07-.04h-.07l-.11-.04-.07-.04-.11-.04-.07-.04-.11-.08-.11-.04-.07-.08-.08-.07-.11-.07-.07-.11-.04-.07-.08-.11-.07-.07-.04-.11-.04-.11-.04-.11-.04-.11-.04-.15v-.45l.04-.11v-.15l.04-.11.07-.11.04-.11.07-.11.04-.07.07-.11.11-.07.07-.11.08-.04.11-.07.08-.07.11-.04.07-.07.11-.04h.07l.07-.04h.07l.11-.04h.08l.04-.04h.26l.11-.04h.41l.08-.04h1.46l.37-.04h1.94l.19-.04h.37l.37.04h1.05l.19.04h.52l.15.04h.15l.11.04h.22l.08.04h.19l.07.04h.15l.08.04h.15l.07.04h.08l.19.04.07.04h.07l.08.04h.07l.07.04.07.04h.08l.07.04.07.04h.07l.08.04.07.04.07.04.07.04h.08l.07.04.04.04.08.04.07.04.07.08.07.04.08.04.07.04.07.07.07.04.08.04.04.07.08.04.07.07.07.07.07.04.04.07.07.08.04.07.07.07.04.07.07.08.04.07.07.07c3.14,5.53,5.38,11.85,7.81,17.75l.26.67.15.34.11.3.19-.34.26-.49.22-.45.26-.52.26-.49.3-.49.26-.52c1.91-3.4,3.66-6.84,5.68-10.13,1.46-2.39,2.91-5.16,4.89-7.17,0-.04.08-.07.08-.07l.04-.07.11-.11.15-.11.07-.07.04-.04.07-.07.07-.04.07-.07.08-.04.07-.08.07-.04.07-.04.11-.07.07-.04.11-.07.11-.04.11-.04.11-.04.07-.04.07-.04h.15l.07-.04h.07l.08-.04h1.05l.19-.04h.78l.19-.04h.41l.41-.04h.38l.41-.04h.37l.37-.04h.75l.19-.04h1.04l.11.04h.15l.15.04.15.04.11.07.15.04.11.07.11.07.11.11.11.07.11.11.07.11.11.11.08.11.07.11.04.15.08.11.04.15.04.15.04.11v.6l-.04.11-.04.15-.04.15-.08.11-.04.15-.07.11-.08.11-.07.11-.11.11-.11.11-.07.11-.15.08-.11.07-.11.07-.11.04-.15.07-.15.04-.11.04-.15.04h-.86v.37l-.04.3v.45l.04.11v.19l-.04.11v.3c0,2.06-.49,20.66.19,20.7h1.05l.15.04h.52l.19.04h.26l.11.04.07.04h.11l.07.04.07.04.11.04.08.07.07.04.07.04.07.08.08.04.07.08.07.07.07.04.08.08.04.07.07.07.04.11.04.07.07.08.04.07.04.11.04.07v.07l.04.11.04.07v.19l.04.11v.19l-.04.08Z" fill="#fff"/><path d="m209.27,80.76v.52l-.04.19v.52l-.04.3v4.15l-.04.34v2.13l-.04.34v.56l-.04.75v.37l-.04.37v.19l-.04.19v.56l-.04.19v.19l-.04.19v.37l-.04.37-.04.19-.04.34v.19l-.08.37v.15l-.04.19-.04.19v.15l-.04.19-.04.15-.04.19v.15l-.04.19-.04.15-.04.15-.04.19-.04.15-.04.15-.04.15v.11l-.04.15-.04.07v.07l-.08.15v.07l-.04.07-.04.07v.08l-.04.07v.07l-.04.04-.04.07-.07.22-.04.15-.07.15-.04.04-.04.08v.07l-.04.07-.04.07-.04.04-.04.07-.04.07-.04.08-.04.04-.04.08-.04.07-.04.04-.04.07-.15.19-.04.07-.11.11-.04.07-.11.11-.07.04-.04.07-.15.11-.04.04-.07.08-.07.04-.07.04-.08.07-.07.04-.07.04-.07.04-.08.04-.07.04-.11.04c-1.23.52-3.03.41-4.37.37-1.5-.04-3.29-.11-4.67-.63-.56-.22-1.12-.71-1.57-1.12l-.07-.04-.04-.07-.07-.04-.11-.11-.04-.04-.11-.11-.04-.07-.08-.04-.04-.07-.04-.04-.11-.11-.04-.07-.08-.11-.04-.07-.04-.04-.04-.07-.04-.07-.04-.04-.04-.07-.04-.04-.07-.15v-.04l-.07-.15-.04-.04v-.07l-.04-.07-.04-.04v-.07l-.04-.04-.04-.07v-.07l-.04-.04-.04-.15v-.04l-.04-.07v-.04l-.04-.15-.04-.11-.04-.11v-.11l-.04-.11-.04-.11v-.11l-.04-.11-.04-.22v-.22l-.04-.11v-.19l-.04-.22v-.22l-.04-.19v-.19l-.04-.41v-.37l-.04-.37-.04-.75-.04-.41-.04-.37v-.41l-.04-.37v-.37l-.04-.19v-.41l-.04-.6v-.97l-.04-.37v-2.76l.04-.37v-.78l.04-.22v-.6l.04-.19v-.37l.04-.23v-.19l.04-.19v-.41l.04-.37.04-.22v-.22l.04-.26v-.15l.04-.15v-.15l.04-.19v-.26l.04-.11v-.19l.04-.19v-.08l.04-.11v-.11l.04-.08.04-.22v-.11l.04-.08v-.11l.07-.22.04-.22.04-.07.04-.11.04-.11.04-.11v-.11l.07-.11.04-.11.04-.11.04-.04v-.07l.04-.04.04-.11.04-.07.11-.22.07-.11.07-.11.04-.04.07-.11.04-.07.07-.11.04-.04.04-.07.11-.11.04-.04.07-.08.04-.04.04-.04.08-.07.04-.04.15-.11.04-.04.08-.04.07-.07.04-.04.07-.04.07-.04.07-.04.11-.07.04-.04.07-.04h.04l.07-.04.04-.04c1.42-.6,3.21-.41,4.71-.34,1.2.04,2.39.15,3.59.3,1.01.11,2.02.19,2.91.64l.07.07.11.04.07.04.08.07.04.04.04.04h.07l.04.04.04.04.04.04.07.08.04.04.07.08.04.04.07.07.04.04.04.04.04.07.07.04.04.07.04.07.08.11.11.15.04.08.04.07.04.04.08.19.07.11.04.11.04.08v.04l.04.08.07.22.04.19.04.08v.11l.04.04v.15l.04.11.04.11v.11l.04.11v.11l.04.11v.11l.04.22v.56l.04.11v.11l-.04.11v.52Zm-5.42,1.12v-.19l-.04-.52v-.6c-.04-.93-.3-2.05-1.16-2.62-.52-.34-1.23-.45-1.87-.26-.11,0-.26.07-.37.11-1.16.45-1.16,2.02-1.19,3.06v.37l-.04.34v.97l-.04.3v.34l-.04.97v4.26l.04,1.01v.34l.04.34v.97l.04.67v.33l.04.34.04.67v.97l.04.3v.78l.04.07v.37l.04.07v.22l.04.04c.15.86,1.01,1.27,1.87,1.19.75-.04,1.5-.52,1.76-1.27l.04-.04v-.07l.04-.08v-.04l.04-.07v-.08l.04-.07v-.07l.04-.04v-.07l.04-.07v-.08l.04-.07v-.15l.04-.07v-.08l.04-.07v-.15l.11-.45v-.93l.04-.37v-.82l.04-.78v-.41l.04-.41v-.78l.04-.79.04-.78v-.41l.04-.37v-.78l.04-.41v-.78l.04-.37v-2.13l.04-.22v-.56Z" fill="#fff"/><path d="m238.31,77.62v.23l-.04.07v.07l-.04.07v.08l-.04.04-.04.07-.04.08-.04.07-.04.04-.04.07-.04.04-.04.08-.07.04-.04.08-.04.04-.07.04-.04.04-.08.04-.07.07-.04.04h-.07l-.07.04-.04.04-.07.04h-.07l-.07.04h-.08l-.07.04h-.19l-.49.04h-.48v.22l.04.19v.19l.04.3v.6l.04.15v.75l.04.3v6.91l-.04.3v.45l-.04.11v.45l-.04.15v.3l-.04.3v.15l-.04.15v.3l-.04.15-.04.45-.07.45-.04.15v.15l-.04.15-.04.11v.15l-.04.15-.04.15-.04.15-.04.3-.04.15-.04.15-.07.26-.04.15-.04.15-.07.15-.04.15-.04.11-.04.15-.04.15-.04.04-.04.07-.04.08-.04.15-.04.08v.04l-.04.07-.07.15v.07l-.08.11-.07.23-.04.04-.08.15-.04.04-.04.08-.07.15-.04.04-.04.07-.04.07-.04.04-.07.15-.04.04-.04.07-.04.08-.04.04-.04.08-.04.04-.07.07-.04.04-.04.07-.04.07-.04.04-.08.07-.04.04-.04.07-.15.15-.08.07-.04.04-.04.04-.07.07-.04.04-.07.07-.04.04-.11.11-.07.04-.04.04-.26.19-.26.19-.04.04-.3.15-.04.04-.15.07-.07.04-.07.04h-.08l-.07.04-.07.04s-.11.07-.11.07l-.07.04-.04.04h-.07l-.07.04-.04.04-.07.04h-.08l-.04.04-.07.04-.19.07h-.07l-.11.04-.07.04h-.04l-.07.04h-.07l-.11.04h-.07l-.07.04h-.11l-.11.04h-.07l-.08.04h-.11l-.37.07h-.37l-.11.04h-.75l-.11.04h-.22l-.11-.04h-.93l-.19-.04h-.41l-.37-.04h-.33l-.15-.04h-.78l-.15-.04h-.6l-.15-.04h-.3l-.11-.04h-.3l-.11-.04h-.3l-.11-.04h-.15l-.11-.04h-.26l-.11-.04h-.11l-.37-.07-.11-.04h-.11l-.11-.04-.26-.04-.22-.04-.11-.04-.07-.04-.11-.04-.34-.07-.11-.04-.11-.04-.07-.04-.11-.04-.11-.04-.07-.04-.11-.04-.11-.04-.07-.04-.11-.04-.07-.08-.11-.04-.07-.04-.19-.11-.11-.04-.15-.11-.11-.07-.15-.11-.26-.19-.08-.07-.15-.11-.07-.07-.08-.07-.07-.07-.07-.08-.07-.07-.08-.07-.07-.07-.04-.08-.15-.15-.11-.15-.07-.11-.04-.07-.07-.07-.04-.07-.11-.19-.04-.08-.07-.11-.04-.07-.04-.07-.11-.19-.04-.11-.04-.07-.07-.19-.11-.26-.04-.11-.04-.11-.04-.07-.07-.19-.04-.11-.04-.11-.04-.07-.07-.22-.04-.11-.04-.08v-.11l-.08-.22-.04-.11-.04-.11-.04-.11v-.11l-.04-.11-.04-.11-.04-.22-.08-.22-.07-.22-.04-.26-.04-.11-.04-.11v-.15l-.04-.11-.04-.15v-.11l-.04-.11-.04-.26-.04-.11v-.15l-.04-.11v-.11l-.04-.26-.04-.11v-.15l-.04-.22v-.15l-.04-.11v-.26l-.04-.23v-.37l-.04-.11v-.37l-.04-.26v-.26l-.04-.52v-1.01l-.04-.78v-1.01l.04-.52v-1.79l.04-.49v-.52l.04-.49v-.97l.04-.19v-.82l.04-.26-.19-.04h-.64l-.07.04h-.15l-.08-.04h-.15l-.07-.04h-.08l-.07-.04h-.04l-.07-.04h-.07l-.04-.04-.07-.04-.07-.04-.04-.04-.07-.04-.04-.04-.07-.07-.04-.04-.07-.04-.04-.07-.04-.04-.04-.07-.07-.04-.04-.08-.04-.07v-.07l-.04-.04-.04-.07-.04-.07v-.08l-.04-.07v-.15l-.04-.08v-.34l.04-.07v-.15l.04-.07v-.07l.04-.08.04-.04.04-.08.04-.07.04-.07.04-.04.04-.07.04-.04.04-.07.04-.04.07-.04.04-.07.07-.04.04-.04.07-.04.04-.04.07-.04.04-.04.07-.04.07-.04h.04l.07-.04h.07l.04-.04h.07l.04-.04h2.17l.64.04h1.34l.37.04h3.18l.15-.04h.9l.11-.04h.22l.07.04h.15l.08.04h.07l.07.04.07.04.08.04.07.04.04.04.07.04.07.04.04.04.07.04.04.07.07.04.04.04.04.07.07.08.04.04.04.08.04.07.04.04.04.08v.07l.04.07.04.07v.08l.04.07v.6l-.04.07v.07l-.04.08v.07l-.04.07-.04.04-.04.07-.04.07-.04.08-.04.04-.04.07-.08.04-.04.07-.04.04-.07.07-.04.04-.07.04-.07.04-.04.07-.07.04h-.07l-.08.04-.04.04-.07.04h-.08l-.07.04h-.07l-.07.04h-.45l-.15.04h-1.35v.15l-.04.04v.37l-.04.19v2.95l-.04.34v.82l-.04.34v.75l-.04.37v1.38l-.04.41v1.91l.04.45v1.01l.04.22v.6l.04.19v.41l.04.19v.19l.04.19v.19l.04.15v.19l.04.19v.15l.04.11v.22l.04.19v.07l.04.07v.15l.04.07v.07l.04.07v.04l.04.15v.08s0,.04.04.07c.15.78.26,1.38,1.08,1.76.6.26,1.27.3,1.94.3,1.34.04,2.76.15,4.15.08.97-.08,1.46-1.35,1.75-2.17v-.11l.04-.07v-.07l.04-.07.04-.07v-.11l.04-.08.04-.15.07-.37.11-.34.04-.19.08-.37.04-.11v-.11l.04-.11v-.11l.04-.07.04-.11v-.11l.04-.11.04-.22v-.11l.04-.11.07-.41v-.22l.04-.11v-.11l.04-.11.04-.34v-.11l.04-.11v-.22l.04-.11v-.11l.04-.45.04-.22v-.22l.04-.22v-.45l.04-.23.04-.67v-.94l.04-.22v-3.47l-.04-.49v-2.35s-.15-.04-.15-.04h-.82l-.3-.04h-.22l-.04-.04h-.07l-.08-.04h-.07l-.07-.04-.07-.04h-.04l-.07-.04-.08-.04-.04-.04-.07-.04-.08-.07-.04-.04-.04-.04-.07-.07-.04-.04-.04-.04-.08-.07-.04-.07-.04-.04-.04-.07-.04-.04v-.07l-.04-.07-.04-.07v-.08l-.04-.07v-.04l-.04-.07v-.6l.04-.07v-.04l.04-.07.04-.07v-.07l.04-.08.04-.04.04-.08.04-.07.04-.04.04-.08.04-.04.07-.08.04-.04.04-.07.07-.04.04-.04.07-.04.04-.04.07-.04.07-.04.04-.04.07-.04.07-.04h.08l.07-.04h.04l.07-.04h1.72l.26.04h2.65l.22-.04h.93l.45-.04h.93l.45-.04h.86l.04.04h.08l.07.04h.07l.07.04.08.04.04.04h.07l.08.04.04.07.08.04.04.04.07.04.04.08.07.04.04.04.04.07.04.04.04.07.04.07.04.04.04.07.04.07.04.04v.07l.04.07v.08l.04.07v.15l.04.08v.15l-.04.04Z" fill="#fff"/><path d="m262,82.03c0,.67-.19,1.38-.63,1.9-.34.34-.78.6-1.23.71-.9.22-1.91-.04-2.58-.67-.56-.49-.9-1.23-1.05-1.98-.19-.78-.19-1.61-.19-2.43v-.11h-.41c-1.12-.04-2.28-.04-3.44-.04h-.41.04c.71.86,1.46,1.68,2.13,2.58.56.78,1.38,1.94,1.27,2.99-.08.56-.41,1.05-.82,1.46-1.16,1.12-2.39,2.17-3.59,3.21-1.5,1.31-2.17,3.14-1.94,5.12.08.6.37,1.87,1.23,1.64.52-.11,1.08-.71,1.49-1.05.45-.41.86-.86,1.23-1.35.78-.93,1.46-1.98,2.2-2.95.41-.52.86-1.01,1.42-1.35,1.12-.71,2.58-.33,3.25.82.3.49.45,1.08.6,1.64.22,1.05.33,2.13.45,3.21.11,1.01.22,2.02.3,3.03.04.6,0,1.2-.26,1.72-.3.63-.9,1.08-1.57,1.31-.93.34-2.05.19-2.73-.52-.41-.45-.6-1.01-.71-1.61-.07-.34-.11-.71-.15-1.05,0-.11-.15-.71-.07-.78-.82.93-1.76,1.76-2.8,2.43-.19.11-.41.26-.6.37-2.61,1.38-6.61,1.57-8.41-1.19-1.53-2.35-1.2-5.61.19-7.96.75-1.2,1.72-2.28,2.77-3.29.93-.9,1.98-1.76,2.91-2.73.15-.19.19-.19.04-.41-.11-.11-.22-.26-.3-.37-.22-.26-.45-.56-.63-.82-.45-.52-.86-1.05-1.27-1.57-.64-.82-1.35-1.64-1.91-2.5h-.19c-.97,0-1.98,0-2.95.04-.49.04-.97.07-1.42-.07-.75-.26-1.31-1.05-1.27-1.83.04-.78.6-1.5,1.35-1.72.34-.07.63-.07.97-.07,1.31,0,2.62-.04,3.92-.04,1.94,0,3.85,0,5.79-.04h3.62l.15.04-.04-.08v-.37c.04-.67.37-1.12.86-1.57.52-.48,1.12-.97,1.87-1.08.71-.11,1.53.19,1.98.78.52.67.6,1.61.67,2.43.11,1.38.3,2.77.6,4.15.11.63.26,1.27.26,1.91v.11Z" fill="#fff"/><path d="m276.53,99.03v.07l-.04.07v.15l-.04.07-.04.07v.08l-.04.07-.04.07-.04.07-.04.07-.04.04-.07.07-.04.08-.04.04-.07.08-.04.04-.07.04-.04.07-.07.04-.07.04-.04.04-.07.04-.08.04-.07.04h-.07l-.07.04-.08.04h-.15l-.07.04h-1.57l-.52.04h-2.28l-.6.04h-1.53l-.3-.04h-2.02l-.26-.04h-.22l-.07-.04h-.07l-.08-.04h-.07l-.07-.04-.07-.04-.08-.04-.07-.04-.07-.04-.04-.04-.07-.04-.07-.07-.04-.04-.07-.04-.04-.08-.04-.04-.08-.08-.04-.07-.04-.04-.04-.07-.04-.07-.04-.07-.04-.07v-.08l-.04-.07-.04-.07v-.15l-.04-.07v-.37l.04-.08v-.07l.04-.07v-.07l.04-.07.04-.08v-.07l.04-.07.04-.08.04-.04.07-.07.04-.08.04-.04.04-.07.07-.04.04-.07.07-.04.08-.04.04-.07.07-.04.08-.04.07-.04.04-.04h.07l.07-.04.07-.04h.08l.07-.04h.22l.07-.04h.11l.26.04h1.38v-1.27l-.04-.52-.08-1.61-.07-1.05-.04-.56-.04-1.04-.04-.56-.04-.52-.04-1.08-.04-.52-.04-.82v-.56l-.04-.64-.04-.64v-.3l-.04-.63v-.6l-.04-.64-.04-.64-.04-.63v-.45l-.04-.45-.04-.48v-.71h-.49l-.08.04h-.22l-.11-.04h-.11l-.07.04h-.08l-.07.04h-.56l-.08-.04h-.07l-.07-.04h-.07l-.08-.04-.07-.04-.07-.04-.04-.04-.07-.04-.11-.04-.04-.04-.08-.07-.04-.04-.08-.08-.04-.04-.04-.04-.07-.07-.04-.07-.04-.04-.04-.07-.04-.08-.04-.07-.04-.04-.04-.08v-.07l-.04-.07-.04-.07v-.11l-.04-.08v-.45l.04-.07v-.08l.04-.07v-.07l.04-.07.04-.08v-.07l.04-.07.04-.04.04-.07.04-.07.07-.04.04-.07.04-.07.07-.04.04-.04.07-.07.08-.04.04-.04.07-.04.04-.04.07-.04.04-.04h.07l.07-.04.04-.04.15-.04h.07l.07-.04h.07l.11-.04h.64l.19.04h.19l.49-.04.52-.04h.26l.26-.04h.22l.26-.04.41-.04.41-.04h.41l.41-.04.37-.04h.41l.82-.07h.37l.41-.04.41-.04.37-.04h.19l.37-.04h.19l.19-.04h.19l.19-.04h.6l.08.04h.07l.07.04h.07l.08.04.07.04.07.04.07.04.08.04.07.04.04.04.08.04.07.07.04.04.07.07.04.04.04.07.07.07.04.04.04.07.04.08.04.07.04.07v.07l.04.08v.07l.04.07v.07l.04.08v.33l-.04.07v.15l-.04.07-.04.07v.08l-.04.07-.04.07-.04.07-.04.08-.04.07-.04.07-.08.04-.04.07-.07.04-.04.07-.07.04-.04.07-.07.04-.07.04-.08.04-.07.04-.07.04-.07.04h-.08l-.07.04-.07.04h-.15l-.07.04h-.19l-.19.04h-.22l-.19.04h-.37l-.23.04h-.19l-.41.04-.41.04h-.07v5.72l.04.9v1.79l.04.45v.9l.04.45v.9l.04.45v.45l.04.45v.41l.04.22.04.67v.52l.04.07v.11l.04.26v.19l.04.15v.19l.04.19v.3l.04.11v.41l.04.22v.82h.9l.9-.04h.22l.07.04h.07l.07.04h.08l.07.04.07.04h.07l.08.04.07.04.07.04.04.04.07.07.07.04.04.04.07.07.04.04.04.07.08.04.04.08.04.07.04.07.04.04.04.07.04.07v.08l.04.07.04.07v.15l.04.08v.3Zm-10.31-21.86h.04-.04Z" fill="#fff"/><path d="m307.7,77.88l-.04.07v.08l-.04.07v.07l-.04.07-.04.08-.04.07-.04.04-.04.07-.04.07-.04.04-.04.07-.07.07-.04.04-.04.04-.07.08-.08.04-.04.04-.08.07-.07.04-.04.04-.08.04h-.07l-.07.04-.07.04h-.08l-.07.04h-.07l-.07.04h-1.42l-.11.07-.11.11-.07.07-.07.04-.08.07-.07.07-.07.07-.07.04-.04.04-.11.07-.07.07-.22.19-.15.07-.08.08-.37.26-.37.34-.41.3-.41.3-.37.33-.82.6-.78.64-.82.6-.37.34-.82.6-1.2.9-.41.33-.41.3-1.2.9-.41.3-.38.26h2.43l.22.04h1.01l.34.04h.45l.11.04h.41l.08.04h.19l.11.04h.07l.07.04h.11l.04.04h.07l.04.04h.07l.07.04.07.04.11.04.11.08.11.07.07.04.07.07.08.07.07.07.04.04.07.07.07.15.07.11.08.11.04.11.04.08.04.11v.08l.04.11v.07l.04.07v.34l.04.04v.11l-.04.07v.41l-.04.07v.26l-.04.11v.07l-.04.15v.11l-.04.11v.11s-.04.15-.04.15v.34l-.04.3v.49l-.04.34v.34l-.04.67v.86l-.04.19v.52l-.04.19v.34l-.04.19-.04.37v.19l.04.15v.11h.82l.49-.04h1.08l.11.04h.71l.15.04h.26l.08.04h.11l.07.04h.11l.07.04.07.04.11.04.07.04.08.07.07.04.07.07.07.04.08.07.07.07.04.07.08.08.04.07.04.07.07.08.04.11v.08l.04.11.04.08v.11l.04.07v.37l-.04.11v.07l-.04.11-.04.07v.08l-.04.11-.07.08-.04.07-.04.07-.08.08-.04.07-.07.07-.08.07-.07.07-.07.04-.07.07-.08.04-.07.04-.11.04-.07.04-.07.04-.11.04h-.07l-.11.04h-.49l-.11-.04h-.6l-.11-.04h-1.05l-.45.04h-1.83l-.49-.04h-.19l-.07.04h-.86l-.07.04h-.52l-.11-.04h-.26l-.07-.04h-.04l-.07-.04-.19-.04-.07-.04-.08-.04-.11-.04-.07-.07-.11-.04-.07-.07-.11-.07-.04-.07-.08-.04-.07-.07-.04-.04-.04-.07-.04-.07-.07-.08-.04-.07-.07-.11-.04-.11-.04-.08-.04-.11-.04-.07-.04-.15v-.11l-.04-.04v-.15l-.04-.19v-.97l.04-.19v-.37l.04-.11v-.82l.04-.67v-.64l.04-.22v-.41l.07-.86.04-.82.04-.41v-.34h-.15l-.71-.04-.34-.04-.71-.04-.34-.04-.71-.04-.41-.04-.97-.07-1.27-.07-1.16-.07-.04.04-.45.34-.82.63-.04.04-.04.04-.07.07-.11.07-.07.07-.11.08-.04.07-.04.04-.07.04-.04.04-.07.07-.04.04v.3l-.04.49v1.23l-.04.49v.75l-.04.04v.78s.26,0,.26,0l.26-.04h.49l.37-.04h.37l.11-.04h1.53l.22.04h.37l.11.04h.15l.07.04.11.04.07.04h.07l.07.04.08.07.07.04.07.04.07.04.04.07.07.04.08.07.04.07.04.08.07.04.04.07.04.08.04.07.04.11.04.07.04.07v.08l.04.07v.11l.04.07v.34l-.04.07v.11l-.04.07v.07l-.04.07-.04.08-.04.07-.04.07-.04.07-.04.08-.07.07-.04.07-.04.07-.08.04-.07.07-.07.04-.04.07-.07.04-.07.04-.08.04-.07.04-.07.04-.11.04-.07.04h-.07l-.08.04h-.45c-2.13-.15-4.3.07-6.46.22-1.31.07-2.69.07-3.96.45h-.07l-.07.04h-.52l-.07-.04h-.11l-.07-.04h-.04l-.07-.04-.07-.04-.08-.04-.07-.04h-.04l-.08-.07-.07-.04-.07-.04-.07-.07-.04-.04-.07-.07-.04-.08-.07-.07-.04-.04-.04-.07-.04-.07-.04-.07-.04-.07-.04-.08-.04-.07v-.07l-.04-.08v-.07l-.04-.07v-.41l.04-.07v-.15l.04-.11.04-.08.04-.07.04-.07.04-.08.04-.07.04-.07.04-.07.07-.07.04-.04.07-.07.04-.08.07-.04.07-.04.04-.04.07-.07h.07l.07-.04.04-.04.07-.04h.04l.07-.04.11-.04h.07l.08-.04h.07l.07-.04h.19l.07-.04h.26l.19-.04h.22l.22-.04h.26l.26-.04v-.15l-.04-.11v-.11l-.04-.22v-.15l-.04-.22v-.22l-.04-.15v-2.39l.04-.41v-.6l.04-.19v-6.54l.04-.15v-.56l.04-.3v-.56l.04-.56.04-.3.04-.52.07-1.12.04-.56v-.26l.04-.26v-.52l.04-.82v-.26h-.86l-.07-.04h-.08l-.07-.04h-.07l-.11-.04-.07-.04-.08-.04-.04-.04-.07-.04-.08-.04-.07-.04-.07-.07-.04-.04-.07-.07-.04-.04-.07-.07-.04-.07-.04-.08-.04-.04-.07-.07v-.08l-.04-.07-.04-.07-.04-.11v-.07l-.04-.08v-.07l-.04-.07v-.34l.04-.07v-.15l.04-.08.04-.11v-.07l.04-.07.04-.07.04-.08.04-.04.04-.07.07-.08.04-.07.07-.04.04-.07.07-.04.04-.08.08-.04.07-.04.07-.04.07-.07.08-.04h.07l.07-.04.07-.04h.08l.07-.04h.07l.07-.04h2.73l.07.04h.26l.04.04h.6l.45.04h3.66l.45-.04h.45l.45-.04h.45l.23-.04h.56l.07.04h.08l.11.04h.07l.07.04.07.04.08.04.07.04.07.04.04.04.07.04.07.07.04.04.07.07.07.04.04.08.04.07.07.04.04.07.04.07.04.07.04.08.04.07v.07l.04.07v.08l.04.11v.56l-.04.07v.07l-.04.08-.04.07-.04.07v.07l-.04.08-.07.07-.04.07-.04.07-.04.04-.07.07-.04.07-.07.04-.07.07-.04.04-.07.04-.08.04-.07.07h-.07l-.07.04-.08.04-.07.04h-.07l-.07.04h-.08l-.11.04h-.3l-.22.04h-.49l-.26.04h-.45l-.26.04h-1.42l-.26.04h-.15l-.04.22v.23l-.04.22v.48l-.04.22v.49l-.04.22v.75l-.04.22v.71l-.04.22v1.2l-.04.49v.97l-.04.48v1.98l.33-.26.45-.3.45-.33.22-.19.22-.15.19-.15.22-.19.41-.3.41-.26.82-.6.78-.6.82-.6,1.19-.9,1.2-.9.41-.3.82-.6.37-.3.78-.64.82-.6,1.19-.9.3-.26h-.82l-.33.04h-.86l-.07-.04h-.15l-.07-.04-.07-.04h-.04l-.07-.04-.07-.04-.07-.04-.08-.04-.04-.04-.08-.04-.07-.04-.04-.07-.08-.04-.04-.07-.08-.04-.04-.08-.04-.04-.04-.08-.04-.07-.04-.07-.04-.04-.04-.07-.04-.07v-.07l-.04-.08-.04-.07v-.15l-.04-.08v-.3l.04-.07v-.15l.04-.08v-.07l.04-.07.04-.07.04-.08.04-.07.04-.04.04-.07.04-.07.04-.04.04-.07.08-.07.04-.04.08-.04.04-.08.07-.04.04-.04.07-.04.08-.04.07-.04.07-.04.04-.04.07-.04h.07l.07-.04h.08l.07-.04h.9l.3-.04h4.22l.49.04h3.1l.07.04h.07l.07.04h.08l.07.04.07.04h.07l.04.04.07.04.07.04.08.08.04.04.08.04.04.04.07.07.04.04.04.08.07.04.04.08.04.07.04.07.04.04.04.07.04.07v.07l.04.08.04.07v.15l.04.08v.45Z" fill="#fff"/><path d="m324.63,80.69v.49l-.04.19v.52l-.04.3v4.18l-.04.34v2.09l-.04.37v.56l-.04.75v.37l-.04.37v.19l-.04.19v.56l-.04.19v.19l-.04.19v.37l-.04.34-.04.19-.04.37v.19l-.07.34v.19l-.04.19-.04.15v.19l-.04.15-.04.19-.04.15v.19l-.04.15-.04.19-.04.15-.04.15-.04.19-.04.15-.04.15v.07l-.04.15-.04.07v.07l-.07.15v.07l-.04.07-.04.08v.07l-.04.07v.07l-.04.07-.04.08-.08.23-.04.11-.07.15-.04.07-.04.07-.04.08v.04l-.04.08-.04.07-.04.07-.04.04-.04.07-.04.07-.04.07-.04.04-.04.07-.04.08-.15.19-.04.04-.11.15-.04.04-.11.11-.07.08-.04.04-.15.11-.04.07-.07.04-.08.07-.07.04-.07.04-.07.04-.08.07-.07.04-.07.04-.07.04-.11.04c-1.23.48-3.06.41-4.37.37-1.5-.04-3.29-.11-4.67-.67-.56-.23-1.12-.71-1.57-1.08l-.07-.08-.04-.04-.07-.04-.11-.11-.04-.07-.11-.11-.04-.04-.07-.08-.04-.04-.04-.08-.11-.11-.04-.04-.07-.15-.04-.04-.04-.07-.04-.04-.04-.07-.04-.08-.04-.04-.04-.08-.08-.11v-.08l-.07-.11-.04-.08v-.04l-.04-.08-.04-.07v-.04l-.04-.07-.04-.04v-.08l-.04-.07-.04-.11v-.07l-.04-.04v-.07l-.04-.11-.04-.11-.04-.11v-.11l-.04-.11-.04-.11v-.15l-.04-.11-.04-.19v-.22l-.04-.11v-.22l-.04-.22v-.19l-.04-.19v-.22l-.04-.37v-.37l-.04-.37-.04-.78-.04-.37-.04-.41v-.37l-.04-.37v-.41l-.04-.19v-.37l-.04-.6v-.97l-.04-.41v-2.73l.04-.41v-.78l.04-.19v-.6l.04-.19v-.41l.04-.19v-.19l.04-.22v-.37l.04-.41.04-.19v-.22l.04-.26v-.15l.04-.19v-.15l.04-.15v-.3l.04-.07v-.19l.04-.19v-.11l.04-.11v-.08l.04-.11.04-.19v-.11l.04-.11v-.11l.07-.19.04-.22.04-.11.04-.11.04-.11v-.11l.04-.11.07-.07.04-.11.04-.11v-.07l.04-.04.04-.08.04-.11.04-.04.11-.22.08-.11.07-.11.04-.07.07-.11.04-.04.08-.11.04-.08.04-.04.11-.11.04-.07.04-.04.07-.04.04-.07.07-.04.04-.08.11-.07.07-.07.07-.04.04-.04.07-.04.07-.07.08-.04.04-.04.11-.07h.08l.08-.04.04-.04.07-.04h.04c1.42-.63,3.18-.41,4.71-.37,1.2.07,2.39.15,3.59.3.97.15,2.02.22,2.92.67l.07.04.07.04.11.07.07.04.04.04.04.04.08.04.04.04.04.04.04.04.07.04.04.07.04.04.07.04.04.08.07.07.04.04.04.04.04.07.07.08.04.04.07.11.11.19.04.04.04.07.04.07.07.15.04.15.07.11v.04l.04.07.04.07.08.22.04.19v.04l.04.07v.04l.04.07v.11l.04.11.04.11v.11l.04.15v.23l.04.11v.22l.04.11v1.31Zm-10.73-12.52l.04-.08v-.22l.04-.08v-.07l.04-.07v-.07l.04-.08v-.07l.04-.04v-.08l.04-.04.04-.08v-.04l.04-.07.04-.04.04-.07.04-.08.04-.07.04-.04.04-.04.04-.07.04-.04.04-.04.04-.07.08-.04.04-.04.04-.04.04-.04.07-.04.04-.04.04-.04.07-.04.04-.04.04-.04.07-.04.04-.04h.08l.04-.04.08-.04h.07l.04-.04.08-.04h.04l.08-.04h.11l.08-.04h.15l.04-.04h.41l.07.04h.19l.07.04h.08l.04.04h.07l.08-.04h.19l.07.04h.19l.07.04h.08l.04.04.11.04h.07v.04l.11.04.04.04.07.04.07.04.04.04.04.04.07.08h.04l.04.07.04.04.04.04.04.07.04.04.04.04.04.04.04.11.04.07.04.04.04.07v.08l.04.07.04.07v.07l.04.08v.07l.04.07v.19l.04.07v.49l-.04.07v.07l-.04.11v.07l-.04.07v.08l-.04.07-.04.07v.07l-.04.08-.04.07-.04.07-.04.04-.04.07-.04.07-.08.08-.04.04-.04.07-.04.04-.08.07-.04.04-.04.04-.04.04-.07.07-.04.04-.08.04-.04.04-.11.08-.04.04-.07.04-.04.04-.07.04h-.04l-.04.04-.07.04-.04.04h-.07l-.04.04h-.07l-.04.04h-.07l-.04.04h-.07l-.04.04h-.15l-.04.04h-.11l-.07.04h-.6l-.07-.04h-.15l-.04-.04h-.15l-.07-.04-.04-.04h-.07l-.07-.04-.07-.04-.08-.04h-.07l-.07-.04-.04-.08-.07-.04-.07-.04-.07-.04-.08-.08-.04-.04-.08-.08-.07-.07-.04-.07-.08-.04-.04-.07-.08-.07-.04-.11-.04-.07-.04-.08-.04-.07-.04-.07-.04-.11-.04-.07-.04-.07v-.11l-.04-.08v-.26l-.04-.07v-.19Zm5.27,13.6v-1.31c-.04-.93-.3-2.05-1.16-2.58-.52-.37-1.23-.45-1.87-.3-.11.04-.26.07-.41.15-1.16.45-1.12,2.02-1.16,3.03l-.04.37v1.05l-.04.3v.6l-.04.97v4.3l.04,1.01v.64l.04.34v.67l.04.67v.3l.04.33v.67l.04.33v.93l.04.15v.78l.04.15v.23l.04.07v.22c.19.86,1.01,1.27,1.87,1.19.78-.08,1.53-.56,1.79-1.27l.04-.07v-.07l.04-.04v-.07l.04-.07v-.04l.04-.07v-.07l.04-.08v-.07l.04-.07v-.15l.04-.11.04-.08v-.15l.04-.15.08-.45s.04-.15.04-.15v-1.2l.04-.41v-.37l.04-.82v-.78l.04-.78.04-.82.04-.79v-.37l.04-.41v-.78l.04-.37v-1.2l.04-.37v-1.76l.04-.19-.04-.19v-.41Z" fill="#fff"/><path d="m173.96,132.29c-.11,2.8-.26,5.87-2.02,8.03-1.68,2.02-4.37,2.73-6.87,3.1l-.22.04-.19.04h-.22l-.22.04-.19.04h-.23l-.22.04h-.22l-.11.04v.07l.04.11v.26l.04.26v.26l.04.23.04.22v.22l.04.19.04.19v.19l.04.19.04.19v.15l.04.15v.15l.04.15.04.26.04.26.04.23v.11l.04.22v.08h.6l.49-.04h.67l.22-.04h.67l.22-.04h.41l.19-.04h.41l.19-.04h.34l.11.04h.11l.11.04.11.04.11.04.11.04.11.04.07.07.08.04.11.07.07.07.11.08.07.07.07.07.07.08.08.11.04.08.08.11.04.08.04.11.04.11.04.11.04.11.04.11v.11l.04.11v.22l-.04.11v.22l-.04.11-.04.11-.04.11-.04.11-.04.07-.07.11-.04.11-.07.07-.07.07-.07.11-.08.07-.07.08-.11.07-.07.07-.11.04-.07.07-.11.04-.11.04-.11.07c-2.06.71-5.08.26-7.25.3-2.88.07-5.75.15-8.63.26h-.75l-.11-.04h-.11l-.11-.04-.11-.04-.11-.04-.11-.04-.07-.07-.11-.04-.11-.07-.07-.08-.08-.07-.07-.07-.11-.07-.07-.08-.04-.11-.07-.08-.07-.11-.04-.07-.07-.11-.04-.11-.04-.11v-.11l-.04-.11-.04-.11v-.56l.04-.11v-.11l.04-.11.04-.07.04-.11.04-.11.07-.11.04-.07.08-.11.07-.07.07-.11.07-.08.08-.07.07-.07.11-.07.07-.04.11-.07.07-.07.11-.04.11-.04.11-.04.11-.04.11-.04h.22l.11-.04h.86l.45-.04h.48l.49-.04h1.49l.52-.04h.34l-.04-.11v-.15l-.04-.15v-.3l-.04-.19v-.34l-.04-.19v-.41l-.04-.45-.04-.45-.04-.52-.04-.56v-.3l-.04-.3h-1.38l-.22-.04h-.22c-3.03-.11-5.98-1.16-7.77-3.81-1.27-1.91-1.72-4.22-1.98-6.5-.41-3.44-.45-6.87-.07-10.31.22-2.13.71-4.41,2.28-5.87,1.76-1.68,4.34-1.87,6.65-2.09.04,0,.19-.04.19-.04h.19l.37-.04h.3v-.45c-.04-1.68-.37-3.36-.41-5.05h-.07l-.34.04h-.71l-.3.04h-.3l-.3.04h-.67l-.07-.04h-.11l-.07-.04-.11-.04-.07-.04-.11-.04-.08-.04-.11-.04-.08-.04-.07-.07-.07-.04-.07-.07-.08-.07-.07-.07-.07-.08-.07-.07-.08-.07-.04-.07-.04-.08-.07-.11-.04-.08-.04-.07-.04-.11-.04-.07-.04-.11v-.07l-.04-.11v-.6l.04-.11v-.07l.04-.11.04-.07v-.11l.04-.07.07-.11.04-.08.04-.07.07-.11.04-.07.07-.07.07-.07.08-.08.07-.07.07-.04.07-.07.08-.04.07-.07.07-.04.11-.04.07-.04.11-.04.07-.04.11-.04.08-.04h.22c2.5-.26,5.04-.22,7.58-.3,1.49-.04,3.36-.45,4.86-.11,0,.04.08.04.08.04l.11.04h.07l.11.04.07.04.11.04.07.07.11.04.07.04.07.07.08.04.07.07.07.07.07.07.08.07.04.08.08.07.04.11.07.07.04.07.04.11.04.07.04.11.04.08v.11l.04.07v.71l-.04.11v.08l-.04.11-.04.07-.04.11-.04.07-.04.11-.07.07-.04.07-.08.08-.04.07-.08.07-.07.07-.07.08-.07.07-.08.04-.07.08-.07.07-.11.04-.07.04-.07.04-.11.04-.08.04-.11.04h-.11l-.08.04h-.11l-.08.04h-.67l-.64.04-1.46.04h-.41v.07l.04.75v.71l.04.33v.38l.04.52.04.52v.52l.04.56v.52l.04.52v.07h.19l.45-.07.82-.11c1.94-.22,3.85-.34,5.76.19,1.68.49,3.21,1.46,4.22,2.91.93,1.38,1.31,3.1,1.49,4.78.07.86.11,1.68.15,2.54.04,2.43-.11,4.82-.22,7.21Zm-17.86,5.23l-.11-1.42-.11-1.38-.15-2.13-.04-.67-.04-.71-.04-.71-.15-2.09-.04-.71-.04-.71-.04-.71-.04-.71-.04-.71-.11-2.09-.04-.37v-.71l-.04-.34-.04-.71-.04-1.08v-.3h-.37l-.34.04-.33.04h-.15l-.15.04h-.34l-.15.04h-.15l-.15.04h-.15l-.15.04h-.11l-.15.04h-.22l-.11.04h-.11l-.11.04h-.15l-.07.04h-.11l-.26.11h-.04v.26l-.04.15-.04.11v.15l-.04.3v.15l-.04.15-.04.3v.15l-.04.15v.3l-.04.3-.04.15v.3l-.04.15v.49l-.04.15v.34l-.07.93v.49l-.04.15v3.66l.04.34v.49l.04.34v.49l.04.19v.34l.04.34v.15l.04.19.04.3v.19l.07.63.04.34.04.15v.19l.04.3.04.19.04.15v.15l.04.15.04.19.04.3.04.15.04.19.04.3.04.15.04.15.04.15.04.15.04.15.04.15.04.33.04.11.04.19.04.11.04.15.04.15.04.15.07.15.04.15.04.15.04.15.04.15.04.11.04.15.07.15v.08h.04l.11.04.04.04.15.04.07.04h.07l.08.04h.04l.07.04h.11l.08.04h.04l.07.04.19.04h.07l.11.04h.22l.08.04h.15l.15.04h.3l.07.04h.41l.15.04h1.08v.04h.08l-.15-2.06Zm11.17-7.62v-.67l-.04-.19v-.67l-.04-.63-.04-.19v-.22l-.04-.22-.04-.41v-.22l-.07-.6-.04-.22v-.19l-.04-.22-.04-.19v-.23l-.04-.19-.04-.19-.04-.22v-.19l-.04-.19-.07-.37-.07-.37-.07-.37-.04-.19-.04-.15-.04-.19-.11-.52-.07-.3-.04-.15-.04-.15-.11-.3-.04-.15v-.07l-.04-.07-.04-.15-.04-.07v-.04l-.07-.15-.04-.19-.04-.04-.04-.07v-.04l-.04-.07v-.04l-.04-.07-.04-.04v-.04l-.04-.08-.07-.15v-.04l-.04-.04v-.04l-.04-.07-.04-.08-.04-.04v-.04l-.04-.04v-.04l-.04-.04-.04-.04-.08-.11h-.22l-.15.04h-.41l-.07.04h-.26l-.19.04h-.19l-.19.04h-.19l-.19.04-.19.04h-.22l-.41.07-.41.04-.22.04-.22.04h-.11v.48l.04.52.04.67v.34l.11,1.38v.33l.15,1.76.04.33v.34l.19,1.72.11,1.38.08.71.07.71.11,1.38.15,1.38.07.71.08.67.07.71v.37l.04.34.04.34.04.37.04.34.04.34v.37l.07.67.04.37v.34l.04.37.04.34v.26h.19l.19-.04h.19l.22-.04h.19l.15-.04.19-.04h.19l.19-.04.15-.04h.15l.19-.04h.08l.07-.04h.07l.07-.04h.15l.07-.04h.07l.08-.04h.11l.04-.04h.04l.04-.11.04-.07.04-.04v-.07l.04-.04.08-.15.04-.15v-.04l.04-.08.04-.04.04-.19.04-.08.04-.11v-.08l.04-.07.04-.07v-.08l.04-.07.04-.11v-.07l.07-.22v-.07l.04-.11v-.07l.04-.07v-.07l.04-.08v-.15l.04-.08.04-.19v-.07l.04-.11v-.15l.04-.08v-.11l.04-.26.04-.19.04-.19v-.19l.08-.56v-.19l.04-.19v-.22l.04-.6.04-.19v-.41l.04-.22v-2.32Z" fill="#fff"/><path d="m196.12,138.91c-.04.41-.22.82-.34,1.16-.19.67-.34,1.35-.75,1.87l-.07.11-.07.07-.07.11-.08.07-.07.08-.04.11-.08.07-.07.07-.07.11-.15.15-.07.08-.07.11-.07.07-.08.07-.07.07-.15.15-.08.07-.11.07-.07.08-.15.15-.08.07-.11.04-.08.07-.07.07-.11.08-.07.04-.07.08-.11.07-.07.04-.11.07-.08.04-.11.08-.08.04-.11.04-.11.07-.08.04-.11.04-.11.08-.08.04-.22.08-.11.04-.08.04-.11.04-.11.04-.11.04-.11.04h-.11l-.11.04-.11.04-.11.04h-.11l-.23.07h-.11l-.11.04h-.11l-.11.04h-.11l-.11.04h-.26l-.11.04h-.15l-.22.04h-.26l-.15.04h-.52l-.3.04h-3.81l-.38-.04h-.82l-.86-.04-.9-.04h-.97l-.49-.04h-.52l-.52-.04h-.63l-.11-.04h-.11l-.11-.04-.07-.04h-.11l-.07-.08-.11-.04-.07-.04-.08-.07-.07-.07-.07-.04-.07-.07-.08-.07-.07-.11-.04-.08-.04-.07-.07-.11-.04-.07-.04-.11-.04-.07v-.11l-.04-.11v-.41l.04-.07v-.11l.04-.11.04-.07.04-.11.04-.07.08-.07.04-.11.07-.07.04-.08.07-.07.08-.07.11-.04.08-.07.07-.07.07-.04.11-.04.07-.04.11-.04h.11l.07-.04h.11l.11-.04h.11l.52.04h.6l-.04-.11v-3.29l-.04-.37v-1.16l-.04-.78v-1.57l-.04-.26h-.6l-.07-.04h-.07l-.08-.04h-.07l-.07-.04-.07-.04-.08-.04-.07-.04-.07-.04-.07-.04-.08-.07-.04-.04-.07-.08-.08-.04-.04-.08-.04-.07-.07-.04-.04-.07-.04-.07-.04-.07-.04-.07-.04-.08v-.07l-.04-.07v-.11l-.04-.07v-.49l.04-.07.04-.19v-.07l.04-.07.04-.08.04-.07.04-.07.07-.04.04-.07.04-.07.07-.07.04-.04.07-.07.07-.04.04-.04.07-.07.07-.04.07-.04.08-.04.07-.04h.07l.07-.04h.08l.07-.04h.19l.07-.04h.08l.15.04h.15v-2.95l.04-2.05v-2.43l.04-.11h-1.23l-.11-.04h-.07l-.11-.04h-.07l-.11-.04-.07-.04-.07-.08-.11-.04-.08-.04-.07-.07-.07-.07-.07-.04-.04-.07-.07-.08-.04-.07-.07-.11-.04-.07-.04-.07-.04-.07-.04-.11-.04-.08v-.11l-.04-.08v-.41l.04-.07v-.11l.04-.07v-.11l.04-.07.04-.11.07-.07.04-.07.04-.08.07-.07.08-.07.04-.07.08-.08.07-.04.07-.08.11-.04.07-.07.07-.04.11-.04h.08l.07-.04.11-.04h.19l.11-.04h1.38l.45.04h1.91l.52.04h1.04l.52.04h1.08l.56.04,1.05.04h1.05l.93.04.86.04,1.38.04h.45l.3.04h.3l.08.04h.07l.07.04.07.04.08.04.11.04.04.04.07.04.04.04.07.04.07.07.04.04.11.11.07.11.07.11.08.08.04.07.04.07.04.04v.07l.04.04.04.11.04.08.04.07.04.11.04.11.04.11.04.15.04.11.04.11.04.15.04.11.07.26.04.15.11.41.04.15.04.11.04.15v.11l.04.15.04.11v.11l.04.11.04.11v.22l.04.08v.11l-.04.08v.19l-.04.11-.04.07-.04.11-.04.07-.04.07-.04.11-.04.08-.07.07-.08.07-.04.07-.08.04-.07.07-.07.07-.07.04-.11.04-.07.07-.08.04h-.11l-.07.04-.11.04h-.07l-.11.04h-.26l-.11-.04h-.11l-.07-.04h-.11l-.07-.04-.08-.04-.11-.07-.08-.04-.07-.04-.07-.07-.07-.04-.08-.07-.07-.07-.04-.07-.07-.07-.04-.08-.08-.07-.04-.11-.04-.07-.04-.11-.04-.07v-.07l-.04-.11v-.19l-.04-.07v-.11l-.04-.07-.04-.11v-.11l-.04-.11-.04-.11-.04-.11-.04-.26-.04-.11-.04-.11-.04-.11-.04-.07-1.04-.04h-.86l-.93-.04-1.01-.04-1.05-.04h-.63v.34l-.04.45v.9l-.04.93-.04.45v1.35l-.04.49v1.91l-.04.52v.15h4.04l.3.04h.52l.11.04h.07l.07.04.08.04h.07l.07.04.07.04.08.07.07.04.04.04.08.08.07.04.04.07.07.04.04.07.04.07.07.08.04.04.04.08.04.07.04.07v.11l.04.07v.07l.04.08v.56l-.04.11-.04.07v.08l-.04.07-.04.07-.04.07-.04.07-.04.08-.08.07-.04.04-.04.07-.07.07-.07.04-.04.07-.07.04-.07.04-.08.04-.07.04-.07.04-.07.04-.08.04-.07.04h-.07l-.07.04h-2.99l-.79-.04h-1.12v.56l-.04,1.01v3.55l-.04.48v2.05l.3.04h2.88l.11-.04h.6l.22-.04h.19l.11-.04h.19l.11-.04h.19l.08-.04h.19l.15-.04.15-.04h.07l.07-.04h.07l.08-.04.11-.04h.07l.19-.08h.04l.11-.07.11-.04c.3-.49.3-.52.3-.52.04-.08.04-.11.04-.11.04-.04.04-.08.04-.08.04-.04.04-.07.04-.07,0-.04.04-.07.04-.07,0-.04.04-.07.04-.07v-.07l.04-.08c.11-.63.11-.67.11-.67v-.71l.04-.07v-.37c.04-.11.04-.15.04-.15v-.04l.04-.04v-.07l.04-.08v-.04l.04-.04.04-.07v-.04l.04-.07.08-.07.04-.08.07-.04.04-.07.07-.04.04-.04.04-.04.07-.04.07-.04h.07l.08-.04.04-.04h.15l.04-.04h.3l.08-.04h.52l.11-.04h.15l.11-.04h.22l.08-.04h.93l.04.04h.22l.04.04h.11l.04.04h.11l.04.04.07.04h.04l.04.04.07.04.04.04.04.04.07.04.04.04.04.04.04.04.04.04.04.04.04.08.04.04.04.04.04.07v.04l.04.04v.07l.04.04v.04l.04.04v.07c0,.07.04.15.04.22Z" fill="#fff"/><path d="m217.91,126.87c0,.67-.19,1.38-.64,1.9-.34.34-.78.6-1.23.71-.9.22-1.91-.04-2.58-.67-.56-.49-.9-1.23-1.05-1.98-.19-.78-.19-1.61-.19-2.43v-.11h-.41c-1.12-.04-2.28-.04-3.44-.04h-.41.04c.71.86,1.46,1.68,2.13,2.58.56.78,1.38,1.94,1.27,2.99-.07.56-.41,1.05-.82,1.46-1.16,1.12-2.39,2.17-3.59,3.21-1.5,1.31-2.17,3.14-1.94,5.12.07.6.37,1.87,1.23,1.64.52-.11,1.09-.71,1.5-1.05.45-.41.86-.86,1.23-1.34.78-.93,1.46-1.98,2.21-2.95.41-.52.86-1.01,1.42-1.35,1.12-.71,2.58-.34,3.25.82.3.49.45,1.08.6,1.64.22,1.05.34,2.13.45,3.21.11,1.01.22,2.02.3,3.03.04.6,0,1.2-.26,1.72-.3.64-.9,1.08-1.57,1.31-.93.34-2.06.19-2.73-.52-.41-.45-.6-1.01-.71-1.61-.07-.34-.11-.71-.15-1.05,0-.11-.15-.71-.07-.78-.82.93-1.76,1.76-2.8,2.43-.19.11-.41.26-.6.37-2.62,1.38-6.61,1.57-8.41-1.2-1.53-2.35-1.2-5.61.19-7.96.75-1.2,1.72-2.28,2.77-3.29.93-.9,1.98-1.76,2.91-2.73.15-.19.19-.19.04-.41-.11-.11-.22-.26-.3-.37-.23-.26-.45-.56-.64-.82-.45-.52-.86-1.05-1.27-1.57-.64-.82-1.34-1.64-1.91-2.5h-.19c-.97,0-1.98,0-2.95.04-.49.04-.97.07-1.42-.07-.75-.26-1.31-1.05-1.27-1.83.04-.78.6-1.5,1.34-1.72.34-.07.64-.07.97-.07,1.31,0,2.62-.04,3.92-.04,1.95,0,3.85,0,5.79-.04h3.62l.15.04-.04-.07v-.37c.04-.67.37-1.12.86-1.57.52-.49,1.12-.97,1.87-1.08.71-.11,1.53.19,1.98.78.52.67.6,1.61.67,2.43.11,1.38.3,2.77.6,4.15.11.64.26,1.27.26,1.9v.11Z" fill="#fff"/><path d="m242.98,127.29v.15l-.04.07v.11l-.04.07v.04l-.04.07-.04.11-.04.04-.04.08-.04.04-.08.11-.04.08-.04.04-.04.04-.04.04-.07.08-.04.04-.04.04-.07.04-.04.04-.08.04-.04.04h-.08l-.04.04-.07.04-.04.04h-.07l-.08.04h-.11l-.08.04h-.49l-.07-.04h-.15l-.04-.04h-.07l-.04-.04-.07-.04h-.08l-.11-.07-.04-.04-.07-.04-.04-.04-.04-.04-.07-.04-.04-.04-.04-.04-.04-.07-.04-.04-.08-.04-.04-.07-.04-.04v-.07l-.07-.11-.07-.11v-.04l-.04-.07v-.07l-.04-.04v-.15l-.04-.04v-.97l-.04-.11v-.41l-.04-.15v-.41l-.04-.26-.04-.26v-.3h-.26l-.23-.04h-.93l-.26-.04h-2.99v7.29l.04,2.69v3.92l.04,1.16v2.2l-.04.15v.11l1.23.04.67.04h.86l.11.04h.07l.07.04h.08l.11.04.07.04.07.04.07.04.08.04.07.08.04.04.08.04.07.07.04.08.07.04.04.07.08.08.04.07.04.07.04.07.04.08.04.07.04.07v.11l.04.07v.07l.04.08v.34l-.04.11v.07l-.04.08v.07l-.04.11-.04.07-.04.07-.04.08-.04.07-.04.07-.04.07-.07.04-.04.07-.07.08-.07.04-.04.07-.07.04-.07.07-.08.04-.07.04-.07.04-.07.04-.08.04h-.11l-.07.04h-.07l-.07.04h-.97l-.67-.04-1.31-.04h-1.27l-1.27-.04h-.64l-.67-.04h-.64l-.71-.04h-.67l-.71-.04h-.75l-.78-.04h-.19l-.08-.04h-.07l-.07-.04h-.11l-.07-.04-.08-.04-.07-.04-.07-.04-.07-.04-.08-.07-.07-.04-.04-.04-.08-.07-.07-.07-.04-.04-.04-.07-.07-.07-.04-.07-.04-.08-.04-.07-.04-.07-.04-.08-.04-.07v-.11l-.04-.07v-.07l-.04-.07v-.38l.04-.07v-.07l.04-.07v-.08l.04-.11.04-.07.04-.07.04-.07.04-.07.04-.08.07-.07.04-.04.08-.07.04-.07.08-.04.07-.07.07-.04.04-.04.07-.07.07-.04.07-.04.11-.04h.08l.07-.04.07-.04h.19l.07-.04h.19l.75.04h.75l.45.04v-3.51l-.04-1.23v-5.34l-.04-1.31v-5.87h-.34l-.52.04-1.01.04h-.86l-.41.04h-2.43v.26l-.04.26v.93l-.04.22v.37l-.04.08v.3l-.04.15v.04l-.04.07v.04l-.04.07v.07l-.04.04-.04.07v.04l-.04.04-.04.08-.04.04-.04.07-.04.04-.04.04-.04.04-.04.08-.04.04-.07.04-.04.04-.04.04-.08.04-.04.04-.04.04h-.07l-.04.04-.07.04h-.04l-.07.04-.04.04h-.11l-.08.04h-.19l-.07.04h-.19l-.04-.04h-.19l-.07-.04h-.04l-.07-.04h-.04l-.07-.04h-.04l-.07-.04-.04-.04-.08-.04-.04-.04h-.08l-.04-.04-.04-.04-.04-.04-.08-.07-.04-.04-.04-.04-.04-.04-.07-.11-.04-.04-.08-.11-.04-.04v-.07l-.04-.04-.04-.07v-.04l-.04-.07-.04-.11v-.11l-.04-.07v-.49l.04-.04v-.41l.04-.19v-.9l.04-.23v-1.01l.04-.52v-.9l.04-.71v-.71l.04-.07v-.11l.04-.08v-.04l.04-.07.04-.04v-.07l.04-.04.04-.07.04-.04.04-.04.04-.08.04-.04.04-.04.04-.07.04-.04.04-.04.04-.04.07-.04.04-.04.04-.04.07-.04.07-.08h.07l.04-.04.07-.04h.04l.07-.04h.07l.04-.04h.11l.07-.04h.45l.04.04h.11l.07.04h.04l.07.04h.04l.07.04.04.04h.07l.04.04.07.04.04.04.08.04.04.04.04.04.04.04.07.04.04.04.04.04.04.08.04.04.04.04.04.07.04.04.04.07v.04l.04.07.04.04h.15l.15.04h1.42l.3-.04h.71l.9-.04.97-.04h.56l.56-.04h.6l.6-.04h.6l.6-.04h.11l.15-.04h.71l.15.04h.19l.33-.04h2.54l.3-.04h.9l.3.04h1.68l.26.04h.56l.04-.04v-.07l.04-.04.04-.07.04-.11.04-.07.04-.04.04-.07.04-.04.04-.04.04-.08.04-.04.04-.04.07-.04.04-.04.04-.04.07-.04.04-.04.08-.04.04-.04.08-.04.04-.04h.07l.04-.04.07-.04h.11l.07-.04h.11l.08-.04h.26l.07.04h.19l.04.04h.07l.07.04.04.04h.07l.08.04.04.04.07.04h.04l.04.04.07.04.04.08.07.04.04.04.08.07.04.08.04.04.04.04.04.07.04.04.04.07.04.04.04.11.04.08.04.07v.11l.04.07v.11l.04.07v.34l.07.82.04.45.04.41v.3l.04.11v.41l.04.19.04.45v.22l.04.26v.3l.04.15v.3l.04.15v.45l.04.3v.86Z" fill="#fff"/><path d="m257.55,143.88v.07l-.04.07v.15l-.04.07-.04.07v.08l-.04.07-.04.07-.04.07-.04.07-.04.04-.07.07-.04.08-.04.04-.07.08-.04.04-.07.04-.04.07-.07.04-.07.04-.04.04-.07.04-.08.04-.07.04h-.07l-.07.04-.08.04h-.15l-.07.04h-1.57l-.52.04h-2.28l-.6.04h-1.53l-.3-.04h-2.02l-.26-.04h-.22l-.07-.04h-.07l-.08-.04h-.07l-.07-.04-.07-.04-.08-.04-.07-.04-.07-.04-.04-.04-.07-.04-.07-.07-.04-.04-.07-.04-.04-.08-.04-.04-.08-.08-.04-.07-.04-.04-.04-.07-.04-.07-.04-.07-.04-.07v-.08l-.04-.07-.04-.07v-.15l-.04-.07v-.37l.04-.08v-.07l.04-.07v-.07l.04-.07.04-.08v-.07l.04-.07.04-.08.04-.04.07-.07.04-.08.04-.04.04-.07.07-.04.04-.07.07-.04.08-.04.04-.07.07-.04.08-.04.07-.04.04-.04h.07l.07-.04.07-.04h.08l.07-.04h.22l.07-.04h.11l.26.04h1.38v-1.27l-.04-.52-.08-1.61-.07-1.05-.04-.56-.04-1.05-.04-.56-.04-.52-.04-1.08-.04-.52-.04-.82v-.56l-.04-.63-.04-.64v-.3l-.04-.64v-.6l-.04-.63-.04-.64-.04-.63v-.45l-.04-.45-.04-.49v-.71h-.48l-.08.04h-.22l-.11-.04h-.11l-.07.04h-.08l-.07.04h-.56l-.08-.04h-.07l-.07-.04h-.07l-.08-.04-.07-.04-.07-.04-.04-.04-.07-.04-.11-.04-.04-.04-.08-.07-.04-.04-.08-.07-.04-.04-.04-.04-.07-.07-.04-.08-.04-.04-.04-.08-.04-.07-.04-.07-.04-.04-.04-.07v-.07l-.04-.07-.04-.08v-.11l-.04-.07v-.45l.04-.08v-.07l.04-.07v-.07l.04-.07.04-.08v-.07l.04-.07.04-.04.04-.07.04-.07.07-.04.04-.07.04-.07.07-.04.04-.04.07-.07.08-.04.04-.04.07-.04.04-.04.07-.04.04-.04h.07l.07-.04.04-.04.15-.04h.07l.07-.04h.07l.11-.04h.64l.19.04h.19l.49-.04.52-.04h.26l.26-.04h.22l.26-.04.41-.04.41-.04h.41l.41-.04.38-.04h.41l.82-.08h.37l.41-.04.41-.04.37-.04h.19l.37-.04h.19l.19-.04h.19l.19-.04h.6l.08.04h.07l.07.04h.07l.08.04.07.04.07.04.07.04.08.04.07.04.04.04.08.04.07.07.04.04.07.07.04.04.04.07.07.07.04.04.04.07.04.07.04.08.04.07v.07l.04.07v.08l.04.07v.07l.04.07v.34l-.04.07v.15l-.04.07-.04.07v.08l-.04.07-.04.07-.04.07-.04.07-.04.08-.04.07-.08.04-.04.07-.07.04-.04.07-.07.04-.04.08-.07.04-.07.04-.08.04-.07.04-.07.04-.07.04h-.08l-.07.04-.07.04h-.15l-.07.04h-.19l-.19.04h-.23l-.19.04h-.37l-.22.04h-.19l-.41.04-.41.04h-.07v5.72l.04.9v1.79l.04.45v.89l.04.45v.9l.04.45v.45l.04.45v.41l.04.23.04.67v.52l.04.07v.11l.04.26v.19l.04.15v.19l.04.19v.3l.04.11v.41l.04.22v.82h.9l.9-.04h.22l.07.04h.07l.07.04h.08l.07.04.07.04h.07l.08.04.07.04.07.04.04.04.07.07.07.04.04.04.07.07.04.04.04.07.08.04.04.08.04.07.04.07.04.04.04.07.04.07v.08l.04.07.04.07v.15l.04.08v.3Zm-10.31-21.86h.04-.04Z" fill="#fff"/><path d="m281.66,136.92v.6l-.04.15v.26l-.04.15v.11l-.04.15v.22l-.04.15v.08l-.04.07-.04.22-.04.22-.04.08-.04.15-.04.22-.04.07v.07l-.07.19-.07.22-.04.04-.07.23-.04.11-.04.07-.04.11-.07.15-.04.04-.04.15-.04.04-.04.07-.04.04-.11.19-.04.07-.07.11v.04l-.08.11-.04.07-.07.11-.08.04-.07.11-.07.11-.04.04-.07.11-.15.15-.11.15-.04.04-.07.04-.04.04-.04.04-.04.07-.07.04-.04.04-.04.04-.04.04-.15.15-.11.08-.15.11-.04.04-.11.07-.07.04-.04.04-.04.04-.19.08-.08.07-.07.04-.04.04-.08.04h-.04l-.08.04-.04.04-.11.07-.11.04-.11.07-.11.04-.11.04-.11.08-.11.04-.11.04-.23.07-.11.07-.11.04-.11.04-.11.04-.11.04h-.15l-.11.04-.22.08-.11.04-.11.04-.22.04-.15.04-.22.04h-.11l-.11.04-.15.04-.22.04-.37.04-.22.04h-.11l-.11.04h-.15l-.34.04-.15.04h-.34l-.26.04-.49.04-.49.04-.97.07h-.22l-.26.04h-.22l-.26.04h-.48l-.26.04h-.49l-.26.04h-1.01l-.26.04h-2.65l-.26-.04h-1.42l-.3-.04h-.71l-.11-.04h-.11l-.11-.04-.11-.04-.11-.04-.11-.04-.07-.08-.11-.04-.08-.08-.07-.07-.07-.07-.07-.07-.08-.07-.07-.11-.04-.08-.08-.11-.04-.11-.04-.08-.04-.11v-.11l-.04-.11v-.3l.04-.11v-.11l.04-.11.04-.11.04-.07.04-.11.07-.07.07-.11.04-.07.07-.08.11-.07.07-.07.08-.07.11-.07.07-.04.11-.04.11-.07.11-.04h.11l.11-.04h.78v-.52l.04-.97v-1.5l.04-.49v-3.4l.04-.49v-.52l-.04-.49v-3.14l-.04-.75v-.22l-.04-.49v-.75l-.04-.22v-.75l-.04-.26v-.52l-.04-.11v-1.76l-.04-.26v-.86l-.04-.11v-.04h-.63l-.23.04h-.41l-.11-.04h-.11l-.07-.04-.11-.04-.11-.04-.07-.04-.11-.04-.07-.07-.11-.04-.07-.08-.08-.07-.07-.07-.07-.08-.04-.07-.07-.07-.04-.07-.07-.11-.04-.07-.04-.11-.04-.11v-.07l-.04-.11v-.41l.04-.11v-.07l.04-.11.04-.07.04-.11.04-.08.07-.11.04-.08.07-.07.07-.07.07-.07.08-.08.07-.07.07-.04.11-.07.07-.04.11-.04.11-.04.07-.04.11-.04h.22l.07-.04h.86l.45-.04h.45l1.01-.07h.52l.52-.04h.56l.3-.04h1.12l.26-.04h1.46l.56-.04h1.16l.26.04h1.23l.3.04h.37l.15.04h.37l.15.04h.23l.26.04h.11l.15.04h.22l.11.04h.15l.11.04h.22l.11.04h.11l.22.07h.11l.11.04h.11l.11.04.11.04h.11l.07.04.11.04.11.04.11.04.19.04.11.04.11.07.07.04.11.04.07.04.07.04.11.04h.04l.04.04.07.04.04.04.04.04.11.04.04.04.11.07.11.07.08.08.07.04.04.04.04.04.04.04.07.07.04.04.07.11.04.04.04.04.07.07.04.04.07.11.04.04.04.04.04.07.04.07.04.04.04.04.04.07.04.11.07.07.04.07.04.11.04.07.04.11.04.08.04.07.04.11.04.07v.11l.04.07.04.07v.11l.04.08v.07l.04.07v.11l.04.15.04.08v.19l.04.07v.15l.04.11v.37l.04.15v1.31l-.04.15v.15l-.04.15v.15l-.04.07v.15l-.04.15-.04.15v.07l-.04.07-.04.11-.04.15-.04.07v.07l-.04.15-.07.11v.07l-.04.07-.07.11v.07l-.08.11-.04.07-.07.11-.04.07-.04.11-.04.07-.08.11-.04.04-.04.07-.04.04-.11.11-.08.11-.11.19-.11.07-.04.07-.08.08-.07.07-.04.04-.07.11-.08.04-.04.04-.11.11-.04.04-.11.07.04.04h.11l.07.04.11.04.11.04.11.04.08.04.11.04.19.07.11.04.11.04.11.04.07.04.19.08.11.07.11.04.07.04.11.07.11.04.07.04.11.07.07.04.11.08.07.07.11.04.07.07.11.07.08.07.07.04.07.04.04.04.04.04.04.04.04.04.07.07.07.04.11.15.04.04.07.07.04.04.08.11.07.07.04.04.07.11.07.07.04.04.04.07.04.04.07.11.04.04.04.04v.08l.04.04.07.11.04.04.04.11.04.04.04.11.04.07.04.04.04.11.04.07v.04l.04.15.04.04.04.11v.07l.04.04.04.15v.11l.04.11.04.15v.11l.04.19v.11l.04.08v.71Zm-5.46,0v-.37l-.04-.04v-.19l-.04-.07-.04-.11v-.11l-.04-.19-.04-.11-.04-.19-.04-.07-.04-.07v-.04l-.04-.07v-.07l-.04-.04v-.04l-.04-.04v-.11l-.04-.04v-.04l-.04-.04v-.04l-.04-.04v-.04l-.04-.04v-.08l-.04-.04-.08-.08v-.04l-.04-.04-.04-.07-.04-.07-.04-.04-.04-.04h-.07l-.15-.04-.11-.04h-.08l-.15-.04-.19-.04-.22-.04h-.11l-.07-.04h-.07l-.19-.04h-.19l-.15-.04h-.19l-.19-.04-.34-.04-.34-.04h-.19l-.37-.04-.34-.04-.33-.04h-.15l-.19-.04h-.19l-.19-.04h-.19l-.22-.04h-.49l-.07-.04h-1.83v.41l-.04.41-.04.82-.04.41-.04.37v.41l-.04.41-.04.41-.04.78-.08.82-.04.79-.07.78-.04.82-.07.79v.41h.22l.26-.04h.45l.49-.04h.22l.22-.04h.49l.22-.04h.26l.48-.04.45-.04.26-.04h.22l.23-.04h.22l.45-.04.22-.04h.11l.19-.04h.22l.11-.04h.19l.11-.04.19-.04h.11l.08-.04h.19l.11-.04h.07l.19-.04.11-.04h.07l.19-.07h.07l.04-.04.11-.15.04-.07.07-.15.04-.11.04-.07.07-.19.04-.07.11-.3.04-.07.04-.11.04-.11.04-.08.04-.11.04-.11.04-.11.04-.08.04-.11v-.11l.04-.11.04-.11.04-.11v-.07l.04-.11.04-.11.04-.23v-.07l.04-.11v-.11l.04-.11v-.07l.04-.11v-.19l.04-.11v-.45l.04-.07v-.11l-.04-.04v-.15Zm-7.74-6.87h.45l.45-.04.19-.04h.34l.34-.04.22-.04h.3l.22-.04h.07l.22-.04.07-.04h.22l.07-.04h.11l.19-.04.11-.04h.08l.11-.04h.08l.04-.04.04-.04v-.04l.04-.04v-.04l.04-.04.04-.07.11-.15v-.07l.04-.04.04-.07.04-.04.07-.19.04-.04v-.08l.04-.07.07-.11.04-.11.04-.07v-.07l.04-.04.11-.33.07-.19v-.08l.04-.11.04-.07v-.22l.04-.11v-.11l.04-.04v-.15l.04-.07v-.07l.04-.07v-1.23l-.04-.19v-.34l-.04-.07v-.26l-.04-.08v-.07l-.04-.04v-.04l-.04-.07v-.07l-.04-.08-.04-.15-.04-.08v-.04h-.15l-.11-.04h-.19l-.11-.04h-.34l-.11-.04h-.45l-.11-.04h-.64l-.11-.04h-2.8v.93l-.04.64v.45l-.04.52v1.64l-.04,1.08v1.27l.3-.04h.22Z" fill="#fff"/><path d="m313.9,143.61l-.04.08v.15l-.04.07-.04.08v.07l-.04.07-.04.07-.04.08-.04.07-.08.04-.04.07-.04.07-.07.04-.04.07-.07.04-.04.08-.07.04-.07.04-.07.04-.04.04-.07.04-.08.04-.07.04h-.07l-.07.04-.08.04h-.26l-.07.04h-.07l-.41-.04h-.78c-1.68-.04-3.4.04-5.08.11-.64.04-1.31-.04-1.98.04-.86.11-2.02.19-2.54-.64l-.04-.07-.04-.04-.04-.07s-.04-.07-.04-.07l-.04-.07-.04-.08v-.07l-.04-.07v-.15l-.04-.07v-.37l.04-.07v-.04s.04-.07.04-.07v-.15s.04-.07.04-.07l.04-.07.04-.08.04-.11.04-.04.04-.07.07-.07.04-.08.04-.04.08-.08.04-.04.08-.08.04-.04.07-.04.08-.07.07-.04.07-.04.04-.04h.07l.07-.04h.08l.07-.04.11-.04h.22l.08-.04h.07l.07.04h.19l.08.04h.11l.04-.04-.04-.11-.07-.22-.07-.23-.04-.19-.07-.22-.15-.37-.04-.23-.15-.41-.11-.41-.11-.41-.11-.41s-.22-.04-.22-.04h-.37l-.71-.04h-1.27l-.38-.04h-2.54l-.37.04h-1.46l-.71.04h-.19l-.11.37-.11.45-.04.19-.07.22-.04.22-.07.22-.04.23-.07.22-.04.22-.07.22-.07.22v.11l-.04.11-.11.34-.04.11s.07.04.07.04h.71l.07.04h.15l.07.04h.07l.07.04.08.04.07.04.07.04.07.04.08.04.04.04.07.04.04.04.07.07.04.04.07.08.04.04.04.07.08.08.04.04.04.08.04.07.04.07v.07l.04.08.04.07v.07l.04.07v.6l-.04.08v.07l-.04.07v.07l-.04.08-.04.07-.04.07-.04.07-.04.04-.04.07-.07.08-.04.04-.04.07-.08.04-.04.07-.08.04-.04.04-.07.08-.08.04-.07.04-.04.04-.07.04h-.07l-.07.04-.08.04h-.07l-.07.04h-1.2l-.19-.04h-3.03l-.82.04h-1.23c-.75.04-1.5,0-2.21,0-.37,0-.75.04-1.12-.11l-.07-.04-.07-.04-.04-.04-.07-.04-.07-.04-.04-.04-.07-.04-.08-.07-.04-.04-.04-.07-.07-.04-.04-.07-.04-.07-.04-.04-.04-.07-.04-.08-.04-.07-.04-.07-.04-.07v-.07l-.04-.08v-.07l-.04-.07v-.45l.04-.07v-.07l.04-.08v-.07l.04-.07.04-.07v-.07l.04-.08.04-.07.04-.04.04-.07s.07-.07.07-.07l.04-.04.04-.04s.04-.08.04-.08l.04-.04.04-.04.07-.04.04-.04.04-.04.04-.04.11-.04.11-.07.11-.08.15-.04.11-.04h.07l.08-.04h.15l.07-.04h1.53l.19.04h.71v-.04l.04-.11.07-.19.11-.37.22-.6.11-.38.08-.19.22-.78.08-.19c.15-.6-.08-.45-.6-.48-.48-.04-.97-.11-1.31-.49l-.07-.07-.08-.08-.07-.11-.07-.11-.04-.08-.04-.11-.04-.08v-.11l-.04-.07-.04-.07v-.15s-.04-.11-.04-.11v-.15l.04-.11v-.15l.04-.11v-.07l.04-.08.04-.07.04-.07.04-.08s.04-.07.04-.07l.04-.07.04-.07.07-.04.04-.07.04-.04.07-.07.04-.04s.07-.07.07-.07l.08-.04.04-.04.11-.07.15-.08.11-.04.15-.07h.11l.11-.04h.07l.07-.04h.9l.19.04h.6l.04.04h.07c.07,0,.19-.41.19-.41l.22-.78.22-.79.22-.82.22-.78.19-.79.26-.82.11-.41.11-.37.15-.56.15-.56.15-.52.15-.56.19-.52.3-1.08.07-.3.11-.26.11-.37.07-.3h-2.62l-.11-.04-.11-.04-.11-.04-.11-.04-.11-.04-.11-.07-.11-.07-.11-.08-.07-.07-.07-.07-.11-.08-.07-.11-.08-.08-.04-.11-.08-.11-.04-.11-.04-.11-.04-.11-.04-.11-.04-.11v-.63l.04-.11.04-.11.04-.11.04-.11.04-.11.08-.11.07-.07.04-.11.11-.11.08-.07.07-.07.11-.07.07-.08.11-.07.11-.04.11-.07.11-.04.11-.04.11-.04h.11l.11-.04h7.51l.41.04h1.08l.15.04h.45l.15.04h.34l.07.04h.15l.11-.04h.26l.15.04h.11l.11.04.11.04.15.04.11.04.11.07.11.07.07.04.11.11.07.07.11.07.08.11.07.11.07.07.04.11.07.11.04.15.04.11.07.23.04.11c0,.07.04.15.04.15l.04.08.04.07.04.07v.08l.04.07v.07l.04.11v.07l.04.07.04.19.07.15.04.19.07.19.04.15.04.15.04.11.04.15.07.11.04.11.07.26.04.11.11.26.08.26.11.26.11.26.08.22.11.26.19.52.19.52.22.56.15.45.19.45.15.45.19.45.15.45.15.45.19.45.15.45.15.45.19.45.15.45.15.45.15.45.19.45.3.9.63,1.79.3.9.34.9.3.9.15.45.15.45.19.45.11.37h2.28l.41.04h.22l.07.04h.07l.07.04h.11l.04.04.07.04.07.04.08.04.07.04.07.04.04.04.07.07.07.04.04.07.07.04.04.07.04.07.04.04.07.07.04.08.04.07v.07l.04.07.04.07v.08l.04.07v.07l.04.08v.41Zm-12.85-9.38l-.11-.41-.11-.41-.11-.41-.15-.37-.11-.41-.11-.41-.07-.19-.04-.19-.07-.22-.11-.37-.19-.6-.11-.26-.07-.26-.11-.26-.15-.52-.11-.3-.19-.52-.19-.52-.19-.56-.11-.26-.07-.3-.11-.26-.07-.26-.04-.04v-.07l-.04-.04v-.04h-.26l-.07.19-.07.22-.07.22-.08.22-.15.49-.15.45-.07.22-.07.23-.07.22-.08.22-.33,1.05-.34,1.08-.19.52-.15.52-.19.52-.3,1.08-.26.78-.15.56-.15.52-.04.11h1.05l.37-.04h3.74l.37.04h.78l-.07-.19-.22-.78Zm-5.83-21.23v-.15l.04-.07v-.15l.04-.07v-.07l.04-.08v-.07l.04-.07v-.04l.04-.07v-.04l.04-.08.04-.04v-.08l.04-.04.04-.08.07-.07.04-.07.04-.04.04-.04.04-.07.04-.04.04-.04.04-.07.04-.04.04-.04.07-.04.04-.04.04-.04.04-.04.07-.04.04-.04.07-.04.04-.04.04-.04.08-.04h.04l.08-.04.04-.04h.07l.08-.04.04-.04h.08l.04-.04h.15l.07-.04h.11l.07-.04h.41l.04.04h.22l.08.04h.04l.07.04h.04l.04-.04h.33l.04.04h.15l.08.04h.04l.08.04.07.04h.07l.11.07.11.04v.04l.11.08h.04v.04l.04.04h.04v.04h.04l.04.08h.04l.04.07h.04l.04.07.04.04v.04l.04.04.04.04v.04l.04.04.04.07v.04l.04.07.04.07v.08l.04.07.04.07v.07l.04.08v.07l.04.07v.75l-.04.07v.19l-.04.07-.04.07v.08l-.04.07-.04.07-.04.08-.04.07-.04.07-.04.07-.04.04-.04.07-.04.07-.04.04-.04.07-.07.04-.04.07-.04.04-.07.04-.04.04-.04.07-.07.04-.04.04-.04.04-.11.07-.07.04-.04.04-.07.04-.04.04h-.04l-.08.04-.04.04-.07.04h-.04l-.07.04h-.04l-.07.04h-.04l-.07.04h-.04l-.07.04h-.11l-.07.04h-.11l-.04.04h-.63l-.04-.04h-.15l-.08-.04h-.11l-.08-.04-.07-.04h-.07l-.07-.04-.04-.04h-.07l-.08-.04-.07-.04-.07-.08-.07-.04-.08-.04-.04-.04-.07-.07-.08-.04-.07-.07-.04-.07-.07-.07-.04-.04-.08-.07-.04-.07-.04-.11-.07-.08-.04-.07-.04-.07-.04-.07-.04-.11v-.07l-.04-.08-.04-.11v-.15l-.04-.11v-.34Z" fill="#fff"/><path d="m345.33,143.31v.15l-.04.07-.04.07v.08l-.04.07-.04.07-.04.07-.04.08-.04.04-.04.07-.04.08-.07.04-.04.08-.07.07-.04.04-.07.04-.04.07-.07.04-.07.04-.07.04-.08.04-.07.04-.07.04h-.07l-.08.04h-.07l-.07.04h-1.91l-.37-.04h-.9l-.52.04h-1.46l-.19.04h-.6l-.19.04h-.22l-.52.04h-.56l-.26.04h-.52l-.11.04h-.11c-.07,0-.15.04-.15.04l-.19.04h-.11l-.07.04h-.15l-.08.04h-.67l-.11-.04h-.11l-.07-.04-.07-.04-.07-.04h-.08l-.04-.04-.08-.04-.07-.04-.04-.04-.08-.04-.07-.04-.04-.08-.04-.04-.04-.04s-.07-.07-.07-.07l-.04-.04-.04-.04-.08-.07-.04-.08-.04-.07-.04-.07-.04-.04s-.04-.07-.04-.07l-.04-.07v-.08l-.04-.07v-.07l-.04-.07v-.6l.04-.04v-.07l.04-.08v-.07l.04-.07.04-.15.07-.11.04-.04.04-.07.04-.08.04-.07.07-.04.04-.08.07-.04.04-.07.08-.04.07-.04.04-.07.07-.04.07-.04.07-.04h.08l.07-.04.07-.04h.07l.08-.04h.07l.07-.04h.41l.07.04h.07s0-.11,0-.11l-.07-.19-.07-.22-.07-.19-.04-.22-.07-.19-.11-.41-.15-.41-.11-.41-.11-.41-.15-.41-.11-.41-.11-.41-.11-.41-.49-1.65-.22-.82-.11-.41-.11-.37-.11-.41-.11-.41-.15-.41-.22-.78-.11-.41-.07-.19-.04-.19-.26-.78-.15-.41-.15-.52-.11-.26-.07-.26-.08-.26-.11-.26-.19-.56-.19-.52-.19-.56-.11-.26-.07-.26-.11-.3-.07-.26c-.04-.11-.07-.15-.07-.15l-.04.15-.08.22-.07.23-.08.26-.15.45-.19.45-.22.67-.07.22-.34,1.05-.15.56-.34,1.05-.19.52-.15.56-.33,1.05-.08.26-.07.26-.23.82-.26.78-.15.52-.15.52-.07.3-.04.26-.11.37-.07.22-.04.22-.07.19-.04.22-.11.41-.08.45-.11.41-.08.22-.11.45-.04.22-.07.22-.04.22-.07.22-.04.22-.07.22-.04.11-.04.11-.04.11-.04.11v.11l.15-.04h.56l.07.04h.08l.07.04h.07l.07.04.08.04.04.04h.08l.07.04.04.07.08.04.07.04.04.04.07.04.04.07.04.04.07.08.04.04.04.08.04.07.04.04.04.07.04.07.04.07v.07l.04.04.04.07v.15l.04.07v.45l-.04.07v.07l-.04.07v.08l-.04.04v.07l-.04.08-.04.07-.04.07-.04.04-.04.07-.04.07-.07.04-.04.07-.04.04-.07.04-.04.08-.08.04-.04.04-.08.04-.07.04-.04.04-.08.04-.07.04-.07.04-.04.04h-.07l-.07.04h-.15l-.07.04h-.49l-.37.04h-1.01l-.37.04h-.6l-.19-.04h-1.72l-.37-.04h-1.16l-.15.04h-.41l-.11.04h-1.23l-.07-.04h-.15l-.11-.04-.07-.04h-.11l-.11-.07-.15-.04-.11-.07-.11-.07-.07-.08-.11-.07-.07-.11-.11-.11-.04-.04-.04-.04-.04-.07v-.04s-.04-.04-.04-.04l-.04-.08-.04-.04v-.08l-.04-.07-.04-.07v-.04l-.04-.07v-.07l-.04-.07v-.45l.04-.07v-.15l.04-.07.04-.07v-.07l.04-.04.04-.07.04-.07c.6-1.05,1.53-.86,2.62-.9.41-.04.45.04.6-.41l.19-.56.22-.78.26-.75.08-.22.11-.37.11-.37.22-.78.11-.41.11-.37.11-.41.11-.37.22-.78.11-.41.22-.78.22-.78.19-.82.22-.78.11-.41.33-1.2.11-.41.11-.41.49-1.61.15-.56.19-.52.15-.56.15-.56.07-.26.11-.26.11-.37.04-.19h-2.43l-.15-.04-.11-.04-.11-.04-.11-.04-.11-.04-.11-.07-.11-.04-.07-.07-.11-.07-.07-.07-.08-.11-.11-.07-.07-.11-.04-.08-.08-.11-.07-.11-.04-.11-.04-.11-.04-.11-.04-.11v-.15l-.04-.11v-.37l.04-.11v-.11l.04-.11.04-.11.04-.11.04-.11.07-.11.08-.11.04-.11.07-.08.11-.11.08-.07.07-.07.11-.07.11-.07.07-.08.11-.04.11-.04.11-.07h.11l.15-.04.11-.04h.45l.15-.04h5.49l.45.04h1.76l.19.04h.63l.15.04h.37l.15.04h.75l.15.04h.11l.11.04.15.04.11.04.11.07.11.07.11.04.07.07.11.11.08.07.11.08.08.11.07.11.04.11.07.11.04.11.08.11.04.11.04.22.04.11s.07.11.07.11v.08l.04.11.04.04v.07l.04.07.04.11v.19l.04.04.04.19.07.15.11.33.04.19.04.11.04.11.04.11.04.15.07.11.04.11.04.11.04.15.07.22.11.26.19.49.07.26.11.23.19.52.19.52.19.49.19.45.15.45.15.41.15.45.19.45.15.45.15.41.15.45.15.45.19.41.3.9.3.86.3.9.3.86.93,2.61.3.86.15.41.15.45.15.45.3.86.04.11h3.07l.07.04h.15l.07.04h.08l.07.04.07.04.07.04.08.04.07.04.07.04.04.04.07.04.07.07.04.04.07.04.04.07.04.07.08.04.04.07.04.07.04.07.04.08.04.07.04.07v.08l.04.07.04.07v.22l.04.07-.04.07v.19Z" fill="#fff"/><path d="m181.84,187.93v.11l-.04.08v.11l-.04.07-.04.11-.04.07-.04.07-.04.11-.04.07-.07.08-.04.07-.08.07-.04.07-.08.08-.07.07-.07.07-.07.04-.08.07-.07.04-.07.07-.07.04-.11.04-.07.04-.08.04-.11.04-.07.04h-.11l-.07.04h-.11l-.11.04h-.19c-3.4,0-6.8-.26-10.2.04-1.12.11-2.09.52-2.88-.49,0-.04-.04-.07-.04-.07l-.04-.07-.07-.11-.04-.07-.04-.07-.04-.11-.04-.08-.04-.11-.04-.07-.04-.19v-.19l-.04-.15.04-.15v-.22l.04-.07v-.07l.04-.08v-.07l.04-.11.04-.07.04-.07.07-.15.04-.07.04-.07.07-.11.04-.07.07-.07.08-.08.07-.04.07-.08.07-.07.08-.04.07-.07.07-.04.07-.04.11-.07.07-.04h.08l.11-.04.07-.04.11-.04h.19l.11-.04h.26l.11.04h.19l.07.04.08-.04h.04l-.04-.15-.08-.26-.07-.26-.11-.23-.07-.26-.07-.26-.08-.22-.07-.26-.07-.26-.07-.26-.08-.22-.07-.26-.15-.49-.15-.52s-.26-.04-.26-.04h-.86l-.45-.04h-1.12l-.86-.04h-3.59l-.86.04h-1.34l-.41.04h-.26l-.11.45-.11.56-.07.26-.08.26-.07.26-.11.56-.07.26-.07.26-.15.56-.11.26-.11.41-.04.15s.11.04.11.04h.86l.07.04h.11l.08.04h.11l.08.04.07.04.11.04.07.04.07.04.11.04.07.04.08.07.07.04.07.08.07.07.04.04.07.08.08.07.04.07.07.08.04.07.04.11.04.07.04.07.04.07.04.11.04.08.04.11v.08l.04.11v.56l-.04.07v.07l-.04.11-.04.08v.11l-.04.08-.04.07-.04.11-.07.07-.04.07-.04.08-.07.07-.08.07-.04.07-.08.07-.07.04-.07.07-.07.04-.08.07-.07.04-.07.07-.07.04-.11.04-.07.04-.08.04h-.11l-.07.04h-.11l-.07.04h-1.12l-.49-.04h-4.18l-.49.04h-2.65l-.22-.04h-.41l-.11-.04h-.71l-.07.04h-.07l-.11.04h-.19l-.07.04h-.19l-.11-.04h-.19l-.07-.04h-.07l-.11-.04-.07-.04-.11-.04-.07-.04-.08-.04-.07-.04-.07-.04-.07-.07-.11-.04-.04-.07-.07-.08-.07-.04-.08-.07-.04-.08-.07-.07-.04-.07-.07-.07-.04-.11-.04-.08-.04-.07-.04-.07-.04-.11-.04-.07v-.11l-.04-.07v-.11l-.04-.07v-.38l.04-.11v-.07l.04-.11v-.07l.04-.07.04-.11.04-.07.04-.08.04-.11.04-.08.04-.07.08-.07.04-.07.04-.08.07-.04.04-.08.07-.04.04-.04.07-.07.11-.11.15-.07.11-.07.11-.04.07-.04.15-.07.15-.04h.11l.07-.04h.11l.07-.04h.23l.15-.04h.97l.26.04h.6l.19.04h.64l.04-.04.04-.15.08-.22.22-.71.19-.49.22-.71.26-.93.07-.23c.07-.22.19-.45.26-.64-.49-.11-1.01-.04-1.5-.04s-.63-.15-.97-.45l-.07-.07-.08-.08-.11-.11-.08-.11-.11-.15-.04-.11-.04-.07-.04-.11-.04-.11-.04-.15-.04-.07v-.19s-.04-.11-.04-.11v-.3l.04-.11v-.11l.04-.11.04-.11v-.07s.07-.11.07-.11l.04-.11.04-.07.04-.07.07-.11.04-.07.07-.08.07-.11s.11-.07.11-.07l.08-.07.07-.07.15-.11.11-.07.11-.08.11-.04.15-.04.11-.07h.15l.11-.04.11-.04h.37l.15-.04h.19l.11.04h.6l.22.04h.56l.04.04h.07c.08-.04.19-.49.19-.49l.26-.97.26-.97.3-.97.26-.97.41-1.46.11-.49.15-.49.15-.48.56-2.02.19-.63.19-.67.22-.67.3-1.01.07-.3.15-.49.11-.34h-3.1l-.15-.04-.15-.04-.15-.04-.15-.04-.11-.07-.15-.08-.11-.07-.15-.07-.11-.07-.11-.11-.11-.11-.07-.11-.11-.11-.07-.11-.08-.11-.07-.15-.04-.15-.08-.11-.04-.15v-.15l-.04-.15v-.15l-.04-.15.04-.15v-.15l.04-.11v-.15l.04-.15.08-.15.04-.11.07-.15.08-.11.07-.15.11-.11.07-.11.11-.11.11-.07.11-.11.15-.07.11-.07.15-.08.11-.04.15-.08.15-.04.15-.04h.11l.15-.04h.15s.04,0,.04,0h8.37l.26.04h1.46l.22.04h.78l.19.04h.3l.15.04h.33l.04.04h.19l.15-.04h.33l.15.04h.15l.15.04.15.04.15.07.11.04.15.07.15.07.11.11.11.07.11.11.11.11.11.11.07.11.07.15.08.11.07.15.07.15.04.15.07.3.04.11s.04.07.04.07l.04.11.04.07.04.11.04.07v.08l.04.11.04.11.04.11v.11l.04.07.04.22.07.23.07.19.08.22.07.22.04.15.04.15.07.15.04.15.07.15.04.15.04.19.07.15.04.15.08.15.11.3.11.34.11.3.11.3.11.34.26.64.26.6.22.67.22.52.19.56.22.56.19.52.19.56.22.56.19.56.19.52.19.56.22.56.19.52.19.56.19.56.19.52.41,1.12.37,1.08.37,1.08.75,2.21.22.52.19.56.19.52.19.56.19.52.15.45h1.08l.22.04h1.98l.08.04h.22l.08.04h.11l.07.04.11.04.07.04.07.04.11.04.07.04.08.04.07.07.07.04.07.07.08.07.07.07.07.04.04.07.07.11.04.08.07.07.04.07.04.07.04.11.04.07.04.11.04.08v.11l.04.08v.11l.04.08v.41Zm-15.66-11.44l-.15-.48-.15-.52-.15-.48-.11-.49-.08-.22-.22-.75-.08-.23-.07-.26-.07-.22-.15-.49-.07-.22-.19-.49-.19-.63-.11-.34-.11-.34-.11-.3-.11-.34-.11-.34-.11-.34-.26-.63-.11-.34-.11-.34-.11-.33-.11-.34-.11-.34-.11-.34-.04-.04v-.07l-.04-.04v-.08h-.11l-.22.04-.07.19-.07.3-.19.56-.19.56-.19.56-.11.26-.07.3-.11.26-.07.26-.64,1.95-.19.67-.23.64-.19.63-.3.97-.3.97-.11.33-.3.97-.19.63-.07.34-.04.15h.37l.45-.04h5.46l.71.04h.67l-.04-.22-.3-.97Z" fill="#fff"/><path d="m196.38,188.64v.08l-.04.07v.15l-.04.07-.04.07v.07l-.04.07-.04.04-.04.07-.04.08-.04.07-.07.04-.04.07-.04.07-.07.04-.04.04-.07.07-.04.04-.08.04-.07.04-.04.04-.07.04-.07.04-.07.04-.08.04h-.07l-.07.04h-.07l-.08.04h-.22l-.9.04h-1.57l-.6.04h-4.75l-.3-.04h-.9l-.07-.04h-.15l-.07-.04h-.07l-.07-.04-.08-.04-.07-.04h-.07l-.07-.04-.08-.04-.04-.07-.08-.04-.07-.04-.04-.07-.08-.04-.04-.04-.04-.07-.07-.07-.04-.04-.04-.07-.04-.08-.04-.07-.04-.04-.04-.07v-.07l-.04-.07-.04-.07v-.15l-.04-.07v-.41l.04-.07v-.08l.04-.07v-.07l.04-.07.04-.08v-.07l.04-.04.04-.08.04-.07.07-.07.04-.04.04-.07.04-.04.07-.07.04-.04.07-.07.07-.04.04-.04.07-.04.07-.04.07-.04.04-.04.07-.04.08-.04h.07l.07-.04h.07l.08-.04h.86l.26.04h.86v-1.31l-.04-.52-.07-1.61-.07-1.05-.04-.52-.04-1.08-.04-.52-.04-.56-.04-1.08-.04-.52-.04-.82v-.56l-.04-.63-.04-.6v-.34l-.04-.6v-.63l-.04-.64-.04-.64-.04-.6v-.49l-.04-.45-.04-.48v-.71l-.41.04h-.67l-.07.04h-.15l-.07.04h-.26l-.08-.04h-.15l-.07-.04h-.08l-.07-.04-.07-.04-.07-.04-.08-.04h-.04l-.07-.04-.11-.07-.04-.04-.07-.04-.04-.08-.07-.04-.04-.04-.04-.07-.08-.07-.04-.04-.04-.07-.04-.07-.04-.04-.04-.07-.04-.08-.04-.07v-.07l-.04-.04v-.04l-.04-.04v-.15l-.04-.08v-.45l.04-.07v-.08l.04-.07v-.07l.04-.07.04-.08v-.07l.04-.04.04-.08.04-.07.04-.04.07-.07.04-.07.04-.04.07-.07.04-.04.07-.04.07-.07.04-.04.07-.04.04-.04h.07l.04-.04.08-.04.07-.04h.04l.15-.04.07-.04h.08l.07-.04h1.12l.49-.04.52-.04h.26l.26-.04h.22l.26-.04h.41l.41-.04.41-.04.41-.04h.37l.41-.04.82-.04.37-.04.41-.04h.41l.37-.04.19-.04h.37l.19-.04h.19l.19-.04h.19l.19-.04h.34l.07.04h.07l.07.04h.08l.07.04h.07l.07.04.08.04.07.04.07.04.07.04.04.07.07.04.07.04.04.08.07.04.04.07.04.04.07.07.04.08.04.07.04.07.04.07.04.08v.07l.04.07.04.07v.15l.04.07v.34l-.04.07v.15l-.04.07-.04.07v.07l-.04.07-.04.08-.04.07-.04.07-.04.04-.04.07-.07.07-.04.04-.07.07-.04.04-.07.07-.04.04-.08.04-.07.08-.07.04-.07.04h-.04l-.07.04-.08.04-.07.04h-.11l-.07.04h-.15l-.19.04h-.19l-.22.04h-.19l-.37.04h-.22l-.19.04-.41.04h-.41l-.08.04v4.82l.04.9v1.79l.04.9v1.34l.04.41v.9l.04.45v.45l.04.45v.45l.04.22.04.67v.45l.04.07v.19l.04.26v.15l.04.19v.15l.04.22v.19l.04.08v.56l.04.19v.82h2.09l.08.04h.07l.07.04h.07l.08.04.07.04.07.04.07.04.08.04.04.04.08.04.07.07.04.04.08.04.04.07.04.04.07.07.04.07.04.04.04.07.04.08.04.07.04.07v.07l.04.07.04.08v.15l.04.08v.3Zm-10.31-21.9l.04.04v-.04h-.04Zm1.35-8.89v-.08l.04-.07v-.15l.04-.07v-.19l.04-.04v-.08l.04-.07.04-.04v-.07l.04-.04v-.07l.04-.04.04-.08.04-.04v-.07l.08-.11.04-.04.04-.04.04-.07.04-.04.04-.04.04-.04.04-.07.04-.04.07-.04.04-.04.04-.04.04-.04.07-.04.04-.04.04-.04.08-.04.04-.04.07-.04.04-.04h.07l.04-.04.07-.04.04-.04h.07l.07-.04h.04l.07-.04h.07l.04-.04h.19l.07-.04h.49l.07.04h.11l.07.04h.07l.04.04h.04v-.04h.37l.11.04h.07l.07.04h.07l.04.04.11.04h.04l.04.04.11.04.04.04.07.04.07.04.04.04.04.04.08.08.07.07.04.04.04.04.04.07.04.04.04.04.04.04.04.07.04.11v.04l.04.07.04.07.04.08.04.07v.07l.04.07v.08l.04.07v.15l.04.11v.41l-.04.07v.15l-.04.07v.11l-.04.07v.08l-.04.07-.04.07-.04.07v.07l-.04.08-.04.07-.04.04-.04.07-.07.07-.04.04-.04.07-.04.04-.04.07-.07.04-.04.08-.04.04-.08.04-.04.07-.04.04-.07.04-.04.04-.11.07-.04.04-.07.04-.04.04-.07.04h-.04l-.07.04-.04.04-.07.04h-.04l-.04.04h-.08l-.07.04h-.04l-.04.04h-.07l-.08.04h-.11l-.04.04h-.19l-.07.04h-.52l-.07-.04h-.15l-.04-.04h-.07l-.07-.04h-.07l-.08-.04h-.04l-.07-.04-.08-.04-.07-.04-.07-.04-.07-.04-.08-.04-.04-.04-.08-.04-.07-.04-.07-.07-.07-.04-.04-.08-.07-.07-.04-.07-.07-.08-.04-.07-.07-.07-.04-.07-.04-.07-.04-.08-.07-.07v-.07l-.04-.11-.04-.07-.04-.08v-.11l-.04-.08v-.19l-.04-.07v-.26Z" fill="#fff"/><path d="m218.95,171.79l-.04.11-.04.08v.07l-.04.07s-.04.11-.04.11v.07l-.04.08-.04.07v.07l-.07.07-.04.08-.04.07c-.41.67-1.42,1.01-2.17,1.08h-.67l-.04-.04h-.15l-.07-.04h-.08l-.07-.04-.07-.04h-.07l-.08-.04-.07-.04-.04-.04-.07-.08-.04-.04-.04-.04-.07-.04-.04-.04-.04-.04-.04-.07-.04-.04-.04-.04v-.04l-.04-.04-.04-.04v-.04l-.04-.04-.04-.08-.04-.04v-.07l-.04-.08-.04-.07-.04-.07v-.08l-.04-.07v-.07l-.04-.07-.04-.11v-.15l-.04-.15v-.04l-.04-.15v-.07l-.04-.11v-.34l-.04-.07v-.19l-.04-.19v-.3c-.04-.08-.04-.19-.04-.19l-.07-.26-.04-.15-.04-.15-.04-.19v-.11l-.04-.07-.04-.19-.04-.11v-.19l-.04-.08v-.22l-.04-.08v-.11h-.37l-.45-.04h-4.67v1.2l-.04,1.27v1.19l-.04,1.16v2.09l-.04,1.83-.04,1.64v1.46l-.04,2.39-.04.94v3.06h.6l.22.04h1.42l.15-.04h.52l.07-.04h.04c.19,0,.3-.04.3-.04h.41l.11.04h.08l.07.04.11.04h.07l.07.04.08.04.07.07.07.04.07.04.08.07.07.04.07.07.04.08.07.07.04.07.04.07.07.08.04.07.04.07.04.07v.11l.04.08.04.07v.63l-.04.08v.11l-.04.08-.04.07-.04.11-.04.07-.04.07-.04.08-.04.07-.08.07-.04.07-.08.04-.04.07-.07.08-.08.04-.07.07-.07.04-.07.04-.08.04-.07.04-.11.04-.07.04h-.07l-.11.04h-.04l-.07.04h-.22l-.07.04h-.37l-.08.04h-1.01l-.19.04h-.37l-.22-.04h-1.49l-.22-.04h-.9l-.48-.04h-.45l-.93-.04-.45-.04h-.9l-.41-.04h-.82l-.19-.04h-1.57l-.07.04h-.64l-.07-.04h-.07l-.08-.04-.11-.04h-.07l-.07-.04-.07-.07-.08-.04-.07-.04-.07-.08-.07-.04-.08-.08-.04-.04-.07-.08-.04-.07-.07-.07-.04-.07-.04-.07-.04-.08-.04-.07-.04-.11-.04-.07-.04-.07v-.19l-.04-.08v-.37l.04-.07v-.11l.04-.07v-.08l.04-.07.04-.11.04-.07.04-.07.08-.07.04-.08.04-.07.07-.07.04-.08.07-.04.07-.07.08-.04.07-.07.07-.04.07-.04.08-.04.07-.04.07-.04.11-.04h.07l.19-.04h.04l.11-.04h.63l.15-.04h.82l.15.04h.9v-1.27l-.04-.37v-.75l-.04-.37v-.75l-.04-.75v-.71l-.04-.71-.04-1.31-.04-.64v-.6l-.04-.56v-.52l-.04-.26v-1.05l-.04-.37v-.78l-.04-.37v-.75l-.04-.41-.04-.75v-.78l-.04-.37v-.78l-.04-.34v-.3l-.04-.15v-.6l-.04-.07v-.26s-.04-.04-.04-.04l-.19.04h-.15l-.07.04h-.11l-.11.04h-.07l-.08.04h-.52l-.08-.04h-.07l-.04-.04-.08-.04-.07-.04-.07-.04-.07-.07-.08-.04-.04-.07-.08-.04-.04-.07-.07-.07-.04-.07-.04-.11v-.07l-.04-.08-.04-.11v-.33l.04-.07v-.11l.04-.08.04-.07.04-.07.04-.07.04-.04.04-.07.04-.04.07-.07.04-.04.04-.04.07-.04.04-.04.08-.04.07-.04.11-.04.07-.04h.07l.11-.04h.19l.11-.04h.11l.04-.04h.26l.19-.04.19-.04h.19l.19-.04h.19l.19-.04h.15l.26-.04h.3l.26-.04h.26l.26-.04h.26l.26-.04h.52l.26-.04h1.05l.3-.04h4.82l.49.04h1.83l.22.04h1.57l.11.04h.19l.11.04h.11l.15.04h.11l.11.04h.07l.07.04h.07l.04.04h.07l.07.04.08.04h.04l.08.04.07.04.07.04.04.04.07.04.07.04.07.04.08.04.04.04.08.07.07.04.04.07.08.04.04.04.04.04.04.04.04.04v.04l.04.04.11.11v.04l.04.04.04.04v.04l.04.11.04.04.04.07.04.08.04.07.04.07.04.07.08.19.04.07.04.15.04.07.04.19v.07l.04.07.04.26.04.15.04.15v.26l.04.07v.15l.04.15v.3l.04.15v.56l.04.26v.3l.04.11v.26Zm-17.64-3.29h.04l-.07.04.04-.04Z" fill="#fff"/><path d="m232.22,188.72v.07l-.04.07v.15l-.04.07-.04.07v.07l-.04.08-.04.07-.04.07-.04.08-.04.04-.07.07-.04.08-.04.04-.07.07-.04.04-.07.04-.04.07-.07.04-.07.04-.04.04-.07.04-.08.04-.07.04h-.07l-.07.04-.08.04h-.15l-.07.04h-1.57l-.52.04h-2.28l-.6.04h-1.53l-.3-.04h-2.02l-.26-.04h-.22l-.07-.04h-.07l-.08-.04h-.07l-.07-.04-.07-.04-.08-.04-.07-.04-.07-.04-.04-.04-.07-.04-.07-.07-.04-.04-.07-.04-.04-.07-.04-.04-.08-.08-.04-.07-.04-.04-.04-.08-.04-.07-.04-.07-.04-.08v-.07l-.04-.07-.04-.07v-.15l-.04-.07v-.37l.04-.07v-.08l.04-.07v-.07l.04-.08.04-.07v-.07l.04-.07.04-.07.04-.04.07-.07.04-.08.04-.04.04-.08.07-.04.04-.07.07-.04.08-.04.04-.07.07-.04.08-.04.07-.04.04-.04h.07l.07-.04.07-.04h.08l.07-.04h.22l.07-.04h.11l.26.04h1.38v-1.27l-.04-.52-.08-1.61-.07-1.05-.04-.56-.04-1.05-.04-.56-.04-.52-.04-1.08-.04-.52-.04-.82v-.56l-.04-.64-.04-.64v-.3l-.04-.63v-.6l-.04-.64-.04-.64-.04-.63v-.45l-.04-.45-.04-.49v-.71h-.49l-.08.04h-.22l-.11-.04h-.11l-.07.04h-.08l-.07.04h-.56l-.08-.04h-.07l-.07-.04h-.07l-.08-.04-.07-.04-.07-.04-.04-.04-.07-.04-.11-.04-.04-.04-.08-.07-.04-.04-.08-.07-.04-.04-.04-.04-.07-.07-.04-.08-.04-.04-.04-.07-.04-.08-.04-.07-.04-.04-.04-.07v-.07l-.04-.07-.04-.08v-.11l-.04-.08v-.45l.04-.07v-.08l.04-.07v-.07l.04-.08.04-.07v-.07l.04-.07.04-.04.04-.07.04-.07.07-.04.04-.07.04-.08.07-.04.04-.04.07-.07.08-.04.04-.04.07-.04.04-.04.07-.04.04-.04h.07l.07-.04.04-.04.15-.04h.07l.07-.04h.07l.11-.04h.64l.19.04h.19l.49-.04.52-.04h.26l.26-.04h.22l.26-.04.41-.04.41-.04h.41l.41-.04.37-.04h.41l.82-.07h.37l.41-.04.41-.04.37-.04h.19l.37-.04h.19l.19-.04h.19l.19-.04h.6l.08.04h.07l.07.04h.07l.08.04.07.04.07.04.07.04.08.04.07.04.04.04.08.04.07.07.04.04.07.07.04.04.04.07.07.07.04.04.04.07.04.07.04.08.04.07v.07l.04.07v.08l.04.07v.07l.04.07v.34l-.04.07v.15l-.04.07-.04.07v.07l-.04.08-.04.07-.04.07-.04.08-.04.07-.04.07-.08.04-.04.07-.07.04-.04.08-.07.04-.04.08-.07.04-.07.04-.08.04-.07.04-.07.04-.07.04h-.08l-.07.04-.07.04h-.15l-.07.04h-.19l-.19.04h-.22l-.19.04h-.37l-.22.04h-.19l-.41.04-.41.04h-.07v5.72l.04.9v1.79l.04.45v.9l.04.45v.9l.04.45v.45l.04.45v.41l.04.22.04.67v.52l.04.07v.11l.04.26v.19l.04.15v.19l.04.19v.3l.04.11v.41l.04.22v.82h.9l.9-.04h.22l.07.04h.07l.07.04h.08l.07.04.07.04h.07l.08.04.07.04.07.04.04.04.07.07.07.04.04.04.07.07.04.04.04.08.08.04.04.08.04.07.04.07.04.04.04.07.04.07v.07l.04.08.04.07v.15l.04.07v.3Zm-10.31-21.86h.04-.04Z" fill="#fff"/><path d="m260.65,167.01v.15l-.04.07v.08l-.04.07-.04.07v.07l-.04.08-.04.07-.04.04-.04.08-.04.07-.07.07-.04.04-.04.07-.07.04-.04.07-.08.04-.07.04-.04.04-.07.04-.07.08h-.07l-.08.04-.07.04-.07.04h-.07l-.08.04h-.07l-.07.04h-.45l-.37-.04h-.78l-.22-.04v.3l-.04.22v2.32l-.04.78v3.7l-.04.97v3.44l-.04.45v1.38l-.04.41v1.23l-.04.41v1.04l-.04.3v.45l-.04.11v.49l-.04.07h.52l.15.04h.64l.26.04h.37l.07.04h.11l.04.04h.07l.04.04h.07l.04.04.07.04h.04l.07.04.04.04.04.04.07.04.04.04.04.04.07.04.04.04.04.04.04.04.04.04.04.08.04.04.04.04.04.07.04.04.04.04v.08l.04.04.04.08v.04l.04.07v.04l.04.07v.11l.04.07v.49l-.04.04v.11l-.04.07v.04l-.04.07v.04l-.04.07-.04.04v.07l-.04.04-.04.08-.04.04-.04.04-.04.07-.04.04-.04.04-.04.04-.04.04-.04.07-.07.04-.04.04-.04.04-.07.04h-.04l-.04.04-.07.04-.04.04h-.07l-.04.04h-.07l-.04.04h-.07l-.04.04h-.11l-.07.04h-.56c-1.94-.15-3.89.19-5.83-.23h-.07l-.04-.04h-.07l-.11-.04-.07-.04-.07-.07-.07-.04-.08-.04-.07-.04-.11-.11-.04-.04-.04-.04-.04-.04-.04-.04-.08-.04-.07-.07-.07-.07-.07-.04-.04-.07-.07-.07-.07-.04-.04-.07-.04-.04-.07-.07-.07-.15-.11-.11-.07-.11-.08-.11-.15-.23-.11-.11-.07-.15-.07-.11-.08-.11-.15-.22-.15-.23-.19-.26-.15-.22-.15-.23-.3-.45-.15-.26-.15-.22-.15-.22-.15-.23-.19-.3-.22-.33-.22-.3-.19-.34-.22-.3-.19-.34-.22-.3-.19-.34-.22-.34-.19-.3-.19-.34-.22-.3-.37-.67-.22-.33-.19-.3-.19-.34-.22-.34-.19-.34-.19-.3-.19-.34-.19-.34-.19-.34-.19-.34-.6-.97-.07-.15v.64l.04,1.42v3.7l.04.71v3.74l-.04.22v.07h1.38l.26.04h.71l.15.04h.41l.08.04h.07l.07.04h.07l.08.04.07.04.07.04.07.04.08.04.07.04.04.04.08.04.07.07.04.04.07.07.04.04.04.08.07.07.04.04.04.08.04.07.04.07v.08l.04.07.04.07v.07l.04.07v.15l.04.07v.22l-.04.11v.15l-.04.08v.07l-.04.07-.04.07-.04.08-.04.04-.04.07-.04.08-.04.07-.04.04-.07.07-.04.07-.04.04-.08.04-.07.08-.04.04-.07.04-.07.04-.04.04-.07.04-.07.04-.07.04-.08.04h-.07l-.07.04h-.07l-.08.04h-.45l-.41-.04h-.52l-.26-.04h-3.48l-.56.04h-3.81l-.08-.04h-.15l-.07-.04-.08-.04h-.07l-.07-.04-.07-.04-.04-.04-.07-.04-.08-.04-.07-.07-.04-.04-.08-.04-.04-.07-.08-.04-.04-.07-.04-.04-.07-.07-.04-.08-.04-.07-.04-.04-.04-.08-.04-.07v-.07l-.04-.07-.04-.08v-.15l-.04-.11v-.3l.04-.07v-.15l.04-.07v-.07l.04-.07.04-.08.04-.07.04-.07.04-.08.04-.04.04-.07.04-.08.07-.04.04-.07.04-.04.07-.07.07-.04.04-.07.07-.04.07-.04.08-.04.04-.04.07-.04h.08l.07-.04.07-.04h.07l.08-.04h3.14v-.22l-.04-.22v-.67l-.04-.26v-1.38l-.04-.6v-1.23l-.04-.67v-1.98l-.04-1.35v-1.35l-.04-1.27v-2.24l-.04-.45v-1.01l-.04-.19v-.6l-.04-.49-.04-.15v-.34l-.04-.3-.04-.34v-.34l-.04-.34v-.15h-1.72l-.93-.04h-1.27l-.07-.04h-.15l-.04-.04h-.07l-.07-.04h-.08l-.04-.04-.08-.04h-.04l-.07-.04-.08-.04-.04-.04-.08-.04-.04-.04-.04-.07-.07-.04-.04-.04-.04-.04-.04-.08-.07-.04-.04-.08-.04-.04-.04-.07v-.04l-.04-.07-.04-.04-.04-.07v-.07l-.04-.08v-.04l-.04-.08v-.07l-.04-.07v-.45l.04-.07v-.15l.04-.04v-.07l.04-.07.04-.04v-.07l.04-.08.04-.04.04-.07.04-.04.04-.07.04-.04.04-.04.07-.08.04-.04.04-.04.07-.07.04-.04.08-.04.04-.04.08-.04.04-.04h.07l.04-.04.07-.04.08-.04h.04l.07-.04h.15l.04-.04h2.35l.41.04h1.79l.19.04h.75l.22.04h1.2l.07.04h.19l.11.04h.19l.11.04.19.04.07.04.11.04h.07l.11.04.07.04.07.04.11.04.15.07.11.07.07.04.07.04.07.04.11.07.07.04.15.11.07.07.07.04.08.07.07.07.07.07.07.04.08.07.04.04.04.04.04.04.04.04.04.11.07.07.04.04.04.04v.04l.04.04.11.19.04.04v.04l.15.23.11.22.11.23.11.22.11.19.11.23.22.45.6,1.05.11.22.11.19.15.22.11.22.11.19.26.45.22.41.26.41.22.41.26.45.26.41.22.41.26.41.26.45.22.41.26.41.52.82.49.86.37.6v-.93l.04-.63v-1.27l.04-.63v-.64l.04-.64v-.6l.04-.63.04-.6v-.56l.04-.56.04-.56v-.52l.04-.22v-.41h-2.09l-.07-.04h-.15l-.07-.04-.07-.04h-.08l-.07-.04-.07-.04-.07-.04-.04-.04-.07-.04-.08-.04-.04-.08-.07-.04-.08-.07-.04-.04-.04-.07-.07-.04-.04-.07-.04-.08-.04-.07-.04-.04-.04-.08-.04-.07v-.07l-.04-.07-.04-.08v-.15l-.04-.07v-.41l.04-.08v-.07l.04-.07v-.07l.04-.07.04-.08.04-.07v-.07l.08-.08.04-.04.04-.07.04-.08.04-.04.07-.07.04-.04.07-.07.04-.04.07-.04.07-.07.08-.04.07-.04.04-.04.08-.04h.07l.07-.04.07-.04h.08l.07-.04h3.89l.56-.04h3.63l.26.04h.82l.15.04h.3l.07.04h.07l.07.04h.08l.07.04.07.04.07.04.08.04.07.04.07.04.04.04.07.04.07.07.04.04.07.07.04.04.04.08.04.04.07.07.04.08.04.07.04.07v.08l.04.07.04.07v.07l.04.07v.15l.04.07-.04.08v.19Zm-3.51,1.53l-.07.08.11-.11-.04.04Z" fill="#fff"/><path d="m292.9,188.53l-.04.07v.19l-.04.07-.04.08v.07l-.04.07-.04.04-.04.07-.04.07-.07.07-.04.08-.04.04-.08.08-.04.04-.08.07-.04.04-.07.04-.08.07-.07.04-.04.04-.07.04-.07.04h-.07l-.08.04-.07.04h-.15l-.11.04h-1.05l-.37-.04c-1.68,0-3.4.07-5.08.11-.64.04-1.31-.04-1.98.07-.86.11-2.02.19-2.54-.64l-.04-.07-.04-.07-.04-.08-.04-.07-.04-.07-.04-.07v-.08l-.04-.07v-.15l-.04-.04v-.3l.04-.07v-.15l.04-.07v-.04l.04-.07v-.07l.04-.07.04-.08.04-.11.04-.08.08-.04.04-.08.04-.07.04-.04.07-.07.04-.04.07-.08.04-.04.07-.07.07-.04.07-.04.08-.04.07-.04.04-.04h.07l.07-.04.11-.04h.07l.07-.04h.45l.11.04h.22l-.04-.15-.07-.19-.08-.22-.04-.22-.07-.19-.15-.41-.04-.23-.15-.41-.11-.41-.11-.41-.11-.41h-.22l-.37-.04h-.9l-.19-.04h-5.27l-.37.04h-.9l-.11.37-.11.45-.04.22-.07.22-.04.22-.04.22-.07.22-.08.19-.04.26-.07.23-.08.22v.11l-.04.11-.11.34-.04.11h.07l.45.04h.41l.07.04h.07l.08.04.07.04h.07l.07.04.08.04.07.04.04.04.08.04.07.08.04.04.07.04.04.07.08.04.04.07.04.07.07.04.04.07.04.07.04.08.04.04v.08l.04.07.04.07v.07l.04.08v.63l-.04.07v.08l-.04.07v.07l-.04.08-.04.04-.04.07-.04.08-.04.07-.04.07-.08.04-.04.07-.04.04-.07.07-.04.04-.07.07-.04.04-.07.04-.07.04-.07.04-.04.04-.07.04-.08.04h-.07l-.07.04-.07.04h-.15l-.07.04h-.45l-.19-.04h-5.27l-.41.04h-2.21c-.37,0-.75.04-1.12-.15h-.08l-.04-.04-.07-.04-.08-.04-.07-.04-.04-.07-.07-.04-.07-.04-.04-.08-.04-.04-.08-.08-.04-.07-.04-.04-.04-.07-.04-.07-.04-.07-.04-.04-.04-.07-.04-.07v-.08l-.04-.07v-.07l-.04-.07v-.49l.04-.07v-.07l.04-.07v-.07l.04-.08.04-.07v-.07l.04-.04.04-.07.04-.07.07-.08.04-.04.04-.07.04-.04.04-.04.04-.04.04-.04.07-.04.04-.04.04-.04.04-.04.11-.07.11-.04.11-.08.15-.04.11-.04.07-.04h.07l.11-.04h.19l.04-.04h1.23l.19.04h.37l.26.04h.26v-.08l.04-.11.07-.19.11-.37.22-.56.11-.41.07-.19.23-.79.07-.19c.19-.56-.07-.45-.6-.48-.49-.04-.93-.11-1.31-.45l-.07-.11-.07-.07-.07-.11-.08-.11-.04-.07-.04-.08-.04-.07v-.11l-.04-.11-.04-.07v-.23l-.04-.11v-.07l.04-.07v-.19l.04-.07v-.11l.04-.08.04-.07.04-.07.04-.07.04-.07.04-.08.04-.04.07-.08.04-.04.04-.08.07-.07.04-.04s.07-.08.07-.08l.07-.04.04-.04.11-.07.15-.07.11-.04.15-.04.11-.04.11-.04h.22l.07-.04h.45l.3.04h.37l.19.04h.34c.07,0,.19-.37.19-.37l.22-.82.22-.78.22-.78.22-.82.22-.78.22-.82.11-.37.11-.41.15-.56.15-.52.15-.56.15-.52.19-.56.3-1.08.07-.26.11-.3.11-.37.07-.3h-.6l-.63.04h-1.27l-.11-.04h-.11l-.11-.04-.11-.04-.11-.07-.11-.04-.11-.04-.11-.08-.11-.07-.08-.07-.07-.07-.11-.11-.07-.07-.07-.11-.04-.11-.07-.11-.04-.07-.04-.11-.04-.15-.04-.11-.04-.11v-.6l.04-.11.04-.11.04-.11.04-.11.04-.11.07-.11.07-.11.08-.11.07-.08.07-.07.07-.11.11-.07.08-.07.11-.04.11-.07.11-.04.11-.04.11-.04.11-.04.11-.04h.34l.11-.04h6.31l.45.04h1.38l.19.04h.63l.15.04h.41l.11.04h.26s.07,0,.07,0h.52l.11.04h.11l.11.04.15.04.11.08.11.04.11.07.07.08.11.07.11.07.07.11.07.07.07.11.08.11.07.11.04.11.04.11.04.11.07.26.04.07c0,.08.04.15.04.15l.04.07.04.11.04.04v.08l.04.07v.11l.04.07v.11l.04.07.04.15.07.19.04.19.08.15.04.19.04.11.04.15.07.11.04.11.04.15.07.22.04.15.11.26.07.23.11.26.11.26.07.26.11.26.19.52.19.52.22.52.15.45.19.45.15.45.19.45.15.45.15.45.19.45.15.45.15.45.19.45.15.45.15.49.15.45.19.45.3.9.64,1.79.3.9.3.9.33.9.15.45.15.45.19.41.11.37h1.46l.41.04h.97l.07.04h.15l.07.04.11.04h.04l.08.04.07.04.07.04.07.04.08.07.04.04.07.04.08.07.04.04.08.07.04.04.04.08.04.07.08.07.04.04.04.07v.07l.04.08.04.07v.07l.04.07v.07l.04.11v.38Zm-12.85-9.38l-.11-.41-.11-.37-.11-.41-.15-.41-.11-.41-.11-.37-.08-.22-.04-.19-.08-.19-.11-.41-.19-.56-.11-.3-.08-.26-.11-.26-.15-.52-.11-.26-.19-.56-.19-.52-.19-.56-.11-.26-.07-.26-.11-.3-.08-.26-.04-.04v-.07l-.04-.04v-.04h-.26l-.07.19-.08.22-.07.22-.07.26-.15.45-.15.45-.07.22-.08.22-.07.22-.07.22-.34,1.08-.34,1.04-.19.52-.15.56-.19.52-.3,1.05-.26.82-.15.52-.15.52-.04.11h5.53l.56.04h.22l-.07-.19-.22-.82Z" fill="#fff"/><path d="m310.99,189.02c-2.13,1.23-4.67,1.49-7.14,1.31-3.03-.26-6.13-1.23-8.22-3.48-1.65-1.76-3.55-7.06-.67-8.71,0-.04.11-.07.11-.07l.11-.04.11-.04.11-.04.11-.04h.49l.11.04.11.04.11.04.11.04.11.04.11.08.08.07.11.07.07.07.07.07.11.11.04.08.07.11.07.11.04.11.04.11.04.11.04.11v.6l-.04.11-.04.11-.04.11-.04.08-.04.07v.07l-.04.08-.04.07v.07l-.04.15-.04.08v.07l-.04.07v.08l-.04.07v.19l-.04.07v.93l.04.07v.11l.04.04v.11c.67,2.65,5.38,5.19,7.81,3.55l.04-.04.07-.07h.04l.04-.04.07-.07h.04l.04-.04v-.04l.04-.04.04-.04.04-.04.08-.04v-.04l.04-.04.04-.04c.97-1.23,1.05-2.88.37-4.26v-.07l-.04-.07-.04-.04-.04-.07-.04-.07-.04-.08-.04-.04-.07-.15-.07-.04-.04-.07-.04-.07-.04-.04-.07-.11c-.45-.52-.82-1.05-1.42-1.38-1.05-.56-2.2-.9-3.33-1.31l-.15-.07-.11-.04-.15-.08-.15-.04-.11-.07-.3-.11-.11-.04c-2.21-1.05-4.78-2.88-5.16-5.46-.37-2.47,1.53-4.82,3.81-5.83,2.35-1.05,5.31-1.12,7.88-.97h.15l.34.04h.15l.15.04h.15l.15.04h.19s-.07-.11-.07-.11v-.07l-.04-.04v-.07l-.04-.11v-.15l-.04-.04v-.34l.04-.07v-.11l.04-.07v-.07l.04-.04v-.07l.04-.07.04-.04v-.07l.04-.04.04-.07.04-.04.04-.07.04-.04.04-.07.07-.04.04-.04.04-.07.07-.04.04-.04.07-.04.04-.04.07-.04.07-.04.04-.04.07-.04.08-.04h.04l.07-.04h.08l.07-.04h.11l.15-.04h.26l.07.04h.11l.07.04h.07l.04.04h.08l.07.04.04.04.07.04.08.04.04.04.07.04.04.04.07.04.04.04.07.07.04.04.04.04.08.07.04.04c.37.52.56,1.2.78,1.83.79,1.94,1.72,4.19,1.98,6.32v.56l-.04.04v.07l-.04.08v.07l-.04.07-.04.04-.04.07-.04.07-.04.04-.04.07-.04.07-.04.04-.04.04-.08.07-.04.04-.04.04-.07.07-.04.04-.07.04-.04.04-.07.04-.07.04-.04.04h-.07l-.07.04-.07.04h-.08l-.04.04h-.22l-.07.04h-.22l-.07-.04h-.11l-.07-.04h-.08l-.07-.04h-.07l-.04-.04-.07-.04-.07-.04h-.04l-.07-.04-.07-.07-.04-.04c-.93-.71-1.05-2.47-1.35-3.55l-.11-.45-.04-.08s-.11-.04-.11-.04l-.07-.04-.11-.04h-.07l-.11-.04-.07-.04h-.11l-.11-.04-.11-.04h-.11l-.22-.04-.11-.04h-.11l-.11-.04h-.15l-.11-.04h-.11l-.15-.04h-.11l-.15-.04h-.11c-1.57-.15-3.47-.15-4.71,1.01-.6.9-.64.93-.64.93-.04.15-.04.19-.04.19-.04.11-.08.15-.08.15v.08s-.04.11-.04.11v.11s-.04.07-.04.07v.15s-.04.07-.04.07c-.11.94.07,2.5.93,3.07.41.26,1.01.41,1.49.56l.26.11.11.04.15.04c2.2,1.08,4.78,1.05,6.99,2.32,1.94,1.12,3.59,3.06,3.77,5.31,0,.19.04.33.04.52-.04,2.24-1.53,4.37-3.51,5.53Z" fill="#fff"/><path d="m38.82,98.76l14.31-.22.02,2.45H4.11l.09-2.48,11.42.07.27-77.6L.02,31.92l-.02-2.45L38.79,1.25l.03,97.5Z" fill="#fff"/><path d="m170.57,28.67c0,9.96-8.67,16.54-18.57,16.54s-18.5-6.57-18.5-16.54,8.74-16.6,18.5-16.6,18.57,6.64,18.57,16.6Zm-13.42-8.2c0-5.69-2.37-7.12-5.15-7.12s-5.08,1.42-5.08,7.12v16.33c0,5.69,2.37,7.12,5.08,7.12s5.15-1.42,5.15-7.12v-16.33Z" fill="#fff"/><path d="m139.85,2.01c-18.65,17.5-49.92,51.07-49.92,67.99,0,8.03,7.31,13.34,7.31,20.37s-4.45,11.76-11.76,11.76c-8.61,0-13.19-5.59-13.19-12.91,0-16.5,26.68-47.77,40.45-63.83l-.43-.29c-10.18,4.16-20.51,6.17-31.27,6.17-5.59,0-11.04-.43-16.35-2.01l-3.3,9.61-3.01-1L70.85,0l2.72.86-1,3.44c9.76,2.87,19.8,3.73,29.55,3.73s24.81-3.01,36-8.03l1.72,2.01Z" fill="#fff"/><path d="m184.74,36.15l.24-.2c.23-.19.39-.4.5-.68l3.21-7.97,1.1-.4,2.84,8.23c.12.36.29.65.5.84l.21.18c0,.16-.02.24-.06.36h-3.68c-.02-.15-.04-.2-.04-.36l.74-.23c.3-.09.4-.35.4-.64,0-.15-.02-.29-.07-.44l-.62-2.01h-2.77l-.74,1.98c-.06.14-.08.28-.08.39,0,.34.21.57.55.69l.61.26c.01.15,0,.25-.04.36h-2.77c-.04-.1-.05-.28-.04-.36Zm5.05-4.03l-.67-2.15-.33-1.21h-.06l-.39,1.18-.82,2.18h2.27Z" fill="#fff"/><path d="m193.85,36.1l.58-.18c.31-.09.55-.34.55-.76l.04-2.25v-4.42c0-.34-.14-.57-.44-.67l-.67-.24c-.01-.13-.01-.21.02-.35h6.52v1.86c-.12.04-.29.05-.42.05-.14-.76-.52-1.08-1.06-1.09l-2.32-.09v3.51l3.16-.06v.88l-3.16-.06v.69l.05,2.86,2-.06c.87-.03,1.43-.44,1.81-1.28l.4.13-.29,1.95h-6.76c-.02-.14-.04-.3-.02-.42Z" fill="#fff"/><path d="m201.58,31.93c0-2.55,2.01-4.85,4.64-4.85,1.29,0,2.03.26,2.74.58v1.89c-.06.01-.3.01-.38,0-.36-1.01-1.24-1.61-2.41-1.61-1.72,0-2.85,1.26-2.85,3.89,0,2.33,1.38,3.8,3.12,3.8.39,0,.67-.03.89-.08v-3.22h1.65v3.44c-.71.4-1.51.83-2.77.83-2.97,0-4.64-1.5-4.64-4.67Z" fill="#fff"/><path d="m210.23,36.15l.57-.23c.33-.11.46-.36.48-.82l.04-2.16v-4.3c0-.42-.12-.72-.49-.84l-.59-.2c0-.11,0-.2.04-.35h3.73c.02.14.04.24.02.38l-.51.15c-.37.1-.53.39-.53.86v4.3l.04,2.35c0,.39.13.54.4.63l.72.2c0,.13-.01.25-.05.4h-3.84c-.02-.18-.04-.21-.02-.36Z" fill="#fff"/><path d="m216.73,29.44h-.06l.07,1.06v2.49l.04,2.24c0,.31.06.47.31.55l1.02.34c0,.13-.01.24-.06.39h-3.34c-.02-.2-.05-.2-.04-.36l.61-.21c.39-.13.58-.53.61-1.2l.02-1.74v-4.44c0-.29-.11-.58-.37-.69l-.74-.28c0-.11.01-.24.02-.35h2.51l4.79,6.86h.1l-.1-1.4v-4.08c0-.33-.19-.68-.48-.78l-.7-.25c0-.13.01-.2.05-.35h3.06c.02.19.02.18.02.34l-.62.2c-.31.1-.51.42-.51.81v7.85l-1.15.42-5.07-7.41Z" fill="#fff"/><path d="m224.17,36.15l.24-.2c.23-.19.39-.4.5-.68l3.21-7.97,1.1-.4,2.84,8.23c.12.36.29.65.5.84l.21.18c0,.16-.02.24-.06.36h-3.68c-.02-.15-.04-.2-.04-.36l.74-.23c.3-.09.4-.35.4-.64,0-.15-.02-.29-.07-.44l-.62-2.01h-2.77l-.74,1.98c-.06.14-.08.28-.08.39,0,.34.21.57.55.69l.61.26c.01.15,0,.25-.04.36h-2.77c-.04-.1-.05-.28-.04-.36Zm5.05-4.03l-.67-2.15-.33-1.21h-.06l-.39,1.18-.82,2.18h2.27Z" fill="#fff"/><path d="m239.12,29.14h-.07l-.11,1.08-.71,5.05c-.04.23,0,.42.15.47l1.06.36c0,.13-.01.26-.05.42h-3.05c-.02-.15-.05-.23-.04-.35l.42-.23c.36-.19.59-.65.67-1.06l1.03-6.34c.05-.3-.12-.58-.37-.67l-.76-.26c0-.14.01-.21.05-.36h3.03l1.48,4.97.57,2.09h.11l.61-2.04,1.65-5.02h2.74c.02.2.05.2.04.38l-.57.16c-.31.09-.55.42-.46,1.01l1,6.49c.05.29.21.47.43.55l.59.28c0,.13-.01.25-.04.4h-3.77c-.02-.19-.05-.21-.05-.38l.43-.15c.39-.14.5-.59.5-1.02,0-.16-.01-.31-.04-.45l-.49-4.18-.13-1.13h-.07l-2.21,7.17-1.32.42-2.26-7.65Z" fill="#fff"/><path d="m249.96,33.39v-4.85c0-.38-.13-.64-.37-.73l-.67-.23c0-.13.01-.2.05-.35h3.8c.04.23.04.21.02.38l-.75.2c-.25.08-.33.19-.33.45v5.15c0,2,1.27,2.49,2.28,2.49,1.09,0,2.02-.63,2.02-2.81v-4.46c0-.48-.18-.74-.68-.91l-.49-.16c0-.13-.01-.21.01-.34h3.21c.04.2.05.2.04.38l-.58.2c-.17.06-.36.19-.36.6v4.62c0,2.76-2.03,3.61-3.54,3.61-1.67,0-3.67-.38-3.67-3.26Z" fill="#fff"/><path d="m258.85,35.93l.17-2.14h.53c.25,1.55,1.13,2.08,2.38,2.08.67,0,1.53-.5,1.53-1.33,0-1.76-4.24-1.61-4.24-4.49,0-1.67,1.54-2.92,3.02-2.92,1.16,0,1.96.25,2.53.58v1.88h-.44c-.26-1.06-1.01-1.65-2.09-1.65-.84,0-1.59.39-1.59,1.31,0,1.76,4.48,1.74,4.48,4.58,0,2-1.78,2.83-3.44,2.83-.93,0-2.01-.24-2.83-.72Z" fill="#fff"/><path d="m265.9,36.15l.57-.23c.33-.11.46-.36.48-.82l.04-2.16v-4.3c0-.42-.12-.72-.49-.84l-.59-.2c0-.11,0-.2.04-.35h3.73c.02.14.04.24.02.38l-.51.15c-.37.1-.53.39-.53.86v4.3l.04,2.35c0,.39.13.54.4.63l.72.2c0,.13-.01.25-.05.4h-3.84c-.02-.18-.04-.21-.02-.36Z" fill="#fff"/><path d="m270.53,31.93c0-2.55,1.97-4.85,4.61-4.85,1.26,0,1.95.25,2.6.55v1.91c-.06.01-.32.01-.38,0-.34-.98-1.06-1.61-2.27-1.61-1.65,0-2.82,1.17-2.82,3.81,0,2.23,1.25,3.86,3.11,3.86.89,0,1.48-.16,2.13-.5l.26.74c-.59.38-1.48.74-2.59.74-2.97,0-4.66-1.5-4.66-4.67Z" fill="#fff"/><path d="m281.71,36.15l.62-.21c.25-.09.45-.35.46-.78l.04-2.24v-4.33c0-.44-.12-.65-.43-.76l-.68-.24c-.01-.15.01-.25.04-.35h6.51v1.88c-.13.05-.27.05-.4.04-.14-.72-.51-1.02-1.1-1.06l-2.28-.13v3.83l3.21-.09v.89l-3.21-.06v.42l.04,2.25c.01.3.06.53.31.59l1.29.29c0,.11,0,.3-.05.43h-4.34c-.04-.13-.02-.25-.02-.36Z" fill="#fff"/><path d="m288.79,36.1l.58-.18c.31-.09.55-.34.55-.76l.04-2.25v-4.42c0-.34-.14-.57-.44-.67l-.67-.24c-.01-.13-.01-.21.02-.35h6.52v1.86c-.12.04-.29.05-.42.05-.14-.76-.52-1.08-1.06-1.09l-2.32-.09v3.51l3.16-.06v.88l-3.16-.06v.69l.05,2.86,2-.06c.87-.03,1.43-.44,1.81-1.28l.4.13-.29,1.95h-6.76c-.02-.14-.04-.3-.02-.42Z" fill="#fff"/><path d="m296.79,35.93l.17-2.14h.53c.25,1.55,1.13,2.08,2.38,2.08.67,0,1.53-.5,1.53-1.33,0-1.76-4.24-1.61-4.24-4.49,0-1.67,1.54-2.92,3.02-2.92,1.16,0,1.96.25,2.53.58v1.88h-.44c-.26-1.06-1.01-1.65-2.09-1.65-.84,0-1.59.39-1.59,1.31,0,1.76,4.48,1.74,4.48,4.58,0,2-1.78,2.83-3.44,2.83-.93,0-2.01-.24-2.83-.72Z" fill="#fff"/><path d="m305.43,36.13l.81-.25c.29-.09.43-.43.44-.92l.04-1.9v-5.1l-1.75.05c-.62.03-.9.64-1.05,1.4-.12.01-.2,0-.37-.04v-2.14h7.99v2.14c-.18.04-.21.05-.37.04-.15-.81-.48-1.37-1.16-1.4l-1.64-.05v5.1l.05,2.09c.01.52.1.67.34.74l.88.24c0,.14-.01.23-.04.38h-4.15c-.02-.2-.05-.21-.04-.38Z" fill="#fff"/><path d="m311.88,36.15l.57-.23c.33-.11.46-.36.48-.82l.04-2.16v-4.3c0-.42-.12-.72-.49-.84l-.59-.2c0-.11,0-.2.04-.35h3.73c.02.14.04.24.02.38l-.51.15c-.37.1-.53.39-.53.86v4.3l.04,2.35c0,.39.13.54.4.63l.72.2c0,.13-.01.25-.05.4h-3.84c-.02-.18-.04-.21-.02-.36Z" fill="#fff"/><path d="m317.1,28.56c-.08-.25-.23-.59-.42-.73l-.39-.25c0-.16.02-.21.06-.34h3.66c.04.16.05.23.04.39l-.64.18c-.3.08-.42.28-.42.54,0,.13.02.25.07.4l1.47,4.73.38,1.36h.04l.45-1.33,1.65-4.47c.06-.18.1-.33.1-.47,0-.34-.19-.58-.44-.69l-.59-.29c0-.16.01-.23.02-.35h2.79c.02.14.02.21.01.35l-.31.2c-.24.15-.43.43-.55.74l-3.1,7.92-1.07.36-2.81-8.26Z" fill="#fff"/><path d="m323.92,36.15l.24-.2c.23-.19.39-.4.5-.68l3.21-7.97,1.1-.4,2.84,8.23c.12.36.29.65.5.84l.21.18c0,.16-.02.24-.06.36h-3.68c-.02-.15-.04-.2-.04-.36l.74-.23c.3-.09.4-.35.4-.64,0-.15-.02-.29-.07-.44l-.62-2.01h-2.77l-.74,1.98c-.06.14-.08.28-.08.39,0,.34.21.57.55.69l.61.26c.01.15,0,.25-.04.36h-2.77c-.04-.1-.05-.28-.04-.36Zm5.05-4.03l-.67-2.15-.33-1.21h-.06l-.39,1.18-.82,2.18h2.27Z" fill="#fff"/><path d="m333.01,36.12l.55-.16c.38-.13.56-.35.56-.77l.04-2.25v-4.37c0-.4-.15-.67-.53-.79l-.56-.19c0-.15.02-.21.05-.35h3.73c.01.18.02.24.01.38l-.57.18c-.36.11-.48.35-.48.65v4.48l.05,2.83,2.07-.11c.81-.09,1.32-.77,1.57-1.55l.39.11-.38,2.3h-6.45c-.01-.16-.04-.28-.04-.39Z" fill="#fff"/></svg>