<?xml version="1.0" encoding="UTF-8"?><svg id="Layer_1" xmlns="http://www.w3.org/2000/svg" viewBox="0 0 505.41 800"><path d="m121.61,455.03v.5l-.09.29v.2l-.09.3-.09.19-.09.3-.09.19-.09.2-.09.2-.09.29-.18.2-.1.2-.18.2-.18.2-.19.09-.09.2-.18.2-.19.09-.18.2-.27.1-.18.2-.18.1-.19.1-.27.1h-.18l-.27.1-.18.1h-.27l-.18.09h-1.36l-.73-.09c-8.47-.5-17.03.29-25.59,0h-.46l-.18-.1h-.27l-.18-.1h-.27l-.19-.1-.18-.1-.27-.1-.18-.1-.18-.1-.27-.1-.18-.2-.18-.09-.19-.2-.18-.2-.18-.09-.09-.2-.18-.2-.18-.2-.09-.2-.1-.2-.18-.3-.09-.2-.09-.19-.09-.2-.09-.3-.09-.2v-.29l-.1-.2v-.29l-.09-.2v-.98l.09-.3v-.49l.1-.2.09-.3.09-.2v-.3l.18-.2.09-.2.09-.2.09-.3.18-.19.09-.19.18-.21.18-.2.09-.09.19-.2.18-.2.18-.1.18-.2.27-.1.18-.1.19-.2.18-.1.28-.1h.18l.27-.09.18-.1h.28l.18-.09h7.01v-.69l-.09-1.58v-3.06c-.18-13.44-.63-26.88-.63-40.32v-.69l-.09-.49v-.89l-.09-.3v-.89l-.09-.69-.09-.69v-.79l-.09-.29v-.4c0-.1-.09.1-.09.1l-.37.59-.27.5-.36.59-.36.5-.27.59-.36.59-.37.59-.27.59-.36.59-.36.59-.37.69-.36.59-.37.7-.36.59c-7.92,14.53-15.3,29.45-22.49,44.37l-.64,1.48-.55,1.09-.45.89-.18.3-.19.39-.18.29-.18.3-.27.2-.28.3-.27.2-.28.2-.36.2-.27.2-.36.1-.28.1-.36.1-.36.09h-1.37l-.28-.09c-.09,0-.27.09-.27.09h-.55l-.18-.09h-.18l-.45-.1h-.27l-.18-.1h-.18l-.18-.1-.19-.1-.54-.19-.19-.1-.09-.09-.18-.1-.27-.2-.09-.1-.27-.2-.18-.1-.09-.1-.09-.1-.18-.1-.18-.2-.09-.09-.09-.1-.09-.1-.09-.09-.18-.2-.09-.1-.18-.3-.18-.2-.18-.2-.18-.2-.09-.2-.18-.2-.09-.29-.18-.2-.1-.2-.18-.2-.09-.19-.18-.19-.09-.3-.27-.4-.27-.59-.09-.19-.18-.3-.27-.59-.19-.29-.18-.4-.09-.4-.18-.29c-6.65-14.43-12.38-29.35-18.66-43.97l-.36-.99-.28-.5-.18-.5-.18-.49-.27-.5-.18-.49-.18-.5-.09-.2-.18-.4-.18-.5-.18-.49-.27-.69-.28-.69-.27-.69-.09-.3v.39l-.09.39v2.38l-.09.39v6.92c-.09,12.55.46,25.2.91,37.75l.09,1.87v1.78l.18,2.86h1.64l.63-.1h1.37l.73-.09h1.46l.73-.1h.82l.73-.1h.91l.27.1h.19l.18.1h.27l.18.09.19.1.27.1.18.1.18.1.18.1.18.2.18.09.19.21.18.09.18.2.18.2.09.2.18.2.09.2.18.2.1.2.09.2.09.2.09.2.09.3.09.19.09.3v.2l.09.19v.3l.09.2v.79l-.09.2v.49l-.09.3v.2l-.09.19-.09.3-.09.2-.09.2-.09.2-.09.3-.1.2-.18.19-.09.2-.18.2-.18.09-.09.2-.18.2-.18.2-.19.1-.18.1-.18.2-.18.09-.18.1-.28.09-.17.1-.19.1c-7.46,2.27-17.11.89-24.86,1.18h-1l-1.09.1h-.18l-.28-.1h-.64l-.27-.09-.18-.1h-.27l-.18-.1-.18-.09-.19-.1-.27-.1-.18-.09-.19-.2-.18-.1-.18-.2-.17-.1-.19-.2-.09-.2-.19-.1-.18-.2-.09-.2-.19-.2-.08-.2-.09-.3-.09-.19-.09-.19-.09-.2-.09-.29-.09-.2-.09-.2v-.3l-.09-.2v-1.48l.09-.2v-.3l.09-.2v-.3l.09-.2.09-.2.09-.29.09-.2.09-.2.09-.2.18-.2.09-.2.18-.2.09-.2.19-.2.18-.2.18-.1.18-.2.18-.1.18-.2.18-.1.18-.1.18-.1.28-.1.18-.09.18-.1.27-.1h.18l.18-.09h.46l.27-.1h2.1l1-.09h1l.91-.1h1.82c.19,0,0-2.67,0-2.67v-1.77c-.45-17.69-2.09-35.28-.73-52.96v-.3l.1-.39v-.59l.09-.29v-.3l.09-.69v-.3c.09,0-.09,0-.09,0h-2.01l-.91.09h-1.19c-.09.1-.45.1-.45.1l-.27.1h-1.19l-.18-.1h-.18l-.27-.1-.18-.09-.27-.1-.18-.1-.27-.2-.27-.1-.18-.2-.19-.19-.27-.2-.18-.3-.09-.19-.19-.3-.18-.19-.09-.3-.09-.3-.09-.3-.09-.29-.1-.39v-1.19l.1-.29v-.4l.09-.29.18-.3.09-.3.18-.3.1-.2.18-.29.27-.2.18-.29.19-.1.27-.19.18-.2.27-.1.18-.2.27-.1h.18l.18-.09h.18l.28-.1h.18l.09-.1h.63l.28-.1h1l.19-.1h3.55l.91-.09h4.74l.45-.1h.91l.91.1h2.55l.45.09h1.28l.36.1h.37l.27.1h.54l.18.1h.46l.18.1h.36l.19.09h.36l.18.1h.18l.45.1.18.1h.18l.18.1h.18l.18.1.18.1h.19l.18.1.18.1h.18l.19.1.18.1.18.1.18.1h.19l.18.1.09.1.18.1.18.1.18.2.18.09.19.1.18.1.18.2.18.1.19.1.09.2.18.1.18.2.18.2.18.1.09.2.18.2.09.2.18.2.1.2.18.2.09.2.18.2c7.65,14.63,13.11,31.32,19.03,46.94l.64,1.78.36.89.27.79.45-.89.64-1.29.54-1.18.64-1.38.63-1.29.73-1.28.64-1.38c4.64-8.99,8.92-18.08,13.84-26.78,3.55-6.32,7.1-13.63,11.92-18.97,0-.1.19-.19.19-.19l.09-.2.27-.3.37-.3.18-.19.09-.1.18-.2.18-.1.18-.2.19-.1.18-.2.18-.1.18-.1.27-.19.18-.1.27-.2.27-.1.27-.1.27-.1.18-.1.18-.09h.36l.18-.1h.18l.18-.09h2.55l.46-.1h1.91l.46-.1h1l1-.1h.92l.99-.09h.91l.91-.1h1.82l.46-.09h2.55l.27.09h.36l.37.1.36.09.27.2.37.1.27.2.28.2.27.3.27.2.27.29.18.3.27.3.19.29.18.3.09.39.19.3.09.39.09.4.09.3v1.58l-.09.3-.09.39-.09.4-.19.29-.09.39-.18.3-.19.29-.18.3-.27.29-.27.3-.18.29-.36.21-.28.19-.27.19-.27.1-.37.2-.36.1-.28.09-.36.1h-2.1v.99l-.09.79v1.19l.09.29v.5l-.09.29v.79c0,5.44-1.19,54.64.45,54.74h2.55l.37.09h1.27l.46.1h.64l.27.09.18.1h.27l.18.1.18.1.27.1.18.2.18.1.18.09.18.2.19.1.18.2.18.2.18.09.19.21.09.19.18.19.09.3.09.2.18.2.09.2.09.3.09.2v.2l.09.3.09.2v.49l.09.29v.5l-.09.2Z" fill="#fff"/><path d="m165.69,411.95v1.38l-.09.49v1.38l-.09.79v10.97l-.09.89v5.63l-.09.89v1.48l-.09,1.97v.99l-.09.99v.49l-.09.5v1.48l-.1.49v.49l-.09.5v.99l-.09.99-.09.5-.09.89v.49l-.19.99v.4l-.09.49-.09.49v.39l-.09.49-.09.4-.09.49v.39l-.09.49-.09.39-.09.4-.09.49-.09.39-.09.4-.09.39v.3l-.09.4-.09.2v.19l-.18.4v.2l-.09.19-.09.2v.2l-.09.19v.2l-.09.1-.09.2-.18.59-.09.39-.18.4-.09.1-.08.2v.2l-.1.2-.09.19-.09.1-.09.2-.09.2-.09.2-.09.09-.09.21-.09.19-.09.1-.09.2-.37.49-.09.2-.27.3-.09.19-.27.3-.18.1-.09.19-.37.3-.09.09-.18.2-.18.1-.18.1-.19.19-.18.1-.18.1-.18.1-.18.1-.19.1-.27.1c-3,1.38-7.37,1.08-10.65.98-3.64-.1-8.02-.3-11.39-1.68-1.36-.59-2.73-1.88-3.82-2.97l-.18-.1-.09-.2-.18-.1-.28-.29-.09-.1-.27-.29-.09-.2-.19-.1-.09-.2-.09-.1-.27-.3-.09-.2-.18-.3-.09-.2-.09-.09-.09-.2-.1-.19-.09-.1-.09-.2-.09-.1-.18-.39v-.1l-.18-.39-.1-.1v-.19l-.09-.2-.09-.1v-.19l-.09-.1-.09-.19v-.2l-.09-.1-.09-.39v-.1l-.09-.2v-.1l-.09-.4-.09-.29-.09-.29v-.3l-.09-.3-.09-.3v-.3l-.09-.3-.09-.59v-.59l-.09-.3v-.5l-.09-.59v-.59l-.09-.49v-.49l-.09-1.09v-.98l-.09-.99-.09-1.98-.09-1.08-.09-.99v-1.09l-.09-.99v-.99l-.09-.49v-1.09l-.09-1.58v-2.57l-.09-.99v-7.31l.09-.99v-2.07l.09-.59v-1.58l.09-.49v-.98l.09-.6v-.5l.09-.49v-1.09l.09-.99.09-.59v-.59l.09-.69v-.4l.09-.39v-.4l.09-.49v-.69l.09-.3v-.49l.09-.49v-.2l.09-.29v-.29l.09-.2.09-.59v-.3l.09-.2v-.29l.18-.6.09-.59.09-.2.09-.3.09-.3.09-.29v-.3l.18-.3.09-.3.1-.29.09-.1v-.2l.09-.1.09-.3.09-.19.27-.59.18-.3.18-.29.09-.1.18-.29.09-.2.18-.3.09-.1.09-.2.28-.29.09-.1.18-.2.09-.09.09-.1.19-.2.08-.1.37-.3.09-.09.19-.1.18-.2.09-.1.18-.1.18-.1.18-.1.27-.2.09-.1.19-.09h.09l.18-.1.09-.09c3.45-1.58,7.83-1.09,11.47-.89,2.91.1,5.83.39,8.74.79,2.46.3,4.92.49,7.1,1.68l.18.2.27.1.18.1.18.2.09.1.09.1h.18l.1.1.08.1.09.09.18.2.09.09.18.21.09.09.18.2.09.1.09.1.09.2.18.1.09.2.09.2.19.29.27.39.09.21.09.2.09.1.19.5.18.29.09.3.09.2v.1l.09.2.18.59.1.49.09.2v.3l.09.1v.39l.09.3.09.29v.3l.09.3v.3l.09.3v.29l.09.59v1.48l.09.3v.29l-.09.3v1.38Zm-13.2,2.97v-.49l-.09-1.38v-1.58c-.09-2.47-.73-5.43-2.83-6.92-1.27-.89-3-1.18-4.55-.69-.27,0-.64.2-.91.3-2.82,1.18-2.82,5.34-2.91,8.1v.99l-.09.89v2.57l-.09.79v.89l-.09,2.57v11.26l.09,2.67v.89l.09.89v2.56l.09,1.78v.88l.09.89.09,1.78v2.57l.09.79v2.08l.09.2v.99l.09.2v.59l.1.1c.36,2.27,2.46,3.36,4.55,3.16,1.82-.1,3.65-1.38,4.28-3.36l.09-.1v-.2l.09-.2v-.1l.09-.19v-.21l.09-.2v-.2l.09-.1v-.2l.09-.2v-.2l.09-.19v-.39l.09-.2v-.2l.09-.2v-.39l.28-1.19v-2.47l.09-.99v-2.18l.09-2.07v-1.09l.09-1.08v-2.07l.09-2.08.09-2.07v-1.09l.1-.98v-2.08l.09-1.09v-2.08l.09-.99v-5.63l.09-.59v-1.48Z" fill="#fff"/><path d="m236.45,403.65v.6l-.09.2v.2l-.09.19v.2l-.09.1-.08.19-.1.2-.09.2-.09.1-.09.19-.09.1-.09.2-.18.1-.09.2-.09.09-.18.1-.09.1-.18.1-.18.2-.09.1h-.18l-.18.1-.09.1-.18.1h-.18l-.18.1h-.18l-.18.1h-.46l-1.18.1h-1.18v.59l.09.5v.49l.09.79v1.58l.09.39v1.98l.09.79v18.28l-.09.79v1.19l-.09.3v1.18l-.09.4v.79l-.09.78v.4l-.09.4v.79l-.09.39-.09,1.18-.18,1.19-.09.39v.4l-.09.39-.09.29v.4l-.09.39-.09.4-.09.39-.09.79-.09.4-.09.39-.18.7-.09.39-.09.4-.18.39-.09.39-.1.29-.09.39-.09.4-.09.09-.09.2-.09.2-.09.39-.09.2v.1l-.09.2-.18.39v.2l-.19.3-.18.6-.09.09-.18.4-.09.09-.09.2-.18.39-.09.1-.09.2-.09.2-.1.1-.18.39-.09.1-.09.2-.09.2-.09.09-.09.2-.09.1-.18.2-.09.1-.09.2-.09.2-.09.1-.19.2-.09.1-.09.2-.36.4-.19.19-.09.11-.09.09-.18.2-.09.1-.19.2-.09.1-.27.29-.18.1-.09.09-.64.5-.64.49-.09.1-.73.39-.09.09-.37.2-.18.1-.18.1h-.19l-.18.09-.18.1c-.09.1-.27.2-.27.2l-.18.1-.09.1h-.18l-.18.1-.09.1-.18.09h-.18l-.09.1-.18.1-.46.2h-.18l-.28.09-.18.1h-.09l-.18.1h-.18l-.27.09h-.18l-.18.1h-.27l-.27.09h-.18l-.18.1h-.28l-.91.2h-.91l-.27.1h-1.82l-.27.1h-.55l-.27-.1h-2.28l-.45-.1h-1.01l-.91-.1h-.82l-.36-.1h-1.91l-.37-.1h-1.45l-.36-.09h-.73l-.28-.1h-.73l-.27-.09h-.73l-.27-.1h-.37l-.27-.1h-.64l-.27-.09h-.27l-.91-.2-.28-.1h-.27l-.27-.1-.64-.09-.55-.1-.28-.1-.18-.1-.27-.1-.82-.2-.27-.1-.27-.09-.18-.1-.28-.1-.27-.09-.18-.1-.28-.09-.27-.1-.18-.1-.28-.09-.18-.21-.28-.09-.18-.1-.45-.29-.28-.1-.37-.29-.27-.2-.37-.3-.64-.5-.19-.2-.36-.29-.18-.2-.18-.19-.18-.2-.18-.2-.18-.2-.19-.2-.18-.19-.09-.2-.37-.39-.27-.4-.18-.3-.09-.2-.18-.19-.09-.2-.27-.5-.1-.2-.18-.3-.09-.2-.09-.19-.27-.5-.1-.3-.09-.2-.18-.49-.27-.69-.09-.3-.09-.3-.1-.2-.18-.5-.09-.29-.09-.3-.09-.2-.18-.59-.09-.29-.09-.2v-.29l-.19-.59-.09-.3-.09-.29-.09-.3v-.29l-.09-.3-.09-.3-.09-.59-.19-.59-.18-.59-.08-.69-.09-.3-.1-.3v-.39l-.09-.29-.09-.4v-.29l-.09-.3-.09-.69-.09-.29v-.39l-.09-.3v-.3l-.1-.69-.09-.29v-.39l-.09-.59v-.4l-.09-.3v-.69l-.09-.6v-.99l-.09-.29v-.99l-.09-.69v-.69l-.09-1.38v-2.67l-.09-2.08v-2.67l.09-1.38v-4.74l.09-1.29v-1.38l.09-1.28v-2.57l.09-.49v-2.17l.09-.69-.46-.1h-1.55l-.18.1h-.36l-.19-.1h-.36l-.18-.1h-.19l-.18-.1h-.1l-.18-.09h-.18l-.09-.1-.18-.1-.18-.1-.09-.1-.18-.1-.09-.1-.18-.19-.09-.1-.18-.1-.09-.19-.09-.11-.09-.19-.18-.1-.09-.2-.09-.19v-.2l-.09-.1-.09-.2-.09-.19v-.2l-.09-.2v-.39l-.09-.2v-.89l.09-.2v-.4l.09-.19v-.2l.09-.2.09-.1.09-.2.09-.2.09-.19.09-.1.09-.19.09-.1.09-.2.09-.09.18-.1.09-.2.18-.1.09-.1.18-.09.09-.1.18-.1.09-.1.18-.1.18-.09h.09l.18-.1h.18l.09-.1h.18l.09-.1h5.28l1.55.1h3.28l.91.1h7.74l.37-.1h2.18l.27-.1h.55l.18.1h.36l.19.1h.18l.18.1.18.09.19.1.18.1.09.1.18.1.18.09.09.1.18.1.09.2.18.1.09.09.09.2.18.2.09.1.09.2.09.2.1.09.09.2v.2l.09.19.09.2v.21l.09.2v1.58l-.09.2v.2l-.09.2v.19l-.09.2-.09.1-.1.2-.09.19-.09.2-.09.1-.09.19-.18.11-.09.19-.09.1-.18.2-.09.1-.18.1-.18.1-.09.19-.18.1h-.18l-.19.1-.09.09-.18.1h-.18l-.18.1h-.18l-.18.1h-1.1l-.36.1h-3.28v.4l-.09.1v.98l-.09.5v7.81l-.09.89v2.17l-.09.89v1.97l-.09.99v3.66l-.09,1.09v5.04l.09,1.19v2.67l.09.59v1.58l.09.5v1.09l.09.49v.49l.09.49v.5l.09.39v.49l.09.49v.4l.09.3v.59l.09.49v.2l.09.2v.4l.09.2v.2l.09.19v.1l.09.4v.2s0,.09.09.19c.36,2.07.63,3.66,2.64,4.65,1.46.69,3.1.79,4.74.79,3.28.1,6.74.4,10.11.2,2.36-.2,3.55-3.56,4.27-5.73v-.3l.09-.2v-.2l.09-.2.09-.19v-.29l.09-.2.09-.4.18-.99.27-.89.09-.49.18-.99.09-.3v-.29l.09-.3v-.3l.09-.2.09-.29v-.3l.09-.3.09-.59v-.29l.09-.3.18-1.09v-.59l.1-.3v-.29l.08-.29.1-.89v-.3l.09-.3v-.58l.08-.3v-.3l.09-1.19.09-.59v-.59l.09-.59v-1.19l.09-.59.09-1.78v-2.47l.09-.59v-9.19l-.09-1.28v-6.22c0-.1-.36-.1-.36-.1h-2l-.73-.1h-.55l-.09-.09h-.18l-.19-.1h-.18l-.18-.1-.18-.1h-.09l-.18-.1-.19-.1-.09-.1-.18-.1-.18-.2-.09-.1-.1-.1-.18-.2-.09-.1-.09-.1-.18-.19-.09-.2-.09-.1-.09-.2-.09-.1v-.19l-.1-.2-.08-.19v-.2l-.09-.19v-.1l-.09-.2v-1.58l.09-.2v-.1l.09-.2.08-.2v-.2l.1-.2.09-.09.09-.21.09-.2.09-.09.09-.2.09-.1.18-.2.09-.09.09-.2.18-.1.09-.1.18-.1.09-.1.18-.1.18-.09.09-.1.18-.09.18-.1h.19l.18-.1h.09l.18-.09h4.19l.64.09h6.46l.55-.09h2.28l1.09-.1h2.28l1.09-.1h2.1l.09.1h.18l.18.1h.18l.18.09.18.1.09.1h.18l.19.09.09.2.18.1.09.1.18.1.09.2.18.09.09.1.09.2.09.1.09.2.09.19.09.11.1.19.08.19.09.11v.19l.09.2v.2l.09.2v.39l.09.2v.39l-.09.1Z" fill="#fff"/><path d="m294.18,415.31c0,1.78-.45,3.65-1.55,5.04-.82.89-1.91,1.58-3.01,1.88-2.18.59-4.64-.09-6.28-1.78-1.37-1.29-2.18-3.26-2.55-5.24-.46-2.07-.46-4.25-.46-6.42v-.3h-1c-2.73-.1-5.55-.1-8.37-.1h-1,.1c1.73,2.27,3.55,4.45,5.19,6.82,1.37,2.08,3.37,5.14,3.1,7.91-.19,1.48-1.01,2.76-2.01,3.85-2.83,2.96-5.83,5.74-8.74,8.5-3.64,3.46-5.28,8.3-4.74,13.54.19,1.58.91,4.94,3.01,4.34,1.28-.3,2.64-1.88,3.64-2.76,1.09-1.09,2.09-2.27,3.01-3.56,1.91-2.47,3.55-5.24,5.37-7.81,1-1.38,2.1-2.66,3.46-3.56,2.74-1.87,6.28-.88,7.93,2.18.73,1.28,1.09,2.86,1.46,4.35.55,2.77.82,5.63,1.09,8.49.27,2.67.55,5.34.73,8.01.09,1.58,0,3.16-.64,4.55-.73,1.68-2.18,2.86-3.83,3.45-2.27.89-5.01.49-6.64-1.38-1-1.19-1.46-2.67-1.73-4.25-.18-.89-.27-1.88-.37-2.77,0-.29-.36-1.88-.18-2.08-2,2.47-4.28,4.65-6.83,6.42-.45.3-1,.69-1.46.99-6.37,3.66-16.11,4.15-20.48-3.16-3.74-6.22-2.92-14.82.45-21.05,1.82-3.16,4.19-6.02,6.74-8.69,2.28-2.37,4.83-4.65,7.1-7.21.37-.5.46-.5.09-1.09-.27-.29-.54-.69-.73-.99-.54-.69-1.09-1.48-1.55-2.17-1.1-1.38-2.09-2.77-3.09-4.15-1.55-2.17-3.29-4.35-4.64-6.62h-.46c-2.37,0-4.83,0-7.2.1-1.18.1-2.37.2-3.46-.19-1.82-.69-3.18-2.77-3.1-4.84.09-2.08,1.46-3.95,3.28-4.55.82-.2,1.55-.2,2.36-.2,3.19,0,6.38-.1,9.56-.1,4.73,0,9.38,0,14.11-.1h8.83l.37.1-.09-.2v-.99c.09-1.78.91-2.97,2.09-4.15,1.28-1.28,2.73-2.56,4.56-2.86,1.73-.3,3.73.49,4.83,2.08,1.27,1.78,1.46,4.25,1.64,6.42.27,3.66.73,7.31,1.46,10.97.27,1.67.63,3.35.63,5.04v.3Z" fill="#fff"/><path d="m329.6,460.27v.2l-.09.2v.39l-.09.2-.09.2v.2l-.09.2-.09.2-.09.2-.09.2-.1.1-.18.2-.09.2-.09.09-.18.2-.09.1-.18.1-.09.19-.18.1-.18.09-.09.1-.18.09-.19.1-.18.1h-.18l-.18.1-.19.1h-.36l-.18.1h-3.83l-1.27.1h-5.55l-1.46.1h-3.73l-.73-.1h-4.92l-.64-.1h-.55l-.18-.1h-.18l-.18-.1h-.18l-.18-.1-.18-.1-.19-.1-.18-.09-.18-.1-.09-.09-.18-.1-.18-.19-.09-.1-.18-.1-.09-.2-.09-.09-.19-.2-.09-.2-.09-.1-.09-.2-.09-.2-.09-.2-.09-.2v-.2l-.09-.2-.09-.2v-.39l-.09-.2v-.99l.09-.2v-.2l.09-.2v-.19l.09-.19.09-.2v-.2l.09-.2.09-.2.09-.1.18-.19.09-.2.09-.1.09-.2.18-.1.09-.2.18-.1.19-.1.09-.2.18-.1.19-.1.18-.1.09-.09h.18l.18-.1.18-.1h.18l.18-.09h.55l.18-.1h.27l.63.1h3.37v-3.36l-.09-1.38-.18-4.25-.18-2.77-.09-1.48-.09-2.76-.1-1.48-.09-1.38-.09-2.87-.09-1.39-.09-2.17v-1.48l-.09-1.68-.09-1.68v-.79l-.09-1.68v-1.58l-.1-1.68-.09-1.68-.09-1.68v-1.19l-.09-1.19-.09-1.28v-1.88h-1.18l-.18.09h-.55l-.27-.09h-.27l-.18.09h-.18l-.18.1h-1.36l-.19-.1h-.18l-.18-.09h-.18l-.19-.1-.18-.09-.18-.1-.09-.1-.18-.1-.27-.1-.09-.1-.19-.2-.09-.1-.18-.2-.09-.09-.09-.1-.18-.2-.1-.19-.09-.1-.09-.19-.09-.2-.09-.2-.1-.1-.09-.2v-.2l-.09-.19-.09-.2v-.3l-.09-.2v-1.18l.09-.2v-.2l.09-.19v-.2l.09-.2.09-.2v-.2l.1-.2.09-.1.09-.2.09-.2.18-.1.09-.2.09-.2.18-.1.09-.1.18-.2.19-.1.09-.1.18-.1.09-.09.18-.1.09-.1h.18l.18-.1.09-.1.37-.1h.18l.18-.1h.18l.27-.11h1.55l.46.11h.45l1.18-.11,1.27-.09h.64l.64-.1h.54l.64-.1,1-.09,1-.11h1l1-.09.91-.1h1l2-.2h.91l1-.1,1-.1.91-.09h.46l.91-.1h.46l.45-.09h.46l.45-.1h1.46l.19.1h.18l.18.09h.18l.19.1.18.09.18.1.18.1.18.1.18.1.09.1.19.09.18.2.09.1.18.19.09.11.09.19.18.2.1.1.09.2.09.2.09.2.09.2v.2l.09.2v.19l.09.2v.2l.09.2v.89l-.09.19v.4l-.09.2-.09.2v.2l-.09.2-.09.2-.09.2-.09.2-.1.2-.08.2-.19.1-.09.19-.18.1-.09.19-.18.1-.09.2-.18.1-.18.1-.18.1-.18.09-.18.1-.18.1h-.19l-.18.1-.18.1h-.37l-.18.1h-.46l-.45.1h-.55l-.45.1h-.91l-.55.09h-.46l-1,.1-1,.1h-.18v15.12l.09,2.37v4.74l.09,1.19v2.37l.09,1.18v2.37l.09,1.18v1.19l.09,1.18v1.09l.09.59.09,1.77v1.39l.1.19v.3l.09.69v.49l.09.39v.49l.09.5v.79l.09.3v1.09l.09.59v2.18h2.19l2.18-.1h.55l.18.1h.18l.18.09h.19l.18.1.18.1h.18l.19.09.18.1.18.1.09.1.18.2.18.1.09.1.18.2.09.1.09.2.19.1.08.2.1.19.09.2.09.1.09.2.09.2v.2l.09.19.09.19v.39l.09.2v.79Zm-25.13-57.81h.09-.09Z" fill="#fff"/><path d="m405.55,404.34l-.09.2v.2l-.09.2v.2l-.09.19-.09.2-.09.2-.09.1-.09.19-.09.2-.09.1-.09.2-.18.2-.09.1-.08.1-.18.2-.19.1-.09.1-.19.2-.18.1-.09.1-.18.1h-.18l-.19.1-.18.09h-.19l-.18.1h-.18l-.18.1h-3.47l-.27.2-.27.3-.18.19-.18.1-.19.19-.18.2-.18.2-.18.1-.09.1-.28.2-.18.2-.55.49-.36.2-.18.2-.91.69-.91.89-1,.79-1,.79-.92.89-2,1.58-1.91,1.68-2,1.58-.91.89-2,1.58-2.92,2.38-1,.88-1,.79-2.92,2.38-1,.79-.91.69h5.92l.54.1h2.46l.82.1h1.09l.27.09h1l.19.1h.45l.28.1h.17l.18.1h.28l.09.1h.18l.09.1h.18l.18.1.18.1.27.1.27.2.28.2.18.1.18.2.18.2.18.2.09.1.18.2.18.4.18.3.18.3.09.29.09.2.09.29v.2l.1.3v.19l.09.19v.89l.09.1v.29l-.09.2v1.09l-.09.19v.7l-.1.29v.2l-.09.39v.3l-.09.3v.29c-.09.1-.09.4-.09.4v.89l-.09.79v1.29l-.09.89v.89l-.09,1.77v2.27l-.09.49v1.38l-.09.49v.89l-.09.49-.1.99v.49l.1.4v.29h2l1.18-.1h2.64l.28.1h1.73l.36.09h.64l.19.1h.27l.18.1h.27l.19.1.18.1.27.09.18.1.18.2.18.11.18.19.18.1.18.2.18.2.09.2.19.2.09.2.09.2.18.2.09.29v.2l.09.29.09.2v.3l.1.2v.99l-.1.3v.2l-.09.29-.09.2v.2l-.09.29-.18.2-.09.2-.09.19-.19.2-.09.2-.18.19-.18.2-.18.19-.18.1-.18.2-.18.1-.18.1-.27.1-.18.1-.19.1-.27.1h-.18l-.27.1h-1.18l-.27-.1h-1.46l-.28-.1h-2.55l-1.09.1h-4.46l-1.18-.1h-.46l-.18.1h-2.1l-.18.1h-1.28l-.27-.1h-.63l-.18-.1h-.1l-.18-.1-.45-.1-.18-.1-.19-.1-.27-.1-.18-.2-.27-.1-.18-.19-.27-.2-.09-.19-.18-.1-.18-.2-.09-.1-.09-.19-.09-.2-.18-.2-.09-.2-.18-.3-.09-.29-.09-.2-.09-.3-.09-.2-.09-.39v-.29l-.09-.1v-.39l-.09-.5v-2.57l.09-.49v-.99l.09-.3v-2.17l.09-1.78v-1.68l.09-.59v-1.09l.18-2.27.09-2.17.1-1.09v-.89h-.37l-1.73-.1-.82-.1-1.73-.1-.82-.09-1.73-.1-1-.1-2.37-.2-3.09-.2-2.82-.19-.09.1-1.09.89-2,1.68-.09.1-.09.1-.18.2-.27.2-.18.2-.27.2-.08.2-.09.1-.18.1-.09.1-.18.2-.09.1v.79l-.09,1.28v3.26l-.09,1.29v1.97l-.09.1v2.07c.09.1.64,0,.64,0l.64-.1h1.18l.91-.1h.91l.27-.1h3.73l.55.1h.91l.28.1h.36l.18.1.27.1.18.1h.18l.18.1.19.2.18.1.18.09.18.1.09.19.18.1.19.19.09.2.09.2.18.1.09.2.09.2.09.19.09.29.09.2.09.2v.2l.09.19v.3l.09.19v.89l-.09.2v.29l-.09.2v.2l-.09.2-.09.21-.09.19-.09.19-.09.2-.09.2-.18.2-.09.2-.09.2-.19.1-.18.19-.18.1-.09.2-.18.1-.18.09-.19.1-.18.1-.18.09-.27.1-.18.09h-.18l-.18.1h-1.09c-5.2-.39-10.48.2-15.75.59-3.19.2-6.56.2-9.66,1.19h-.18l-.18.1h-1.28l-.18-.1h-.27l-.18-.09h-.09l-.18-.1-.18-.1-.18-.1-.18-.1h-.09l-.18-.2-.18-.1-.18-.1-.18-.2-.09-.1-.18-.2-.09-.2-.18-.2-.09-.1-.09-.19-.09-.2-.09-.19-.09-.2-.09-.2-.1-.19v-.2l-.09-.2v-.2l-.1-.2v-1.09l.1-.2v-.4l.09-.29.1-.2.09-.2.09-.2.09-.2.09-.2.09-.2.09-.19.18-.19.09-.1.18-.2.09-.2.18-.1.18-.1.1-.1.18-.2h.18l.18-.09.09-.1.18-.1h.09l.18-.1.27-.1h.18l.18-.1h.18l.18-.1h.45l.18-.11h.64l.46-.09h.54l.54-.1h.64l.63-.1v-.39l-.09-.29v-.3l-.09-.59v-.39l-.09-.59v-.59l-.09-.4v-6.32l.09-1.09v-1.58l.09-.49v-17.3l.09-.39v-1.48l.09-.79v-1.48l.09-1.48.09-.79.09-1.38.18-2.96.09-1.48v-.69l.09-.69v-1.38l.09-2.17v-.69h-2.09l-.18-.1h-.19l-.18-.1h-.18l-.27-.09-.18-.1-.19-.1-.09-.1-.18-.1-.18-.1-.18-.1-.18-.2-.09-.1-.18-.2-.09-.1-.18-.2-.09-.2-.09-.2-.09-.1-.18-.19v-.2l-.09-.19-.09-.2-.09-.29v-.2l-.09-.2v-.2l-.09-.2v-.89l.09-.2v-.4l.09-.2.09-.3v-.2l.09-.19.09-.2.09-.21.09-.09.09-.2.18-.2.09-.2.18-.1.09-.2.18-.09.09-.2.19-.1.18-.1.18-.1.18-.2.19-.09h.18l.17-.1.19-.1h.18l.18-.09h.18l.18-.1h6.65l.18.1h.64l.09.09h1.46l1.1.1h8.92l1.1-.1h1.09l1.1-.09h1.09l.55-.1h1.36l.18.1h.19l.27.09h.18l.18.1.18.1.18.09.18.1.18.09.09.1.18.1.18.2.09.1.18.2.18.09.09.2.09.2.18.1.09.2.09.19.09.19.09.2.09.2v.2l.09.2v.2l.09.3v1.48l-.09.2v.19l-.09.2-.09.19-.09.2v.19l-.09.2-.18.19-.09.2-.09.19-.09.1-.18.2-.09.2-.18.1-.18.2-.09.1-.18.1-.19.1-.18.2h-.18l-.18.1-.19.1-.18.09h-.18l-.18.1h-.19l-.27.1h-.73l-.55.1h-1.19l-.64.1h-1.09l-.64.1h-3.46l-.64.1h-.36l-.1.59v.6l-.08.59v1.28l-.09.59v1.28l-.09.59v1.98l-.09.59v1.88l-.09.59v3.16l-.09,1.28v2.57l-.09,1.28v5.24l.81-.7,1.1-.79,1.09-.89.55-.5.55-.39.46-.39.55-.49,1-.79,1-.69,2-1.58,1.91-1.58,2-1.58,2.91-2.37,2.92-2.37,1-.79,2.01-1.58.91-.79,1.91-1.68,2-1.58,2.91-2.37.73-.69h-2l-.81.1h-2.1l-.18-.1h-.36l-.18-.1-.18-.09h-.09l-.18-.1-.18-.1-.18-.1-.19-.1-.09-.1-.18-.1-.18-.1-.09-.2-.19-.1-.09-.2-.19-.09-.09-.2-.09-.1-.09-.2-.09-.2-.09-.2-.09-.1-.1-.19-.09-.2v-.19l-.09-.2-.09-.19v-.39l-.09-.2v-.79l.09-.2v-.4l.09-.2v-.2l.09-.2.09-.2.1-.2.09-.19.09-.1.09-.2.09-.19.09-.1.09-.2.19-.2.09-.1.19-.09.09-.2.18-.1.09-.1.18-.1.19-.09.18-.1.18-.09.09-.1.18-.1h.18l.18-.09h.18l.18-.1h2.19l.73-.1h10.29l1.19.1h7.56l.18.1h.18l.18.09h.19l.18.1.19.1h.18l.09.09.18.1.18.09.19.2.09.1.19.1.09.1.18.2.09.09.09.2.18.1.09.2.09.2.09.19.09.1.09.2.09.19v.2l.09.2.09.2v.39l.09.2v1.18Z" fill="#fff"/><path d="m446.81,411.75v1.29l-.09.49v1.39l-.09.79v11.07l-.09.89v5.53l-.09.99v1.47l-.09,1.98v.99l-.09.98v.5l-.09.49v1.48l-.09.49v.49l-.09.5v.99l-.09.89-.09.49-.09.99v.49l-.18.89v.49l-.09.49-.09.4v.5l-.09.4-.09.5-.09.39v.5l-.09.39-.09.49-.09.4-.09.39-.09.5-.09.39-.1.4v.2l-.08.4-.1.2v.19l-.18.4v.19l-.09.2-.09.2v.2l-.09.2v.2l-.09.2-.09.2-.19.6-.08.29-.18.39-.09.2-.09.2-.09.2v.1l-.09.2-.09.2-.09.2-.09.1-.09.2-.1.2-.09.2-.09.1-.09.2-.09.2-.36.49-.1.09-.27.4-.09.1-.27.29-.18.2-.09.1-.36.29-.09.2-.18.1-.18.2-.18.1-.19.1-.18.1-.19.19-.18.1-.18.1-.18.1-.27.1c-3,1.28-7.47,1.09-10.65.99-3.65-.1-8.01-.3-11.38-1.78-1.37-.6-2.73-1.88-3.83-2.86l-.18-.21-.09-.09-.18-.1-.27-.29-.09-.2-.28-.3-.09-.09-.18-.2-.09-.1-.09-.2-.27-.3-.1-.09-.18-.39-.09-.1-.09-.19-.09-.1-.09-.2-.09-.2-.09-.1-.09-.2-.19-.29v-.2l-.18-.29-.09-.2v-.09l-.09-.2-.09-.2v-.1l-.09-.2-.09-.09v-.2l-.09-.2-.09-.3v-.2l-.09-.1v-.2l-.1-.3-.09-.29-.09-.29v-.3l-.09-.3-.1-.3v-.39l-.09-.3-.09-.49v-.59l-.09-.3v-.59l-.09-.59v-.5l-.09-.5v-.59l-.09-.99v-.98l-.09-.99-.09-2.07-.09-.99-.09-1.09v-.99l-.09-.99v-1.09l-.09-.5v-.98l-.09-1.58v-2.57l-.09-1.08v-7.21l.09-1.09v-2.07l.09-.49v-1.59l.09-.49v-1.08l.09-.5v-.49l.09-.59v-.98l.09-1.09.09-.49v-.59l.09-.69v-.39l.09-.49v-.4l.09-.39v-.8l.09-.19v-.5l.09-.49v-.29l.09-.29v-.2l.09-.3.1-.49v-.3l.09-.29v-.3l.18-.49.1-.59.09-.3.09-.3.09-.29v-.3l.09-.3.18-.2.09-.3.09-.3v-.2l.09-.1.09-.2.09-.3.09-.09.27-.59.18-.3.18-.29.09-.19.18-.3.09-.09.18-.3.09-.2.09-.09.27-.3.09-.2.09-.1.18-.1.09-.2.18-.1.09-.2.27-.19.18-.2.18-.1.09-.1.18-.1.18-.2.19-.1.08-.1.28-.2h.18l.18-.09.09-.1.18-.1h.09c3.46-1.68,7.74-1.09,11.47-.99,2.92.2,5.83.4,8.74.79,2.37.4,4.92.59,7.11,1.77l.18.1.18.1.27.2.18.1.09.1.09.1.18.09.09.1.09.1.09.1.18.1.08.19.09.1.18.09.09.21.18.2.09.09.09.1.09.19.18.2.1.09.18.3.27.49.09.11.09.19.09.19.18.4.09.39.18.3v.1l.09.2.09.2.19.59.09.49v.1l.09.2v.1l.09.2v.29l.09.3.09.3v.29l.09.4v.59l.09.3v.59l.09.3v3.46Zm-26.14-33.1l.09-.2v-.59l.09-.2v-.2l.09-.2v-.2l.1-.2v-.2l.09-.1v-.2l.1-.09.09-.2v-.09l.09-.2.09-.1.09-.19.09-.21.09-.19.09-.09.09-.1.09-.2.09-.1.1-.1.09-.19.18-.1.09-.1.09-.1.09-.1.18-.1.09-.1.09-.1.18-.1.09-.09.09-.1.18-.1.09-.1h.18l.09-.1.19-.1h.18l.09-.1.19-.1h.09l.19-.09h.27l.18-.1h.36l.09-.1h1.01l.18.1h.45l.18.1h.19l.09.09h.18l.18-.09h.46l.18.09h.45l.18.1h.19l.09.1.27.1h.18v.1l.27.1.09.1.18.1.18.09.09.1.09.1.18.2h.09l.09.2.1.1.09.1.09.19.09.1.09.1.1.1.09.29.09.19.09.1.09.2v.2l.09.2.09.2v.19l.09.2v.2l.09.2v.49l.09.2v1.29l-.09.2v.2l-.09.3v.2l-.09.2v.2l-.09.2-.09.2v.2l-.09.2-.09.2-.09.19-.09.1-.1.2-.09.2-.18.2-.09.1-.1.19-.09.1-.19.2-.09.1-.09.1-.09.1-.18.2-.09.1-.18.1-.09.09-.27.2-.09.1-.18.1-.09.1-.18.1h-.09l-.09.1-.18.1-.09.1h-.18l-.09.1h-.18l-.1.09h-.18l-.09.1h-.18l-.1.1h-.36l-.09.1h-.28l-.18.1h-1.46l-.18-.1h-.37l-.09-.1h-.37l-.18-.1-.09-.1h-.18l-.18-.09-.18-.1-.18-.1h-.18l-.18-.1-.09-.2-.18-.1-.18-.1-.18-.1-.19-.2-.09-.09-.18-.2-.18-.2-.09-.2-.19-.1-.09-.2-.18-.2-.09-.3-.09-.2-.09-.2-.09-.19-.1-.19-.09-.3-.1-.19-.09-.2v-.3l-.09-.2v-.69l-.09-.2v-.5Zm12.84,35.97v-3.46c-.09-2.47-.73-5.43-2.82-6.82-1.28-.98-3.01-1.18-4.55-.79-.27.1-.64.2-1,.4-2.82,1.18-2.73,5.33-2.82,8l-.09.99v2.77l-.1.79v1.58l-.09,2.57v11.36l.09,2.67v1.68l.1.89v1.78l.09,1.78v.79l.09.88v1.78l.09.89v2.47l.09.4v2.07l.09.4v.6l.09.19v.59c.46,2.27,2.46,3.36,4.55,3.16,1.91-.2,3.73-1.48,4.37-3.36l.09-.2v-.19l.09-.1v-.2l.09-.2v-.1l.09-.2v-.2l.1-.2v-.2l.09-.2v-.4l.09-.29.09-.2v-.39l.09-.4.18-1.18c0-.1.09-.39.09-.39v-3.17l.09-1.08v-.99l.09-2.18v-2.08l.09-2.08.09-2.17.09-2.08v-.98l.09-1.09v-2.08l.09-.99v-3.16l.09-.99v-4.64l.09-.5-.09-.49v-1.09Z" fill="#fff"/><path d="m79.63,548.21c-.27,7.41-.64,15.51-4.92,21.25-4.1,5.34-10.65,7.21-16.76,8.2l-.54.1-.46.1h-.54l-.55.1-.45.1h-.55l-.55.1h-.55l-.27.1v.2l.09.3v.69l.09.69v.68l.09.6.1.59v.59l.09.5.09.49v.5l.09.49.09.5v.39l.09.39v.4l.1.39.09.69.09.69.09.6v.29l.09.59v.2h1.46l1.19-.1h1.64l.54-.1h1.65l.54-.1h1l.46-.1h1l.45-.1h.82l.28.1h.27l.28.1.27.1.27.1.27.1.28.1.18.2.19.1.27.2.18.2.27.2.18.2.18.19.18.2.18.3.09.2.19.29.09.2.09.29.09.3.09.29.1.3.09.29v.3l.09.3v.59l-.09.29v.59l-.09.3-.1.3-.09.29-.09.3-.09.19-.18.3-.09.3-.18.2-.18.2-.18.29-.19.2-.18.2-.27.2-.18.2-.27.1-.18.2-.27.1-.28.09-.27.2c-5.01,1.88-12.39.69-17.67.79-7.01.2-14.02.39-21.03.69h-1.82l-.27-.1h-.27l-.28-.1-.27-.1-.27-.1-.27-.1-.18-.2-.27-.1-.28-.2-.18-.2-.18-.2-.18-.2-.27-.2-.18-.2-.09-.3-.18-.2-.18-.3-.09-.2-.18-.29-.09-.3-.09-.29v-.3l-.09-.3-.09-.3v-1.49l.09-.29v-.3l.09-.29.09-.2.09-.3.09-.29.18-.3.09-.19.18-.3.18-.2.18-.29.18-.2.18-.2.18-.19.27-.2.18-.1.27-.2.18-.2.27-.1.28-.1.27-.1.28-.1.27-.1h.54l.27-.09h2.1l1.09-.1h1.18l1.18-.1h3.64l1.28-.1h.82l-.09-.3v-.39l-.09-.4v-.79l-.09-.49v-.89l-.09-.49v-1.09l-.09-1.18-.09-1.19-.09-1.38-.09-1.49v-.79l-.09-.79h-3.37l-.55-.1h-.55c-7.37-.3-14.57-3.07-18.94-10.08-3.1-5.04-4.19-11.17-4.83-17.19-1-9.09-1.09-18.18-.18-27.27.55-5.64,1.73-11.66,5.56-15.52,4.28-4.44,10.57-4.94,16.21-5.53.09,0,.46-.1.46-.1h.45l.91-.1h.73v-1.19c-.09-4.44-.91-8.89-1-13.34h-.18l-.82.1h-1.73l-.73.1h-.72l-.73.1h-1.64l-.18-.1h-.27l-.18-.1-.27-.1-.18-.09-.27-.11-.19-.1-.27-.09-.18-.1-.18-.2-.18-.1-.18-.2-.19-.19-.18-.2-.18-.2-.18-.2-.19-.2-.09-.2-.09-.2-.18-.29-.09-.2-.09-.2-.1-.3-.09-.19-.09-.3v-.2l-.09-.3v-1.58l.09-.3v-.19l.09-.3.09-.19v-.3l.1-.2.18-.3.09-.2.09-.2.18-.3.09-.2.18-.2.18-.19.18-.2.18-.2.18-.1.18-.2.18-.1.18-.19.18-.1.27-.1.18-.1.28-.09.18-.1.27-.09.19-.1h.54c6.1-.69,12.29-.59,18.48-.79,3.64-.1,8.19-1.18,11.83-.3,0,.1.19.1.19.1l.27.1h.18l.27.1.18.1.27.1.18.19.27.1.18.1.18.2.19.1.18.2.18.2.18.2.18.19.09.2.18.2.09.3.18.2.1.2.09.3.09.2.09.3.09.2v.3l.09.2v1.88l-.09.3v.2l-.09.29-.09.2-.09.3-.09.2-.1.3-.18.19-.09.2-.18.2-.09.2-.18.2-.18.19-.18.2-.18.2-.19.09-.18.2-.18.2-.27.1-.18.09-.18.1-.27.1-.18.09-.27.1h-.27l-.19.09h-.27l-.18.1h-1.64l-1.55.1-3.55.1h-1v.19l.09,1.98v1.88l.09.89v.99l.09,1.38.09,1.38v1.39l.09,1.48v1.39l.09,1.38v.2h.46l1.09-.2,2-.29c4.74-.59,9.39-.89,14.02.49,4.1,1.28,7.83,3.86,10.29,7.71,2.28,3.66,3.19,8.21,3.64,12.65.18,2.27.28,4.45.37,6.72.08,6.42-.27,12.75-.55,19.07Zm-43.52,13.83l-.27-3.75-.28-3.65-.36-5.64-.09-1.78-.09-1.88-.09-1.88-.36-5.54-.09-1.88-.1-1.88-.09-1.88-.09-1.88-.09-1.87-.27-5.53-.09-.99v-1.88l-.1-.89-.09-1.88-.09-2.86v-.79h-.91l-.83.1-.81.09h-.37l-.36.1h-.82l-.36.1h-.37l-.36.1h-.36l-.37.1h-.27l-.36.1h-.55l-.27.1h-.27l-.27.1h-.37l-.18.1h-.28l-.63.3h-.09v.69l-.09.4-.09.3v.39l-.09.79v.4l-.09.39-.09.8v.39l-.09.39v.79l-.09.79-.09.4v.79l-.09.39v1.29l-.09.39v.89l-.18,2.47v1.29l-.09.39v9.68l.09.89v1.29l.09.89v1.29l.09.49v.89l.09.89v.39l.09.5.09.79v.5l.18,1.68.09.89.09.39v.5l.09.79.09.5.09.39v.4l.09.39.09.49.09.79.09.4.09.49.09.79.09.39.09.4.1.4.09.4.09.39.09.4.09.88.09.3.09.5.1.29.09.39.09.4.09.4.19.39.09.39.09.39.09.4.09.39.09.29.09.4.18.4v.2h.09l.28.1.09.1.37.1.18.1h.18l.18.1h.09l.18.1h.27l.19.1h.09l.18.1.46.1h.18l.27.1h.55l.18.09h.36l.37.1h.73l.18.1h1l.36.1h2.64v.1h.19l-.37-5.44Zm27.23-20.16v-1.78l-.09-.49v-1.78l-.09-1.68-.09-.5v-.59l-.09-.59-.09-1.09v-.59l-.18-1.58-.09-.59v-.5l-.09-.59-.09-.49v-.6l-.09-.49-.09-.49-.09-.59v-.49l-.09-.5-.18-.99-.18-.99-.18-.99-.09-.49-.09-.39-.09-.5-.28-1.38-.18-.8-.09-.39-.09-.4-.28-.79-.09-.39v-.2l-.09-.2-.09-.4-.09-.2v-.1l-.18-.39-.09-.49-.1-.1-.09-.2v-.1l-.09-.2v-.1l-.09-.2-.09-.1v-.1l-.09-.2-.18-.4v-.1l-.09-.1v-.1l-.09-.2-.09-.21-.09-.09v-.1l-.09-.09v-.1l-.09-.1-.09-.1-.19-.3h-.54l-.37.1h-1l-.18.1h-.63l-.46.1h-.45l-.45.1h-.46l-.46.1-.45.1h-.55l-1,.19-1,.09-.54.1-.55.1h-.27v1.28l.09,1.38.08,1.78v.89l.28,3.66v.88l.37,4.65.09.89v.89l.45,4.55.27,3.66.19,1.88.18,1.87.27,3.66.36,3.66.18,1.88.19,1.78.18,1.88v.99l.09.89.09.89.09.99.09.89.09.89v.99l.18,1.78.09.98v.89l.09.99.09.9v.69h.45l.46-.09h.46l.54-.1h.45l.37-.1.46-.1h.46l.45-.1.37-.1h.36l.45-.1h.19l.18-.1h.18l.18-.1h.36l.19-.1h.18l.19-.1h.27l.09-.1h.09l.09-.29.1-.2.09-.1v-.2l.09-.1.18-.39.09-.4v-.1l.09-.2.09-.09.09-.49.1-.2.09-.29v-.2l.09-.2.09-.2v-.2l.09-.2.09-.3v-.2l.18-.59v-.19l.09-.29v-.2l.09-.2v-.2l.09-.21v-.39l.09-.2.09-.49v-.2l.09-.3v-.4l.09-.2v-.29l.09-.69.09-.5.09-.49v-.49l.19-1.48v-.5l.09-.5v-.59l.09-1.58.09-.5v-1.08l.09-.59v-6.12Z" fill="#fff"/><path d="m133.64,565.71c-.09,1.08-.55,2.17-.82,3.06-.46,1.78-.82,3.56-1.83,4.94l-.18.3-.18.2-.18.3-.18.2-.18.2-.09.3-.18.2-.18.19-.18.3-.37.39-.18.2-.18.29-.18.2-.18.2-.19.2-.36.4-.18.2-.27.2-.18.2-.36.39-.19.2-.27.1-.18.2-.18.2-.27.2-.18.1-.18.2-.27.2-.18.1-.28.2-.19.09-.27.2-.19.09-.27.1-.27.2-.19.1-.27.09-.27.2-.18.09-.55.2-.27.09-.19.1-.27.09-.27.1-.27.1-.28.1h-.27l-.28.1-.27.1-.28.1h-.27l-.55.19h-.27l-.28.1h-.27l-.27.1h-.27l-.27.09h-.64l-.27.1h-.36l-.55.1h-.63l-.37.1h-1.27l-.73.09h-9.28l-.91-.09h-2l-2.1-.1-2.18-.1h-2.37l-1.19-.1h-1.27l-1.27-.09h-1.55l-.28-.1h-.27l-.28-.1-.18-.09h-.27l-.18-.2-.28-.1-.18-.1-.18-.2-.18-.2-.18-.1-.18-.2-.18-.19-.18-.29-.09-.21-.09-.2-.18-.29-.09-.2-.09-.3-.09-.2v-.3l-.09-.3v-1.09l.09-.2v-.3l.09-.3.09-.2.09-.29.09-.2.19-.2.09-.3.18-.2.09-.2.18-.2.19-.19.27-.1.18-.2.18-.2.18-.1.28-.1.18-.1.27-.1h.28l.18-.1h.27l.27-.1h.27l1.28.1h1.46l-.09-.3v-8.69l-.09-.99v-3.07l-.09-2.07v-4.15l-.09-.69h-1.46l-.18-.1h-.18l-.18-.1h-.18l-.18-.1-.18-.09-.19-.1-.18-.1-.18-.1-.17-.1-.19-.2-.09-.1-.18-.2-.18-.09-.09-.2-.09-.2-.18-.1-.1-.2-.09-.2-.1-.2-.09-.2-.09-.2v-.2l-.09-.2v-.3l-.09-.2v-1.29l.09-.2.09-.49v-.2l.09-.2.09-.2.1-.2.09-.2.18-.1.09-.2.09-.2.18-.2.09-.09.18-.2.18-.11.09-.1.17-.2.18-.1.18-.1.19-.1.18-.1h.18l.18-.1h.18l.18-.1h.45l.18-.1h.19l.37.1h.36v-7.81l.09-5.43v-6.43l.09-.3h-3.01l-.27-.1h-.18l-.28-.1h-.18l-.27-.1-.18-.1-.18-.2-.27-.09-.18-.1-.18-.2-.18-.2-.18-.1-.09-.2-.19-.2-.09-.19-.18-.3-.09-.2-.09-.2-.09-.2-.09-.3-.09-.2v-.29l-.09-.2v-1.09l.09-.2v-.3l.09-.2v-.29l.09-.2.09-.3.18-.2.09-.2.09-.2.18-.2.18-.2.09-.2.19-.2.18-.09.18-.2.27-.1.18-.19.18-.1.27-.1h.18l.18-.1.27-.1h.45l.28-.1h3.37l1.09.1h4.64l1.28.1h2.55l1.28.1h2.64l1.36.1,2.55.1h2.55l2.27.09,2.09.1,3.37.1h1.09l.72.1h.73l.18.1h.18l.18.09.18.1.18.1.27.09.09.1.18.1.1.1.18.1.18.2.09.1.27.29.18.3.18.3.19.2.09.19.09.2.09.1v.2l.09.09.09.3.09.2.09.2.09.29.09.3.09.29.09.39.09.3.09.3.09.39.09.29.18.69.09.4.27,1.09.09.39.09.29.09.4v.3l.09.39.09.3v.3l.09.3.09.3v.59l.09.2v.29l-.09.2v.49l-.09.29-.09.2-.09.3-.09.19-.09.2-.09.3-.09.2-.18.2-.18.2-.09.2-.19.1-.18.2-.18.2-.18.1-.27.1-.18.2-.19.1h-.27l-.18.09-.28.1h-.17l-.27.09h-.64l-.27-.09h-.27l-.18-.1h-.27l-.18-.09-.19-.1-.27-.2-.19-.1-.18-.1-.18-.2-.18-.1-.18-.2-.18-.2-.1-.2-.18-.2-.09-.2-.18-.2-.09-.3-.09-.19-.09-.3-.09-.2v-.2l-.09-.3v-.5l-.09-.2v-.3l-.09-.2-.09-.29v-.3l-.09-.3-.09-.29-.09-.3-.09-.69-.09-.3-.09-.29-.09-.29-.1-.2-2.55-.1h-2.1l-2.27-.1-2.46-.1-2.55-.1h-1.55v.89l-.09,1.18v2.37l-.09,2.47-.1,1.18v3.56l-.09,1.28v5.04l-.09,1.38v.39h9.83l.73.1h1.27l.28.1h.18l.18.1.19.1h.18l.18.1.18.1.19.19.18.11.09.09.19.2.18.1.09.19.17.1.09.2.09.2.18.2.09.1.09.2.09.2.09.2v.29l.09.2v.2l.09.2v1.48l-.09.3-.09.2v.2l-.09.2-.09.2-.09.2-.09.2-.09.2-.18.2-.09.1-.09.2-.18.2-.18.1-.09.2-.18.1-.18.1-.19.1-.18.09-.18.1-.18.1-.19.1-.18.09h-.18l-.18.1h-7.28l-1.92-.1h-2.73v1.48l-.09,2.67v9.39l-.09,1.28v5.44l.73.1h7.02l.27-.1h1.46l.55-.1h.45l.27-.1h.46l.27-.1h.46l.18-.1h.46l.36-.1.37-.1h.18l.18-.1h.18l.19-.09.27-.1h.17l.46-.2h.09l.27-.2.28-.1c.73-1.28.73-1.38.73-1.38.09-.2.09-.29.09-.29.09-.1.09-.2.09-.2.09-.1.09-.2.09-.2,0-.1.09-.2.09-.2,0-.1.09-.2.09-.2v-.2l.09-.21c.27-1.67.27-1.78.27-1.78v-1.88l.09-.19v-.99c.09-.3.09-.39.09-.39v-.1l.1-.1v-.2l.09-.2v-.1l.1-.1.09-.19v-.1l.09-.2.18-.19.09-.2.18-.09.09-.19.18-.1.09-.1.09-.1.18-.1.18-.1h.18l.19-.1.09-.1h.36l.09-.1h.73l.19-.1h1.27l.27-.1h.37l.27-.1h.54l.18-.1h2.27l.1.1h.54l.09.1h.27l.1.1h.27l.09.1.18.1h.09l.09.1.18.1.09.1.09.1.18.1.09.1.09.1.09.1.1.1.09.09.09.2.09.09.09.1.09.2v.1l.09.1v.19l.09.1v.1l.09.1v.2c0,.2.09.39.09.59Z" fill="#fff"/><path d="m186.73,533.89c0,1.78-.45,3.66-1.55,5.04-.82.89-1.91,1.58-3,1.88-2.18.59-4.65-.1-6.28-1.78-1.37-1.28-2.19-3.26-2.55-5.23-.45-2.08-.45-4.25-.45-6.43v-.3h-1c-2.74-.09-5.55-.09-8.38-.09h-.99.09c1.73,2.27,3.55,4.45,5.19,6.82,1.36,2.07,3.37,5.13,3.1,7.9-.18,1.48-1,2.76-2,3.85-2.82,2.97-5.83,5.73-8.75,8.5-3.64,3.45-5.28,8.29-4.73,13.54.18,1.58.91,4.94,3,4.34,1.28-.3,2.65-1.88,3.65-2.76,1.09-1.09,2.1-2.28,3.01-3.55,1.91-2.47,3.55-5.24,5.37-7.81,1-1.39,2.09-2.67,3.46-3.56,2.73-1.88,6.28-.89,7.92,2.18.73,1.28,1.1,2.87,1.46,4.34.55,2.77.82,5.64,1.1,8.5.27,2.66.54,5.34.73,8,.09,1.58,0,3.17-.64,4.55-.73,1.68-2.18,2.87-3.82,3.46-2.28.89-5.01.49-6.65-1.38-1-1.19-1.46-2.67-1.73-4.25-.18-.89-.27-1.88-.36-2.77,0-.3-.37-1.88-.18-2.07-2.01,2.47-4.28,4.64-6.83,6.42-.45.29-1,.69-1.45.99-6.38,3.65-16.12,4.15-20.49-3.16-3.73-6.22-2.92-14.82.45-21.05,1.82-3.16,4.19-6.03,6.74-8.7,2.28-2.36,4.83-4.65,7.1-7.21.37-.49.45-.49.1-1.09-.28-.29-.55-.69-.73-.99-.55-.69-1.1-1.48-1.55-2.17-1.09-1.38-2.09-2.77-3.1-4.15-1.55-2.18-3.27-4.35-4.64-6.62h-.45c-2.37,0-4.83,0-7.19.1-1.18.09-2.37.2-3.46-.2-1.82-.69-3.19-2.77-3.09-4.84.09-2.08,1.46-3.95,3.27-4.55.82-.2,1.55-.2,2.37-.2,3.19,0,6.37-.1,9.56-.1,4.74,0,9.38,0,14.12-.1h8.83l.36.1-.09-.2v-.99c.09-1.78.91-2.97,2.09-4.15,1.27-1.29,2.73-2.58,4.55-2.87,1.73-.3,3.73.49,4.83,2.08,1.27,1.78,1.46,4.25,1.64,6.42.27,3.65.73,7.31,1.46,10.97.27,1.68.64,3.36.64,5.03v.3Z" fill="#fff"/><path d="m247.83,534.98v.4l-.09.2v.29l-.09.2v.1l-.09.2-.09.3-.09.09-.09.2-.09.1-.18.3-.09.2-.09.1-.09.1-.09.1-.18.2-.09.1-.09.1-.18.1-.09.1-.19.1-.09.09h-.19l-.09.1-.18.1-.09.1h-.18l-.18.1h-.27l-.18.1h-1.18l-.18-.1h-.36l-.09-.1h-.18l-.09-.1-.18-.1h-.18l-.27-.2-.09-.1-.18-.1-.09-.1-.09-.1-.18-.1-.09-.1-.09-.1-.09-.2-.09-.1-.18-.1-.09-.2-.09-.1v-.2l-.18-.29-.18-.3v-.1l-.09-.2v-.2l-.09-.1v-.39l-.09-.1v-2.56l-.09-.3v-1.09l-.09-.39v-1.09l-.09-.69-.09-.7v-.79h-.63l-.55-.1h-2.27l-.64-.1h-7.29v19.27l.1,7.11v10.37l.09,3.07v5.83l-.09.39v.3l3,.1,1.64.1h2.09l.28.09h.18l.18.1h.19l.28.1.18.1.18.1.18.1.19.1.18.2.09.1.19.1.18.2.09.2.18.09.09.2.19.2.09.2.09.2.09.19.09.2.09.2.09.2v.3l.09.2v.2l.09.2v.89l-.09.3v.2l-.09.2v.2l-.09.3-.09.2-.09.2-.09.2-.09.2-.09.2-.1.2-.18.1-.09.19-.18.2-.18.09-.09.2-.18.1-.18.2-.19.1-.18.1-.18.1-.18.1-.19.09h-.27l-.18.1h-.18l-.18.1h-2.37l-1.64-.1-3.19-.1h-3.1l-3.09-.09h-1.55l-1.64-.1h-1.55l-1.73-.1h-1.64l-1.73-.1h-1.82l-1.91-.1h-.45l-.19-.1h-.18l-.18-.1h-.27l-.18-.1-.19-.09-.18-.1-.18-.09-.18-.1-.19-.19-.18-.1-.09-.1-.18-.2-.18-.2-.09-.1-.09-.19-.18-.19-.09-.2-.09-.2-.09-.2-.09-.2-.09-.2-.09-.2v-.3l-.09-.2v-.2l-.09-.19v-.99l.09-.2v-.2l.09-.2v-.2l.09-.29.09-.2.09-.19.09-.2.09-.19.09-.2.18-.2.09-.1.19-.19.09-.2.18-.1.18-.2.18-.1.09-.1.18-.19.18-.1.18-.1.27-.09h.19l.18-.1.18-.1h.46l.18-.1h.46l1.82.1h1.82l1.09.1v-9.29l-.09-3.26v-14.13l-.09-3.45v-15.52h-.82l-1.27.1-2.46.1h-2.09l-1,.09h-5.92v.69l-.09.7v2.47l-.09.59v.99l-.09.21v.79l-.09.39v.1l-.09.19v.1l-.09.2v.2l-.09.1-.09.2v.1l-.09.09-.09.2-.09.09-.09.2-.09.1-.1.1-.09.1-.09.2-.09.09-.18.1-.09.1-.09.1-.19.1-.09.1-.1.1h-.18l-.09.1-.18.1h-.09l-.18.1-.09.1h-.27l-.18.1h-.45l-.19.1h-.45l-.09-.1h-.45l-.18-.1h-.09l-.18-.1h-.09l-.18-.1h-.09l-.18-.1-.09-.1-.19-.1-.09-.1h-.18l-.09-.1-.09-.1-.09-.1-.19-.2-.09-.1-.09-.1-.09-.1-.18-.29-.09-.1-.18-.3-.09-.09v-.2l-.09-.1-.09-.2v-.1l-.09-.2-.09-.3v-.29l-.09-.2v-1.29l.09-.1v-1.09l.09-.49v-2.37l.09-.6v-2.67l.09-1.38v-2.37l.09-1.88v-1.88l.09-.2v-.29l.09-.2v-.1l.09-.19.09-.1v-.2l.09-.1.09-.2.09-.1.09-.1.09-.2.1-.1.09-.1.09-.2.09-.1.09-.09.09-.1.18-.1.09-.09.1-.1.18-.1.18-.2h.18l.09-.1.18-.1h.09l.18-.1h.18l.09-.09h.27l.18-.1h1.09l.09.1h.27l.18.09h.09l.18.1h.09l.18.1.1.1h.18l.09.1.18.1.09.1.18.1.09.09.09.1.1.1.18.09.09.1.09.09.09.2.09.1.09.1.09.2.09.1.09.2v.1l.09.2.09.1h.37l.36.09h3.46l.73-.09h1.73l2.18-.1,2.36-.1h1.37l1.36-.1h1.46l1.46-.1h1.46l1.46-.1h.27l.36-.1h1.73l.36.1h.46l.81-.1h6.2l.73-.1h2.18l.73.1h4.1l.64.1h1.37l.09-.1v-.2l.09-.1.09-.2.09-.3.09-.2.09-.1.09-.2.09-.1.09-.1.09-.2.09-.1.09-.1.18-.1.09-.09.09-.1.18-.1.09-.1.18-.1.09-.1.19-.1.09-.1h.18l.09-.1.18-.1h.28l.18-.09h.27l.18-.1h.63l.18.1h.46l.09.09h.18l.18.1.09.1h.18l.18.1.09.1.18.1h.09l.09.1.18.1.09.2.18.09.09.1.19.19.09.2.09.1.09.1.09.2.09.1.09.2.09.09.09.3.09.2.09.2v.3l.09.2v.3l.09.2v.89l.18,2.17.09,1.19.09,1.09v.79l.09.3v1.09l.09.49.09,1.18v.59l.09.69v.8l.09.39v.79l.09.39v1.19l.09.79v2.27Z" fill="#fff"/><path d="m283.35,578.85v.2l-.09.2v.4l-.09.2-.09.2v.2l-.09.2-.09.19-.09.19-.09.2-.1.1-.18.2-.09.2-.09.09-.18.2-.1.09-.18.1-.09.2-.18.1-.18.1-.09.1-.18.1-.19.1-.18.1h-.18l-.18.09-.19.1h-.36l-.18.1h-3.83l-1.27.09h-5.55l-1.46.1h-3.73l-.73-.1h-4.92l-.64-.09h-.55l-.18-.1h-.18l-.18-.1h-.18l-.18-.09-.18-.1-.18-.1-.18-.1-.18-.1-.09-.1-.18-.1-.18-.2-.09-.1-.18-.09-.09-.2-.09-.09-.19-.2-.08-.2-.09-.1-.09-.2-.09-.19-.09-.19-.09-.2v-.2l-.09-.2-.09-.2v-.4l-.09-.2v-.99l.09-.2v-.2l.09-.2v-.2l.09-.2.09-.2v-.2l.09-.2.09-.2.09-.1.17-.2.1-.2.09-.09.09-.19.18-.1.09-.2.18-.1.19-.1.09-.19.18-.1.18-.1.18-.1.09-.1h.18l.18-.1.18-.1h.18l.18-.1h.55l.18-.09h.27l.63.09h3.37v-3.35l-.09-1.39-.18-4.25-.18-2.77-.09-1.48-.09-2.76-.09-1.49-.09-1.38-.09-2.87-.09-1.38-.09-2.17v-1.49l-.09-1.67-.09-1.68v-.79l-.09-1.68v-1.58l-.1-1.68-.08-1.68-.09-1.68v-1.19l-.09-1.18-.09-1.29v-1.88h-1.18l-.19.1h-.54l-.28-.1h-.27l-.18.1h-.18l-.18.1h-1.37l-.18-.1h-.18l-.18-.1h-.18l-.19-.1-.18-.1-.18-.1-.1-.1-.17-.1-.27-.1-.09-.1-.18-.2-.09-.1-.19-.2-.09-.09-.09-.1-.18-.19-.09-.2-.09-.1-.09-.2-.09-.2-.09-.19-.09-.1-.09-.2v-.2l-.09-.2-.1-.2v-.3l-.09-.2v-1.18l.09-.2v-.19l.1-.2v-.2l.09-.2.09-.21v-.2l.09-.19.09-.1.09-.2.09-.19.18-.1.09-.2.09-.2.18-.1.09-.1.18-.2.18-.1.09-.09.18-.1.09-.1.17-.09.1-.1h.18l.18-.1.09-.1.37-.1h.18l.18-.1h.18l.27-.1h1.55l.46.1h.45l1.18-.1,1.27-.09h.64l.64-.1h.54l.64-.1,1-.1,1-.1h1l1-.1.92-.1h.99l2-.2h.91l1-.1,1-.1.91-.1h.46l.91-.1h.46l.45-.1h.46l.45-.1h1.46l.18.1h.18l.18.1h.19l.18.1.18.1.18.1.18.1.19.1.18.1.09.1.18.1.18.2.1.1.18.2.09.1.09.2.18.2.1.1.09.19.09.2.09.2.09.2v.2l.09.2v.2l.09.19v.2l.09.2v.89l-.09.2v.39l-.09.2-.09.2v.2l-.09.2-.09.2-.09.19-.09.2-.1.2-.08.2-.18.1-.09.2-.18.1-.1.2-.18.1-.09.2-.18.09-.18.1-.19.09-.18.1-.18.1-.18.1h-.18l-.19.1-.18.1h-.36l-.18.1h-.45l-.46.1h-.55l-.45.1h-.91l-.55.09h-.45l-1,.1-1,.1h-.18v15.12l.08,2.37v4.74l.09,1.18v2.37l.09,1.19v2.37l.09,1.18v1.19l.09,1.19v1.08l.1.6.09,1.78v1.38l.09.2v.3l.09.69v.5l.09.39v.49l.09.5v.79l.09.3v1.09l.09.59v2.17h2.19l2.18-.09h.55l.18.09h.18l.18.1h.19l.18.1.18.1h.18l.19.1.18.1.18.1.09.1.18.19.18.1.09.1.19.2.09.1.09.19.18.09.08.2.1.2.09.2.09.1.09.2.09.2v.2l.09.2.09.2v.39l.09.2v.79Zm-25.13-57.81h.09-.09Z" fill="#fff"/><path d="m342.09,560.46v1.58l-.09.4v.69l-.09.39v.3l-.09.39v.59l-.09.39v.2l-.09.2-.1.59-.09.59-.09.2-.09.39-.09.59-.09.19v.2l-.18.5-.18.59-.09.1-.18.6-.09.29-.09.2-.09.3-.18.39-.09.1-.09.39-.09.1-.09.2-.09.1-.27.49-.09.2-.18.3v.1l-.18.3-.09.2-.18.29-.19.1-.18.3-.18.3-.09.1-.18.3-.37.39-.27.4-.09.1-.18.1-.09.1-.09.1-.09.19-.18.1-.09.1-.09.1-.09.1-.36.39-.27.2-.36.29-.09.1-.27.2-.18.1-.09.1-.09.1-.45.2-.19.2-.18.1-.09.1-.18.1h-.09l-.19.1-.09.1-.27.2-.27.1-.27.2-.27.1-.28.09-.27.2-.27.1-.27.1-.55.19-.27.19-.28.1-.27.09-.27.1-.27.1h-.37l-.27.09-.55.2-.27.09-.27.1-.55.1-.36.09-.55.1h-.28l-.27.09-.37.1-.55.1-.91.1-.55.1h-.27l-.27.1h-.36l-.82.1-.36.1h-.82l-.64.09-1.18.1-1.19.1-2.36.2h-.55l-.64.1h-.55l-.64.1h-1.18l-.64.09h-1.18l-.63.09h-2.46l-.64.1h-6.46l-.64-.1h-3.46l-.73-.09h-1.73l-.27-.09h-.27l-.27-.1-.27-.1-.27-.1-.28-.09-.18-.2-.27-.09-.19-.2-.18-.2-.18-.2-.18-.2-.19-.2-.18-.3-.09-.2-.18-.3-.09-.29-.09-.2-.09-.29v-.3l-.09-.3v-.79l.09-.3v-.3l.09-.3.09-.3.09-.2.09-.3.18-.2.18-.29.09-.2.18-.2.27-.2.18-.19.19-.2.27-.19.18-.1.28-.1.27-.2.27-.1h.27l.27-.1h1.91v-1.39l.09-2.56v-3.95l.09-1.29v-8.99l.09-1.28v-1.38l-.09-1.29v-8.31l-.09-1.97v-.59l-.09-1.29v-1.98l-.09-.59v-1.98l-.09-.69v-1.38l-.1-.3v-4.64l-.09-.7v-2.27l-.09-.3v-.1h-1.54l-.55.1h-1l-.27-.1h-.28l-.18-.1-.27-.1-.27-.1-.18-.1-.27-.11-.18-.19-.27-.1-.19-.2-.18-.2-.18-.2-.18-.2-.09-.19-.18-.2-.09-.2-.18-.3-.09-.2-.09-.3-.1-.29v-.19l-.09-.3v-1.09l.09-.3v-.2l.1-.3.09-.19.09-.3.09-.2.18-.29.09-.2.18-.2.18-.2.18-.2.18-.2.19-.19.18-.1.27-.2.18-.09.27-.1.27-.1.18-.1.27-.1h.55l.18-.1h2.1l1.09-.1h1.09l2.46-.2h1.27l1.28-.1h1.36l.73-.1h2.73l.63-.1h3.56l1.36-.1h2.83l.64.1h3l.73.1h.91l.37.1h.91l.36.1h.55l.63.1h.28l.36.1h.54l.27.1h.37l.27.1h.54l.28.1h.27l.55.2h.28l.27.1h.27l.27.09.27.1h.27l.18.1.27.1.28.1.27.09.46.1.27.1.27.2.18.1.28.1.18.1.18.1.27.1h.09l.1.1.18.1.09.1.09.1.28.1.09.1.27.2.27.2.18.2.18.09.09.1.1.1.09.1.19.2.09.1.18.3.09.09.1.1.18.2.09.1.18.29.1.1.09.1.1.2.09.2.09.1.09.1.09.19.09.3.18.2.09.2.09.3.09.19.09.3.09.2.09.2.09.3.09.2v.29l.09.2.1.2v.3l.09.2v.2l.09.19v.3l.09.39.09.2v.49l.09.2v.39l.09.3v.99l.09.39v3.46l-.09.39v.39l-.09.39v.4l-.09.2v.4l-.09.39-.09.4v.2l-.09.2-.09.3-.1.39-.09.2v.2l-.09.4-.18.3v.2l-.09.2-.18.3v.2l-.19.29-.09.2-.18.29-.09.2-.09.3-.09.2-.19.29-.09.1-.1.19-.08.1-.27.3-.19.29-.27.49-.28.2-.09.2-.19.21-.18.2-.09.09-.18.29-.18.1-.09.09-.27.3-.1.1-.27.2.09.1h.28l.18.1.28.1.27.1.27.1.19.1.27.1.45.2.27.1.27.1.27.1.18.09.45.21.27.2.27.09.18.1.28.19.27.1.18.1.27.19.18.1.27.2.18.2.27.1.18.2.28.2.18.2.18.1.18.1.09.1.09.1.09.1.09.1.18.2.18.1.28.39.09.1.18.19.09.11.18.29.18.2.09.1.18.3.18.19.09.1.09.2.09.09.18.3.1.1.09.1v.2l.09.1.18.29.09.1.09.3.09.1.09.3.09.19.09.1.09.29.09.2v.1l.09.39.09.1.09.29v.2l.1.1.09.39v.29l.09.3.09.39v.3l.09.5v.3l.09.2v1.87Zm-13.29,0v-.99l-.1-.09v-.5l-.09-.2-.09-.29v-.3l-.09-.5-.09-.3-.09-.5-.09-.19-.09-.19v-.1l-.09-.2v-.2l-.1-.1v-.1l-.09-.1v-.29l-.09-.1v-.1l-.09-.1v-.09l-.09-.1v-.1l-.09-.09v-.2l-.09-.1-.19-.21v-.09l-.09-.1-.1-.2-.08-.2-.1-.1-.09-.1h-.18l-.36-.1-.27-.1h-.19l-.36-.09-.45-.1-.55-.1h-.27l-.18-.1h-.18l-.46-.1h-.46l-.36-.1h-.46l-.45-.1-.82-.1-.82-.09h-.45l-.91-.1-.82-.1-.82-.09h-.36l-.46-.1h-.45l-.45-.09h-.46l-.55-.1h-1.18l-.18-.1h-4.46v1.09l-.09,1.09-.09,2.18-.1,1.08-.09.99v1.09l-.09,1.09-.09,1.09-.09,2.08-.18,2.17-.09,2.08-.18,2.07-.09,2.17-.18,2.08v1.09h.55l.64-.1h1.09l1.18-.1h.55l.55-.1h1.18l.55-.1h.64l1.18-.1,1.1-.1.63-.1h.55l.55-.1h.54l1.1-.1.54-.09h.28l.45-.1h.54l.28-.1h.45l.27-.1.46-.09h.27l.19-.1h.46l.27-.1h.18l.46-.1.27-.1h.18l.45-.2h.18l.09-.1.27-.39.09-.2.18-.4.09-.3.09-.2.18-.49.09-.2.28-.8.09-.2.09-.29.09-.3.09-.2.09-.3.09-.3.09-.29.09-.2.09-.29v-.3l.1-.3.09-.3.09-.29v-.2l.09-.3.09-.29.09-.6v-.2l.09-.3v-.29l.09-.3v-.2l.09-.29v-.49l.1-.3v-1.18l.08-.2v-.3l-.08-.1v-.4Zm-18.86-18.17h1.1l1.09-.1.45-.1h.82l.82-.09.55-.1h.73l.55-.1h.18l.55-.09.18-.1h.55l.18-.1h.28l.46-.1.27-.1h.18l.27-.09h.19l.09-.1.09-.1v-.1l.09-.1v-.1l.09-.1.09-.2.27-.39v-.2l.09-.1.09-.2.09-.1.18-.49.09-.1v-.2l.09-.2.18-.3.09-.3.1-.2v-.2l.09-.1.28-.89.18-.5v-.2l.09-.3.09-.2v-.59l.09-.29v-.3l.09-.1v-.4l.09-.2v-.2l.09-.2v-3.26l-.09-.49v-.89l-.09-.2v-.69l-.09-.2v-.2l-.09-.09v-.1l-.09-.19v-.2l-.09-.2-.09-.39-.09-.2v-.1h-.36l-.28-.1h-.45l-.28-.1h-.82l-.27-.1h-1.09l-.28-.11h-1.55l-.27-.09h-6.83v2.47l-.09,1.68v1.18l-.09,1.39v4.35l-.09,2.86v3.36l.73-.1h.54Z" fill="#fff"/><path d="m420.67,578.15l-.09.2v.39l-.09.2-.09.2v.2l-.09.2-.09.2-.1.2-.09.2-.18.1-.09.2-.09.19-.18.1-.09.2-.18.09-.09.21-.18.09-.18.1-.18.1-.09.09-.18.1-.18.1-.18.09h-.18l-.18.1-.18.09h-.64l-.18.1h-.19l-1-.1h-1.91c-4.1-.09-8.29.1-12.39.3-1.55.1-3.19-.1-4.83.1-2.09.3-4.92.5-6.19-1.68l-.09-.19-.09-.1-.09-.2c-.09,0-.09-.2-.09-.2l-.09-.2-.09-.2v-.2l-.09-.2v-.4l-.09-.2v-.99l.09-.19v-.1c0-.1.09-.2.09-.2v-.4c.09,0,.09-.2.09-.2l.09-.2.09-.2.09-.29.09-.1.09-.2.18-.19.09-.2.08-.1.19-.2.09-.1.19-.2.09-.1.18-.1.18-.2.18-.1.18-.1.09-.09h.18l.18-.1h.18l.18-.1.27-.1h.55l.18-.09h.18l.18.09h.46l.18.1h.27l.1-.1-.1-.29-.18-.59-.18-.6-.09-.49-.18-.59-.36-.98-.1-.6-.36-1.08-.27-1.09-.27-1.09-.27-1.09c-.09-.1-.55-.1-.55-.1h-.91l-1.73-.1h-3.09l-.92-.09h-6.19l-.9.09h-3.56l-1.73.1h-.45l-.28.99-.27,1.19-.09.5-.19.59-.09.59-.18.59-.09.6-.18.59-.09.59-.18.59-.18.6v.3l-.09.29-.27.89-.09.29c0,.1.18.1.18.1h1.73l.18.1h.37l.18.1h.18l.18.1.18.1.19.1.18.1.18.1.19.1.09.1.18.1.09.1.18.19.09.09.18.2.09.1.09.2.18.2.09.09.09.2.09.2.09.2v.2l.09.2.09.19v.2l.09.2v1.58l-.09.2v.2l-.09.2v.2l-.09.2-.09.2-.09.2-.09.2-.09.1-.08.19-.19.2-.09.09-.09.2-.19.1-.09.2-.19.1-.09.1-.18.2-.19.09-.18.1-.09.1-.18.09h-.18l-.18.1-.18.1h-.18l-.18.1h-2.92l-.45-.1h-7.38l-2.01.1h-3c-1.83.09-3.65,0-5.38,0-.91,0-1.82.09-2.73-.3l-.18-.09-.18-.1-.09-.1-.18-.09-.18-.1-.09-.1-.18-.1-.18-.2-.09-.1-.09-.2-.19-.1-.09-.2-.09-.19-.09-.1-.1-.2-.09-.21-.09-.2-.09-.19-.09-.19v-.2l-.09-.2v-.2l-.09-.2v-1.19l.09-.2v-.2l.09-.2v-.2l.09-.2.09-.2v-.2l.09-.2.09-.2.1-.1.09-.19c.09,0,.18-.2.18-.2l.1-.1.09-.1c0-.1.09-.2.09-.2l.09-.09.09-.1.18-.09.09-.1.09-.1.09-.1.28-.1.27-.2.27-.2.36-.1.28-.1h.18l.18-.1h.37l.18-.1h3.74l.45.1h1.73v-.1l.09-.29.18-.5.28-.98.54-1.58.27-.99.19-.49.54-2.07.19-.5c.36-1.58-.19-1.18-1.46-1.28-1.18-.11-2.37-.3-3.19-1.29l-.18-.2-.18-.2-.18-.3-.18-.29-.09-.2-.09-.29-.09-.2v-.3l-.09-.2-.09-.2v-.39c0-.09-.09-.29-.09-.29v-.4l.09-.3v-.39l.09-.29v-.2l.09-.21.09-.19.09-.2.09-.2c0-.09.09-.2.09-.2l.09-.2.09-.2.18-.1.09-.2.09-.1.18-.2.09-.1c0-.1.18-.2.18-.2l.18-.1.09-.1.27-.2.37-.2.27-.09.37-.19h.27l.27-.1h.18l.18-.1h2.19l.45.1h1.46l.09.1h.18c.18,0,.45-1.09.45-1.09l.55-2.08.55-2.08.55-2.17.54-2.08.46-2.08.64-2.17.27-1.08.27-.99.36-1.48.37-1.48.36-1.38.37-1.48.46-1.38.73-2.86.18-.79.27-.69.27-.99.18-.79h-6.38l-.27-.1-.27-.09-.27-.1-.28-.09-.27-.1-.27-.19-.27-.2-.28-.2-.18-.2-.18-.2-.28-.2-.18-.29-.18-.2-.09-.29-.18-.3-.09-.29-.09-.3-.09-.3-.09-.3-.09-.3v-1.67l.09-.3.09-.3.09-.3.09-.3.09-.29.18-.3.18-.2.09-.29.27-.3.19-.2.18-.2.27-.2.18-.2.27-.19.27-.1.27-.2.28-.09.27-.1.27-.1h.27l.28-.1h18.3l1,.1h2.64l.36.1h1.1l.36.1h.82l.18.09h.37l.27-.09h.64l.36.09h.27l.27.1.27.1.36.1.28.1.27.19.27.2.18.1.27.3.18.2.27.2.18.29.18.3.18.2.09.29.18.3.09.39.09.3.18.6.09.29c0,.2.09.39.09.39l.09.2.09.19.1.2v.21l.09.2v.2l.1.3v.19l.08.2.1.5.18.4.09.49.18.5.09.4.09.39.1.3.09.4.19.3.09.29.18.7.09.3.27.69.19.69.27.69.27.69.18.6.27.69.45,1.39.46,1.38.54,1.48.37,1.19.46,1.18.36,1.19.45,1.18.36,1.19.37,1.18.45,1.19.36,1.19.37,1.19.46,1.18.36,1.19.37,1.18.36,1.19.46,1.18.73,2.37,1.55,4.74.73,2.37.82,2.37.73,2.38.36,1.18.36,1.18.45,1.19.27.99h5.56l1,.1h.54l.18.1h.18l.18.1h.28l.09.1.18.1.18.1.18.09.18.1.18.1.09.1.19.2.18.1.09.2.18.1.09.2.09.19.09.1.18.2.1.2.09.19v.2l.09.19.09.2v.2l.09.2v.2l.09.2v1.08Zm-31.33-24.8l-.28-1.09-.27-1.09-.27-1.09-.36-.99-.28-1.09-.27-1.08-.18-.5-.09-.49-.18-.6-.27-.99-.46-1.58-.27-.69-.18-.69-.27-.69-.37-1.38-.27-.79-.46-1.39-.45-1.38-.45-1.48-.28-.69-.18-.79-.27-.69-.18-.69-.09-.1v-.19l-.09-.1v-.1h-.64l-.19.49-.18.59-.18.59-.19.59-.36,1.28-.37,1.19-.19.59-.18.6-.18.59-.19.59-.81,2.77-.82,2.86-.45,1.38-.37,1.39-.45,1.38-.73,2.87-.64,2.07-.37,1.48-.36,1.38-.09.3h2.55l.91-.1h9.11l.91.1h1.91l-.18-.49-.55-2.08Zm-14.21-56.13v-.39l.1-.2v-.39l.08-.2v-.2l.09-.2v-.2l.09-.2v-.1l.09-.2v-.09l.09-.2.09-.1v-.2l.09-.09.09-.2.18-.2.09-.2.09-.1.09-.1.1-.19.09-.1.09-.1.09-.2.09-.1.09-.1.18-.1.09-.1.09-.09.09-.1.18-.09.09-.1.18-.1.09-.1.09-.1.19-.1h.08l.19-.1.09-.1h.18l.18-.09.09-.1h.19l.09-.1h.37l.18-.1h.27l.18-.1h1l.09.1h.54l.18.1h.09l.17.1h.1l.09-.1h.81l.09.1h.36l.18.1h.09l.19.09.18.1h.18l.27.2.27.1v.1l.27.2h.09v.09l.09.1h.09v.09h.09l.09.2h.09l.1.2h.09l.09.2.09.1v.1l.09.09.09.1v.1l.09.1.09.2v.1l.09.2.09.2v.2l.09.19.09.2v.2l.09.2v.2l.09.2v1.98l-.09.2v.49l-.09.2-.09.19v.2l-.09.2-.09.2-.09.2-.09.2-.09.2-.09.2-.09.1-.09.2-.09.19-.09.1-.1.2-.18.1-.09.2-.09.1-.18.1-.09.1-.09.2-.18.1-.09.1-.09.1-.27.2-.18.1-.09.1-.18.1-.09.1h-.09l-.18.1-.09.09-.18.11h-.09l-.18.1h-.09l-.19.1h-.09l-.18.1h-.09l-.18.1h-.27l-.18.1h-.28l-.09.1h-1.54l-.09-.1h-.36l-.18-.1h-.27l-.19-.1-.18-.1h-.19l-.18-.1-.09-.1h-.17l-.19-.11-.18-.09-.18-.2-.18-.1-.19-.1-.09-.1-.18-.2-.18-.1-.18-.2-.09-.2-.18-.2-.09-.1-.18-.2-.09-.2-.09-.3-.18-.2-.09-.2-.09-.2-.09-.2-.09-.3v-.2l-.09-.2-.08-.29v-.39l-.1-.3v-.89Z" fill="#fff"/><path d="m497.26,577.36v.4l-.09.2-.09.2v.2l-.08.19-.1.2-.09.2-.09.2-.09.1-.09.2-.09.2-.18.1-.09.2-.18.2-.09.1-.18.1-.1.2-.18.1-.18.1-.18.09-.19.1-.18.09-.18.1h-.18l-.19.1h-.18l-.18.09h-4.65l-.91-.09h-2.18l-1.28.09h-3.55l-.46.1h-1.46l-.45.1h-.54l-1.28.09h-1.36l-.64.1h-1.27l-.27.1h-.28c-.18,0-.37.09-.37.09l-.45.1h-.27l-.18.09h-.37l-.18.1h-1.63l-.28-.1h-.27l-.18-.09-.18-.1-.18-.09h-.19l-.09-.1-.18-.1-.18-.09-.09-.1-.18-.1-.18-.09-.09-.21-.09-.09-.09-.1c-.09,0-.18-.19-.18-.19l-.09-.1-.09-.09-.19-.2-.08-.2-.1-.2-.09-.2-.09-.1c0-.1-.1-.2-.1-.2l-.09-.2v-.2l-.09-.2v-.2l-.09-.19v-1.58l.09-.1v-.2l.09-.2v-.2l.09-.19.1-.39.17-.3.1-.1.08-.2.1-.2.09-.2.18-.1.09-.2.18-.1.09-.19.19-.1.18-.1.09-.2.18-.1.18-.1.18-.1h.19l.18-.1.18-.1h.18l.19-.1h.18l.18-.09h1l.18.09h.18c.09,0,0-.3,0-.3l-.18-.49-.18-.59-.18-.49-.09-.59-.18-.5-.27-1.08-.37-1.09-.27-1.09-.28-1.08-.37-1.09-.28-1.08-.27-1.09-.27-1.08-1.19-4.35-.54-2.18-.27-1.08-.28-.99-.27-1.09-.27-1.09-.37-1.08-.55-2.08-.27-1.08-.17-.49-.1-.5-.63-2.07-.37-1.09-.36-1.38-.27-.69-.18-.69-.19-.69-.27-.69-.46-1.48-.45-1.39-.45-1.48-.27-.69-.19-.69-.27-.79-.18-.69c-.09-.3-.18-.39-.18-.39l-.1.39-.18.59-.18.6-.18.69-.36,1.19-.46,1.18-.54,1.78-.18.59-.82,2.77-.36,1.48-.82,2.77-.45,1.38-.37,1.48-.81,2.77-.18.69-.18.69-.55,2.17-.64,2.07-.36,1.38-.37,1.38-.18.79-.09.69-.27.99-.18.59-.09.59-.18.5-.09.59-.27,1.08-.18,1.19-.27,1.09-.19.59-.27,1.19-.09.6-.18.59-.09.59-.17.59-.1.59-.18.59-.09.3-.09.29-.09.3-.09.3v.29l.36-.1h1.37l.18.1h.18l.18.1h.18l.18.1.18.1.09.09h.18l.18.1.09.2.18.09.18.1.09.1.18.1.08.2.09.1.18.2.09.1.09.2.09.2.09.1.09.19.09.2.09.19v.2l.09.1.09.19v.4l.09.2v1.19l-.09.19v.2l-.09.2v.2l-.09.1v.2l-.09.2-.09.2-.09.2-.09.1-.09.2-.09.2-.18.1-.09.19-.09.1-.18.09-.09.21-.19.09-.09.1-.18.1-.18.09-.09.1-.18.1-.18.09-.19.1-.09.09h-.18l-.18.1h-.36l-.18.1h-1.18l-.91.1h-2.46l-.91.1h-1.46l-.45-.1h-4.18l-.91-.1h-2.82l-.37.1h-1l-.27.1h-3.01l-.18-.1h-.37l-.28-.1-.18-.1h-.27l-.28-.2-.36-.1-.27-.2-.27-.19-.18-.2-.27-.2-.18-.3-.27-.29-.1-.09-.09-.1-.09-.2v-.1c-.09,0-.09-.09-.09-.09l-.09-.2-.09-.1v-.2l-.09-.2-.09-.2v-.1l-.1-.2v-.2l-.08-.19v-1.19l.08-.2v-.4l.1-.19.09-.2v-.2l.09-.1.09-.2.09-.19c1.46-2.77,3.73-2.28,6.38-2.38,1-.1,1.09.1,1.45-1.09l.45-1.49.55-2.07.64-1.98.18-.59.27-.99.27-.99.55-2.07.27-1.09.27-.99.27-1.09.27-.99.54-2.08.27-1.09.55-2.07.55-2.07.45-2.18.55-2.07.27-1.09.81-3.16.28-1.09.27-1.08,1.18-4.25.36-1.48.46-1.39.36-1.48.37-1.48.18-.69.27-.69.27-.99.09-.49h-5.91l-.36-.1-.27-.1-.27-.1-.27-.1-.27-.1-.27-.2-.28-.1-.18-.2-.27-.2-.18-.19-.19-.3-.28-.2-.18-.3-.09-.2-.18-.3-.18-.29-.1-.29-.09-.3-.09-.3-.09-.29v-.39l-.09-.3v-.99l.09-.29v-.3l.09-.3.09-.3.09-.3.1-.29.18-.3.18-.29.09-.3.18-.2.28-.29.19-.2.18-.2.27-.2.28-.2.18-.2.27-.1.27-.1.27-.2h.27l.37-.1.27-.1h1.09l.37-.09h13.39l1.09.09h4.28l.46.1h1.54l.37.1h.91l.36.1h1.82l.36.1h.27l.27.1.37.1.27.1.27.2.28.2.27.1.18.2.28.3.18.19.27.2.18.3.18.29.1.3.18.29.09.3.18.3.09.3.09.59.09.3c.09.1.18.3.18.3v.2l.09.3.1.1v.2l.09.2.09.3v.5l.09.09.09.5.18.39.27.88.09.5.09.3.09.3.09.3.09.39.18.29.1.3.08.3.09.4.18.59.27.7.45,1.28.18.69.27.59.45,1.39.46,1.38.45,1.29.46,1.18.36,1.19.37,1.09.36,1.18.45,1.19.37,1.19.36,1.08.36,1.19.36,1.18.46,1.09.73,2.37.73,2.27.73,2.37.73,2.28,2.28,6.91.72,2.28.37,1.09.36,1.19.37,1.18.73,2.27.09.3h7.47l.18.1h.37l.18.09h.19l.18.1.18.09.18.1.19.11.18.09.18.1.09.1.19.1.18.2.09.1.18.1.09.2.09.2.19.09.09.2.09.2.09.2.09.2.1.2.08.2v.2l.09.19.09.2v.59l.09.2-.09.2v.49Z" fill="#fff"/><path d="m98.84,695.35v.29l-.09.2v.3l-.09.2-.09.29-.09.2-.09.19-.09.3-.09.19-.18.2-.09.2-.18.2-.09.2-.18.2-.18.2-.18.2-.18.1-.18.2-.18.1-.18.2-.18.1-.28.09-.18.1-.18.1-.27.1-.18.1h-.27l-.18.1h-.27l-.27.09h-.45c-8.29,0-16.57-.69-24.86.1-2.74.3-5.1,1.38-7.01-1.28,0-.1-.09-.2-.09-.2l-.09-.2-.18-.3-.09-.2-.09-.2-.1-.3-.09-.2-.09-.3-.09-.2-.09-.49v-.49l-.09-.4.09-.39v-.59l.09-.2v-.2l.09-.2v-.2l.09-.3.09-.2.1-.2.18-.39.09-.2.09-.2.18-.3.09-.2.18-.2.18-.2.18-.09.18-.21.18-.2.19-.1.18-.2.18-.09.18-.1.27-.2.18-.1h.19l.28-.1.18-.1.27-.09h.45l.27-.1h.64l.27.1h.45l.18.09.19-.09h.09l-.09-.39-.19-.69-.18-.69-.27-.59-.18-.69-.18-.7-.19-.59-.18-.69-.18-.69-.18-.69-.19-.6-.18-.68-.36-1.29-.37-1.38c-.08,0-.63-.1-.63-.1h-2.1l-1.09-.1h-2.74l-2.09-.09h-8.74l-2.1.09h-3.27l-1,.1h-.64l-.27,1.19-.27,1.48-.18.69-.19.7-.18.69-.27,1.48-.18.7-.18.69-.36,1.49-.27.69-.27,1.09-.09.39c0,.1.27.1.27.1h2.1l.18.1h.27l.18.1h.27l.19.1.18.09.27.1.18.1.18.09.28.1.18.1.19.2.18.1.18.2.18.2.09.09.18.2.19.2.09.2.18.21.09.2.09.29.09.2.09.2.09.19.09.3.09.2.09.29v.2l.09.29v1.48l-.09.2v.19l-.09.3-.09.2v.29l-.09.2-.09.2-.09.3-.18.2-.09.2-.09.2-.18.2-.19.2-.09.2-.19.19-.18.1-.18.19-.18.1-.19.2-.18.1-.18.2-.18.1-.28.1-.18.1-.18.1h-.28l-.17.09h-.28l-.18.1h-2.73l-1.18-.1h-10.2l-1.19.1h-6.46l-.55-.1h-1l-.27-.09h-1.73l-.18.09h-.18l-.27.1h-.45l-.18.1h-.46l-.27-.1h-.46l-.18-.1h-.18l-.27-.09-.18-.1-.27-.1-.19-.1-.18-.1-.18-.1-.18-.1-.18-.2-.28-.1-.09-.2-.18-.2-.18-.1-.19-.2-.09-.2-.18-.2-.09-.2-.18-.2-.09-.3-.09-.2-.09-.2-.09-.2-.09-.3-.09-.2v-.29l-.09-.2v-.29l-.09-.2v-.99l.09-.29v-.2l.09-.3v-.2l.09-.19.09-.3.09-.2.09-.2.09-.3.09-.2.08-.2.19-.2.09-.2.09-.2.18-.1.09-.2.18-.09.1-.1.17-.2.28-.29.36-.2.27-.19.27-.1.18-.1.37-.2.36-.1h.27l.18-.1h.27l.18-.1h.55l.36-.09h2.36l.64.09h1.46l.45.1h1.55l.09-.1.09-.39.19-.6.55-1.87.45-1.29.55-1.88.64-2.46.18-.6c.18-.59.46-1.19.64-1.68-1.18-.29-2.46-.1-3.64-.1s-1.55-.39-2.37-1.18l-.18-.2-.19-.2-.27-.29-.18-.29-.27-.4-.09-.3-.09-.2-.09-.29-.09-.3-.09-.39-.09-.2v-.5c-.09,0-.09-.29-.09-.29v-.79l.09-.29v-.3l.09-.29.09-.3v-.2c.09-.1.18-.3.18-.3l.09-.29.09-.19.09-.2.18-.3.09-.2.18-.2.18-.29c.09,0,.27-.2.27-.2l.19-.2.18-.2.37-.3.28-.2.27-.2.28-.1.36-.1.27-.2h.37l.27-.1.27-.1h.91l.36-.1h.46l.27.1h1.46l.55.1h1.37l.09.1h.18c.18-.1.45-1.28.45-1.28l.64-2.57.64-2.56.73-2.57.64-2.57,1-3.86.28-1.28.36-1.29.36-1.28,1.37-5.34.45-1.68.46-1.78.54-1.78.73-2.67.18-.79.36-1.29.28-.89h-7.55l-.36-.1-.37-.1-.36-.09-.37-.1-.27-.2-.36-.2-.27-.19-.36-.2-.28-.2-.27-.29-.28-.3-.18-.29-.27-.3-.18-.3-.19-.29-.18-.39-.09-.4-.18-.3-.09-.39v-.39l-.09-.4v-.4l-.09-.39.09-.39v-.4l.09-.3v-.39l.09-.4.18-.39.09-.3.18-.4.19-.29.18-.39.27-.3.18-.3.28-.3.27-.2.28-.3.36-.19.27-.2.36-.2.27-.09.37-.21.36-.09.37-.1h.27l.36-.1h.37c-.09,0,.09,0,.09,0h20.39l.64.1h3.55l.55.1h1.91l.46.09h.73l.37.1h.82l.09.1h.46l.37-.1h.82l.37.1h.36l.37.09.36.1.36.2.27.1.36.19.37.19.27.3.27.19.27.3.27.3.27.3.18.29.19.39.18.3.18.39.18.39.09.4.18.79.09.3c0,.09.09.19.09.19l.09.29.09.2.09.3.09.19v.2l.09.29.09.3.09.3v.3l.09.19.09.59.18.6.18.49.18.59.18.59.09.4.09.39.18.4.09.39.18.39.09.39.09.49.18.4.09.4.18.39.28.79.27.89.27.79.27.79.27.89.64,1.68.64,1.58.54,1.78.54,1.38.46,1.48.55,1.49.45,1.38.46,1.49.55,1.48.45,1.48.46,1.39.46,1.48.54,1.48.46,1.39.46,1.48.45,1.48.46,1.38,1,2.97.91,2.86.91,2.87,1.82,5.83.54,1.38.46,1.48.45,1.38.45,1.48.46,1.39.36,1.18h2.64l.54.1h4.83l.19.1h.54l.19.1h.27l.18.1.28.1.18.09.18.1.27.1.18.1.19.09.18.2.18.1.18.2.19.19.18.2.18.1.09.2.18.3.09.2.18.2.09.2.09.2.09.3.09.2.09.29.09.21v.29l.09.2v.3l.09.2v1.09Zm-38.15-30.24l-.37-1.28-.36-1.38-.37-1.28-.27-1.28-.18-.59-.54-1.97-.18-.6-.18-.68-.18-.59-.37-1.29-.18-.59-.45-1.28-.46-1.68-.27-.89-.27-.89-.27-.79-.27-.89-.27-.89-.27-.89-.64-1.68-.27-.89-.28-.89-.27-.88-.28-.89-.28-.89-.27-.89-.09-.1v-.2l-.09-.1v-.2h-.27l-.55.1-.19.5-.18.79-.46,1.48-.46,1.48-.45,1.48-.27.69-.18.79-.28.69-.18.69-1.55,5.14-.45,1.78-.55,1.68-.45,1.67-.73,2.57-.73,2.57-.27.89-.73,2.57-.46,1.68-.18.89-.09.39h.91l1.09-.09h13.29l1.73.09h1.64l-.09-.59-.73-2.57Z" fill="#fff"/><path d="m134.27,697.22v.2l-.09.2v.4l-.09.2-.09.2v.2l-.09.2-.09.1-.09.2-.09.2-.09.2-.18.1-.09.2-.09.2-.18.1-.1.1-.18.19-.09.1-.18.1-.18.09-.09.1-.18.1-.18.1-.18.1-.19.1h-.18l-.18.1h-.18l-.18.1h-.54l-2.19.1h-3.82l-1.46.1h-11.56l-.73-.1h-2.18l-.18-.1h-.37l-.18-.1h-.18l-.18-.1-.18-.1-.18-.1h-.18l-.18-.1-.18-.1-.09-.2-.18-.1-.18-.1-.09-.19-.18-.1-.09-.1-.09-.2-.18-.2-.09-.1-.09-.2-.09-.2-.09-.2-.09-.1-.09-.2v-.2l-.09-.2-.09-.2v-.4l-.09-.2v-1.08l.09-.2v-.2l.09-.2v-.2l.09-.2.09-.2v-.2l.09-.09.09-.2.09-.2.18-.2.09-.1.09-.2.09-.1.18-.2.09-.1.19-.2.18-.09.09-.1.18-.1.18-.09.18-.1.09-.09.18-.1.18-.09h.18l.18-.1h.18l.19-.09h2.09l.63.09h2.1v-3.45l-.09-1.38-.18-4.25-.18-2.76-.09-1.38-.09-2.87-.09-1.38-.09-1.49-.09-2.86-.09-1.38-.09-2.17v-1.49l-.09-1.68-.1-1.58v-.89l-.09-1.58v-1.68l-.09-1.68-.09-1.68-.09-1.58v-1.28l-.09-1.18-.09-1.28v-1.88l-1,.1h-1.64l-.18.1h-.37l-.18.1h-.63l-.18-.1h-.36l-.18-.1h-.18l-.18-.1-.18-.1-.18-.09-.19-.1h-.09l-.18-.1-.28-.2-.09-.1-.18-.09-.09-.2-.18-.1-.09-.1-.09-.2-.18-.2-.09-.1-.09-.2-.09-.2-.09-.1-.09-.2-.09-.2-.09-.2v-.2l-.09-.1v-.1l-.09-.1v-.39l-.1-.2v-1.18l.1-.2v-.2l.09-.2v-.2l.09-.2.09-.2v-.19l.09-.1.09-.2.09-.2.09-.1.18-.19.09-.2.09-.1.18-.2.09-.1.18-.1.18-.2.09-.1.18-.1.09-.09h.18l.09-.1.19-.1.18-.09h.09l.36-.1.18-.1h.18l.18-.09h2.73l1.18-.1,1.27-.09h.64l.64-.1h.55l.64-.1h1l1-.1,1.01-.1,1.01-.1h.91l1.01-.1,2-.1.91-.1,1-.1h1l.91-.1.45-.1h.91l.45-.1h.46l.45-.1h.45l.46-.1h.82l.18.1h.18l.18.1h.19l.18.1h.18l.18.1.18.1.18.1.18.1.18.1.09.2.18.1.18.1.1.2.18.09.09.2.09.1.18.2.09.2.09.2.09.2.09.2.09.2v.2l.09.2.09.19v.4l.09.2v.89l-.09.2v.4l-.09.2-.09.2v.2l-.09.2-.09.2-.09.2-.09.2-.09.1-.09.2-.18.19-.09.1-.18.2-.1.1-.18.2-.09.1-.18.1-.18.2-.18.09-.18.1h-.09l-.18.1-.19.09-.18.1h-.27l-.18.1h-.36l-.45.1h-.46l-.55.1h-.46l-.91.1h-.55l-.46.1-1,.1h-1l-.19.1v12.75l.09,2.37v4.74l.09,2.37v3.56l.09,1.08v2.37l.09,1.19v1.18l.09,1.19v1.18l.09.6.09,1.77v1.19l.09.2v.49l.09.69v.4l.09.49v.4l.09.59v.49l.09.2v1.48l.09.49v2.18h5.1l.18.09h.18l.18.1h.18l.19.09.18.1.18.09.18.1.18.09.09.1.18.1.18.2.09.09.19.1.09.2.09.1.18.2.09.19.09.1.09.2.09.2.09.2.09.2v.2l.09.2.09.2v.39l.09.2v.79Zm-25.14-57.9l.09.1v-.1h-.09Zm3.28-23.51v-.2l.09-.19v-.4l.09-.2v-.49l.09-.1v-.2l.09-.19.09-.1v-.2l.09-.1v-.2l.09-.09.09-.2.09-.1v-.2l.18-.29.09-.1.09-.1.09-.2.09-.1.09-.1.09-.1.09-.2.09-.1.18-.1.09-.1.09-.1.09-.1.18-.1.1-.1.08-.1.18-.1.09-.09.18-.1.09-.1h.18l.09-.09.18-.1.09-.09h.18l.18-.1h.09l.18-.1h.18l.09-.1h.45l.18-.1h1.18l.18.1h.28l.18.1h.18l.09.1h.09v-.1h.91l.27.1h.18l.18.1h.18l.1.09.27.1h.09l.09.09.27.1.09.1.18.09.18.1.09.1.09.1.19.2.18.2.09.1.09.1.09.2.09.1.09.1.09.1.09.2.1.3v.1l.09.2.09.2.09.2.09.2v.2l.09.2v.2l.09.2v.39l.09.3v1.09l-.09.2v.39l-.09.2v.3l-.09.2v.2l-.09.2-.09.2-.09.2v.19l-.09.2-.1.19-.09.11-.09.2-.18.19-.09.1-.09.2-.09.1-.1.19-.18.09-.09.2-.09.1-.18.1-.09.2-.09.1-.18.1-.09.09-.28.2-.09.1-.18.1-.09.1-.18.1h-.1l-.18.09-.09.1-.18.1h-.09l-.09.09h-.19l-.18.1h-.09l-.09.1h-.18l-.19.1h-.27l-.09.1h-.46l-.18.1h-1.27l-.18-.1h-.37l-.09-.1h-.18l-.18-.1h-.18l-.18-.1h-.09l-.18-.1-.18-.09-.18-.1-.18-.1-.18-.09-.18-.1-.08-.1-.19-.1-.18-.1-.18-.2-.18-.09-.09-.21-.18-.2-.09-.2-.18-.2-.09-.2-.18-.2-.09-.2-.09-.2-.09-.2-.18-.2v-.19l-.09-.3-.09-.2-.09-.21v-.29l-.09-.2v-.5l-.09-.2v-.69Z" fill="#fff"/><path d="m189.28,652.66l-.09.29-.09.2v.2l-.09.19c0,.1-.09.29-.09.29v.2l-.09.2-.09.2v.2l-.18.19-.09.21-.1.2c-1,1.77-3.45,2.66-5.28,2.86h-1.64l-.09-.1h-.36l-.18-.09h-.19l-.18-.1-.18-.1h-.18l-.18-.1-.18-.1-.09-.1-.18-.2-.09-.1-.09-.1-.18-.1-.09-.1-.09-.1-.09-.2-.09-.1-.09-.1v-.1l-.09-.1-.1-.09v-.1l-.09-.09-.09-.2-.09-.1v-.2l-.09-.2-.09-.2-.09-.2v-.2l-.09-.2v-.2l-.09-.2-.09-.3v-.39l-.09-.39v-.1l-.09-.39v-.2l-.09-.3v-.89l-.09-.2v-.49l-.09-.5v-.79c-.09-.2-.09-.5-.09-.5l-.18-.69-.09-.39-.1-.4-.08-.5v-.3l-.09-.2-.09-.49-.09-.3v-.49l-.09-.2v-.59l-.09-.2v-.29h-.91l-1.09-.1h-11.38v3.16l-.09,3.36v3.16l-.09,3.06v5.54l-.09,4.84-.09,4.35v3.85l-.09,6.32-.09,2.47v8.1h1.46l.55.1h3.46l.36-.1h1.27l.18-.1h.09c.46,0,.73-.09.73-.09h1l.27.09h.18l.18.1.28.1h.18l.18.1.18.1.18.2.18.1.18.09.19.2.18.1.18.2.09.2.18.2.09.2.09.2.18.2.09.2.09.2.09.19v.3l.1.2.09.2v1.68l-.09.2v.29l-.1.2-.09.2-.09.29-.09.2-.09.2-.09.2-.09.2-.19.2-.09.2-.19.1-.08.2-.18.2-.19.09-.18.2-.18.1-.18.1-.18.1-.18.09-.27.1-.18.1h-.18l-.27.1h-.1l-.18.09h-.55l-.18.1h-.91l-.18.1h-2.46l-.46.1h-.91l-.55-.1h-3.64l-.54-.1h-2.19l-1.18-.1h-1.1l-2.28-.09-1.09-.1h-2.18l-1-.1h-2l-.45-.1h-3.83l-.18.1h-1.55l-.18-.1h-.18l-.18-.09-.27-.1h-.18l-.18-.1-.18-.2-.19-.1-.18-.09-.18-.2-.18-.1-.19-.2-.09-.1-.18-.2-.09-.2-.18-.2-.09-.2-.09-.2-.09-.2-.1-.2-.08-.3-.1-.2-.09-.2v-.5l-.09-.2v-.99l.09-.2v-.3l.09-.2v-.2l.1-.19.08-.29.1-.2.09-.2.18-.2.09-.21.09-.2.18-.2.09-.2.18-.09.18-.2.18-.1.18-.2.18-.1.18-.1.19-.1.18-.1.18-.09.27-.1h.18l.45-.1h.09l.27-.09h1.55l.36-.1h2l.36.1h2.19v-3.36l-.09-.99v-1.97l-.09-.99v-1.98l-.09-1.98v-1.88l-.1-1.88-.09-3.46-.09-1.68v-1.58l-.09-1.48v-1.39l-.09-.69v-2.76l-.09-.99v-2.07l-.09-.99v-1.98l-.09-1.09-.09-1.97v-2.07l-.09-.99v-2.08l-.09-.89v-.79l-.09-.39v-1.58l-.09-.2v-.69c0-.1-.09-.1-.09-.1l-.46.1h-.36l-.18.1h-.27l-.27.1h-.18l-.19.1h-1.27l-.18-.1h-.18l-.09-.1-.19-.1-.18-.1-.18-.1-.18-.2-.19-.1-.08-.2-.19-.1-.09-.2-.18-.2-.09-.2-.09-.3v-.2l-.09-.2-.09-.3v-.88l.09-.2v-.3l.09-.2.09-.19.09-.2.09-.19.09-.1.09-.2.1-.1.17-.19.1-.1.09-.09.18-.1.09-.1.18-.09.18-.1.28-.09.18-.1h.18l.27-.1h.46l.28-.1h.27l.09-.1h.63l.45-.1.45-.1h.46l.46-.1h.45l.46-.1h.36l.64-.1h.73l.63-.1h.64l.64-.1h.63l.64-.1h1.27l.64-.1h2.55l.73-.1h11.75l1.18.1h4.47l.54.1h3.83l.27.1h.46l.27.1h.27l.36.1h.27l.27.1h.18l.18.1h.18l.09.1h.18l.18.1.18.1h.09l.19.1.18.1.18.1.09.1.18.09.18.1.18.09.18.1.09.1.19.2.18.1.09.2.19.1.09.1.09.1.09.1.09.1v.1l.09.1.27.3v.1l.09.1.09.1v.1l.09.3.09.1.1.19.09.2.09.2.09.2.09.2.18.5.09.2.09.39.09.2.1.5v.2l.09.2.09.69.09.39.09.4v.69l.09.2v.39l.09.39v.79l.09.4v1.48l.09.69v.79l.09.3v.69Zm-42.98-8.69h.09l-.18.1.09-.1Z" fill="#fff"/><path d="m221.6,697.42v.2l-.09.2v.4l-.09.2-.09.2v.2l-.09.2-.09.2-.09.2-.09.2-.09.09-.18.2-.09.2-.09.1-.18.19-.09.1-.18.1-.09.2-.18.1-.18.1-.1.1-.18.1-.19.1-.18.1h-.18l-.18.1-.19.1h-.36l-.18.1h-3.83l-1.27.09h-5.56l-1.46.1h-3.73l-.73-.1h-4.92l-.63-.09h-.55l-.18-.1h-.19l-.18-.1h-.18l-.18-.1-.18-.1-.19-.1-.18-.1-.18-.1-.09-.1-.18-.1-.19-.2-.09-.1-.18-.1-.09-.19-.09-.1-.18-.2-.09-.2-.09-.09-.1-.2-.08-.2-.09-.2-.09-.2v-.2l-.09-.2-.09-.2v-.4l-.09-.2v-.99l.09-.2v-.2l.09-.2v-.2l.09-.2.09-.2v-.2l.09-.2.08-.2.1-.1.18-.2.09-.2.09-.09.09-.2.18-.1.09-.2.18-.1.19-.1.09-.2.18-.09.18-.1.19-.1.09-.09h.18l.18-.1.18-.09h.18l.19-.1h.55l.18-.09h.27l.64.09h3.37v-3.36l-.09-1.38-.19-4.25-.18-2.77-.09-1.48-.09-2.77-.09-1.48-.09-1.38-.09-2.87-.09-1.38-.09-2.17v-1.49l-.09-1.68-.09-1.68v-.8l-.09-1.68v-1.58l-.1-1.68-.09-1.68-.09-1.68v-1.18l-.09-1.18-.09-1.29v-1.88h-1.18l-.19.1h-.54l-.27-.1h-.27l-.18.1h-.19l-.18.1h-1.37l-.18-.1h-.18l-.18-.1h-.19l-.18-.1-.18-.1-.18-.1-.09-.1-.18-.09-.27-.1-.09-.1-.18-.2-.09-.1-.19-.19-.09-.1-.09-.1-.18-.19-.09-.2-.09-.1-.09-.19-.09-.2-.09-.2-.09-.1-.09-.2v-.2l-.09-.19-.09-.2v-.29l-.09-.2v-1.18l.09-.2v-.2l.09-.19v-.2l.09-.2.09-.2v-.19l.09-.19.09-.1.09-.2.09-.2.18-.1.09-.2.09-.2.18-.1.09-.1.18-.2.18-.1.09-.1.18-.1.1-.1.18-.1.09-.1h.18l.18-.09.09-.1.37-.1h.18l.18-.09h.18l.28-.1h1.55l.45.1h.46l1.18-.1,1.28-.1h.64l.64-.09h.54l.64-.1,1-.09,1-.1h1l1-.1.91-.1h1l2-.2h.91l1-.1,1-.1.91-.1h.46l.91-.1h.45l.46-.1h.45l.45-.1h1.46l.19.1h.18l.18.1h.18l.18.1.18.1.18.1.18.1.19.1.18.1.09.1.19.1.18.19.09.1.18.19.09.1.09.2.18.19.09.1.09.2.09.2.09.2.09.2v.2l.09.19v.2l.09.2v.2l.09.19v.89l-.09.19v.4l-.09.2-.09.2v.2l-.09.2-.09.2-.09.2-.09.2-.09.2-.09.2-.19.1-.09.19-.18.1-.09.2-.18.1-.09.2-.18.09-.18.1-.19.1-.18.09-.18.1-.18.1h-.18l-.18.1-.18.1h-.37l-.18.1h-.45l-.46.1h-.55l-.45.1h-.91l-.55.1h-.45l-1,.1-1,.09h-.18v15.12l.09,2.38v4.74l.09,1.18v2.38l.09,1.18v2.37l.09,1.19v1.18l.09,1.18v1.09l.09.6.09,1.77v1.38l.09.2v.3l.09.69v.49l.09.39v.5l.09.49v.8l.09.29v1.09l.1.59v2.17h2.18l2.19-.09h.54l.18.09h.18l.18.1h.19l.18.09.18.1h.18l.19.09.18.1.18.1.09.09.18.2.18.1.09.1.18.2.09.1.09.2.19.09.09.2.09.2.09.19.09.1.09.2.09.2v.2l.09.2.09.2v.39l.09.2v.79Zm-25.13-57.8h.09-.09Z" fill="#fff"/><path d="m290.9,640.02v.4l-.09.19v.2l-.09.2-.09.2v.19l-.09.2-.09.2-.09.09-.09.2-.1.2-.18.19-.09.1-.09.2-.18.1-.09.2-.19.1-.18.1-.09.1-.18.1-.18.2h-.18l-.18.1-.18.1-.18.1h-.18l-.19.1h-.18l-.18.1h-1.1l-.91-.1h-1.91l-.55-.1v.79l-.09.59v6.12l-.09,2.08v9.78l-.1,2.57v9.09l-.09,1.18v3.66l-.09,1.09v3.26l-.09,1.09v2.76l-.09.79v1.18l-.09.3v1.28l-.09.2h1.27l.37.1h1.55l.63.1h.91l.18.1h.27l.1.1h.18l.09.09h.18l.09.1.18.09h.09l.18.1.09.09.09.1.18.09.09.1.09.09.18.1.09.1.09.09.09.1.09.09.1.2.09.1.09.1.09.2.09.1.09.09v.2l.09.1.09.2v.09l.09.2v.1l.1.2v.3l.09.2v1.28l-.09.1v.3l-.1.2v.1l-.09.2v.1l-.09.2-.09.1v.2l-.09.1-.09.2-.09.1-.09.1-.09.2-.1.1-.09.1-.09.09-.09.1-.09.2-.18.1-.09.1-.09.09-.18.1h-.09l-.09.1-.18.1-.09.09h-.18l-.09.1h-.18l-.09.1h-.18l-.1.1h-.27l-.18.1h-1.36c-4.74-.4-9.47.49-14.21-.59h-.18l-.09-.1h-.18l-.27-.1-.18-.09-.18-.2-.18-.1-.19-.1-.18-.1-.27-.3-.09-.1-.09-.1-.1-.1-.09-.1-.19-.1-.18-.2-.18-.2-.18-.1-.09-.2-.18-.2-.18-.1-.09-.2-.09-.1-.18-.2-.18-.39-.28-.29-.18-.29-.18-.29-.36-.59-.27-.3-.18-.39-.18-.3-.19-.29-.37-.59-.36-.6-.45-.69-.37-.59-.37-.6-.73-1.19-.36-.69-.37-.59-.36-.6-.37-.59-.45-.79-.55-.88-.54-.79-.46-.89-.54-.79-.46-.89-.54-.79-.46-.89-.54-.89-.45-.79-.46-.89-.55-.78-.91-1.78-.55-.88-.45-.79-.46-.89-.55-.89-.45-.89-.45-.79-.46-.89-.46-.89-.46-.89-.45-.89-1.46-2.56-.18-.4v1.68l.09,3.76v9.78l.09,1.88v9.88l-.09.59v.2h3.37l.63.1h1.73l.36.1h1l.18.1h.18l.18.1h.18l.19.09.18.1.18.09.18.1.19.09.18.1.09.09.18.1.19.2.09.1.18.2.09.09.09.2.18.2.09.1.09.2.09.2.09.2v.2l.08.2.1.2v.2l.09.2v.4l.09.2v.6l-.09.29v.39l-.09.2v.2l-.1.2-.08.2-.09.2-.09.1-.09.2-.09.2-.09.2-.09.1-.18.2-.09.2-.09.1-.18.1-.18.2-.09.1-.18.09-.18.1-.09.1-.18.1-.18.09-.18.1-.19.1h-.18l-.18.1h-.18l-.18.1h-1.09l-1.01-.1h-1.28l-.63-.1h-8.47l-1.37.1h-9.28l-.19-.1h-.36l-.18-.1-.18-.1h-.18l-.18-.09-.18-.1-.09-.1-.18-.1-.19-.09-.18-.2-.09-.1-.19-.1-.09-.2-.18-.1-.09-.2-.09-.1-.18-.2-.09-.2-.09-.2-.09-.1-.09-.2-.09-.2v-.2l-.09-.2-.09-.2v-.39l-.1-.29v-.79l.1-.2v-.4l.09-.2v-.2l.09-.2.09-.2.09-.2.09-.2.09-.2.09-.1.09-.2.09-.2.18-.09.09-.2.09-.1.18-.2.18-.1.09-.2.18-.09.18-.1.18-.09.09-.1.18-.09h.19l.18-.1.18-.1h.18l.18-.1h7.64v-.59l-.08-.59v-1.77l-.1-.69v-3.66l-.09-1.58v-3.26l-.09-1.78v-5.24l-.09-3.56v-3.56l-.1-3.36v-5.93l-.09-1.18v-2.67l-.09-.5v-1.58l-.09-1.29-.09-.39v-.89l-.09-.79-.09-.89v-.89l-.09-.89v-.39h-4.19l-2.28-.1h-3.1l-.18-.1h-.36l-.09-.1h-.18l-.18-.1h-.19l-.09-.1-.19-.1h-.09l-.18-.1-.18-.1-.09-.1-.18-.1-.09-.1-.09-.2-.18-.1-.1-.1-.09-.1-.09-.2-.18-.1-.09-.2-.09-.09-.09-.2v-.1l-.09-.19-.09-.1-.09-.2v-.2l-.09-.2v-.1l-.09-.2v-.19l-.09-.2v-1.19l.09-.2v-.39l.09-.1v-.2l.09-.2.09-.1v-.2l.09-.2.09-.1.09-.19.09-.1.09-.2.09-.1.09-.09.18-.2.1-.1.09-.1.18-.19.09-.1.18-.1.09-.09.18-.1.09-.09h.18l.09-.1.18-.1.19-.1h.09l.18-.1h.36l.1-.1h5.74l1,.1h4.37l.46.1h1.82l.55.1h2.92l.18.1h.46l.27.1h.46l.27.09.46.1.18.09.27.1h.18l.27.1.18.09.18.1.27.1.37.2.27.2.18.1.18.1.18.1.27.2.18.1.37.3.18.2.18.1.19.2.18.2.18.2.18.1.18.19.09.1.09.09.09.1.09.1.1.3.18.2.09.1.09.1v.1l.09.1.28.49.09.1v.1l.37.59.27.59.27.6.27.59.27.49.27.6.55,1.18,1.46,2.77.27.59.27.5.36.59.28.6.27.49.64,1.19.55,1.08.64,1.08.54,1.09.64,1.18.64,1.09.55,1.09.63,1.08.64,1.19.54,1.09.64,1.09,1.27,2.17,1.19,2.28.91,1.58v-2.47l.09-1.67v-3.36l.1-1.67v-1.68l.09-1.68v-1.58l.09-1.67.1-1.58v-1.49l.09-1.48.09-1.48v-1.38l.09-.59v-1.09h-5.1l-.18-.1h-.37l-.18-.1-.18-.1h-.18l-.18-.1-.18-.1-.18-.1-.1-.1-.18-.1-.19-.1-.08-.2-.19-.1-.18-.2-.09-.1-.09-.2-.18-.1-.1-.2-.08-.2-.1-.2-.09-.09-.09-.2-.09-.19v-.2l-.09-.2-.09-.2v-.39l-.09-.2v-1.08l.09-.2v-.2l.09-.19v-.2l.09-.2.09-.2.09-.19v-.2l.19-.2.08-.1.1-.19.09-.2.09-.1.18-.2.09-.1.18-.2.1-.1.18-.1.18-.19.19-.1.18-.09.09-.1.19-.09h.17l.18-.1.18-.1h.19l.18-.1h9.47l1.36-.1h8.83l.63.1h2l.37.1h.73l.18.1h.18l.18.1h.19l.18.09.18.1.18.09.18.1.18.1.18.09.09.1.18.1.18.2.09.1.18.2.09.1.09.2.09.1.18.2.09.2.09.2.09.19v.2l.09.2.09.2v.19l.09.2v.4l.09.19-.09.2v.49Zm-8.56,4.05l-.18.2.27-.29-.09.1Z" fill="#fff"/><path d="m369.49,696.93l-.09.2v.49l-.09.2-.09.2v.2l-.09.2-.09.1-.09.2-.09.2-.18.2-.09.2-.09.1-.18.2-.09.09-.19.2-.09.1-.18.1-.18.2-.18.1-.09.1-.18.1-.19.09h-.18l-.19.1-.18.1h-.36l-.28.1h-2.55l-.91-.1c-4.1,0-8.29.2-12.39.29-1.55.1-3.19-.1-4.83.2-2.09.3-4.92.49-6.19-1.68l-.09-.2-.1-.2-.09-.2-.09-.2-.1-.2-.09-.2v-.2l-.09-.2v-.39l-.09-.1v-.79l.09-.2v-.39l.09-.2v-.1l.09-.2v-.2l.1-.2.09-.2.09-.29.1-.2.18-.1.09-.2.09-.19.09-.1.18-.2.09-.1.18-.2.09-.09.18-.2.18-.1.18-.1.19-.09.18-.1.09-.09h.18l.18-.1.27-.09h.18l.18-.1h1.09l.28.1h.55l-.09-.39-.18-.49-.18-.59-.09-.59-.18-.5-.37-1.08-.09-.6-.36-1.09-.27-1.09-.27-1.08-.28-1.09h-.54l-.91-.1h-2.19l-.45-.1h-12.84l-.91.1h-2.19l-.27.99-.27,1.19-.09.6-.18.59-.09.6-.09.59-.18.59-.18.5-.09.69-.18.59-.19.6v.29l-.08.29-.27.89-.09.3h.18l1.09.1h1l.18.09h.18l.18.1.18.09h.18l.18.1.18.1.19.1.09.1.18.1.18.2.09.09.18.1.09.2.18.1.09.19.09.2.18.1.09.2.09.2.09.2.09.1v.2l.09.2.09.2v.19l.1.2v1.68l-.1.2v.2l-.09.2v.2l-.09.2-.09.09-.09.2-.09.2-.09.2-.09.2-.19.1-.09.2-.09.1-.18.2-.09.1-.18.2-.1.1-.18.1-.18.1-.19.09-.09.1-.18.1-.18.1h-.18l-.18.1-.18.09h-.37l-.18.1h-1.09l-.46-.1h-12.84l-1,.1h-5.37c-.91,0-1.82.1-2.73-.39h-.19l-.09-.1-.18-.1-.18-.09-.18-.1-.09-.2-.18-.1-.18-.1-.09-.2-.09-.1-.19-.2-.09-.19-.09-.1-.09-.19-.09-.2-.09-.2-.09-.1-.09-.2-.09-.2v-.2l-.09-.2v-.2l-.09-.2v-1.29l.09-.2v-.19l.09-.2v-.2l.09-.2.09-.2v-.2l.09-.1.09-.2.09-.2.18-.2.09-.09.09-.2.09-.1.09-.1.09-.1.09-.1.18-.1.09-.09.09-.1.09-.1.27-.2.27-.1.27-.2.37-.09.27-.1.18-.09h.18l.27-.1h.46l.09-.1h3l.46.1h.91l.63.1h.65v-.21l.08-.29.18-.5.27-.99.55-1.48.27-1.09.18-.49.55-2.08.18-.5c.46-1.48-.18-1.18-1.46-1.28-1.18-.1-2.28-.3-3.19-1.18l-.18-.3-.18-.2-.18-.3-.18-.29-.09-.2-.09-.2-.1-.19v-.3l-.09-.3-.09-.19v-.6l-.09-.29v-.2l.09-.2v-.49l.09-.2v-.29l.09-.2.1-.19.09-.2.09-.19.09-.2.09-.21.09-.09.18-.2.09-.09.1-.2.18-.19.09-.1c.09,0,.18-.2.18-.2l.18-.1.09-.1.27-.2.36-.2.27-.1.36-.1.27-.09.27-.1h.55l.18-.1h1.1l.73.1h.9l.45.1h.82c.18,0,.46-.99.46-.99l.55-2.17.55-2.08.55-2.07.54-2.18.55-2.07.54-2.18.28-.99.27-1.09.37-1.49.36-1.38.37-1.48.36-1.38.45-1.48.73-2.87.18-.69.27-.79.28-.99.18-.79h-1.46l-1.54.1h-3.1l-.27-.1h-.27l-.28-.1-.27-.1-.28-.2-.27-.1-.28-.09-.27-.2-.27-.2-.19-.2-.18-.19-.28-.3-.18-.2-.18-.29-.09-.3-.18-.3-.09-.2-.09-.29-.09-.4-.09-.3-.09-.3v-1.58l.09-.29.09-.29.09-.3.09-.3.09-.3.18-.3.18-.3.19-.29.17-.2.19-.19.18-.3.27-.2.19-.19.27-.1.28-.2.27-.1.28-.09.27-.1.28-.1.27-.1h.82l.28-.1h15.39l1.09.1h3.37l.45.1h1.55l.37.1h1l.27.1h.64c.09.09.18,0,.18,0h1.28l.27.09h.27l.27.1.36.1.27.2.27.1.27.2.18.2.28.2.27.19.18.3.18.2.18.3.19.3.18.3.09.3.09.3.09.29.18.69.09.2c0,.2.09.4.09.4l.09.19.09.3.09.09v.2l.09.2v.29l.09.2v.3l.09.2.09.39.18.5.09.49.18.39.09.5.09.3.09.39.18.3.09.3.09.39.18.59.09.39.27.69.18.6.27.69.27.69.18.7.28.69.45,1.38.46,1.39.55,1.38.36,1.19.46,1.18.37,1.19.45,1.18.36,1.19.36,1.18.46,1.19.37,1.18.36,1.19.46,1.18.37,1.19.36,1.28.36,1.19.46,1.19.73,2.37,1.55,4.74.73,2.37.73,2.38.81,2.37.37,1.19.36,1.18.45,1.09.27.99h3.55l1,.1h2.36l.18.1h.37l.18.1.27.1h.09l.19.09.18.1.18.09.18.1.18.2.09.09.18.1.19.2.09.1.18.2.09.09.09.2.09.2.19.2.09.1.09.2v.2l.09.2.09.2v.2l.09.2v.2l.09.29v.99Zm-31.32-24.8l-.27-1.09-.27-.99-.28-1.09-.37-1.09-.27-1.09-.27-.99-.18-.59-.09-.49-.19-.5-.27-1.09-.46-1.48-.27-.8-.19-.69-.27-.69-.36-1.38-.27-.69-.46-1.49-.46-1.38-.45-1.48-.28-.69-.18-.7-.27-.79-.19-.69-.09-.1v-.2l-.09-.1v-.1h-.63l-.19.49-.18.59-.18.59-.18.69-.37,1.18-.36,1.19-.18.6-.19.59-.18.59-.18.59-.82,2.87-.82,2.76-.46,1.38-.36,1.48-.46,1.38-.73,2.77-.64,2.18-.36,1.38-.36,1.39-.09.3h13.47l1.37.1h.54l-.19-.5-.54-2.17Z" fill="#fff"/><path d="m413.57,698.22c-5.19,3.26-11.38,3.95-17.39,3.46-7.38-.7-14.94-3.27-20.03-9.2-4.01-4.64-8.65-18.67-1.64-23.02,0-.1.28-.2.28-.2l.27-.1.27-.1.28-.1.27-.1h1.18l.27.1.28.1.27.1.27.1.27.1.27.2.19.2.27.2.18.2.18.2.27.3.1.2.18.29.18.3.09.3.09.3.1.29.09.3v1.58l-.09.3-.1.3-.09.29-.09.2-.09.2v.2l-.09.2-.09.2v.2l-.09.39-.1.2v.19l-.09.2v.21l-.09.2v.49l-.09.2v2.47l.09.2v.3l.09.09v.3c1.64,7.02,13.11,13.74,19.03,9.39l.1-.1.18-.2h.09l.1-.1.18-.19h.09l.09-.11v-.09l.09-.1.09-.1.09-.1.19-.09v-.1l.09-.1.09-.1c2.37-3.26,2.55-7.61.91-11.26v-.2l-.09-.2-.09-.1-.1-.19-.08-.2-.1-.21-.09-.09-.18-.4-.18-.1-.09-.19-.09-.2-.09-.1-.18-.29c-1.09-1.38-2-2.77-3.46-3.66-2.55-1.48-5.37-2.37-8.11-3.46l-.36-.2-.27-.1-.37-.2-.37-.09-.27-.2-.73-.3-.28-.1c-5.37-2.77-11.65-7.61-12.56-14.43-.91-6.53,3.73-12.75,9.29-15.42,5.73-2.76,12.93-2.96,19.21-2.57h.37l.82.1h.36l.36.09h.36l.37.1h.45c-.09-.1-.18-.3-.18-.3v-.2l-.09-.1v-.2l-.09-.3v-.4l-.09-.09v-.89l.09-.2v-.3l.09-.2v-.2l.09-.1v-.2l.09-.2.09-.1v-.19l.09-.1.09-.2.09-.1.09-.2.09-.1.09-.2.18-.1.09-.1.09-.2.18-.1.09-.1.18-.09.09-.1.18-.1.18-.1.09-.1.18-.1.19-.09h.09l.18-.11h.19l.18-.1h.27l.36-.1h.64l.18.1h.27l.18.1h.18l.09.11h.18l.18.09.09.1.18.1.19.1.09.1.18.1.09.09.18.1.09.1.18.2.09.1.09.1.19.2.09.1c.91,1.38,1.37,3.16,1.91,4.84,1.92,5.14,4.19,11.07,4.83,16.7v1.48l-.09.09v.2l-.1.2v.2l-.09.2-.09.1-.09.2-.09.2-.09.1-.09.19-.09.2-.09.1-.09.1-.19.2-.09.09-.09.1-.18.2-.09.1-.18.1-.1.09-.18.1-.18.1-.09.1h-.18l-.18.1-.18.1h-.19l-.09.1h-.55l-.18.1h-.55l-.18-.1h-.28l-.18-.1h-.18l-.18-.1h-.18l-.09-.1-.18-.1-.18-.1h-.09l-.18-.1-.18-.2-.09-.1c-2.28-1.88-2.56-6.52-3.28-9.38l-.27-1.18-.09-.2c0-.09-.27-.09-.27-.09l-.18-.1-.27-.1h-.18l-.27-.1-.18-.1h-.27l-.27-.1-.27-.1h-.28l-.54-.1-.27-.09h-.27l-.27-.1h-.37l-.28-.1h-.27l-.36-.1h-.27l-.36-.1h-.27c-3.83-.39-8.47-.39-11.47,2.67-1.46,2.37-1.55,2.47-1.55,2.47-.09.39-.09.5-.09.5-.09.3-.18.39-.18.39v.2c0,.1-.09.29-.09.29v.29c0,.1-.09.2-.09.2v.4c-.09.1-.09.19-.09.19-.27,2.47.18,6.62,2.27,8.11,1,.69,2.46,1.08,3.64,1.48l.64.3.27.09.36.1c5.37,2.87,11.65,2.77,17.03,6.13,4.73,2.96,8.74,8.1,9.2,14.04,0,.49.09.88.09,1.38-.09,5.93-3.73,11.56-8.56,14.63Z" fill="#fff"/><path d="m113.62,289.07l41.88-.65.07,7.17H12.02l.27-7.26,33.43.19.8-227.13L.07,93.44l-.07-7.17L113.54,3.67l.08,285.41Z" fill="#fff"/><path d="m505.41,61.49c0,29.16-25.39,48.4-54.36,48.4s-54.15-19.24-54.15-48.4,25.59-48.6,54.15-48.6,54.36,19.44,54.36,48.6Zm-39.28-24c0-16.67-6.95-20.83-15.08-20.83s-14.87,4.17-14.87,20.83v47.8c0,16.67,6.94,20.83,14.87,20.83s15.08-4.16,15.08-20.83v-47.8Z" fill="#fff"/><path d="m409.34,5.88c-54.59,51.22-146.11,149.47-146.11,199.02,0,23.51,21.41,39.05,21.41,59.62s-13.01,34.43-34.43,34.43c-25.19,0-38.62-16.38-38.62-37.78,0-48.28,78.09-139.82,118.4-186.84l-1.26-.84c-29.81,12.18-60.04,18.05-91.53,18.05-16.38,0-32.33-1.25-47.87-5.87l-9.66,28.12-8.81-2.93L207.39,0l7.97,2.52-2.94,10.08c28.56,8.39,57.94,10.91,86.49,10.91S371.55,14.7,404.3,0l5.04,5.88Z" fill="#fff"/><path d="m30.43,790.6v1.4h-12.42v-1.4l4.38-.91h3.77l4.26.91Zm-4.54-20.82l.45.34-.13,4.89v9.8c0,2.36.03,4.8.1,7.18h-4.11c.06-2.39.1-4.82.1-7.18v-11.83l-3.72.34v-1.69l7.31-1.85Z" fill="#fff"/><path d="m45.52,772.32l.71,1.28h-12.52v-3.5h13.85v2.18l-7.63,19.71h-3.67l-.32-.34,9.57-19.33Z" fill="#fff"/><path d="m56.77,790.21c.65,0,1.24-.28,1.97-.86l.76.87c-.83,1.42-2.25,2.25-4.24,2.25-2.58,0-4.13-1.31-4.13-4.33,0-1.01.03-1.83.03-3.17v-7.33h-2.39v-1.76l3.9-.54-1.57,1.26,1.51-5.77h2.59l-.16,6.09v10.84c0,1.69.7,2.44,1.72,2.44Zm2.18-14.63v2.07h-5.83v-2.07h5.83Z" fill="#fff"/><path d="m62.17,770.08l-2.33-.34v-1.33l5.76-1.54.49.31-.13,4.83v7.02l.1.44v5.33c0,2.13.03,5.66.1,7.2h-4.07c.06-1.54.1-5.07.1-7.2v-14.72Zm5.81,20.52v1.4h-7.96v-1.4l3.26-.69h1.57l3.13.69Zm7.9-9.38v3.58c0,2.19.03,5.66.1,7.2h-4.07c.06-1.54.1-5.01.1-7.2v-3.25c0-2.7-.6-3.59-2.21-3.59-1.4,0-2.76.84-4.33,2.57h-.92v-2.01h1.88l-1.34.79c1.89-2.83,4.1-4.22,6.4-4.22,2.81,0,4.41,1.88,4.41,6.12Zm-1.19,8.69l3.19.69v1.4h-7.97v-1.4l3.23-.69h1.56Z" fill="#fff"/><path d="m85.45,790.39l3.27-.51h.61l3.3.51v1.61h-7.18v-1.61Zm9.38-21.24h2.64l7.33,22.85h-4.28l-5.98-19.45.98-.88-6.36,20.33h-1.72l7.38-22.85Zm-3.62,14.04h8.7l.62,1.79h-9.85l.53-1.79Zm5.88,7.24l3.85-.51h1.41l4.07.51v1.57h-9.33v-1.57Z" fill="#fff"/><path d="m121.15,782c0,.76-.07,1.37-.2,1.88h-12.26v-1.63h6.84c1.55,0,1.93-.7,1.93-1.95,0-2.1-1.28-3.55-2.87-3.55-1.7,0-3.49,1.7-3.49,6.63,0,4.27,2,6.37,4.81,6.37,1.9,0,3.14-.88,4.21-2.13l.93.87c-1.24,2.56-3.44,3.99-6.47,3.99-4.51,0-7.59-3.23-7.59-8.6s3.76-8.78,7.84-8.78c3.79,0,6.32,2.75,6.32,6.9Z" fill="#fff"/><path d="m135.15,795.14c0-1.27-.76-2.33-2.81-2.33h-3.59c-.99,0-1.89-.08-2.55-.32v-.17c-1.64-.47-2.4-1.46-2.4-2.82,0-1.5.97-2.94,3.06-4.79l.78.54c-.72.88-1.04,1.54-1.04,2.48,0,.86.43,1.42,1.87,1.42h4.01c4.19,0,5.87,1.83,5.87,4.7,0,3.22-2.96,6.15-8.68,6.15-5,0-6.79-1.82-6.79-4.1,0-1.68,1.08-2.99,3.92-4.17l.32.26c-.98,1.19-1.37,1.98-1.37,3.19,0,2.15,1.5,3.03,4.23,3.03,3.39,0,5.16-1.35,5.16-3.07Zm-5.26-20.04c3.95,0,6.25,2.08,6.25,5.58s-2.34,5.55-6.27,5.55-6.27-2.09-6.27-5.55,2.34-5.58,6.29-5.58Zm-2.72,5.58c0,2.46.9,4.05,2.64,4.05s2.78-1.65,2.78-4.14-.96-4-2.68-4-2.74,1.62-2.74,4.08Zm10.93-5.62l.5.34v2.39h-4.68v-1.03l4.18-1.71Z" fill="#fff"/><path d="m141.88,792c.06-1.54.1-5.07.1-7.2v-1.62c0-1.89-.03-2.95-.1-4.32l-2.31-.31v-1.28l5.83-2.17.52.36-.1,4.81v4.54c0,2.13.03,5.66.1,7.2h-4.03Zm5.93-1.4v1.4h-7.99v-1.4l3.26-.69h1.56l3.18.69Zm-6.4-21.14c0-1.45,1.08-2.45,2.44-2.45s2.44,1,2.44,2.45-1.08,2.45-2.44,2.45-2.44-1.02-2.44-2.45Z" fill="#fff"/><path d="m151.45,792c.06-1.54.1-5.07.1-7.2v-1.8c0-1.89-.03-2.77-.1-4.14l-2.27-.31v-1.28l5.39-2.17.52.36.34,3.89v5.45c0,2.13.03,5.66.1,7.2h-4.07Zm5.93-1.4v1.4h-7.96v-1.4l3.26-.69h1.57l3.13.69Zm7.8-9.38v3.58c0,2.19.03,5.66.1,7.2h-4.07c.06-1.54.1-5.01.1-7.2v-3.25c0-2.68-.64-3.59-2.25-3.59-1.38,0-2.82.8-4.37,2.44h-.89v-1.88h1.92l-1.3.79c1.89-2.83,4.09-4.22,6.39-4.22,2.78,0,4.38,1.88,4.38,6.12Zm-1.19,8.69l3.19.69v1.4h-7.97v-1.4l3.23-.69h1.56Z" fill="#fff"/><path d="m174.53,782.73c1.34-.46,3.5-1.09,5.07-1.44v1.33c-1.49.36-3.31.94-4.26,1.37-2.17.92-2.81,2.15-2.81,3.46,0,1.77.99,2.52,2.27,2.52.87,0,1.44-.36,2.96-1.52l.98-.78.39.61-1.15,1.28c-1.74,1.91-2.79,2.92-4.95,2.92-2.42,0-4.27-1.5-4.27-4.34,0-2.18,1.12-3.81,5.77-5.42Zm3.07,6.29v-8.21c0-3.2-.72-4.06-2.82-4.06-.77,0-1.66.1-2.96.55l1.76-1.2-.53,2.66c-.18,1.65-.95,2.39-2.01,2.39s-1.66-.55-1.82-1.55c.39-2.73,2.88-4.51,6.83-4.51,3.73,0,5.36,1.74,5.36,6.2v7.48c0,1.1.36,1.54.96,1.54.44,0,.75-.25,1.11-.75l.75.68c-.77,1.59-1.79,2.18-3.32,2.18-1.99,0-3.17-1.3-3.31-3.4Z" fill="#fff"/><path d="m184.04,777.1l-.6-1.11c1.65-1.24,2.94-2.71,3.58-5.06l.06,1.91-1.74-1.49c-.98-.83-1.26-1.64-1.26-2.54,0-1.45.93-2.29,2.16-2.29.8,0,1.43.32,1.94.8.36.8.56,1.71.56,2.63,0,3-2.04,5.65-4.7,7.15Z" fill="#fff"/><path d="m188.25,791.04l-.02-3.98h2.16l.8,4.32-1.7-.73v-1.29c1.27.91,2.45,1.39,4,1.39,2.16,0,3.25-.85,3.25-2.33,0-1.27-.78-2-2.86-2.73l-1.61-.56c-2.42-.85-3.9-2.4-3.9-4.86,0-2.82,2.18-5.19,6.15-5.19,1.82,0,3.27.5,4.8,1.39l-.18,3.61h-2.11l-.79-3.85,1.48.69v1.08c-1.09-.82-1.99-1.2-3.29-1.2-1.71,0-2.71.8-2.71,2.14,0,1.24.64,1.86,2.84,2.64l1.27.43c3.14,1.12,4.37,2.82,4.37,5.16,0,3.09-2.43,5.3-6.77,5.3-1.96,0-3.56-.48-5.2-1.44Z" fill="#fff"/><path d="m208.69,790.39l3.57-.51h.79l3.17.51v1.61h-7.53v-1.61Zm.14-21.13h4.43l.02,2.12h-.46l-4-.51v-1.61Zm2.87,0h1.6l.27,11.06v11.68h-1.87v-22.74Zm.12,0h4.19l6.83,18.6h-1.08l6.46-18.6h1.92l-7.92,22.74h-2.04l-8.37-22.74Zm14.17,21.13l4-.51h1.07l4.44.51v1.61h-9.51v-1.61Zm2.6-8.65l.06-12.48h4.18c-.1,3.49-.1,7.05-.1,10.63v1.49c0,3.56,0,7.12.1,10.63h-4.33c.1-3.49.08-7.05.1-10.26Zm2.05-12.48h4.8v1.61l-4.38.51h-.42v-2.12Z" fill="#fff"/><path d="m242.1,786.16c0,2.59.74,3.46,2.17,3.46s3.07-1.12,4.35-2.7h.96v2.01h-1.88l1.08-.75c-1.68,2.85-3.85,4.3-6.23,4.3-2.67,0-4.4-1.65-4.36-6.17l.11-9.14.85.88-2.94-.69v-1.33l5.62-.72.42.36-.16,4.82v5.66Zm6.21,6.17l-.36-4.02.11-11.14.85.89-2.89-.69v-1.26l5.51-.79.42.36-.1,4.82v10.83l-1.47-1.49,3.42.77v1.4l-5.5.31Z" fill="#fff"/><path d="m255.78,791.04l-.02-3.98h2.16l.8,4.32-1.7-.73v-1.29c1.27.91,2.45,1.39,4,1.39,2.16,0,3.25-.85,3.25-2.33,0-1.27-.78-2-2.86-2.73l-1.61-.56c-2.42-.85-3.9-2.4-3.9-4.86,0-2.82,2.18-5.19,6.15-5.19,1.82,0,3.27.5,4.8,1.39l-.18,3.61h-2.11l-.79-3.85,1.48.69v1.08c-1.09-.82-1.99-1.2-3.29-1.2-1.71,0-2.71.8-2.71,2.14,0,1.24.64,1.86,2.84,2.64l1.27.43c3.14,1.12,4.37,2.82,4.37,5.16,0,3.09-2.43,5.3-6.77,5.3-1.96,0-3.56-.48-5.2-1.44Z" fill="#fff"/><path d="m271.46,792c.06-1.54.1-5.07.1-7.2v-1.62c0-1.89-.03-2.95-.1-4.32l-2.31-.31v-1.28l5.83-2.17.52.36-.1,4.81v4.54c0,2.13.03,5.66.1,7.2h-4.03Zm5.94-1.4v1.4h-7.99v-1.4l3.26-.69h1.56l3.18.69Zm-6.4-21.14c0-1.45,1.08-2.45,2.43-2.45s2.44,1,2.44,2.45-1.08,2.45-2.44,2.45-2.43-1.02-2.43-2.45Z" fill="#fff"/><path d="m283.09,783.36c0,4.13,1.97,6.4,4.83,6.4,1.7,0,3.1-.86,4.06-2.28l.95.74c-1.06,2.82-3.25,4.27-6.29,4.27-4.41,0-7.62-3.14-7.62-8.65s3.72-8.73,8.06-8.73c3.14,0,5.53,2.07,5.85,4.71-.26,1.05-.83,1.53-1.82,1.53-1.17,0-1.91-.76-2.1-2.41l-.55-2.73,1.92,1.34c-1.05-.55-2.01-.79-2.98-.79-2.32,0-4.33,2.09-4.33,6.6Z" fill="#fff"/><path d="m301.77,770.86v-1.61h4.86v2.12h-.42l-4.44-.51Zm5.51,19.01l4.44.51v1.61h-9.95v-1.61l4.44-.51h1.07Zm-2.74-9.99c0-3.53,0-7.1-.1-10.63h4.37c-.1,3.46-.1,7.03-.1,10.63v1.21c0,3.8,0,7.37.1,10.9h-4.37c.1-3.46.1-7.03.1-10.63v-1.49Zm10.58-10.63l1.9,1.83h-10.39v-1.83h11.5l.23,6h-2.25l-.98-6Zm-1.13,11.97h-7.37v-1.8h7.37v1.8Zm-1.01-1.33l.48-3.46h1.66v8.09h-1.66l-.48-3.63v-1Z" fill="#fff"/><path d="m332.67,782c0,.76-.07,1.37-.2,1.88h-12.26v-1.63h6.84c1.55,0,1.93-.7,1.93-1.95,0-2.1-1.28-3.55-2.87-3.55-1.7,0-3.49,1.7-3.49,6.63,0,4.27,2,6.37,4.81,6.37,1.9,0,3.14-.88,4.21-2.13l.93.87c-1.24,2.56-3.44,3.99-6.47,3.99-4.51,0-7.59-3.23-7.59-8.6s3.76-8.78,7.84-8.78c3.79,0,6.32,2.75,6.32,6.9Z" fill="#fff"/><path d="m334.88,791.04l-.02-3.98h2.16l.8,4.32-1.7-.73v-1.29c1.27.91,2.45,1.39,4,1.39,2.16,0,3.25-.85,3.25-2.33,0-1.27-.78-2-2.86-2.73l-1.61-.56c-2.42-.85-3.9-2.4-3.9-4.86,0-2.82,2.18-5.19,6.15-5.19,1.82,0,3.27.5,4.8,1.39l-.18,3.61h-2.11l-.79-3.85,1.48.69v1.08c-1.09-.82-1.99-1.2-3.29-1.2-1.71,0-2.71.8-2.71,2.14,0,1.24.64,1.86,2.84,2.64l1.28.43c3.14,1.12,4.37,2.82,4.37,5.16,0,3.09-2.43,5.3-6.77,5.3-1.96,0-3.56-.48-5.2-1.44Z" fill="#fff"/><path d="m355.84,790.21c.65,0,1.24-.28,1.97-.86l.76.87c-.83,1.42-2.25,2.25-4.24,2.25-2.58,0-4.13-1.31-4.13-4.33,0-1.01.03-1.83.03-3.17v-7.33h-2.39v-1.76l3.9-.54-1.57,1.26,1.51-5.77h2.59l-.16,6.09v10.84c0,1.69.7,2.44,1.72,2.44Zm2.18-14.63v2.07h-5.83v-2.07h5.83Z" fill="#fff"/><path d="m361.26,792c.06-1.54.1-5.07.1-7.2v-1.62c0-1.89-.03-2.95-.1-4.32l-2.31-.31v-1.28l5.83-2.17.52.36-.1,4.81v4.54c0,2.13.03,5.66.1,7.2h-4.03Zm5.93-1.4v1.4h-7.99v-1.4l3.26-.69h1.56l3.18.69Zm-6.4-21.14c0-1.45,1.08-2.45,2.44-2.45s2.44,1,2.44,2.45-1.08,2.45-2.44,2.45-2.44-1.02-2.44-2.45Z" fill="#fff"/><path d="m370.27,777.6l-3.04-.6v-1.42h8.46v1.42l-3.43.6h-1.99Zm2.3-2.01l4.62,13.06-1.75,2.76,5.13-15.82h2l-5.93,16.54h-1.9l-6.51-16.54h4.34Zm7.99,1.97l-2.95-.56v-1.42h6.1v1.42l-2.46.56h-.69Z" fill="#fff"/><path d="m389.95,782.73c1.34-.46,3.5-1.09,5.07-1.44v1.33c-1.49.36-3.31.94-4.26,1.37-2.17.92-2.81,2.15-2.81,3.46,0,1.77.99,2.52,2.27,2.52.87,0,1.44-.36,2.96-1.52l.98-.78.39.61-1.15,1.28c-1.74,1.91-2.79,2.92-4.95,2.92-2.42,0-4.27-1.5-4.27-4.34,0-2.18,1.12-3.81,5.77-5.42Zm3.07,6.29v-8.21c0-3.2-.72-4.06-2.82-4.06-.77,0-1.66.1-2.96.55l1.76-1.2-.53,2.66c-.18,1.65-.95,2.39-2.01,2.39s-1.66-.55-1.82-1.55c.39-2.73,2.88-4.51,6.83-4.51,3.73,0,5.36,1.74,5.36,6.2v7.48c0,1.1.36,1.54.96,1.54.44,0,.75-.25,1.11-.75l.75.68c-.77,1.59-1.79,2.18-3.32,2.18-1.99,0-3.17-1.3-3.31-3.4Z" fill="#fff"/><path d="m405.95,766.87l.49.31-.13,4.83v12.79c0,2.4.03,4.8.1,7.2h-4.07c.06-2.4.1-4.8.1-7.2v-14.72l-2.33-.34v-1.33l5.86-1.54Zm2.61,23.73v1.4h-8.38v-1.4l3.36-.69h1.56l3.47.69Z" fill="#fff"/></svg>