<svg width="499" height="74" viewBox="0 0 499 74" fill="none" xmlns="http://www.w3.org/2000/svg">
<path d="M59.676 71.7464H32.4134V23.9849H2.96831e-05V1.82099H92.0893V23.9849H59.676V71.7464ZM141.724 45.2122V33.2458H189.225V73.3593H175.594L174.241 62.4855C166.125 70.4978 153.794 73.3593 141.932 73.3593C115.606 73.2552 94.0664 65.6592 94.1704 39.229V34.1303C94.0664 7.64811 115.606 0.0520457 141.932 1.78218e-05C166.177 1.78218e-05 186.156 6.60755 189.225 28.1471H160.246C158.529 25.8058 156.032 24.245 152.806 23.4126C149.58 22.5801 145.938 22.1639 141.932 22.1639C130.746 22.32 121.277 24.4011 121.433 35.7952V37.5121C121.277 49.0103 130.746 50.9873 141.932 51.1434C152.702 51.1434 159.569 50.5191 163.68 45.2122H141.724ZM251.034 71.7464H223.772V23.9849H191.358V1.82099H283.448V23.9849H251.034V71.7464ZM360.813 47.7616H319.867V71.6424H292.605V1.71694H319.867V25.5977H360.813V1.71694H388.128V71.6424H360.813V47.7616ZM404.048 1.76896H471.424C485.836 1.61288 498.063 13.7354 497.855 28.1991C497.855 33.4539 496.45 38.2405 493.64 42.5068C490.883 46.721 487.189 49.9468 482.61 52.0799L497.855 71.6944H468.823L455.66 54.6293H431.311V71.6944H404.048V1.76896ZM464.557 22.2159H431.311V34.1303H464.557C466.222 34.1303 467.626 33.558 468.771 32.4134C469.968 31.2167 470.54 29.812 470.54 28.1991C470.54 24.8693 467.886 22.2159 464.557 22.2159Z" fill="#D3A832"/>
</svg>
