<?xml version="1.0" encoding="UTF-8"?>
<svg id="a" data-name="Layer 1" xmlns="http://www.w3.org/2000/svg" width="357.96" height="69.65" xmlns:xlink="http://www.w3.org/1999/xlink" viewBox="0 0 357.96 69.65">
  <defs>
    <linearGradient id="b" x1="0" y1="34.83" x2="357.96" y2="34.83" gradientUnits="userSpaceOnUse">
      <stop offset="0" stop-color="#989acc"/>
      <stop offset="1" stop-color="#faba96"/>
    </linearGradient>
  </defs>
  <path d="m31.93,16.77c1.68,1,2.94,2.29,3.8,3.87.86,1.59,1.29,3.3,1.29,5.15,0,1.66-.28,3.09-.85,4.3s-1.37,2.59-2.41,4.16c-.82,1.14-1.42,2.11-1.8,2.91-.38.81-.58,1.66-.58,2.56,0,1.61,1.4,2.42,4.21,2.42,1.5,0,2.85-.21,4.08-.64v11.51c-1.77.47-4.35.71-7.75.71-4.62,0-7.85-.82-9.68-2.45-1.83-1.63-2.75-3.97-2.75-7,0-1.52.25-2.78.75-3.8.5-1.02,1.2-2.1,2.11-3.23.91-1.18,1.57-2.2,2-3.06.43-.85.64-1.92.64-3.2,0-1.37-.36-2.59-1.09-3.66-.72-1.07-1.88-1.6-3.46-1.6-1.86,0-3.29.89-4.31,2.67-1.02,1.78-1.53,4.21-1.53,7.29v17.63H0V0h14.61v17.41c0,.33-.15.77-.44,1.32s-.64,1.13-1.05,1.74c-1.18,1.75-2.13,3.49-2.85,5.22-.72,1.73-1.09,3.78-1.09,6.15h1.63c0-2.08.59-4.43,1.77-7.04,1.18-2.61,2.9-4.84,5.16-6.72,2.26-1.87,4.96-2.81,8.08-2.81,2.4,0,4.44.5,6.11,1.49Zm42.97,34.61c-3.28,1.75-7.05,2.63-11.31,2.63-4.03,0-7.62-.82-10.77-2.45-3.15-1.63-5.59-3.9-7.34-6.79-1.74-2.89-2.62-6.13-2.62-9.74,0-3.32.84-6.5,2.51-9.56,1.67-3.06,4.03-5.52,7.07-7.39,3.03-1.87,6.5-2.81,10.39-2.81s7.34.88,10.33,2.63,5.27,4.19,6.83,7.32,2.23,6.71,2,10.73h-24.59c0,2.46.68,4.29,2.04,5.47,1.36,1.18,3.1,1.78,5.23,1.78,1.45,0,2.79-.37,4.01-1.1,1.22-.73,2.11-1.67,2.65-2.81l10.73,4.83c-1.49,3.08-3.88,5.5-7.17,7.25Zm-4.79-19.33c0-1.33-.54-2.58-1.63-3.77-1.09-1.18-2.63-1.78-4.62-1.78s-3.65.58-4.69,1.74c-1.04,1.16-1.56,2.43-1.56,3.8h12.5Zm21.09,15.74c-2.42-3.06-3.63-7.47-3.63-13.25v-18.19h14.27v13.72c0,3.79.37,6.51,1.12,8.17.75,1.66,2,2.49,3.77,2.49,1.86,0,3.24-.72,4.14-2.17.91-1.45,1.36-3.78,1.36-7v-15.21h14.33l-.14.28h.07v20.33c0,8.81-1.36,15.65-4.08,20.5-2.72,4.86-5.85,8.1-9.41,9.74-3.56,1.63-7.01,2.45-10.36,2.45-3.67,0-7.08-.68-10.22-2.03-3.15-1.35-5.51-3-7.1-4.94l6.39-8.74c1.5,1.23,3.07,2.23,4.72,2.99,1.65.76,3.72,1.14,6.22,1.14,5.16,0,8.91-2.16,11.24-6.47,2.33-4.31,3.61-9.93,3.84-16.84h-1.63c-.23,5.07-1.51,9.27-3.84,12.62-2.33,3.34-5.63,5.01-9.88,5.01-5.03,0-8.75-1.53-11.18-4.58Zm76.5,3.06c-1.93-2.01-3.51-4.7-4.76-8.07-1.25-3.36-1.76-6.96-1.53-10.8h-1.56c-.72,2.65-1.09,5.19-1.09,7.6,0,1.52.11,2.98.34,4.41.23,1.42.36,2.25.41,2.49.5,2.51.75,4.62.75,6.33,0,.43-.11.71-.34.85-.23.14-.77.21-1.63.21h-17.87l-9.51-37.53h13.72l6.39,24.59h1.77c-.91-2.99-1.36-5.99-1.36-9.03,0-4.55,1.13-8.29,3.4-11.23,2.26-2.94,5.75-4.38,10.46-4.33l6.73,24.59h1.77c-1.22-3.22-1.83-6.59-1.83-10.09,0-4.41,1.12-8.04,3.36-10.91,2.24-2.87,5.79-4.3,10.63-4.3,2.49,0,4.73.19,6.73.57l-3.8,13.86c-1.04-.33-1.95-.5-2.72-.5-1.45,0-2.55.55-3.29,1.63-.75,1.09-1.12,2.58-1.12,4.48,0,1.52.21,3.14.65,4.87.43,1.73,1.01,3.76,1.73,6.08.91,2.75,1.36,4.53,1.36,5.33,0,.62-.14,1.09-.41,1.42-.27.33-.79.5-1.56.5h-10.6c-1.54,0-3.27-1.01-5.2-3.02Zm36.25.6c-3.08-1.71-5.44-4.04-7.07-7-1.63-2.96-2.45-6.24-2.45-9.84s.82-6.87,2.45-9.81c1.63-2.94,3.99-5.26,7.07-6.96,3.08-1.71,6.68-2.56,10.8-2.56s7.87.85,10.97,2.56c3.1,1.71,5.46,4.03,7.07,6.96,1.61,2.94,2.41,6.21,2.41,9.81s-.8,6.88-2.41,9.84c-1.61,2.96-3.96,5.29-7.07,7-3.1,1.71-6.76,2.56-10.97,2.56s-7.72-.85-10.8-2.56Zm6.76-11.09c.97,1.42,2.34,2.13,4.11,2.13s3.14-.7,4.11-2.1c.97-1.4,1.46-3.33,1.46-5.79s-.49-4.26-1.46-5.69c-.97-1.42-2.34-2.13-4.11-2.13s-3.08.71-4.08,2.13c-1,1.42-1.49,3.32-1.49,5.69s.49,4.34,1.46,5.76Zm53.3-11.23c-3.04,0-5.19.73-6.45,2.2-1.27,1.47-1.9,3.86-1.9,7.18v14.78h-14.61V16.35h12.36c1.4,0,2.11.36,2.11,1.07,0,.33-.14.78-.41,1.35-.27.57-.61,1.16-1.02,1.78-1.18,1.9-2.15,3.81-2.92,5.76-.77,1.94-1.15,4.26-1.15,6.97h1.63c0-2.42.54-5,1.63-7.75,1.09-2.75,2.71-5.08,4.86-7,2.15-1.92,4.77-2.88,7.85-2.88,2.54,0,4.42.12,5.64.36v14.43c-2.36-.85-4.89-1.28-7.61-1.28Zm17.9,22c-2.33-1.92-4.01-4.37-5.03-7.36-1.02-2.99-1.53-6.11-1.53-9.38,0-3.65.61-6.93,1.83-9.84,1.22-2.91,2.94-5.19,5.16-6.82,2.22-1.63,4.73-2.45,7.54-2.45,3.17,0,5.64.91,7.41,2.74,1.77,1.82,2.65,4.02,2.65,6.57,0,1.99-.38,3.54-1.15,4.66-.77,1.11-1.7,1.77-2.79,1.95.18-.52.27-1.09.27-1.71,0-.85-.22-1.66-.65-2.42-.43-.76-1.05-1.14-1.87-1.14-1.13,0-2.05.73-2.75,2.2s-1.05,3.27-1.05,5.4c0,2.7.51,4.74,1.53,6.11,1.02,1.37,2.43,2.06,4.25,2.06,2.04,0,3.73-1.08,5.06-3.23,1.33-2.16,2-5.03,2-8.64V0h14.27v53.3h-12.64c-.86,0-1.4-.11-1.63-.32-.23-.21-.34-.58-.34-1.1,0-.33.11-.72.34-1.17.23-.45.45-.84.68-1.17.23-.33.38-.57.48-.71,1.22-1.8,2.18-3.54,2.89-5.22.7-1.68,1.05-3.73,1.05-6.15h-1.63c0,1.99-.57,4.29-1.7,6.89-1.13,2.61-2.85,4.87-5.16,6.79s-5.14,2.88-8.49,2.88c-3.67,0-6.67-.96-9-2.88Zm57.68-22.74c.97.5,2.52,1.1,4.65,1.81,2.72.85,5,1.71,6.86,2.56,1.86.85,3.46,2.06,4.82,3.62,1.36,1.56,2.04,3.51,2.04,5.83,0,3.79-1.47,6.71-4.42,8.74-2.95,2.04-6.95,3.06-12.03,3.06-3.49,0-6.97-.62-10.46-1.85-3.49-1.23-6.43-2.7-8.83-4.41l5.5-8.6c2.26,1.47,4.64,2.63,7.13,3.48,2.49.85,4.57,1.28,6.25,1.28.86,0,1.53-.12,2-.36.48-.24.71-.59.71-1.07,0-.85-.53-1.56-1.6-2.13-1.07-.57-2.78-1.23-5.13-1.99-2.58-.85-4.71-1.67-6.39-2.45-1.68-.78-3.12-1.86-4.35-3.23-1.22-1.37-1.83-3.08-1.83-5.12,0-3.79,1.45-6.79,4.35-8.99,2.9-2.2,6.68-3.3,11.34-3.3,3.35,0,6.49.47,9.41,1.42,2.92.95,5.36,2.11,7.3,3.48l-3.6,9.45c-1.63-1.28-3.67-2.35-6.11-3.2s-4.55-1.28-6.32-1.28c-1.86,0-2.79.5-2.79,1.49,0,.66.49,1.24,1.46,1.74Z" fill="url(#b)"/>
</svg>