<svg width="327" height="130" viewBox="0 0 327 130" fill="none" xmlns="http://www.w3.org/2000/svg">
<path d="M40.3224 128.178L37.0141 118.251H15.0392L11.7308 128.178H0L19.2963 73.0383H32.765L52.1409 128.178H40.3224ZM26.0685 85.5643L18.507 108.093H33.6299L26.0685 85.5643ZM66.0003 99.98C66.0003 101.662 68.3879 103.106 73.1671 104.314C74.8452 104.68 76.3679 105.115 77.7351 105.613C79.0983 106.112 80.4775 106.821 81.8686 107.738C83.2597 108.659 84.3479 109.879 85.1371 111.402C85.9263 112.925 86.317 114.683 86.317 116.68C86.317 120.727 84.7943 123.848 81.749 126.053C78.7037 128.206 74.9489 129.282 70.4885 129.282C62.4009 129.282 56.8883 126.156 53.9506 119.909L62.7716 114.946C63.9794 118.359 66.5504 120.065 70.4885 120.065C74.1118 120.065 75.9215 118.937 75.9215 116.676C75.9215 114.998 73.5299 113.551 68.7546 112.343C66.9689 111.868 65.4462 111.398 64.1867 110.923C62.9271 110.449 61.5599 109.755 60.093 108.834C58.6222 107.917 57.5061 106.733 56.7448 105.29C55.9835 103.847 55.6008 102.153 55.6008 100.211C55.6008 96.3243 57.0198 93.2785 59.8539 91.0739C62.7397 88.8174 66.3112 87.6852 70.5643 87.6852C73.765 87.6852 76.6788 88.4068 79.3056 89.85C81.9284 91.2931 84.0051 93.3542 85.5277 96.0333L76.8661 100.757C75.6066 98.0784 73.5059 96.7389 70.5643 96.7389C69.2529 96.7389 68.1607 97.0419 67.2957 97.6439C66.4308 98.2499 65.9963 99.0233 65.9963 99.9681L66.0003 99.98ZM100.18 99.98C100.18 101.662 102.568 103.106 107.347 104.314C109.025 104.68 110.548 105.115 111.915 105.613C113.278 106.112 114.657 106.821 116.049 107.738C117.44 108.659 118.528 109.879 119.317 111.402C120.106 112.925 120.497 114.683 120.497 116.68C120.497 120.727 118.974 123.848 115.929 126.053C112.884 128.206 109.129 129.282 104.669 129.282C96.5809 129.282 91.0683 126.156 88.1306 119.909L96.9516 114.946C98.1594 118.359 100.73 120.065 104.669 120.065C108.292 120.065 110.101 118.937 110.101 116.676C110.101 114.998 107.71 113.551 102.935 112.343C101.149 111.868 99.6262 111.398 98.3667 110.923C97.1071 110.449 95.7399 109.755 94.273 108.834C92.8022 107.917 91.6861 106.733 90.9248 105.29C90.1635 103.847 89.7808 102.153 89.7808 100.211C89.7808 96.3243 91.1998 93.2785 94.0339 91.0739C96.9197 88.8174 100.491 87.6852 104.744 87.6852C107.945 87.6852 110.859 88.4068 113.486 89.85C116.108 91.2931 118.185 93.3542 119.708 96.0333L111.046 100.757C109.787 98.0784 107.686 96.7389 104.744 96.7389C103.433 96.7389 102.341 97.0419 101.476 97.6439C100.611 98.2499 100.176 99.0233 100.176 99.9681L100.18 99.98ZM132.076 84.0693C130.394 84.0693 128.939 83.4514 127.704 82.2195C126.468 80.9877 125.854 79.5285 125.854 77.8462C125.854 76.1638 126.472 74.6967 127.704 73.4369C128.935 72.1772 130.394 71.5473 132.076 71.5473C133.758 71.5473 135.293 72.1772 136.525 73.4369C137.756 74.6967 138.374 76.1678 138.374 77.8462C138.374 79.5246 137.756 80.9837 136.525 82.2195C135.289 83.4554 133.806 84.0693 132.076 84.0693ZM137.194 128.182H127.034V88.7975H137.194V128.182ZM155.546 99.98C155.546 101.662 157.934 103.106 162.713 104.314C164.391 104.68 165.914 105.115 167.281 105.613C168.644 106.112 170.023 106.821 171.414 107.738C172.805 108.659 173.893 109.879 174.683 111.402C175.472 112.925 175.863 114.683 175.863 116.68C175.863 120.727 174.34 123.848 171.295 126.053C168.249 128.206 164.495 129.282 160.034 129.282C151.947 129.282 146.434 126.156 143.496 119.909L152.317 114.946C153.525 118.359 156.096 120.065 160.034 120.065C163.657 120.065 165.467 118.937 165.467 116.676C165.467 114.998 163.075 113.551 158.3 112.343C156.515 111.868 154.992 111.398 153.732 110.923C152.473 110.449 151.106 109.755 149.639 108.834C148.168 107.917 147.052 106.733 146.29 105.29C145.529 103.847 145.146 102.153 145.146 100.211C145.146 96.3243 146.565 93.2785 149.399 91.0739C152.285 88.8174 155.857 87.6852 160.11 87.6852C163.311 87.6852 166.224 88.4068 168.851 89.85C171.474 91.2931 173.551 93.3542 175.073 96.0333L166.412 100.757C165.152 98.0784 163.052 96.7389 160.11 96.7389C158.798 96.7389 157.706 97.0419 156.841 97.6439C155.976 98.2499 155.542 99.0233 155.542 99.9681L155.546 99.98ZM203.745 88.7935V98.5608H194.844V114.946C194.844 116.313 195.187 117.31 195.868 117.94C196.55 118.57 197.546 118.925 198.862 119.004C200.173 119.084 201.804 119.072 203.745 118.964V128.182C196.865 128.971 191.97 128.325 189.056 126.252C186.142 124.179 184.684 120.412 184.684 114.95V98.5648H177.832V88.7975H184.684V80.8401L194.844 77.7664V88.7935H203.745ZM239.659 93.4419V88.7935H249.819V128.178H239.659V123.529C236.613 127.364 232.332 129.278 226.82 129.278C221.307 129.278 217.054 127.285 213.275 123.29C209.548 119.248 207.683 114.312 207.683 108.48C207.683 102.647 209.544 97.7954 213.275 93.7489C217.054 89.7065 221.57 87.6852 226.82 87.6852C232.332 87.6852 236.613 89.6028 239.659 93.434V93.4419ZM220.912 116.521C222.961 118.57 225.56 119.594 228.709 119.594C231.858 119.594 234.457 118.57 236.506 116.521C238.606 114.42 239.655 111.745 239.655 108.488C239.655 105.23 238.602 102.579 236.506 100.53C234.457 98.4292 231.858 97.3808 228.709 97.3808C225.56 97.3808 222.961 98.4332 220.912 100.53C218.864 102.579 217.839 105.23 217.839 108.488C217.839 111.745 218.864 114.424 220.912 116.521ZM280.926 87.6892C285.282 87.6892 288.826 89.1324 291.556 92.0227C294.39 94.9649 295.81 98.9555 295.81 103.995V128.178H285.649V105.254C285.649 102.683 284.952 100.686 283.56 99.2664C282.169 97.8472 280.264 97.1416 277.849 97.1416C275.17 97.1416 273.057 97.9668 271.507 99.6213C269.956 101.276 269.183 103.704 269.183 106.909V128.178H259.023V88.7935H269.183V93.2028C271.598 89.5271 275.509 87.6892 280.918 87.6892H280.926ZM327 88.7935V98.5608H318.099V114.946C318.099 116.313 318.442 117.31 319.124 117.94C319.805 118.57 320.802 118.925 322.117 119.004C323.429 119.084 325.059 119.072 327 118.964V128.182C320.12 128.971 315.225 128.325 312.312 126.252C309.398 124.179 307.939 120.412 307.939 114.95V98.5648H301.087V88.7975H307.939V80.8401L318.099 77.7664V88.7935H327Z" fill="url(#paint0_linear_308_282)"/>
<path d="M3.81859 1.94037H24.3744C29.624 1.94037 34.0883 3.72639 37.7634 7.29843C41.3867 10.8705 43.1963 15.2558 43.1963 20.4544C43.1963 25.653 41.3867 30.0383 37.7634 33.6103C34.0883 37.1824 29.624 38.9684 24.3744 38.9684H14.6884V57.0837H3.81859V1.94037ZM14.6884 28.8024H24.3744C26.6823 28.8024 28.5996 28.0011 30.1222 26.3985C31.6449 24.7958 32.4062 22.8145 32.4062 20.4504C32.4062 18.0863 31.6449 16.0411 30.1222 14.4624C28.5996 12.8877 26.6823 12.0984 24.3744 12.0984H14.6884V28.8024ZM71.7082 16.5913C76.0649 16.5913 79.6085 18.0345 82.3389 20.9248C85.173 23.8669 86.592 27.8576 86.592 32.8967V57.0797H76.4317V34.1565C76.4317 31.5851 75.7341 29.5878 74.343 28.1685C72.9519 26.7493 71.0466 26.0437 68.635 26.0437C65.9564 26.0437 63.8439 26.8689 62.2933 28.5234C60.7427 30.1778 59.9695 32.6057 59.9695 35.8109V57.0797H49.8091V1.94037H59.9695V22.1048C62.385 18.4292 66.2952 16.5913 71.7043 16.5913H71.7082ZM125.184 22.3401V17.6916H135.345V57.0757H125.184V52.4273C122.139 56.2625 117.858 58.1761 112.346 58.1761C106.833 58.1761 102.58 56.1827 98.8011 52.1881C95.0742 48.1456 93.2088 43.2102 93.2088 37.3777C93.2088 31.5452 95.0702 26.6935 98.8011 22.647C102.58 18.6046 107.096 16.5833 112.346 16.5833C117.858 16.5833 122.139 18.5009 125.184 22.3321V22.3401ZM106.438 45.4188C108.487 47.4679 111.086 48.4925 114.235 48.4925C117.384 48.4925 119.983 47.4679 122.032 45.4188C124.08 43.3696 125.181 40.6428 125.181 37.3857C125.181 34.1286 124.128 31.4775 122.032 29.4283C119.983 27.3274 117.384 26.2789 114.235 26.2789C111.086 26.2789 108.487 27.3313 106.438 29.4283C104.39 31.4775 103.365 34.1286 103.365 37.3857C103.365 40.6428 104.39 43.3218 106.438 45.4188ZM153.613 28.8782C153.613 30.5605 156 32.0037 160.78 33.2117C162.458 33.5784 163.98 34.013 165.347 34.5113C166.711 35.0096 168.09 35.7193 169.481 36.6362C170.872 37.5571 171.96 38.777 172.749 40.2999C173.539 41.8228 173.929 43.5809 173.929 45.5782C173.929 49.6247 172.407 52.7462 169.361 54.9509C166.316 57.1036 162.561 58.18 158.101 58.18C150.013 58.18 144.501 55.0545 141.563 48.8074L150.384 43.844C151.592 47.2566 154.163 48.9629 158.101 48.9629C161.724 48.9629 163.534 47.8347 163.534 45.5742C163.534 43.8959 161.142 42.4487 156.367 41.2408C154.581 40.7664 153.059 40.2959 151.799 39.8215C150.539 39.3471 149.172 38.6534 147.705 37.7325C146.235 36.8156 145.119 35.6315 144.357 34.1884C143.596 32.7452 143.213 31.0509 143.213 29.1094C143.213 25.2224 144.632 22.1766 147.466 19.972C150.352 17.7155 153.924 16.5833 158.177 16.5833C161.377 16.5833 164.291 17.3049 166.918 18.7481C169.541 20.1913 171.617 22.2523 173.14 24.9314L164.479 29.6556C163.219 26.9765 161.118 25.637 158.177 25.637C156.865 25.637 155.773 25.94 154.908 26.542C154.043 27.148 153.609 27.9214 153.609 28.8662L153.613 28.8782ZM218.194 41.5597H188.502C189.814 46.4952 193.517 48.9629 199.607 48.9629C203.494 48.9629 206.431 47.6513 208.428 45.0241L216.619 49.7523C212.733 55.3734 207.009 58.18 199.452 58.18C192.943 58.18 187.717 56.2106 183.779 52.2718C179.841 48.333 177.872 43.3696 177.872 37.3857C177.872 31.4017 179.813 26.5699 183.699 22.5753C187.53 18.5846 192.52 16.5873 198.663 16.5873C204.805 16.5873 209.241 18.5846 212.916 22.5753C216.695 26.5659 218.589 31.5054 218.589 37.3857C218.589 38.49 218.457 39.8813 218.194 41.5597ZM188.343 33.6821H208.424C207.846 31.1107 206.678 29.1413 204.921 27.7739C203.163 26.4104 201.074 25.7247 198.659 25.7247C195.928 25.7247 193.668 26.4224 191.886 27.8137C190.101 29.2051 188.921 31.1625 188.343 33.6821Z" fill="url(#paint1_linear_308_282)"/>
<path d="M237.032 12.8678H250.114V60.3647H262.199V1.3344H240.328L237.032 12.8678Z" fill="url(#paint2_linear_308_282)"/>
<path d="M322.568 14.7216C319.909 10.1569 316.369 6.56887 312.013 4.06127C307.668 1.54968 302.921 0.281921 297.906 0.281921C292.892 0.281921 288.128 1.54968 283.748 4.06127C279.367 6.5609 275.772 10.1489 273.089 14.7216C270.395 19.2943 269.023 24.76 269.023 30.9632C269.023 37.1664 270.387 42.6321 273.089 47.2048C275.792 51.7815 279.383 55.3296 283.776 57.7614C288.148 60.1853 292.904 61.4172 297.914 61.4172C302.924 61.4172 307.664 60.1853 312.001 57.7614C316.353 55.3296 319.913 51.7815 322.572 47.1968C325.23 42.6241 326.577 37.1664 326.577 30.9672C326.577 24.7679 325.222 19.2982 322.564 14.7256L322.568 14.7216ZM314.516 30.9512C314.516 34.9578 313.687 38.4102 312.06 41.1929C310.426 43.9836 308.337 46.1164 305.842 47.5357C303.343 48.9509 300.684 49.6685 297.922 49.6685C295.16 49.6685 292.449 48.943 289.878 47.5277C287.315 46.1124 285.191 43.9836 283.564 41.1969C281.93 38.4063 281.109 34.9618 281.109 30.9552C281.109 26.9486 281.938 23.3885 283.564 20.6019C285.199 17.8112 287.323 15.6584 289.894 14.2073C292.465 12.7561 295.168 12.0106 297.93 12.0106C300.692 12.0106 303.351 12.7641 305.886 14.2511C308.421 15.7382 310.522 17.9069 312.12 20.7055C313.703 23.4962 314.516 26.9486 314.516 30.9552V30.9512Z" fill="url(#paint3_linear_308_282)"/>
<defs>
<linearGradient id="paint0_linear_308_282" x1="0" y1="64.773" x2="327.004" y2="64.773" gradientUnits="userSpaceOnUse">
<stop stop-color="#FABA96"/>
<stop offset="1" stop-color="#999ACC"/>
</linearGradient>
<linearGradient id="paint1_linear_308_282" x1="0" y1="64.773" x2="327.004" y2="64.773" gradientUnits="userSpaceOnUse">
<stop stop-color="#FABA96"/>
<stop offset="1" stop-color="#999ACC"/>
</linearGradient>
<linearGradient id="paint2_linear_308_282" x1="0.000796506" y1="64.7819" x2="327.002" y2="64.7819" gradientUnits="userSpaceOnUse">
<stop stop-color="#FCBC98"/>
<stop offset="1" stop-color="#989CDC"/>
</linearGradient>
<linearGradient id="paint3_linear_308_282" x1="0" y1="64.773" x2="327.004" y2="64.773" gradientUnits="userSpaceOnUse">
<stop stop-color="#FABA96"/>
<stop offset="1" stop-color="#999ACC"/>
</linearGradient>
</defs>
</svg>
