<?xml version="1.0" encoding="UTF-8"?>
<svg id="a" data-name="Layer 1" xmlns="http://www.w3.org/2000/svg" width="229.49" height="38.73" xmlns:xlink="http://www.w3.org/1999/xlink" viewBox="0 0 229.49 38.73">
  <defs>
    <linearGradient id="b" x1="0" y1="19.37" x2="229.49" y2="19.37" gradientUnits="userSpaceOnUse">
      <stop offset="0" stop-color="#989acc"/>
      <stop offset="1" stop-color="#faba96"/>
    </linearGradient>
  </defs>
  <path d="m22.96,13.86c-3.03,0-5.19.73-6.45,2.2-1.27,1.47-1.9,3.86-1.9,7.18v14.78H0V1.07h12.36c1.4,0,2.11.36,2.11,1.07,0,.33-.14.78-.41,1.35-.27.57-.61,1.16-1.02,1.78-1.18,1.9-2.15,3.81-2.92,5.76-.77,1.94-1.16,4.26-1.16,6.97h1.63c0-2.42.54-5,1.63-7.75,1.09-2.75,2.71-5.08,4.86-7,2.15-1.92,4.77-2.88,7.85-2.88,2.54,0,4.42.12,5.64.36v14.43c-2.36-.85-4.89-1.28-7.61-1.28Zm21.33,22.32c-3.08-1.71-5.44-4.04-7.07-7-1.63-2.96-2.45-6.24-2.45-9.84s.82-6.87,2.45-9.81c1.63-2.94,3.98-5.26,7.07-6.97,3.08-1.71,6.68-2.56,10.8-2.56s7.87.85,10.97,2.56c3.1,1.71,5.46,4.03,7.07,6.97,1.61,2.94,2.41,6.21,2.41,9.81s-.8,6.88-2.41,9.84c-1.61,2.96-3.96,5.29-7.07,7-3.1,1.71-6.76,2.56-10.97,2.56s-7.72-.85-10.8-2.56Zm6.76-11.09c.97,1.42,2.34,2.13,4.11,2.13s3.14-.7,4.11-2.1c.97-1.4,1.46-3.33,1.46-5.79s-.49-4.26-1.46-5.69c-.97-1.42-2.34-2.13-4.11-2.13s-3.08.71-4.08,2.13c-1,1.42-1.49,3.32-1.49,5.69s.49,4.34,1.46,5.76Zm38.08,11.09c-3.08-1.71-5.44-4.04-7.07-7-1.63-2.96-2.45-6.24-2.45-9.84s.82-6.87,2.45-9.81c1.63-2.94,3.98-5.26,7.07-6.97,3.08-1.71,6.68-2.56,10.8-2.56s7.87.85,10.97,2.56c3.1,1.71,5.46,4.03,7.07,6.97,1.61,2.94,2.41,6.21,2.41,9.81s-.8,6.88-2.41,9.84c-1.61,2.96-3.96,5.29-7.07,7-3.1,1.71-6.76,2.56-10.97,2.56s-7.72-.85-10.8-2.56Zm6.76-11.09c.97,1.42,2.34,2.13,4.11,2.13s3.14-.7,4.11-2.1c.97-1.4,1.46-3.33,1.46-5.79s-.49-4.26-1.46-5.69c-.97-1.42-2.34-2.13-4.11-2.13s-3.08.71-4.08,2.13c-1,1.42-1.49,3.32-1.49,5.69s.49,4.34,1.46,5.76Zm50.37-12.79c-1.77,0-3.11.74-4.04,2.2-.93,1.47-1.39,3.79-1.39,6.96v16.56h-14.61V1.07h12.77c.77,0,1.27.1,1.49.28.23.19.34.45.34.78s-.15.77-.44,1.31c-.29.55-.65,1.13-1.05,1.74-1.18,1.75-2.13,3.49-2.85,5.22-.73,1.73-1.09,3.78-1.09,6.15h1.63c0-2.08.59-4.44,1.77-7.07,1.18-2.63,2.92-4.87,5.23-6.72,2.31-1.85,5.05-2.77,8.22-2.77,2.26,0,4.18.38,5.74,1.14,1.56.76,2.72,1.66,3.46,2.7.75,1.04,1.12,1.94,1.12,2.7,0,.38-.09.77-.27,1.17-.18.4-.39.79-.61,1.17-.63,1.09-1.12,2.17-1.46,3.23-.34,1.07-.51,2.55-.51,4.44h1.63c0-2.32.55-4.77,1.66-7.36,1.11-2.58,2.79-4.76,5.03-6.54,2.24-1.78,4.97-2.67,8.19-2.67,8.83,0,13.25,6.09,13.25,18.27v19.76h-14.61v-18.05c0-2.56-.44-4.48-1.32-5.76-.88-1.28-2.07-1.92-3.57-1.92-1.4,0-2.5.64-3.29,1.92-.79,1.28-1.19,3.46-1.19,6.54v17.27h-14.61v-18.05c0-5.12-1.54-7.68-4.62-7.68Zm64.85.82c.97.5,2.52,1.1,4.65,1.81,2.72.85,5,1.71,6.86,2.56,1.86.85,3.46,2.06,4.82,3.62,1.36,1.56,2.04,3.51,2.04,5.83,0,3.79-1.47,6.71-4.42,8.74-2.95,2.04-6.95,3.06-12.03,3.06-3.49,0-6.97-.62-10.46-1.85-3.49-1.23-6.43-2.7-8.83-4.41l5.5-8.6c2.26,1.47,4.64,2.63,7.13,3.48,2.49.85,4.57,1.28,6.25,1.28.86,0,1.53-.12,2-.36.48-.24.71-.59.71-1.07,0-.85-.53-1.56-1.6-2.13-1.07-.57-2.78-1.23-5.13-1.99-2.58-.85-4.71-1.67-6.39-2.45-1.68-.78-3.12-1.86-4.35-3.23-1.22-1.37-1.83-3.08-1.83-5.12,0-3.79,1.45-6.79,4.35-8.99,2.9-2.2,6.68-3.3,11.35-3.3,3.35,0,6.49.47,9.41,1.42,2.92.95,5.36,2.11,7.3,3.48l-3.6,9.45c-1.63-1.28-3.67-2.35-6.11-3.2-2.45-.85-4.55-1.28-6.32-1.28-1.86,0-2.79.5-2.79,1.49,0,.66.49,1.24,1.46,1.74Z" fill="url(#b)"/>
</svg>