<?xml version="1.0" encoding="utf-8"?>
<!-- Generator: Adobe Illustrator 27.4.0, SVG Export Plug-In . SVG Version: 6.00 Build 0)  -->
<svg version="1.1" id="Layer_1" xmlns="http://www.w3.org/2000/svg" xmlns:xlink="http://www.w3.org/1999/xlink" x="0px" y="0px"
	 viewBox="0 0 492 898.6" style="enable-background:new 0 0 492 898.6;" xml:space="preserve">
<style type="text/css">
	.st0{fill:url(#XMLID_00000056403663220026538400000017197861703534996413_);}
	.st1{fill:url(#XMLID_00000071548930512072563420000013035707518848567982_);}
	.st2{fill:url(#XMLID_00000078735043924985581090000003935613982348616328_);}
	.st3{fill:url(#XMLID_00000142881574833367377190000007800772785138192003_);}
	.st4{fill:url(#XMLID_00000170981874659900176100000014406856860745096587_);}
	.st5{fill:url(#XMLID_00000103976268664527408150000002462919739942000266_);}
	.st6{fill:url(#XMLID_00000168112515462482958600000000140875346704200631_);}
	.st7{fill:url(#XMLID_00000146472596204524575580000014450366106808645524_);}
	.st8{fill:url(#XMLID_00000047044736488258367190000009306016555504609698_);}
	.st9{fill:url(#XMLID_00000132077317416421396880000017396760342961588109_);}
	.st10{fill:url(#XMLID_00000127740466934461041940000017802497637807175054_);}
	.st11{fill:url(#XMLID_00000040547030075001085830000008886538185544280964_);}
	.st12{fill:url(#XMLID_00000040567421426042719700000011537796880768176271_);}
	.st13{fill:url(#XMLID_00000058547101460161184970000008058055316419299257_);}
	.st14{fill:url(#XMLID_00000041267600218303548310000014927553144925447559_);}
	.st15{fill:url(#XMLID_00000176740528093928501150000009291367303092862353_);}
	.st16{fill:url(#XMLID_00000059296274221402676830000017132875167381695921_);}
	.st17{fill:url(#XMLID_00000109718806241969540210000000851767994996568242_);}
	.st18{fill:url(#XMLID_00000130637239604066659700000001780743655258723751_);}
	.st19{fill:url(#XMLID_00000136405980338237702210000003390190620982179759_);}
	.st20{fill:url(#XMLID_00000054258450584039876940000014531144455286996130_);}
	.st21{fill:url(#XMLID_00000121259567884513452650000004751591759122791358_);}
	.st22{fill:url(#XMLID_00000171697748193337665730000014446489513754784911_);}
	.st23{fill:#FFFFFF;}
</style>
<linearGradient id="XMLID_00000019639035951249211580000017069043083152034224_" gradientUnits="userSpaceOnUse" x1="-4534.1279" y1="980.3217" x2="-4534.1279" y2="5252.9067" gradientTransform="matrix(1 0 0 -1 0 1000.5511)">
	<stop  offset="0" style="stop-color:#2EAFE3"/>
	<stop  offset="1" style="stop-color:#ABDFF4"/>
</linearGradient>
<path id="XMLID_191_" style="fill:url(#XMLID_00000019639035951249211580000017069043083152034224_);" d="M-3685.7-1253.2
	c-128.2-58.6-290.1-55.1-428.5-71.3c-79.6-9.3-159.2-18.8-238.9-28c-50.8-5.8-135-27.1-183.8-4.6c-112.8,52.1-93.1,185.4-37.3,270.6
	c46.4,70.9,120.1,118.9,199.3,145.7c75.3,25.5,153.3,31.4,232,34.6c32.6,1.3,66.6-0.8,95.1,17.5c80.9,52.1,38.3,193.8,30.2,269.5
	c-7.1,65.5-109.4,67.4-104.1,0c3.4-43.7,17.9-99.4,13.1-142.5c-8-73.4-73.3-47.6-130-53.6c-71.6-7.5-142.4-22.5-208.7-51.2
	c-16.5-7.1-32.7-15.2-48.5-24.1c20.2,70,33.3,141.8,42,209.9c14.8,116.5,13.1,262.5-92,339.1c-125.8,91.8-247.6,38.9-352.5-65.2
	c-3.2,124.4-54.7,248.9-161.9,290c-96.3,36.9-223.6-44.8-295.5-100.4c-102.5-79.2-175.1-187.7-237.9-299.5
	c-16.5-29.4-33.6-60-50.5-91.3c7,27.3,14.2,54.7,22.2,81.7c42.7,145.1,99.3,285.2,166.5,420.6c63.1,127,132.2,271.5,280.7,310.5
	c148.8,39.1,322.4,33,475.3,32.6c163.8-0.5,333.8-5.4,495.2-35c196.4-36.1,329-184.8,427.3-348.5c80.8-134.5,160.2-270.1,231.4-410
	c29.4-57.9,79.7-120.9,105.1-184.3c19.1-47.7,24.4-98.4-0.4-160.3C-3491.1-1026.1-3556.4-1194.1-3685.7-1253.2z"/>
<linearGradient id="XMLID_00000128450380302402035980000003813878181856363187_" gradientUnits="userSpaceOnUse" x1="-4486.5493" y1="980.3223" x2="-4486.5493" y2="5252.9004" gradientTransform="matrix(1 0 0 -1 0 1000.5511)">
	<stop  offset="0" style="stop-color:#2EAFE3"/>
	<stop  offset="1" style="stop-color:#ABDFF4"/>
</linearGradient>
<path id="XMLID_192_" style="fill:url(#XMLID_00000128450380302402035980000003813878181856363187_);" d="M-4704.2-1434.2
	c32.8,51.2,31.6,38,84.9,17c35.9-14.1,68.9-25.8,107.5-31.3c154.5-21.7,310.2,20.3,462.8,38.6c83.2,9.9,177,13.6,266,30.4
	c-104.6-187.5-53.2-461-30.5-657.7c36.4-315.8,102.3-627.5,136.1-943.5c9.1-84.7,32.6-459.7-161.5-373.8
	c-99.7,44.1-127.1,300.3-148.8,396.7c-63,279.3-99,563.7-138.5,846.9c-15.3,109.5-11.8,467.4-210.6,424.5
	c-88.9-19.2-116.5-116.3-142.2-191.3c-43.2-126-86-252.1-130-377.9c-65.5-187.8-180.4-513.1-252-698.7
	c-42.9-111.2-99.1-333.6-232.6-372.1c-89-25.7-180.2,55.1-201,145.3s8.4,183.7,37.6,271.6c57.2,172.6,162.9,482.9,224,653.7
	c65,181.7,131.9,362.7,199.6,543.3C-4790.9-1623-4757.5-1517.4-4704.2-1434.2z"/>
<linearGradient id="XMLID_00000146470243893775276060000005670927753716248732_" gradientUnits="userSpaceOnUse" x1="-4913.3179" y1="980.3212" x2="-4913.3179" y2="5252.9053" gradientTransform="matrix(1 0 0 -1 0 1000.5511)">
	<stop  offset="0" style="stop-color:#2EAFE3"/>
	<stop  offset="1" style="stop-color:#ABDFF4"/>
</linearGradient>
<path id="XMLID_193_" style="fill:url(#XMLID_00000146470243893775276060000005670927753716248732_);" d="M-4878.3-553.4
	c71,79.5,237.3,206.9,294.5,44.9c33.2-94.1-4.1-223.4-29.1-314.7c-26.4-96.7-71.9-184.7-89.2-282.4c-14-79.3-31.8-152-69.7-225.1
	c-76.6-147.5-207.9-239-375.9-177.2c-249.1,91.6-0.8,501.5,74.5,646.8C-5017.8-754.1-4959.1-643.9-4878.3-553.4z"/>
<linearGradient id="XMLID_00000085965384357875568650000001920754167521177763_" gradientUnits="userSpaceOnUse" x1="-5362.5054" y1="980.3217" x2="-5362.5054" y2="5252.9062" gradientTransform="matrix(1 0 0 -1 0 1000.5511)">
	<stop  offset="0" style="stop-color:#2EAFE3"/>
	<stop  offset="1" style="stop-color:#ABDFF4"/>
</linearGradient>
<path id="XMLID_194_" style="fill:url(#XMLID_00000085965384357875568650000001920754167521177763_);" d="M-5157.3-239.6
	c173.6,3,118.9-273.3,99.3-369.2c-0.6-3-0.9-6-1-9c-58.6-95.4-104.5-189.6-132.6-247.3c-57.1-117.2-150.2-304.2-160.9-463.6
	c-156.7-160.2-339.3,170-338.3,300.7c1.2,163.2,103.7,323.7,182.8,461.7C-5444.7-456-5307.6-242.1-5157.3-239.6z"/>
<linearGradient id="XMLID_00000076591121928491978230000000198174549080233115_" gradientUnits="userSpaceOnUse" x1="-5783.9453" y1="2559.2668" x2="-3324.3306" y2="2559.2668" gradientTransform="matrix(1 0 0 -1 0 1000.5511)">
	<stop  offset="0" style="stop-color:#696969"/>
	<stop  offset="1" style="stop-color:#1A1A1A"/>
</linearGradient>
<path id="XMLID_226_" style="fill:url(#XMLID_00000076591121928491978230000000198174549080233115_);" d="M-3461.9-1161.4
	c-43.8-72.3-107.5-120.4-156.4-187.2c-94.4-129.1-100.9-298.2-95-451.9c6.4-167.7,26.6-334.2,50.9-500.1
	c40.7-278.7,123.4-585.4,98.5-868.1c-14.7-166.9-165.8-405.7-351.7-256.5c-81.3,65.3-104.4,177.8-130.6,273.5
	c-43.3,158.4-75.8,319.7-103.4,481.5c-25.2,148.2-46.1,297-67.1,445.8c-10,70.9-20,141.8-30.5,212.6c-6.4,43.4-5.5,234.7-98,188.2
	c-36.4-18.3-67.8-189.4-81.7-229.6c-26.7-77-53.8-153.8-81.9-230.2c-56.2-153-114.1-305.4-173.2-457.2
	c-55.3-142.1-160.4-421.3-216.8-563c-42.4-106.4-130.2-155.4-253.1-135.8c-99.5,15.9-165.6,58.7-210.4,148.9
	c-117.8,237.3,100,719.2,182.6,947.9c90.8,251.5,215.3,532.2,306.1,783.7c-6.4-17.8-174-64.4-194.8-65.4
	c-58.5-2.7-121.4,18.2-170.9,48.1c-28.4,17.2-149.3,132.1-111.6,176.1c-95.9-108.9-304.9,38.8-369.1,140.9
	c-74.7,118.8-75.9,245.7-43.3,369.9c-4.8,9.7-2.4,21.1,6.7,28.8c-13.5,123.7,40.5,287.3,67.9,394.7
	c41.1,160.8,98.4,317.5,172.1,466.2c60,120.9,133.1,244.9,264.2,297.4c145.8,58.3,331.2,51.1,485.5,54
	c305.8,5.7,695.3,24.5,927.3-209.6c98.1-99,166.1-221.9,230.6-344c97.5-184.7,361.8-488,263.2-710.5
	C-3383-995.8-3414.4-1082.9-3461.9-1161.4z M-5033-2255.8c-61.2-170.9-166.8-481.1-224-653.7c-29.1-87.9-58.3-181.3-37.6-271.6
	c20.8-90.3,112-171,201-145.3c133.5,38.6,189.7,260.9,232.6,372.1c71.6,185.6,186.4,510.9,252,698.7
	c43.9,125.8,86.7,251.9,130,377.9c25.7,74.9,53.3,172.1,142.2,191.3c198.8,42.9,195.4-315,210.6-424.5
	c39.5-283.3,75.5-567.7,138.5-846.9c21.8-96.4,49.1-352.5,148.8-396.7c194.1-86,170.6,289.1,161.5,373.8
	c-33.9,316-99.8,627.7-136.1,943.5c-22.7,196.7-74.2,470.2,30.5,657.7c-89-16.8-182.8-20.5-266-30.4
	c-152.5-18.2-308.3-60.3-462.8-38.6c-38.6,5.4-71.6,17.2-107.5,31.3c-53.3,21-52.1,34.2-84.9-17c-53.2-83.1-86.7-188.8-129.1-278.2
	C-4901.1-1893.1-4967.9-2074-5033-2255.8z M-5147.7-1507.9c168-61.8,299.2,29.8,375.9,177.2c38,73.1,55.7,145.8,69.7,225.1
	c17.3,97.7,62.8,185.7,89.2,282.4c25,91.3,62.3,220.6,29.1,314.7c-57.2,162-223.5,34.7-294.5-44.9
	c-80.8-90.5-139.5-200.7-194.9-307.7C-5148.5-1006.5-5396.8-1416.3-5147.7-1507.9z M-5690.8-1028.2
	c-1-130.6,181.6-460.9,338.3-300.7c10.7,159.4,103.8,346.4,160.9,463.6c28.2,57.8,74,152,132.6,247.3c0.1,3,0.3,6,1,9
	c19.6,96,74.4,372.2-99.3,369.2c-150.3-2.6-287.3-216.4-350.7-326.9C-5587.1-704.5-5689.5-865-5690.8-1028.2z M-3440.5-740.2
	c-25.4,63.5-75.6,126.5-105.1,184.3c-71.2,139.9-150.7,275.5-231.4,410c-98.3,163.7-230.9,312.4-427.3,348.5
	c-161.4,29.7-331.5,34.6-495.2,35c-152.9,0.4-326.5,6.6-475.3-32.6c-148.5-39.1-217.6-183.5-280.7-310.5
	c-67.2-135.4-123.9-275.5-166.5-420.6c-8-27.1-15.2-54.4-22.2-81.7c16.9,31.3,34,61.8,50.5,91.3c62.8,111.8,135.4,220.2,237.9,299.5
	c71.9,55.5,199.2,137.3,295.5,100.4c107.2-41.1,158.7-165.6,161.9-290c104.8,104,226.6,156.9,352.5,65.2
	c105.2-76.7,106.8-222.6,92-339.1c-8.6-68.1-21.8-140-42-209.9c15.8,8.9,31.9,17,48.5,24.1c66.3,28.7,137.1,43.6,208.7,51.2
	c56.7,6,122-19.8,130,53.6c4.7,43.1-9.7,98.8-13.1,142.5c-5.3,67.4,97.1,65.5,104.1,0c8.1-75.7,50.7-217.4-30.2-269.5
	c-28.5-18.3-62.5-16.1-95.1-17.5c-78.7-3.2-156.8-9.1-232-34.6c-79.2-26.9-152.9-74.8-199.3-145.7c-55.8-85.2-75.5-218.5,37.3-270.6
	c48.7-22.5,133-1.2,183.8,4.6c79.6,9.1,159.2,18.6,238.9,28c138.3,16.2,300.3,12.8,428.5,71.3c129.3,59.1,194.6,227.1,244.9,352.6
	C-3416-838.6-3421.4-787.9-3440.5-740.2z"/>
<linearGradient id="XMLID_00000133497215967124924980000013703564738248069551_" gradientUnits="userSpaceOnUse" x1="-3576.0835" y1="1601.4008" x2="-5343.6836" y2="1601.4008" gradientTransform="matrix(1 0 0 -1 0 1000.5511)">
	<stop  offset="0" style="stop-color:#333333"/>
	<stop  offset="1" style="stop-color:#1A1A1A"/>
</linearGradient>
<path id="XMLID_981_" style="fill:url(#XMLID_00000133497215967124924980000013703564738248069551_);" d="M-3732.4-1224
	L-3732.4-1224c-87-39.8-196.4-48.3-302.2-56.6c-36.2-2.8-73.6-5.8-109.2-9.9l-79.9-9.4c-53-6.3-105.9-12.5-158.9-18.6
	c-11.4-1.3-24.4-3.3-38.3-5.5c-36.7-5.8-92.2-14.5-114.9-4c-23.9,11-38.6,27.2-45,49.6c-10.7,37.2,2,92.5,31.6,137.7
	c45.4,69.4,117.4,105.1,169.8,122.9c70.4,23.9,145.3,28.7,216,31.6l13.5,0.4c32.3,0.8,72.4,1.8,110.2,26.1
	c98,63.1,76.6,194.2,62.5,280.9c-2.6,15.7-5,30.2-6.3,42.8c-7.5,69.5-69.3,105.3-124.9,100.5c-58.6-5.4-97.8-52.2-93.2-111
	c1.4-17.3,4.1-35.5,6.8-53.1c4.3-28.6,8.8-58.1,6.5-78.8c-0.1-0.7-0.2-1.3-0.2-1.9c-7.7-0.7-20.1-0.3-29,0
	c-15.1,0.5-32.1,1-49.8-0.9c-62.4-6.6-118.2-17.9-169.1-34.3c6.5,33.7,12.1,68.7,16.7,104.9c24.1,190.1-13.6,318.6-115.1,392.6
	c-76.1,55.5-189.8,93.9-328.4,8c-4.1,2.8-8.2,5.8-12.1,9c-4,3.4-7.5,7.2-11.2,10.9c-31.3,98.2-93.1,172.3-175.9,204.1
	c-24.5,9.4-50,13.1-75.9,12.7c-62.4,29.1-129.5,50.8-195.5,69.1c-3.2,0.9-6.4,1.8-9.6,2.6c41,61.1,90.8,110.2,160.7,128.6
	c6.3,1.7,12.9,2.9,19.3,4.4c76.4-23.1,146.1-68.2,197.2-129.6c26-31.2,47.4-66.2,76.3-94.6c114.4-112,314.8-92.7,428.1-205.8
	c63.1-63,94.7-163,178-194.8c62.3-23.8,132.5,0.1,198.5-9.5c134-19.5,206.6-161.3,279.4-275.4c53.2-83.4,117.2-160,189.9-227.1
	c12.9-11.9,26.4-23.6,40.3-34.7C-3615-1119.9-3663.9-1192.7-3732.4-1224z"/>
<linearGradient id="XMLID_00000023992090786612623110000012679765453969635007_" gradientUnits="userSpaceOnUse" x1="-3751.4111" y1="3870.1265" x2="-4053.4431" y2="3870.1265" gradientTransform="matrix(1 0 0 -1 0 1000.5511)">
	<stop  offset="0" style="stop-color:#333333"/>
	<stop  offset="1" style="stop-color:#1A1A1A"/>
</linearGradient>
<path id="XMLID_982_" style="fill:url(#XMLID_00000023992090786612623110000012679765453969635007_);" d="M-3838.7-3325.1
	c-54.5,24.1-88.8,211.4-103.4,291.3c-4.7,25.6-8.8,48.1-12.8,65.6c-41.7,184.6-71.8,374.4-98.6,561.9
	c32.5-86.8,56.8-176.6,71.3-268.1c7.8-49.5,14.1-102.2,45.3-141.4s97.8-54.8,130.4-16.8c11,12.9,16.2,29.4,20.4,46
	c10.8-74.4,20.8-149.1,28.7-223.3c15.9-148.6-1.8-291.9-39.6-319.4C-3799.9-3331.4-3809.2-3338.1-3838.7-3325.1z"/>
<linearGradient id="XMLID_00000097474225734109485400000009572983739043724469_" gradientUnits="userSpaceOnUse" x1="-4753.4023" y1="3723.0186" x2="-5267.1436" y2="3723.0186" gradientTransform="matrix(1 0 0 -1 0 1000.5511)">
	<stop  offset="0" style="stop-color:#333333"/>
	<stop  offset="1" style="stop-color:#1A1A1A"/>
</linearGradient>
<path id="XMLID_983_" style="fill:url(#XMLID_00000097474225734109485400000009572983739043724469_);" d="M-4937.3-2956.6
	c-6.8-17.5-13.8-37.7-21.5-59.5c-35.4-101.1-88.9-253.8-173.6-278.2c-24.5-7.1-47.2,1.8-62,10.5c-32.3,19-58.8,55.4-67.3,92.6
	c-17.9,77.8,12,168.1,36.1,240.7c59.8,180.5,163.9,485.8,223.6,652.4c17.5,48.9,35.5,98.8,54.1,149.9
	c-7.3-95.8-10.5-191.8-8.5-287.8c1.2-56.2,18.8-129.1,74.9-133.6c39.9-3.2,70.8,32.8,93.5,65.8c11.9,17.1,23.1,34.7,34.6,52.1
	C-4811.3-2615.5-4885.4-2822.1-4937.3-2956.6z"/>
<linearGradient id="XMLID_00000164503213059630347850000004463958299499183249_" gradientUnits="userSpaceOnUse" x1="-4785.6733" y1="2253.1411" x2="-5221.9282" y2="2253.1411" gradientTransform="matrix(1 0 0 -1 0 1000.5511)">
	<stop  offset="0" style="stop-color:#333333"/>
	<stop  offset="1" style="stop-color:#1A1A1A"/>
</linearGradient>
<path id="XMLID_984_" style="fill:url(#XMLID_00000164503213059630347850000004463958299499183249_);" d="M-5067.2-1493
	c-25.6,0-53.5,4.8-83.6,15.9c-32.1,11.8-51.8,29.9-62.1,56.9c-37.4,98.4,49.4,284.7,113.6,408c8-32.1,20.5-62.7,39-90.3
	c48.6-72.3,148.8-115.4,226.7-76.3c18.4,9.2,34,22.1,47.9,37c-11.5-60.3-27.7-123.6-59.9-185.4
	C-4880.5-1394.5-4951.5-1493-5067.2-1493z"/>
<linearGradient id="XMLID_00000176008253179024758600000010778657981273794742_" gradientUnits="userSpaceOnUse" x1="-5227.3335" y1="1986.6512" x2="-5656.4561" y2="1986.6512" gradientTransform="matrix(1 0 0 -1 0 1000.5511)">
	<stop  offset="0" style="stop-color:#333333"/>
	<stop  offset="1" style="stop-color:#1A1A1A"/>
</linearGradient>
<path id="XMLID_985_" style="fill:url(#XMLID_00000176008253179024758600000010778657981273794742_);" d="M-5474.9-1002.5
	c12.5-5.5,26.6-8.7,39.9-5.4c16.8,4.2,29.2,17.9,40.5,31c55.7,64,111.4,128,167.1,192c-15.1-29.7-28-56.1-38.3-77.3l-5-10.2
	c-57.2-117.3-142.3-291.6-159.8-451.7c-13.2-9.8-24.9-13.3-35.3-13.3c-8.6,0-16.5,2.3-23.6,5.3c-83.7,34.5-167.7,205-167.1,280.6
	c1,133.1,81.7,272.2,152.9,395c4.3,7.4,8.4,14.5,12.6,21.8c-14.3-39-31.9-77.8-45.2-116.5C-5567.1-841.1-5561.9-964.3-5474.9-1002.5
	z"/>
<linearGradient id="XMLID_00000093178855374113369570000017464655937109147326_" gradientUnits="userSpaceOnUse" x1="-5138.5132" y1="1122.6311" x2="-5469.1133" y2="1122.6311" gradientTransform="matrix(1 0 0 -1 0 1000.5511)">
	<stop  offset="0" style="stop-color:#333333"/>
	<stop  offset="1" style="stop-color:#1A1A1A"/>
</linearGradient>
<path id="XMLID_1136_" style="fill:url(#XMLID_00000093178855374113369570000017464655937109147326_);" d="M-5138.5-73.4
	c-97-1.4-199.4-62.7-275.1-121.2c-19.6-15.2-38.1-31.2-55.5-47.9c13.4,29.6,27.4,59.2,42.1,88.7l3.6,7.2
	c24.8,49.9,50,100.5,79.7,144.8c3.2-0.9,6.4-1.7,9.6-2.6C-5268-22.6-5200.9-44.3-5138.5-73.4z"/>
<linearGradient id="XMLID_00000014624481378104423030000006174955457944376991_" gradientUnits="userSpaceOnUse" x1="-4863.4033" y1="1305.2861" x2="-4886.7036" y2="1305.2861" gradientTransform="matrix(1 0 0 -1 0 1000.5511)">
	<stop  offset="0" style="stop-color:#333333"/>
	<stop  offset="1" style="stop-color:#1A1A1A"/>
</linearGradient>
<path id="XMLID_1137_" style="fill:url(#XMLID_00000014624481378104423030000006174955457944376991_);" d="M-4863.4-310.1
	c-4.9-3-9.7-5.8-14.7-9.2c-2.5,10-5.6,19.5-8.6,29.1c3.6-3.7,7.2-7.5,11.2-10.9C-4871.6-304.4-4867.5-307.3-4863.4-310.1z"/>
<path id="XMLID_00000044866329419525491430000011102311987557480619_" d="M6066.2-1278c-43.8-72.3-107.5-120.4-156.4-187.2
	c-94.4-129.1-100.9-298.2-95-451.9c6.4-167.7,26.6-334.2,50.9-500.1c40.7-278.7,123.4-585.4,98.5-868.1
	c-14.7-166.9-165.8-405.7-351.7-256.5c-81.3,65.3-104.4,177.8-130.6,273.5c-43.3,158.4-75.8,319.7-103.4,481.5
	c-25.2,148.2-46.1,297-67.1,445.8c-10,70.9-20,141.8-30.5,212.6c-6.4,43.4-5.5,234.7-98,188.2c-36.4-18.3-67.8-189.4-81.7-229.6
	c-26.7-77-53.8-153.8-81.9-230.2c-56.2-153-114.1-305.4-173.2-457.2c-55.3-142.1-160.4-421.3-216.8-563
	c-42.4-106.4-130.2-155.4-253.1-135.8c-99.5,15.9-165.6,58.7-210.4,148.9c-117.8,237.3,100,719.2,182.6,947.9
	c90.8,251.5,215.3,532.2,306.1,783.7c-6.4-17.8-174-64.4-194.8-65.4c-58.5-2.7-121.4,18.2-170.9,48.1
	c-28.4,17.2-149.3,132.1-111.6,176.1c-95.9-108.9-304.9,38.8-369.1,140.9c-74.7,118.8-75.9,245.7-43.3,369.9
	c-4.8,9.7-2.4,21.1,6.7,28.8c-13.5,123.7,40.5,287.3,67.9,394.7c41.1,160.8,98.4,317.5,172.1,466.2
	c60,120.9,133.1,244.9,264.2,297.4c145.8,58.3,331.2,51.1,485.5,54c305.8,5.7,695.3,24.5,927.3-209.6c98-99,166.1-221.9,230.6-344
	c97.5-184.7,361.8-488,263.2-710.5C6145.1-1112.4,6113.7-1199.5,6066.2-1278z M4495.1-2372.3c-61.2-170.9-166.8-481.1-224-653.7
	c-29.1-87.9-58.3-181.3-37.6-271.6c20.8-90.3,112-171,201-145.3c133.5,38.6,189.7,260.9,232.6,372.1
	c71.6,185.6,186.4,510.9,252,698.7c43.9,125.8,86.7,251.9,130,377.9c25.7,74.9,53.3,172.1,142.2,191.3
	c198.8,42.9,195.4-315,210.6-424.5c39.5-283.3,75.5-567.7,138.5-846.9c21.8-96.4,49.1-352.5,148.8-396.7
	c194.1-86,170.6,289.1,161.5,373.8c-33.9,316-99.8,627.7-136.1,943.5c-22.7,196.7-74.2,470.2,30.5,657.7
	c-89-16.8-182.8-20.5-266-30.4c-152.5-18.2-308.3-60.3-462.8-38.6c-38.6,5.4-71.6,17.2-107.5,31.3c-53.3,21-52.1,34.2-84.9-17
	c-53.2-83.1-86.7-188.8-129.1-278.2C4627.1-2009.6,4560.2-2190.6,4495.1-2372.3z M4380.5-1624.4c168-61.8,299.2,29.8,375.9,177.2
	c38,73.1,55.7,145.8,69.7,225.1c17.3,97.7,62.8,185.7,89.2,282.4c25,91.3,62.3,220.6,29.1,314.7c-57.2,162-223.5,34.7-294.5-44.9
	c-80.8-90.5-139.5-200.7-194.9-307.7C4379.7-1123,4131.3-1532.8,4380.5-1624.4z M3837.4-1144.7c-1-130.6,181.6-460.9,338.3-300.7
	c10.7,159.4,103.8,346.4,160.9,463.6c28.2,57.8,74,152,132.6,247.3c0.1,3,0.3,6,1,9c19.6,96,74.4,372.2-99.3,369.2
	c-150.3-2.6-287.3-216.4-350.7-326.9C3941.1-821,3838.6-981.5,3837.4-1144.7z M6087.7-856.7c-25.4,63.5-75.6,126.5-105,184.3
	c-71.2,139.9-150.7,275.5-231.4,410C5653-98.7,5520.3,50,5324,86.1c-161.4,29.7-331.5,34.5-495.2,35
	c-152.9,0.4-326.5,6.6-475.3-32.6C4205,49.5,4135.8-94.9,4072.8-222c-67.2-135.4-123.9-275.5-166.5-420.6
	c-8-27.1-15.2-54.4-22.2-81.7c16.9,31.3,34,61.8,50.5,91.3c62.8,111.8,135.4,220.2,237.9,299.5c71.9,55.5,199.2,137.3,295.5,100.4
	c107.2-41.1,158.7-165.6,161.9-290c104.8,104,226.6,156.9,352.5,65.2c105.2-76.7,106.8-222.6,92-339.1c-8.6-68.1-21.8-140-42-209.9
	c15.8,8.9,31.9,17,48.5,24.1c66.3,28.7,137.1,43.6,208.7,51.2c56.7,6,122-19.8,130,53.6c4.7,43.1-9.7,98.8-13.1,142.5
	c-5.3,67.4,97.1,65.5,104.1,0c8.1-75.7,50.7-217.4-30.2-269.5c-28.5-18.3-62.5-16.1-95.1-17.5c-78.7-3.2-156.8-9.1-232-34.6
	c-79.2-26.9-152.9-74.8-199.3-145.7c-55.8-85.2-75.5-218.5,37.3-270.6c48.7-22.5,133-1.2,183.8,4.6c79.6,9.1,159.2,18.6,238.9,28
	c138.3,16.2,300.3,12.8,428.5,71.3c129.3,59.1,194.6,227.1,244.9,352.6C6112.1-955.1,6106.7-904.4,6087.7-856.7z"/>
<g>
	
		<linearGradient id="XMLID_00000048492388244377869590000003222192669320595091_" gradientUnits="userSpaceOnUse" x1="3860.6924" y1="4585.853" x2="3860.6924" y2="8858.4375" gradientTransform="matrix(1 0 0 -1 0 1000.5511)">
		<stop  offset="0" style="stop-color:#E3CF35"/>
		<stop  offset="1" style="stop-color:#F4ECAE"/>
	</linearGradient>
	
		<path id="XMLID_00000116197853165087663800000013843467929473642381_" style="fill:url(#XMLID_00000048492388244377869590000003222192669320595091_);" d="
		M4709.1-4858.7c-128.2-58.6-290.1-55.1-428.5-71.3c-79.6-9.3-159.2-18.8-238.9-28c-50.8-5.8-135-27.1-183.8-4.6
		c-112.8,52.1-93.1,185.4-37.3,270.6c46.4,70.9,120.1,118.9,199.3,145.7c75.3,25.5,153.3,31.4,232,34.6c32.6,1.3,66.6-0.8,95.1,17.5
		c80.9,52.1,38.3,193.8,30.2,269.5c-7,65.5-109.4,67.4-104.1,0c3.4-43.7,17.9-99.4,13.1-142.5c-8-73.4-73.3-47.6-130-53.6
		c-71.6-7.5-142.4-22.5-208.7-51.2c-16.5-7.1-32.7-15.2-48.5-24.1c20.2,70,33.3,141.8,42,209.9c14.8,116.5,13.1,262.5-92.1,339.1
		c-125.8,91.8-247.6,38.9-352.5-65.2c-3.2,124.4-54.7,248.9-161.9,290c-96.3,36.9-223.6-44.8-295.5-100.4
		c-102.5-79.2-175.1-187.7-237.9-299.5c-16.5-29.4-33.6-60-50.5-91.3c7,27.4,14.2,54.7,22.2,81.7c42.7,145.1,99.3,285.2,166.5,420.6
		c63.1,127,132.2,271.4,280.7,310.5c148.8,39.1,322.4,33,475.3,32.6c163.8-0.5,333.8-5.4,495.2-35c196.4-36.1,329-184.8,427.3-348.5
		c80.8-134.5,160.2-270.1,231.4-410c29.5-57.9,79.7-120.9,105-184.3c19-47.7,24.4-98.4-0.4-160.4
		C4903.7-4631.6,4838.4-4799.6,4709.1-4858.7z"/>
	
		<linearGradient id="XMLID_00000178200466003939419960000011166876874277225638_" gradientUnits="userSpaceOnUse" x1="3908.271" y1="4585.8535" x2="3908.271" y2="8858.4316" gradientTransform="matrix(1 0 0 -1 0 1000.5511)">
		<stop  offset="0" style="stop-color:#E3CF35"/>
		<stop  offset="1" style="stop-color:#F4ECAE"/>
	</linearGradient>
	
		<path id="XMLID_00000036968364084392840600000012280980459445249672_" style="fill:url(#XMLID_00000178200466003939419960000011166876874277225638_);" d="
		M3690.6-5039.8c32.8,51.2,31.6,38,84.9,17c35.9-14.1,68.9-25.8,107.5-31.3c154.5-21.7,310.2,20.3,462.8,38.5
		c83.2,9.9,177,13.6,266,30.4c-104.6-187.5-53.2-461-30.5-657.7c36.4-315.8,102.3-627.5,136.1-943.5
		c9.1-84.7,32.6-459.7-161.5-373.8c-99.7,44.1-127.1,300.3-148.8,396.7c-63,279.3-99,563.7-138.5,846.9
		c-15.3,109.5-11.8,467.5-210.6,424.5c-88.9-19.2-116.5-116.3-142.2-191.3c-43.2-126-86-252.1-129.9-377.9
		c-65.6-187.8-180.4-513.1-252-698.7c-42.9-111.2-99.1-333.6-232.6-372.1c-89-25.7-180.2,55.1-201,145.3s8.4,183.7,37.6,271.6
		c57.2,172.6,162.9,482.9,224,653.7c65.1,181.7,131.9,362.7,199.6,543.3C3603.9-5228.5,3637.4-5122.9,3690.6-5039.8z"/>
	
		<linearGradient id="XMLID_00000080927342871125434330000015622311454966095515_" gradientUnits="userSpaceOnUse" x1="3481.5022" y1="4585.8525" x2="3481.5022" y2="8858.4365" gradientTransform="matrix(1 0 0 -1 0 1000.5511)">
		<stop  offset="0" style="stop-color:#E3CF35"/>
		<stop  offset="1" style="stop-color:#F4ECAE"/>
	</linearGradient>
	
		<path id="XMLID_00000088119559271343331460000002238729765438415252_" style="fill:url(#XMLID_00000080927342871125434330000015622311454966095515_);" d="
		M3516.5-4159c71,79.6,237.3,206.9,294.5,44.9c33.2-94.1-4.1-223.4-29.1-314.7c-26.4-96.7-71.9-184.7-89.2-282.4
		c-14-79.3-31.8-152-69.7-225.1c-76.6-147.5-207.9-239-375.9-177.2c-249.1,91.6-0.8,501.5,74.5,646.8
		C3377-4359.6,3435.8-4249.4,3516.5-4159z"/>
	
		<linearGradient id="XMLID_00000013193975617083262480000016407145736625365666_" gradientUnits="userSpaceOnUse" x1="3032.3252" y1="4585.853" x2="3032.3252" y2="8858.4375" gradientTransform="matrix(1 0 0 -1 0 1000.5511)">
		<stop  offset="0" style="stop-color:#E3CF35"/>
		<stop  offset="1" style="stop-color:#F4ECAE"/>
	</linearGradient>
	
		<path id="XMLID_00000042710461230672814900000011191191206853286032_" style="fill:url(#XMLID_00000013193975617083262480000016407145736625365666_);" d="
		M3237.5-3845.1c173.6,3,118.9-273.3,99.3-369.3c-0.6-3-0.9-6-1-9c-58.6-95.4-104.5-189.6-132.6-247.3
		c-57.1-117.2-150.2-304.2-160.9-463.6c-156.7-160.2-339.3,170-338.3,300.7c1.2,163.2,103.7,323.7,182.8,461.7
		C2950.2-4061.5,3087.2-3847.7,3237.5-3845.1z"/>
	
		<linearGradient id="XMLID_00000033335258019809244730000011309312899502425990_" gradientUnits="userSpaceOnUse" x1="4818.7271" y1="5206.9307" x2="3051.1272" y2="5206.9307" gradientTransform="matrix(1 0 0 -1 0 1000.5511)">
		<stop  offset="0" style="stop-color:#333333"/>
		<stop  offset="1" style="stop-color:#1A1A1A"/>
	</linearGradient>
	
		<path id="XMLID_00000092444688668177795210000002879253070223982469_" style="fill:url(#XMLID_00000033335258019809244730000011309312899502425990_);" d="
		M4662.4-4829.5L4662.4-4829.5c-87-39.8-196.4-48.3-302.2-56.6c-36.2-2.8-73.6-5.8-109.2-9.9l-79.9-9.4
		c-53-6.3-105.9-12.5-158.9-18.6c-11.4-1.3-24.4-3.3-38.3-5.5c-36.7-5.8-92.2-14.5-114.9-4c-23.9,11-38.6,27.2-45,49.6
		c-10.7,37.2,2,92.5,31.6,137.7c45.4,69.4,117.4,105.1,169.8,122.9c70.4,23.9,145.3,28.7,216,31.6l13.5,0.4
		c32.3,0.8,72.4,1.8,110.2,26.1c98,63.1,76.6,194.2,62.5,280.9c-2.6,15.7-5,30.2-6.3,42.8c-7.5,69.5-69.3,105.3-124.9,100.5
		c-58.6-5.4-97.8-52.1-93.2-111c1.4-17.3,4.1-35.5,6.8-53.1c4.3-28.6,8.8-58.1,6.5-78.8c-0.1-0.7-0.2-1.3-0.2-1.9
		c-7.7-0.7-20.1-0.3-29,0c-15.1,0.5-32.1,1-49.8-0.9c-62.4-6.6-118.2-17.9-169.1-34.4c6.5,33.6,12.1,68.7,16.7,104.9
		c24.1,190.1-13.6,318.6-115.1,392.6c-76.1,55.5-189.8,93.9-328.4,8c-4.1,2.8-8.2,5.8-12.1,9.1c-4,3.4-7.5,7.2-11.2,10.9
		c-31.3,98.2-93.1,172.3-175.9,204.1c-24.5,9.4-50,13.1-75.9,12.7c-62.4,29.1-129.5,50.8-195.5,69.1c-3.2,0.9-6.4,1.8-9.6,2.6
		c41,61.1,90.8,110.2,160.7,128.6c6.3,1.7,12.9,2.9,19.3,4.4c76.4-23.1,146.1-68.2,197.2-129.6c26-31.2,47.4-66.2,76.3-94.6
		c114.4-112,314.8-92.7,428.1-205.8c63.1-63,94.7-163,178-194.8c62.3-23.8,132.5,0.1,198.5-9.5c134-19.5,206.5-161.3,279.4-275.5
		c53.2-83.4,117.2-160,189.9-227.1c12.9-11.9,26.4-23.6,40.3-34.7C4779.9-4725.4,4731-4798.2,4662.4-4829.5z"/>
	
		<linearGradient id="XMLID_00000000201667513907669840000015840210767702611590_" gradientUnits="userSpaceOnUse" x1="4643.4102" y1="7475.6567" x2="4341.3774" y2="7475.6567" gradientTransform="matrix(1 0 0 -1 0 1000.5511)">
		<stop  offset="0" style="stop-color:#333333"/>
		<stop  offset="1" style="stop-color:#1A1A1A"/>
	</linearGradient>
	
		<path id="XMLID_00000177442468516247354560000016015751655524694671_" style="fill:url(#XMLID_00000000201667513907669840000015840210767702611590_);" d="
		M4556.1-6930.6c-54.5,24.1-88.8,211.4-103.4,291.3c-4.7,25.6-8.8,48.1-12.8,65.6c-41.7,184.6-71.8,374.4-98.6,561.9
		c32.5-86.8,56.8-176.5,71.3-268c7.8-49.5,14.1-102.2,45.3-141.4c31.2-39.2,97.8-54.8,130.4-16.8c11,12.9,16.2,29.4,20.5,46
		c10.8-74.4,20.8-149.1,28.7-223.3c15.9-148.6-1.8-291.9-39.6-319.4C4595-6936.9,4585.6-6943.7,4556.1-6930.6z"/>
	
		<linearGradient id="XMLID_00000165195016307052411910000003636980007867559870_" gradientUnits="userSpaceOnUse" x1="3641.427" y1="7328.5479" x2="3127.6858" y2="7328.5479" gradientTransform="matrix(1 0 0 -1 0 1000.5511)">
		<stop  offset="0" style="stop-color:#333333"/>
		<stop  offset="1" style="stop-color:#1A1A1A"/>
	</linearGradient>
	
		<path id="XMLID_00000109004405746468683300000012783268094685056183_" style="fill:url(#XMLID_00000165195016307052411910000003636980007867559870_);" d="
		M3457.5-6562.1c-6.8-17.5-13.8-37.7-21.5-59.5c-35.4-101-88.9-253.8-173.6-278.2c-24.5-7.1-47.2,1.8-62,10.5
		c-32.3,19-58.8,55.4-67.3,92.6c-17.9,77.8,12.1,168.1,36.1,240.7c59.8,180.5,163.9,485.8,223.6,652.4
		c17.5,48.9,35.5,98.8,54.1,149.9c-7.3-95.8-10.5-191.8-8.5-287.8c1.2-56.2,18.8-129.1,74.9-133.6c39.9-3.2,70.8,32.8,93.5,65.8
		c11.9,17.1,23.1,34.7,34.6,52.1C3583.5-6221.1,3509.4-6427.7,3457.5-6562.1z"/>
	
		<linearGradient id="XMLID_00000154422548706396400850000001036397246973439629_" gradientUnits="userSpaceOnUse" x1="3609.1567" y1="5858.666" x2="3172.9016" y2="5858.666" gradientTransform="matrix(1 0 0 -1 0 1000.5511)">
		<stop  offset="0" style="stop-color:#333333"/>
		<stop  offset="1" style="stop-color:#1A1A1A"/>
	</linearGradient>
	
		<path id="XMLID_00000026147602369324305020000002177050467592774049_" style="fill:url(#XMLID_00000154422548706396400850000001036397246973439629_);" d="
		M3327.6-5098.5c-25.6,0-53.5,4.8-83.6,15.9c-32.1,11.8-51.8,29.9-62.1,56.9c-37.4,98.4,49.4,284.7,113.6,408
		c8-32.1,20.5-62.7,39-90.4c48.6-72.3,148.8-115.4,226.7-76.3c18.4,9.2,34,22.1,47.9,37c-11.5-60.3-27.7-123.6-59.9-185.4
		C3514.3-5000,3443.3-5098.5,3327.6-5098.5z"/>
	
		<linearGradient id="XMLID_00000049223546994514973190000001773635340276743585_" gradientUnits="userSpaceOnUse" x1="3167.4968" y1="5592.186" x2="2738.3738" y2="5592.186" gradientTransform="matrix(1 0 0 -1 0 1000.5511)">
		<stop  offset="0" style="stop-color:#333333"/>
		<stop  offset="1" style="stop-color:#1A1A1A"/>
	</linearGradient>
	
		<path id="XMLID_00000057835671944709372610000015899840037269207713_" style="fill:url(#XMLID_00000049223546994514973190000001773635340276743585_);" d="
		M2919.9-4608c12.5-5.5,26.6-8.7,39.9-5.4c16.8,4.2,29.2,17.9,40.6,31c55.7,64,111.4,128,167.1,192c-15.1-29.7-28-56.1-38.3-77.3
		l-5-10.2c-57.2-117.3-142.3-291.6-159.8-451.7c-13.2-9.8-24.9-13.3-35.3-13.3c-8.6,0-16.5,2.4-23.6,5.3
		c-83.7,34.5-167.7,205-167.1,280.6c1,133.1,81.7,272.2,152.9,395c4.3,7.4,8.4,14.5,12.6,21.8c-14.3-39-31.9-77.8-45.2-116.5
		C2827.7-4446.6,2833-4569.9,2919.9-4608z"/>
	
		<linearGradient id="XMLID_00000171682824863754382670000016933285011490244271_" gradientUnits="userSpaceOnUse" x1="3256.3169" y1="4728.1611" x2="2925.7068" y2="4728.1611" gradientTransform="matrix(1 0 0 -1 0 1000.5511)">
		<stop  offset="0" style="stop-color:#333333"/>
		<stop  offset="1" style="stop-color:#1A1A1A"/>
	</linearGradient>
	
		<path id="XMLID_00000085951015452153049110000011940902551256577423_" style="fill:url(#XMLID_00000171682824863754382670000016933285011490244271_);" d="
		M3256.3-3678.9c-97-1.4-199.4-62.7-275.1-121.2c-19.6-15.2-38.1-31.2-55.6-47.9c13.4,29.6,27.4,59.2,42.1,88.7l3.6,7.2
		c24.8,49.9,50,100.5,79.7,144.8c3.2-0.9,6.4-1.7,9.6-2.6C3126.8-3628.1,3193.9-3649.8,3256.3-3678.9z"/>
	
		<linearGradient id="XMLID_00000038412045498465559890000018404361399410191542_" gradientUnits="userSpaceOnUse" x1="3531.427" y1="4910.8262" x2="3508.127" y2="4910.8262" gradientTransform="matrix(1 0 0 -1 0 1000.5511)">
		<stop  offset="0" style="stop-color:#333333"/>
		<stop  offset="1" style="stop-color:#1A1A1A"/>
	</linearGradient>
	
		<path id="XMLID_00000153677074561806012700000009932625552848199053_" style="fill:url(#XMLID_00000038412045498465559890000018404361399410191542_);" d="
		M3531.4-3915.7c-4.9-3-9.7-5.8-14.7-9.2c-2.4,10-5.6,19.6-8.6,29.1c3.6-3.7,7.2-7.6,11.2-10.9
		C3523.2-3909.9,3527.3-3912.8,3531.4-3915.7z"/>
</g>
<g>
	<path class="st23" d="M145.9,479.1c-30.2-10.1-55.5-26.3-75.9-48.7c-20.4-22.4-37.7-49.7-51.8-82C6,322.2,0,294,0,263.7
		c0-33.3,7.6-67.8,22.7-103.5C40.3,118.4,60.1,84.9,82,59.7c21.9-25.2,52-41.3,90.3-48.4c2.5-0.5,5.8-1.5,9.8-3
		c4-1.5,7.6-2.5,10.6-3C210.4,1.8,229.5,0,250.1,0c19.6,0,38.5,1.1,56.7,3.4c18.1,2.3,41.1,5.7,68.8,10.2
		c31.2,5.5,52.4,8.3,63.5,8.3c4.5,0,9.3-0.5,14.4-1.5c-0.5,0.5,3.2,3.8,11,9.8c7.8,6,11.7,12.6,11.7,19.6
		c1,36.8,3.2,106.1,6.4,207.8c3.3,101.8,5.4,159.7,6.4,173.8c2,37.8,3,86.2,3,145.1c0,51.9-1.3,126.5-3.8,223.7
		c-1,44.8-1.3,68.8-0.8,71.8c0,5.6-0.5,10.3-1.5,14.4c-1,4-4.8,6-11.3,6V891c-0.5,2-2.9,2.6-7.2,1.9c-4.3-0.8-8.4-2.9-12.5-6.4
		c-4-3.5-6-8.1-6-13.6c0-2-0.8-3-2.3-3l-4.5,1.5c-2,0.5-5.2,2.3-9.4,5.3c-4.3,3-7.9,4.5-11,4.5c-3,0-5.8-1-8.3-3
		c-1.5-1-3.5-2.8-6-5.3c-2.5-2.5-5-3.8-7.6-3.8c-2.5,0-5.3,1.8-8.3,5.3c-2-3-5.9-5.5-11.7-7.6c-5.8-2-9.2-4-10.2-6
		c-5-7.1-11.6-10.6-19.6-10.6h-4.5c-2.5,0.5-3.8,3-3.8,7.6c0,2.5,0.4,6.4,1.1,11.7c0.8,5.3,0.1,8.2-1.9,8.7c-3,1-5,0.1-6-2.6
		c-1-2.8-1.5-9.2-1.5-19.3c0-18.6,1.8-53.4,5.3-104.3c0.5-1.5,0.6-3.3,0.4-5.3c-0.2-2-0.4-3.5-0.4-4.5c0-5,2-7.6,6-7.6h0.8
		c2,0,3.2,0.8,3.4,2.3c0.3,1.5,0.1,3.5-0.4,6c-0.5,2.5-0.8,5.8-0.8,9.8c0,4,0.3,7.1,0.8,9.1c0,1,0.5,1.8,1.5,2.3
		c1,0.5,1.5,0.3,1.5-0.8c2-12.1,3-21.7,3-28.7c0-6.5-1-9.8-3-9.8c-1,0-2.3,0.5-3.8,1.5c-1.5,1-2.8,1.8-3.8,2.3
		c-1.5,0-2.3-0.8-2.3-2.3c0-1.5,0-2.5,0-3c-0.5-10.1-0.8-24.7-0.8-43.8c0-39.8,0.8-73.6,2.3-101.3l0.8-49.1c0-22.7-2-34-6-34
		c-4,0-12.1,13.7-24.2,41.2c-12.1,27.5-34.5,81.2-67.3,161.3c-33.3,81.6-59.4,145.6-78.6,192c-2.5,6-7.3,9.1-14.4,9.1
		c-4,0-7.7-1-11-3c-3.3-2-4.9-4.5-4.9-7.6c0-2.5,1-5,3-7.6c-2.5,1-4.8-0.4-6.8-4.2c-2-3.8-4-5.7-6-5.7l-3.8,1.5
		c-5,2.5-9.1,3.8-12.1,3.8c-4.5,0-8.1-3-10.6-9.1c-0.5-1.5-1.3-2.1-2.3-1.9c-1,0.3-2.4,1-4.2,2.3c-1.8,1.3-3.1,2.1-4.2,2.6
		c-2.5-1.5-3-3.3-1.5-5.3c-4,1.5-7.1,2.3-9.1,2.3c-3.5,0-5.3-2-5.3-6c0-2.5,0.3-4.8,0.8-6.8c0-0.5,0.4-1.4,1.1-2.6
		c0.8-1.3,1.1-2.6,1.1-4.2c0-1-0.5-1.5-1.5-1.5c-1.5,0-3.8,1.3-6.8,3.8c-2.5,2-6.2,1.9-11-0.4c-4.8-2.3-8.2-3.4-10.2-3.4
		c-3,0-5.8,1.3-8.3,3.8c-0.5-2-0.2-3.9,0.8-5.7c1-1.8,1.5-3.1,1.5-4.2c0-0.5-1-1.5-3-3c-1,2-2,3.9-3,5.7c-1,1.8-2,3.7-3,5.7
		c-0.5,1-1,2.5-1.5,4.5c-0.5,2-1.5,3-3,3c-1.5-0.5-3-3.5-4.5-9.1c0-1,0.4-2.5,1.1-4.5c0.8-2,1.4-3.5,1.9-4.5
		c3-10.6,8.1-22.2,15.1-34.8c10.1-19.1,15.9-34.5,17.4-46.1c0.5,1,1,1.5,1.5,1.5c0.5,0,1-0.5,1.5-1.5c-0.5,0,0.6-2.5,3.4-7.6
		c2.8-5,5.4-10.6,7.9-16.6l12.8-31.7c7.1-19.6,13.5-35.6,19.3-48c5.8-12.3,13.2-23.8,22.3-34.4c0-0.5,0.6-1.5,1.9-3
		c1.3-1.5,0.9-3-1.1-4.5c0.5-1,0.8-1.3,0.8-0.8c4-4,6-7,6-9.1c0-2.5-1.3-4.8-3.8-6.8c0,3,4.8-7,14.4-30.2
		c9.6-21.7,15.6-34.8,18.1-39.3c1-1.5,3.2-5.7,6.4-12.5c3.3-6.8,4.9-11.7,4.9-14.7c0-4-2-7.2-6-9.4
		C166,485.6,157.9,482.7,145.9,479.1z M457.2,897c-1,0-1.5-0.2-1.5-0.8C456.2,895.8,456.7,896,457.2,897z M423.2,872.9h0.8H423.2z
		 M405.1,894h-0.8C404.3,893.5,404.6,893.5,405.1,894z M403.6,878.9h-0.8l-1.5-1.5C402.3,877.4,403.1,877.9,403.6,878.9z M359.7,622
		c0,4,0.5,11.1,1.5,21.2c3-4.5,4.5-9.6,4.5-15.1c0-2-0.5-5.5-1.5-10.6c-0.5-4-0.5-9.1,0-15.1c0.5-6,0.8-11.1,0.8-15.1
		c0-9.1-1.5-16.4-4.5-21.9v-0.8c0,0.5-0.9,0.4-2.6-0.4c-1.8-0.8-3.1-1.1-4.2-1.1c-0.5,0-0.8,0.3-0.8,0.8c0,1,0.5,2,1.5,3
		c5.5,6.6,8.3,14.6,8.3,24.2c0,3-0.5,8.1-1.5,15.1C360.2,613.2,359.7,618.4,359.7,622z M364.3,869.1c-1-0.5-1.3-1.3-0.8-2.3
		C364.5,867.8,364.8,868.6,364.3,869.1z M360.5,699.8c1-2,1.5-3.8,1.5-5.3c0-1.5-0.5-3.5-1.5-6l-0.8,7.6L360.5,699.8z M361.2,659
		c-0.5,0.5-0.5,1,0,1.5C361.7,660,361.7,659.5,361.2,659z M360.5,550.9c1,0,0.5,0.6-1.5,1.9c-2,1.3-1.5,2.4,1.5,3.4
		C361,552.2,361,550.4,360.5,550.9z M352.2,660.5h2.3c-0.5-1-0.8-2.3-0.8-3.8c-0.5,0-1,0.3-1.5,0.8C351.7,658,351.7,659,352.2,660.5
		z M350.7,588.7c0-0.5-0.2-0.8-0.8-0.8L350.7,588.7z M346.9,811.6l-1.5,6l1.5,6l1.5-6L346.9,811.6z M346.1,612.1
		c0.5-1,0.8-1.6,0.8-1.9c0-0.2-0.2-0.6-0.8-1.1c-1,0.5-1.5,0.9-1.5,1.1C344.6,610.5,345.1,611.1,346.1,612.1z M256.2,347.6v-2.3
		l55.2,0.8c13.6,0,22.7-1,27.2-3c4.5-2,6.8-6.5,6.8-13.6v-6.8c-4-28.2-6-54.7-6-79.4c0-19.1,0.8-34.8,2.3-46.9l0.8-20.4
		c0-7-0.9-12.2-2.6-15.5c-1.8-3.3-5.2-5.2-10.2-5.7l-21.9-2.3c-22.2-2-37-3-44.6-3c-18.1,0-34.3,3.2-48.4,9.4
		c-14.1,6.3-29,18-44.6,35.1c-5.5,6-9.8,15.6-12.8,28.7c-3,13.1-4.5,26.7-4.5,40.8c0,24.7,4,41.8,12.1,51.4
		c9.1,11.6,21.9,19.9,38.5,24.9C219.9,345.1,237.6,347.6,256.2,347.6z M343.9,265.3c0,1,0.3,1.8,0.8,2.3
		C345.1,267,344.9,266.3,343.9,265.3z M338.6,834.3l0.8,2.3v-3L338.6,834.3z M331,352.9l0.8-0.8C329.2,351.7,329,351.9,331,352.9z
		 M328,351.4c-3.5,0.5-8.8,0.8-15.9,0.8c-10.1,0-18.3,0.4-24.6,1.1c-6.3,0.8-12.5,2.9-18.5,6.4c16.6-1,29.7-1.9,39.3-2.6
		c9.6-0.8,15-1.4,16.2-1.9C325.8,354.7,327,353.4,328,351.4z M322.7,139.8h1.5C323.7,139.3,323.2,139.3,322.7,139.8z M291,133.8
		c-3.5,0-7-0.2-10.6-0.8c-3.5-0.5-7-0.8-10.6-0.8c-5.5,0-9.6,0.8-12.1,2.3c8.1,1,14.7,2,20,3c5.3,1,9.4,1.5,12.5,1.5l17.4-1.5
		C298.5,135,293,133.8,291,133.8z M305.3,371.1c0-0.5-0.5-0.2-1.5,0.8L305.3,371.1z M269.8,371.8l8.3,0.8c5.5,0,10.6-1.5,15.1-4.5
		l-6-1.5c-2,0-4.9,0.5-8.7,1.5c-3.8,1-6.4,1.5-7.9,1.5c-2.5,0-5.2-0.4-7.9-1.1c-2.8-0.8-5.4-1.1-7.9-1.1c-0.5,0-2.3,0.5-5.3,1.5
		c2.5,2.5,6,3.8,10.6,3.8l8.3-0.8H269.8z M269,359.7c-2.5,0-11.1-1-25.7-3c0.5,3,4,4.5,10.6,4.5c4.5,0,8.1-0.2,10.6-0.8
		C267,360,268.5,359.7,269,359.7z M234.3,135.3c-7,0.5-16.1,4.3-27.2,11.3c-0.5,2-3.1,3.8-7.9,5.3c-4.8,1.5-7.2,4-7.2,7.6v2.3
		l49.1-24.2c-1-2-2.3-2.9-3.8-2.6C235.8,135.2,234.8,135.3,234.3,135.3z M232.8,369.5V368c-1.5-1-2.6-1.1-3.4-0.4
		c-0.8,0.8-1.4,1.1-1.9,1.1c1.5,0,2.6,0.1,3.4,0.4C231.6,369.4,232.3,369.5,232.8,369.5z M229,359.7l-6.8-2.3
		c-0.5,0-0.9,0.1-1.1,0.4c-0.2,0.3-0.6,0.4-1.1,0.4l5.3,3C226.2,361.2,227.5,360.7,229,359.7z M216.1,133.8l-0.8-0.8
		C215.4,133.5,215.6,133.8,216.1,133.8z M212.4,354.4c-0.5,0-0.8,0.3-0.8,0.8C212.1,355.7,212.4,355.5,212.4,354.4z M201,145.9v-0.8
		c4,1,6.2,1.4,6.4,1.1c0.3-0.2,1.4-2.6,3.4-7.2c-2-1-3.5-1.1-4.5-0.4c-1,0.8-1.9,1.9-2.6,3.4C202.9,143.6,202,144.9,201,145.9z
		 M191.2,161l0.8,0.8L191.2,161z M145.1,235.8c-2,5.6-3,8.6-3,9.1l1.5,3c2-4,3-6.5,3-7.6C146.6,239.3,146.1,237.8,145.1,235.8z
		 M145.9,226v-0.8C145.4,225.7,145.4,226,145.9,226z M132.3,595.5V594C132.8,594.5,132.8,595,132.3,595.5z M128.5,609.9l0.8,0.8
		L128.5,609.9z M96.7,712.6c1-0.5,1.8-1.5,2.3-3c0.5-1.5,1.8-5.3,3.8-11.3c-4,5-6,9.6-6,13.6V712.6z M89.9,869.8l0.8-0.8
		C90.7,869.6,90.4,869.8,89.9,869.8z M89.2,860.8c-1,0-1.5,0.3-1.5,0.8c0,0.5,0.5,1.3,1.5,2.3V860.8z M82.4,745.9
		c1,1,1.1,1.9,0.4,2.6s-2.4,1.9-4.9,3.4c1.5,1.5,2.4,1.6,2.6,0.4c0.3-1.3,0.6-2.1,1.1-2.6c1-1,1.5-1.6,1.5-1.9
		C83.1,747.5,82.9,746.9,82.4,745.9z M81.6,721.7l1.5,0.8C83.1,722,82.6,721.7,81.6,721.7z M60.5,756.5h2.3
		C61.7,758,61,758,60.5,756.5z M59.7,755.7c0.5,0.5,0.5,0.8,0,0.8V755.7z"/>
</g>
</svg>
