<?xml version="1.0" encoding="utf-8"?>
<!-- Generator: Adobe Illustrator 27.4.0, SVG Export Plug-In . SVG Version: 6.00 Build 0)  -->
<svg version="1.1" id="Layer_1" xmlns="http://www.w3.org/2000/svg" xmlns:xlink="http://www.w3.org/1999/xlink" x="0px" y="0px"
	 viewBox="0 0 500 500" style="enable-background:new 0 0 500 500;" xml:space="preserve">
<style type="text/css">
	.st0{fill:#B07957;}
	.st1{fill:#FFFFFF;}
	.st2{font-family:'FONTSPRINGDEMO-TheSeasonsRegular';}
	.st3{font-size:11.56px;}
	.st4{letter-spacing:1;}
	.st5{letter-spacing:1.9;}
</style>
<rect class="st0" width="500" height="500"/>
<g>
	<path class="st1" d="M188,234.2c5.4-1.5,7-5.3,7-19c0-3.7-0.6-7.8,0.1-11.5c0.9-4.8,4.9-8.5,6.6-13c1.7-4.7,0.9-10.2-2.1-14.2
		c-1-1.3-2.1-2.4-2.9-3.8c-3.8-6.5-1.7-17.9-1.7-25.2c0-19-3.7-23.7-10.7-25.7v-2.2h21.2l45.6,71.8l44.8-71.8h19.8v2.2
		c-7,2-10.7,6.7-10.7,25.7v67.7c0,13.7,1.6,17.5,7,19v2.2h-28.3v-2.2c5.2-1.5,7-5.3,7-19v-82l-44.4,71.5h-3.3
		c0,0-44.8-70.2-44.8-70.2c1.2,1.9,0,8.7,0,10.9c0,6.9-2,16.1,1.6,22.1c1.6,2.6,3.6,4.9,5.3,7.4c3.6,5.7,4.9,13.2,1.8,19.3
		c-1.6,3.1-4.2,5.6-6.1,8.6c-4.1,6.6-3.3,15.2-0.6,22.3c0.9,2.3,2,4.5,4,6.1c0.5,0.4,5.9,3.1,5.9,2.8v2.2h-22L188,234.2L188,234.2z"
		/>
	<text transform="matrix(1.05 0 0 1 171.5698 377.0996)" class="st1 st2 st3 st4">C</text>
	<text transform="matrix(1.05 0 0 1 182.4902 377.0996)" class="st1 st2 st3 st5">ANDLES AND MORE</text>
	<g>
		<path class="st1" d="M113.4,347.6c2.2-0.6,2.8-2.1,2.8-7.6c0-1.5-0.2-3.1,0.1-4.6c0.4-1.9,1.9-3.4,2.6-5.2
			c0.7-1.9,0.4-4.1-0.8-5.6c-0.4-0.5-0.8-1-1.2-1.5c-1.5-2.6-0.7-7.1-0.7-10c0-7.6-1.5-9.4-4.2-10.2V302h8.4l18.2,28.6l17.8-28.6
			h7.9v0.9c-2.8,0.8-4.2,2.6-4.2,10.2v27c0,5.4,0.6,7,2.8,7.6v0.9h-11.3v-0.9c2.1-0.6,2.8-2.1,2.8-7.6v-32.6l-17.7,28.5h-1.3
			l-17.8-27.9c0.5,0.8,0,3.5,0,4.4c0,2.7-0.8,6.4,0.7,8.8c0.6,1,1.4,1.9,2.1,3c1.4,2.3,1.9,5.3,0.7,7.7c-0.6,1.2-1.7,2.2-2.4,3.4
			c-1.6,2.6-1.3,6.1-0.3,8.9c0.3,0.9,0.8,1.8,1.6,2.4c0.2,0.2,2.4,1.2,2.4,1.1v0.9h-8.8L113.4,347.6L113.4,347.6z"/>
		<path class="st1" d="M173.6,324.5c0-13.6,10-23.7,24.8-23.7c11.8,0,24.7,7.7,24.7,24s-13,23.7-24.7,23.7S173.6,340.9,173.6,324.5z
			 M201.3,346.8c11.1,0,16.6-7.7,16.3-17.6c-0.5-13.9-9.6-26.8-22.1-26.8c-10.6,0-16.8,7.5-16.4,18.3
			C179.6,334,188.8,346.8,201.3,346.8L201.3,346.8z"/>
		<path class="st1" d="M230.4,343.7l-0.4-9.2l0.8-0.1c2.7,7,8,12.9,17.7,12.9c5.6,0,10.4-3.5,10.4-8.8c0-6.6-8.6-9.7-14.4-12
			c-8.2-3.1-13.4-5.9-13.4-12.9c0-7.8,6.8-12.7,17-12.7c6.3,0,10.9,1.7,13.6,3l0.3,7.7l-0.7,0.2c-2.6-5.8-7.4-9.9-15.4-9.9
			c-5.6,0-10.4,3.1-10.4,8.8c0,6.2,7.2,8.8,13.1,11.1c7.7,2.9,15,5.8,15,13.3c0,8.3-8.1,13.3-16.3,13.3
			C239.8,348.4,233.7,346,230.4,343.7L230.4,343.7z"/>
		<g>
			<circle class="st1" cx="327.7" cy="288.9" r="3.8"/>
			<path class="st1" d="M323,347.6c1.9-0.6,2.5-2.1,2.5-7.6v-31c0-5.4-0.6-7-2.5-7.6v-0.9h10.1v0.9c-1.9,0.6-2.5,2.1-2.5,7.6v31
				c0,5.4,0.6,7,2.5,7.6v0.9H323V347.6z"/>
		</g>
		<path class="st1" d="M343,325.5c0-14.1,11.5-24.6,27.9-24.6c6,0,13,1.7,15.7,3.3l0.3,7.9l-0.7,0.1c-2.7-6-9.3-10.1-17.6-10.1
			c-11.1,0-19.6,7-19.6,20.6c-0.1,12.5,7.9,24.4,22.4,24.4c7.5,0,13.4-3.8,16.1-11l0.8,0.1l-1.1,8.6c-3.3,1.7-9.9,3.6-17.7,3.6
			C353.2,348.4,342.9,339.9,343,325.5L343,325.5z"/>
		<path class="st1" d="M268,347.5c2-0.6,3.8-2,6-7.1l14.1-33.2c0.5-1.2,0.4-2.1-0.1-3.2l-0.6-1.4l5.4-2.3l17.6,40.2
			c2.2,5.1,3.9,6.5,5.4,7.1v0.9h-11.1v-0.9c2.2-0.6,1.6-2-0.6-7.1l-4.4-10h-20.2l-4.2,9.9c-1.9,4.4-1.6,6.7,0.9,7.1v0.9H268
			L268,347.5L268,347.5z M299.1,329.4l-9.8-22.4l-9.5,22.4H299.1L299.1,329.4z"/>
	</g>
</g>
</svg>
