<?xml version="1.0" encoding="UTF-8"?>
<svg id="Layer_1" data-name="Layer 1" xmlns="http://www.w3.org/2000/svg" viewBox="0 0 500 500">
  <rect width="500" height="500" fill="#6e5b4c"/>
  <g>
    <polygon points="144.52 324.27 138.25 321.65 189.41 199.12 195.72 201.64 195.53 202.13 144.52 324.27" fill="#fff"/>
    <rect x="229.81" y="169.55" width="6.79" height="157.26" transform="translate(-77.61 109.01) rotate(-22.66)" fill="#fff"/>
    <rect x="188.87" y="200.36" width="6.79" height=".53" transform="translate(-62.54 89.78) rotate(-22.71)" fill="#fff"/>
    <rect x="155.26" y="196.98" width="219.74" height="6.79" fill="#fff"/>
    <path d="m221.32,261.4h-37.53l18.76-44.94,18.76,44.94Zm-27.33-6.79h17.14l-8.57-20.52-8.57,20.52Z" fill="#fff"/>
    <polygon points="234.88 311.5 221.79 280.15 183.32 280.15 174.91 300.3 168.64 297.69 178.8 273.36 226.32 273.36 241.15 308.88 234.88 311.5" fill="#fff"/>
    <rect x="125" y="295.6" width="250" height="6.79" fill="#fff"/>
    <g>
      <polygon points="284.33 240.69 284.23 232.16 284.23 198.92 291.02 198.92 291.02 223.51 333.67 177.59 338.65 182.21 284.33 240.69" fill="#fff"/>
      <polygon points="368.36 312.23 308 231.75 346 192.51 350.87 197.24 316.91 232.31 373.79 308.16 368.36 312.23" fill="#fff"/>
      <polygon points="291.02 325.89 284.23 325.89 284.23 257.43 299.05 241.47 340.66 296.96 335.23 301.03 298.49 252.05 291.02 260.1 291.02 325.89" fill="#fff"/>
      <rect x="262.17" y="174.11" width="6.79" height="113.75" fill="#fff"/>
    </g>
  </g>
</svg>