<?xml version="1.0" encoding="UTF-8"?>
<svg id="Layer_1" data-name="Layer 1" xmlns="http://www.w3.org/2000/svg" viewBox="0 0 500 500">
  <rect width="500" height="500" fill="#c5a459"/>
  <g>
    <g>
      <path d="m227.95,301.09c-1.71,1.71-4.5,1.71-6.21,0-1.26-1.26-1.63-3.15-.95-4.79.68-1.64,2.28-2.71,4.06-2.72,1.78,0,3.38,1.07,4.06,2.72.68,1.64.31,3.53-.95,4.79Z" fill="#fff"/>
      <path d="m249.7,279.35c-1.71,1.71-4.5,1.71-6.21,0-1.26-1.26-1.63-3.15-.95-4.79.68-1.64,2.28-2.71,4.06-2.72,1.78,0,3.38,1.07,4.06,2.72.68,1.64.31,3.53-.95,4.79Z" fill="#fff"/>
      <path d="m314.92,214.12c-1.71,1.71-4.5,1.71-6.21,0-1.26-1.26-1.63-3.15-.95-4.79.68-1.64,2.28-2.71,4.06-2.72,1.78,0,3.38,1.07,4.06,2.72.68,1.64.31,3.53-.95,4.79Z" fill="#fff"/>
      <path d="m293.18,235.86c-1.71,1.71-4.5,1.71-6.21,0-1.26-1.26-1.63-3.14-.95-4.79.68-1.64,2.28-2.71,4.06-2.72,1.78,0,3.38,1.07,4.06,2.72.68,1.64.31,3.53-.95,4.79Z" fill="#fff"/>
      <path d="m271.44,257.6c-1.71,1.71-4.5,1.71-6.21,0-1.26-1.26-1.63-3.15-.95-4.79.68-1.64,2.28-2.71,4.06-2.72,1.78,0,3.38,1.07,4.06,2.72.68,1.64.31,3.53-.95,4.79Z" fill="#fff"/>
      <path d="m293.18,130.25l-6.21,6.21-10.11-10.11c3.93.3,7.89.08,11.77-.66l4.55,4.55Z" fill="#fff"/>
      <rect x="295" y="138.28" width="8.79" height="8.79" transform="translate(-13.2 253.49) rotate(-45)" fill="#fff"/>
      <path d="m287.04,335.81c-2.12-.55-4.3-.59-6.39-.16-2.09.43-4.08,1.33-5.81,2.68l-35.21,27.09c-8.29,6.34-18.59,9.47-29.01,8.79-10.41-.67-20.23-5.1-27.62-12.46-9.18-9.18-14.12-21.76-13.63-34.74s6.36-25.15,16.21-33.61l128.13-110.16c2.78-2.39,4.44-5.83,4.58-9.49.14-3.67-1.26-7.23-3.85-9.82l-8.83-8.83,6.21-6.21,12.42,12.42c4.11,4.12,6.42,9.71,6.42,15.53,0,5.83-2.31,11.41-6.42,15.53l-6.74,6.74c-3.3-1.57-7.11-1.7-10.5-.37-3.4,1.34-6.09,4.03-7.43,7.43-1.34,3.4-1.21,7.21.37,10.5l-4.17,4.17c-3.3-1.57-7.11-1.7-10.5-.37-3.4,1.34-6.09,4.03-7.43,7.43-1.34,3.4-1.21,7.21.37,10.5l-4.17,4.17c-3.3-1.57-7.11-1.7-10.5-.37-3.4,1.34-6.09,4.03-7.43,7.43-1.34,3.4-1.21,7.21.37,10.5l-4.17,4.17c-3.3-1.57-7.11-1.7-10.5-.37-3.4,1.34-6.09,4.03-7.43,7.43-1.34,3.4-1.21,7.21.37,10.5l-4.17,4.17c-3.3-1.57-7.11-1.7-10.5-.37-3.4,1.34-6.09,4.03-7.43,7.43-1.34,3.4-1.21,7.21.37,10.5l-9.85,9.85c-4.44,4.44-6.17,10.91-4.55,16.98,1.63,6.06,6.36,10.8,12.43,12.43,6.07,1.62,12.53-.11,16.98-4.55l12.39-12.39c7.79-7.81,17.09-13.95,27.34-18.03,5.46-2.18,10.26-5.75,13.91-10.36l5.46,38.23Z" fill="#fff"/>
    </g>
    <g>
      <path d="m116.54,235.27c0-.09-.13-.13-.27-.27-5.33-3.69-14.7-4.22-20.56-8.57-2.31-1.69-3.42-3.51-3.42-5.46,0-1.64.8-3.33,2.35-5.11,1.38-1.6,2.93-3.02,4.62-4.31,5.95-4.48,12.34-8.08,19.58-10.12,2.04-.58,4.88-1.29,7.37-1.29.84,0,1.64.09,2.35.27,2.31.58,3.15,2.04,3.15,3.69,0,1.33-.53,2.75-1.24,4.04-1.69,3.02-4,5.59-6.48,7.99-.44.49-.93.84-1.15,1.51-.18.49-.93,1.02-1.6,1.02-.35,0-.67-.13-.89-.4-.22-.22-.27-.49-.27-.71,0-.62.49-1.15.98-1.55,2.58-2.22,7.99-7.86,8.39-11.63v-.22c0-1.55-1.51-2-3.37-2-2.13,0-4.71.62-5.64.89-8.75,2.35-16.47,6.53-23.18,12.61-.98.84-1.82,1.78-2.53,2.89-.53.89-.75,1.69-.75,2.44,0,2.26,2.09,4,4.31,5.24,5.46,3.15,13.63,4.26,19.63,8.04.18.13.36.18.53.18s.31-.04.49-.09c2.49-.89,4.62-1.6,7.06-1.6.71,0,1.47.04,2.26.18,1.2.22,2.18.53,2.58,2.09h-.04c-.53,0-.27-.98-1.78-1.42-.8-.22-1.64-.31-2.49-.31-2.44,0-5.02.75-7.1,1.6-.13.04-.18.13-.18.18s0,.04.04.09c1.55,1.33,4.22,3.42,4.22,7.24,0,2.26-.93,5.11-3.64,8.79-4.13,5.55-12.48,12.57-20.65,14.79-1.69.44-3.33.71-4.97.71-1.2,0-2.35-.13-3.51-.44-2.4-.67-3.42-2.75-3.42-4.84,0-.93.22-1.91.58-2.71,3.64-8.44,20.16-19.05,28.46-23.27.13-.04.18-.09.18-.13Zm-27.49,22.82c-.58,1.07-.89,2.26-.89,3.42,0,1.91.89,3.64,3.11,4.17.93.27,2.04.36,3.15.36,1.69,0,3.42-.27,4.71-.62,7.73-2.35,15.23-8.21,20.07-14.65,2.13-2.89,3.55-5.59,3.55-8.17,0-2.35-1.2-4.62-4.22-6.75-.22-.13-.49-.27-.75-.27-.13,0-.31.04-.44.13-7.73,4.17-24.38,15.23-28.28,22.38Z" fill="#231f20" stroke="#231f20" stroke-miterlimit="10" stroke-width=".47"/>
      <path d="m129.59,248.06c-.53,0-.93-.36-.93-.93,0-.09,0-.22.04-.31.13-.84.44-1.69.84-2.4,4.97-8.92,15.05-25.98,20.38-31.39,1.29-1.33,2.66-2.18,3.64-2.18.75,0,1.24.53,1.24,1.78,0,.35-.04.8-.13,1.33-.58,3.06-3.51,7.81-6.48,11.41-2.98,3.73-5.91,6.39-10.04,8.88-.44.27-.89.71-1.15,1.15l-2.8,4.88s.09.13.13.18c1.24-1.02,3.24-2.75,4.57-3.51.58-.35,1.15-.49,1.64-.49,1.11,0,1.82.84,1.86,2.4v.84c0,1.29-.04,2.53-.13,3.82v.58c0,.8.09,1.55.36,2.26.44,1.11.89,1.82,2.09,1.82h.09c4.66-.04,12.61-6.48,15.63-9.06.22-.22.35-.27.49-.27h.13v.04c0,.18-.18.53-.4.71-3.06,2.62-10.17,9.01-15.5,9.5-.31.04-.62.04-.93.04-1.47,0-2.49-.53-3.06-2.04-.35-.89-.53-1.78-.53-2.75v-.31c.04-.62.18-2.71.18-4.31,0-.89-.04-1.6-.18-1.87-.8.22-1.33.62-1.82.98-5.24,3.51-6.75,8.13-8.61,9.01-.22.13-.44.18-.62.18Zm8.93-15.01s0,.09.09.09c.04,0,.13-.04.27-.09,3.69-2.22,6.31-5.11,8.84-8.17,2.75-3.37,5.11-7.55,6.13-10.92.13-.49.22-.89.22-1.11,0-.35-.13-.49-.31-.49-.62,0-1.91,1.29-2.49,1.86-4.53,4.48-10.35,14.3-12.57,18.29-.09.18-.18.4-.18.53Z" fill="#231f20" stroke="#231f20" stroke-miterlimit="10" stroke-width=".47"/>
      <path d="m159.65,244.11c-.53,0-1.11-.4-1.11-1.02,0-.13.04-.27.09-.4.18-.53.35-1.02.58-1.55.71-1.47,1.73-2.75,2.98-3.86.71-.62,1.64-.93,2.49-.93,1.02,0,2,.44,2.44,1.2t.09.04c.18,0,.4-.27.62-.31.04,0,.13-.04.18-.04.35,0,.53.4.53.8,0,.13,0,.27-.04.35-.31.98-2.22,4.22-2.22,6.04,0,.71.31,1.2,1.15,1.2h.04c6.04,0,13.81-6.44,14.48-6.7h.04s.04,0,.04.04c0,0,0,.04-.04.09-2.8,2.84-10.3,7.15-14.25,7.33h-.27c-1.73,0-2.31-1.07-2.31-2.35,0-1.2.44-2.58.93-3.55-1.55,1.02-4.57,3.11-6.08,3.6-.13.04-.22.04-.36.04Zm1.38-2.26c0,.13.04.18.09.18s.13-.04.22-.09c1.82-1.11,2.84-1.73,4.4-3.24-.27-.44-.62-.62-.98-.62-.18,0-.4.04-.62.18-.98.49-2.4,2.04-2.89,2.93-.04.04-.22.44-.22.67Z" fill="#231f20" stroke="#231f20" stroke-miterlimit="10" stroke-width=".47"/>
      <path d="m180.78,246.51c-.89,0-1.55-.67-1.55-1.86,0-.49.13-1.11.4-1.78,1.2-2.98,3.64-6.66,6.39-8.35.71-.44,1.38-.71,1.95-.71.8,0,1.6.4,2.49,1.24,1.38-1.91,2.8-3.69,4-5.59,2.8-4.66,5.02-8.48,8.66-12.57.18-.18.4-.44.67-.53.18-.04.31-.04.49-.04.49,0,.8.22.8.62,0,.13-.04.31-.13.49-.35.53-.67,1.07-1.07,1.55-7.68,9.86-13.45,20.78-17.98,32.41-.44,1.11-.75,2.31-1.11,3.46-.13.58-.27,1.11-.27,1.69,0,.27,0,.58.09.84v.13c0,.22-.18.4-.36.4-.31,0-.67-.4-.67-1.51,0-.58.09-1.38.36-2.44,1.33-5.33,3.64-10.35,5.86-15.36.09-.18.22-.31.22-.53,0-.13-.09-.27-.27-.44-2.18,2.49-5.2,7.02-7.77,8.53-.4.22-.8.36-1.2.36Zm.89-2.09c2.93-2.13,4.88-4.88,7.28-7.59-.44-.04-.67-.13-.89-.13-.27,0-.53.09-1.02.49-2.26,1.78-3.95,4-5.2,6.57-.09.13-.09.27-.18.67Z" fill="#231f20" stroke="#231f20" stroke-miterlimit="10" stroke-width=".47"/>
      <path d="m199.43,247.66c-2.31,0-3.24-1.73-3.24-3.51,0-.71.13-1.42.4-2.04,1.29-3.15,3.55-5.42,6.75-6.75.44-.22.84-.27,1.2-.27.93,0,1.42.67,1.42,1.42,0,.44-.13.89-.4,1.24-.44.62-.89,1.29-1.51,1.69-1.24.84-2.62,1.6-3.95,2.35-.4.22-.84.35-1.29.35-.27,0-.53-.04-.84-.13-.53.8-.75,1.6-.75,2.31,0,1.42,1.02,2.4,2.84,2.4.49,0,.98-.04,1.51-.18,4.35-1.07,11.46-4.93,14.88-7.55.09-.09.18-.13.27-.13.04,0,.09.04.09.13,0,.04-.04.13-.18.27-3.2,2.8-12.34,8.17-16.92,8.39h-.27Zm-.71-6.88c1.91-.58,4.75-2.84,4.97-3.95-2.13.67-3.55,2.18-4.97,3.95Z" fill="#231f20" stroke="#231f20" stroke-miterlimit="10" stroke-width=".47"/>
      <path d="m213.86,260.01c-2.09,0-3.33-1.2-3.33-3.11,0-1.07.4-2.4,1.24-3.82,3.06-5.24,9.37-8.79,14.74-10.7-.36-.84-9.24.09-10.08-2.89-.04-.18-.09-.4-.09-.58,0-3.64,7.73-9.5,10.83-9.5.13,0,.27.04.35.04.93.13,2.04.98,2.31,1.86.04.09.04.18.04.31,0,.67-.53,1.78-1.24,1.78-.4,0-.8-.27-1.2-1.07-.13-.31-.44-.44-.89-.44-2.44,0-8.66,4.44-8.66,6.84v.09c.09,1.07,2.31,1.42,4.53,1.64,2.26.18,4.53.22,5.24,1.47,2.98-1.07,10.26-2.62,13.41-3.02.22-.04.4-.04.58-.04.31,0,.49.04.49.13s-.18.18-.67.27c-2.75.44-10.39,2.13-13.19,3.33-.09.04-.09.09-.09.18,0,.27.4.98.4,2.26,0,.71-.13,1.64-.58,2.8-1.91,4.84-6.26,9.59-11.1,11.5-1.15.44-2.18.67-3.06.67Zm-2.62-3.15c0,1.47.98,2.22,2.49,2.22.71,0,1.6-.18,2.53-.53,4.88-1.82,9.68-7.37,11.15-12.39.13-.4.18-.84.18-1.24,0-.58-.13-1.15-.49-1.73-4.71,1.51-12.03,5.73-14.65,10.21-.84,1.42-1.2,2.58-1.2,3.46Z" fill="#231f20" stroke="#231f20" stroke-miterlimit="10" stroke-width=".47"/>
      <path d="m257.28,248.55c-.67,0-1.42-.71-1.55-1.42-.13-.49-.18-1.02-.18-1.51,0-.27,0-.53.04-.75.49-2.84,2.44-6.66,4.66-8.39.53-.44,1.29-.71,2-.71,1.07,0,2.09.62,2.09,2.22,0,.27-.04.53-.09.8-.09.4-.31,1.33-.44,1.86.98.4,2.09.58,3.29.58,2.89,0,6.13-1.02,8.3-2.04.13-.04.27-.09.35-.09.13,0,.22.04.22.13s-.13.27-.49.4c-1.51.75-4.97,1.86-8.04,2.04-.31,0-.62.04-.93.04-1.15,0-2.26-.13-2.97-.53-1.24,2.66-2.49,5.24-4.97,6.88-.36.27-.8.49-1.24.49h-.04Zm-.58-1.6c0,.4.09.71.4.71.18,0,.4-.13.75-.35,1.55-1.15,4-4.71,4.66-6.71-.62-.58-.89-1.07-1.24-2-1.82,2.04-4.17,5.37-4.53,7.68-.04.22-.04.49-.04.67Zm5.46-8.79c0,.58.4,1.2.71,1.51.22-.71.49-1.38.49-2-.09-.18-.31-.27-.49-.27-.31,0-.67.18-.71.58v.18Z" fill="#231f20" stroke="#231f20" stroke-miterlimit="10" stroke-width=".47"/>
      <path d="m260.43,275.9c-.71,0-1.33-.58-1.33-2.31v-.09c.04-1.87.4-3.73,1.07-5.46.98-2.71,2-5.42,3.2-8.04,4.49-9.68,12.79-23.22,19.72-31.39,1.33-1.55,2.8-3.06,4.31-4.48.93-.89,2.04-1.6,3.11-2.26.58-.36,1.2-.53,1.73-.53,1.02,0,1.82.62,1.82,1.55,0,.22-.04.44-.13.71-.31.8-.98,1.64-1.64,1.64-.4,0-.75-.27-1.07-1.02-.67.49-1.33.93-1.91,1.47-1.29,1.24-2.58,2.49-3.77,3.82-2.75,3.11-9.86,12.88-12.17,16.43.49-.18.71-.27.98-.4,5.15-2.84,10.52-5.11,16.34-6.31,1.38-.31,2.84-.31,4.31-.4h.13c.27,0,.58.09.89.13v.22c-.18.04-.31.13-.44.13-.22,0-.49-.04-.75-.04-5.59,0-14.47,4.08-18.83,6.71-1.42.84-2.71,1.91-4,2.98-.67.53-1.02,1.15-1.02,1.95,0,.27.04.53.13.84.18.67.27,1.33.27,2,0,1.33-.31,2.71-.58,4.04-.4,2.04-1.15,4-2.09,5.86-1.29,2.66-2.62,5.33-4.04,7.95-.62,1.15-1.55,2.22-2.4,3.29-.44.58-1.2,1.02-1.82,1.02Zm.04-2.22c0,.4.04.71.13,1.02.4-.36.71-.53.98-.8.58-.71,1.24-1.38,1.73-2.18,2.13-3.55,4.04-7.24,5.55-11.1.58-1.46,1.33-4.4,1.33-6.66,0-.93-.09-1.73-.4-2.31-.27.4-.44.62-.62.93-1.78,3.42-3.6,6.88-5.28,10.39-1.02,2.04-3.42,7.59-3.42,10.7Z" fill="#231f20" stroke="#231f20" stroke-miterlimit="10" stroke-width=".47"/>
      <path d="m341.82,235.27c0-.09-.13-.13-.27-.27-5.33-3.69-14.7-4.22-20.56-8.57-2.31-1.69-3.42-3.51-3.42-5.46,0-1.64.8-3.33,2.35-5.11,1.38-1.6,2.93-3.02,4.62-4.31,5.95-4.48,12.34-8.08,19.58-10.12,2.04-.58,4.88-1.29,7.37-1.29.84,0,1.64.09,2.35.27,2.31.58,3.15,2.04,3.15,3.69,0,1.33-.53,2.75-1.24,4.04-1.69,3.02-4,5.59-6.48,7.99-.44.49-.93.84-1.15,1.51-.18.49-.93,1.02-1.6,1.02-.36,0-.67-.13-.89-.4-.22-.22-.27-.49-.27-.71,0-.62.49-1.15.98-1.55,2.58-2.22,7.99-7.86,8.39-11.63v-.22c0-1.55-1.51-2-3.37-2-2.13,0-4.71.62-5.64.89-8.75,2.35-16.47,6.53-23.18,12.61-.98.84-1.82,1.78-2.53,2.89-.53.89-.75,1.69-.75,2.44,0,2.26,2.09,4,4.31,5.24,5.46,3.15,13.63,4.26,19.63,8.04.18.13.35.18.53.18s.31-.04.49-.09c2.49-.89,4.62-1.6,7.06-1.6.71,0,1.46.04,2.26.18,1.2.22,2.18.53,2.58,2.09h-.04c-.53,0-.27-.98-1.78-1.42-.8-.22-1.64-.31-2.49-.31-2.44,0-5.02.75-7.1,1.6-.13.04-.18.13-.18.18s0,.04.04.09c1.55,1.33,4.22,3.42,4.22,7.24,0,2.26-.93,5.11-3.64,8.79-4.13,5.55-12.48,12.57-20.65,14.79-1.69.44-3.33.71-4.97.71-1.2,0-2.35-.13-3.51-.44-2.4-.67-3.42-2.75-3.42-4.84,0-.93.22-1.91.58-2.71,3.64-8.44,20.16-19.05,28.46-23.27.13-.04.18-.09.18-.13Zm-27.49,22.82c-.58,1.07-.89,2.26-.89,3.42,0,1.91.89,3.64,3.11,4.17.93.27,2.04.36,3.15.36,1.69,0,3.42-.27,4.71-.62,7.73-2.35,15.23-8.21,20.07-14.65,2.13-2.89,3.55-5.59,3.55-8.17,0-2.35-1.2-4.62-4.22-6.75-.22-.13-.49-.27-.75-.27-.13,0-.31.04-.44.13-7.73,4.17-24.38,15.23-28.28,22.38Z" fill="#231f20" stroke="#231f20" stroke-miterlimit="10" stroke-width=".47"/>
      <path d="m357,244.11c-.53,0-1.11-.4-1.11-1.02,0-.13.04-.27.09-.4.18-.53.36-1.02.58-1.55.71-1.47,1.73-2.75,2.97-3.86.71-.62,1.64-.93,2.49-.93,1.02,0,2,.44,2.44,1.2t.09.04c.18,0,.4-.27.62-.31.04,0,.13-.04.18-.04.36,0,.53.4.53.8,0,.13,0,.27-.04.35-.31.98-2.22,4.22-2.22,6.04,0,.71.31,1.2,1.15,1.2h.04c6.04,0,13.81-6.44,14.48-6.7h.04s.04,0,.04.04c0,0,0,.04-.04.09-2.8,2.84-10.3,7.15-14.25,7.33h-.27c-1.73,0-2.31-1.07-2.31-2.35,0-1.2.44-2.58.93-3.55-1.55,1.02-4.57,3.11-6.08,3.6-.13.04-.22.04-.35.04Zm1.38-2.26c0,.13.04.18.09.18s.13-.04.22-.09c1.82-1.11,2.84-1.73,4.4-3.24-.27-.44-.62-.62-.98-.62-.18,0-.4.04-.62.18-.98.49-2.4,2.04-2.89,2.93-.04.04-.22.44-.22.67Z" fill="#231f20" stroke="#231f20" stroke-miterlimit="10" stroke-width=".47"/>
      <path d="m371.74,254.94c-.4,0-.62-.44-.62-.84,0-.31.18-.67.58-.71.8-.09,1.11-.67,1.55-1.11,2.13-2.18,4.17-4.31,6.3-6.48.13-.09.31-.18.44-.27-.09-.31-.13-.49-.18-.67-.58-1.95-.84-3.91-.84-5.95v-.53c0-.98-.62-1.42-.62-2.35,0-.36.09-.75.35-1.33.13-.31.62-.62,1.11-.62.44,0,.84.27.84,1.07v3.46c0,1.78.09,3.46.67,5.55,3.55-3.02,6.17-5.55,10.21-8.21,1.78-1.2,3.73-2.18,5.59-3.24.27-.18.62-.22.98-.31.04.09.04.18.04.27,0,.31-.27.4-.44.49-6.08,2.98-10.92,7.55-15.76,12.08-.04.04-.09.13-.18.27.93,2.62,2.53,4.31,5.24,4.31,9.99,0,25.09-10.88,26.24-10.88t.04.04c0,.13-.09.13-.58.49-5.46,3.6-18.38,11.23-25.89,11.23h-.18c-2.58,0-4.48-1.15-5.82-3.33l-.49-.58c-2.13,2-6.48,6.88-8.08,7.95-.22.13-.4.22-.53.22Z" fill="#231f20" stroke="#231f20" stroke-miterlimit="10" stroke-width=".47"/>
    </g>
    <g>
      <path d="m178.54,304.24c.03-.54.07-1.35.07-2.06v-9.62h1.43v5h.03c.51-.89,1.43-1.46,2.71-1.46,1.97,0,3.37,1.65,3.36,4.06,0,2.85-1.79,4.26-3.57,4.26-1.15,0-2.07-.44-2.67-1.5h-.05l-.07,1.32h-1.25Zm1.5-3.19c0,.18.03.36.07.53.28,1,1.12,1.69,2.17,1.69,1.51,0,2.42-1.23,2.42-3.06,0-1.6-.82-2.96-2.37-2.96-.99,0-1.91.67-2.2,1.78-.03.16-.08.36-.08.59v1.43Z" fill="#231f20"/>
      <path d="m188.38,296.28l1.74,4.7c.18.53.38,1.15.51,1.63h.03c.15-.48.31-1.08.51-1.66l1.58-4.67h1.53l-2.17,5.67c-1.04,2.73-1.74,4.13-2.73,4.98-.71.62-1.41.87-1.78.94l-.36-1.22c.36-.12.84-.35,1.27-.71.39-.31.89-.87,1.22-1.61.07-.15.11-.26.11-.35s-.03-.2-.1-.38l-2.94-7.34h1.58Z" fill="#231f20"/>
      <path d="m200.93,300.75l-1.15,3.49h-1.48l3.77-11.09h1.73l3.78,11.09h-1.53l-1.18-3.49h-3.93Zm3.64-1.12l-1.09-3.19c-.25-.72-.41-1.38-.58-2.02h-.03c-.16.66-.35,1.33-.56,2.01l-1.09,3.21h3.34Z" fill="#231f20"/>
      <path d="m209.1,292.56h1.45v11.68h-1.45v-11.68Z" fill="#231f20"/>
      <path d="m213.78,300.52c.03,1.96,1.28,2.76,2.73,2.76,1.04,0,1.66-.18,2.2-.41l.25,1.04c-.51.23-1.38.49-2.65.49-2.45,0-3.92-1.61-3.92-4.01s1.41-4.29,3.73-4.29c2.6,0,3.29,2.29,3.29,3.75,0,.3-.03.53-.05.67h-5.59Zm4.24-1.04c.02-.92-.38-2.35-2.01-2.35-1.46,0-2.11,1.35-2.22,2.35h4.23Z" fill="#231f20"/>
      <path d="m221.84,296.28l1.14,1.71c.3.44.54.86.81,1.3h.05c.26-.48.53-.89.79-1.32l1.12-1.69h1.56l-2.71,3.85,2.8,4.11h-1.65l-1.17-1.79c-.31-.46-.58-.9-.86-1.38h-.03c-.26.48-.54.91-.84,1.38l-1.15,1.79h-1.6l2.83-4.06-2.7-3.9h1.61Z" fill="#231f20"/>
      <path d="m230.39,294.04c.02.49-.35.89-.92.89-.51,0-.87-.39-.87-.89s.38-.91.9-.91.89.4.89.91Zm-1.61,10.2v-7.96h1.45v7.96h-1.45Z" fill="#231f20"/>
      <path d="m232.43,302.76c.43.28,1.18.58,1.91.58,1.05,0,1.55-.53,1.55-1.18,0-.69-.41-1.07-1.48-1.46-1.43-.51-2.11-1.3-2.11-2.25,0-1.28,1.04-2.34,2.75-2.34.81,0,1.51.23,1.96.49l-.36,1.05c-.31-.2-.89-.46-1.63-.46-.86,0-1.33.49-1.33,1.09,0,.66.48.95,1.51,1.35,1.38.53,2.09,1.22,2.09,2.4,0,1.4-1.09,2.38-2.98,2.38-.87,0-1.68-.21-2.24-.54l.36-1.1Z" fill="#231f20"/>
      <path d="m242.48,302.5c.64.39,1.58.72,2.57.72,1.46,0,2.32-.77,2.32-1.89,0-1.04-.59-1.63-2.09-2.2-1.81-.64-2.93-1.58-2.93-3.14,0-1.73,1.43-3.01,3.59-3.01,1.14,0,1.96.26,2.45.54l-.4,1.17c-.36-.2-1.1-.53-2.11-.53-1.51,0-2.09.9-2.09,1.66,0,1.04.67,1.55,2.2,2.14,1.88.72,2.83,1.63,2.83,3.26,0,1.71-1.27,3.19-3.88,3.19-1.07,0-2.24-.31-2.83-.71l.36-1.2Z" fill="#231f20"/>
      <path d="m252.43,293.99v2.29h2.07v1.1h-2.07v4.29c0,.99.28,1.55,1.08,1.55.38,0,.66-.05.84-.1l.07,1.08c-.28.12-.72.2-1.28.2-.67,0-1.22-.21-1.56-.61-.41-.43-.56-1.13-.56-2.07v-4.34h-1.23v-1.1h1.23v-1.91l1.42-.38Z" fill="#231f20"/>
      <path d="m256.83,300.52c.03,1.96,1.28,2.76,2.73,2.76,1.04,0,1.66-.18,2.2-.41l.25,1.04c-.51.23-1.38.49-2.65.49-2.45,0-3.92-1.61-3.92-4.01s1.42-4.29,3.73-4.29c2.6,0,3.29,2.29,3.29,3.75,0,.3-.03.53-.05.67h-5.59Zm4.24-1.04c.02-.92-.38-2.35-2.01-2.35-1.46,0-2.11,1.35-2.22,2.35h4.23Z" fill="#231f20"/>
      <path d="m264.27,298.43c0-.82-.02-1.5-.07-2.15h1.28l.08,1.32h.03c.39-.76,1.32-1.5,2.63-1.5,1.1,0,2.81.66,2.81,3.39v4.75h-1.45v-4.59c0-1.28-.48-2.35-1.84-2.35-.95,0-1.69.67-1.94,1.48-.07.18-.1.43-.1.67v4.79h-1.45v-5.81Z" fill="#231f20"/>
      <path d="m277.8,304.24l-.12-1h-.05c-.44.62-1.3,1.18-2.43,1.18-1.61,0-2.43-1.13-2.43-2.29,0-1.92,1.71-2.98,4.79-2.96v-.16c0-.66-.18-1.84-1.81-1.84-.74,0-1.51.23-2.07.59l-.33-.95c.66-.43,1.61-.71,2.62-.71,2.43,0,3.03,1.66,3.03,3.26v2.98c0,.69.03,1.37.13,1.91h-1.32Zm-.21-4.06c-1.58-.03-3.37.25-3.37,1.79,0,.94.62,1.38,1.37,1.38,1.04,0,1.69-.66,1.92-1.33.05-.15.08-.31.08-.46v-1.38Z" fill="#231f20"/>
      <path d="m282.75,299.93h.03c.2-.28.48-.62.71-.9l2.34-2.75h1.74l-3.08,3.27,3.5,4.69h-1.76l-2.75-3.82-.74.82v2.99h-1.43v-11.68h1.43v7.37Z" fill="#231f20"/>
      <path d="m290.92,294.04c.02.49-.34.89-.92.89-.51,0-.87-.39-.87-.89s.38-.91.91-.91.89.4.89.91Zm-1.61,10.2v-7.96h1.45v7.96h-1.45Z" fill="#231f20"/>
      <path d="m292.96,302.76c.43.28,1.18.58,1.91.58,1.05,0,1.55-.53,1.55-1.18,0-.69-.41-1.07-1.48-1.46-1.43-.51-2.11-1.3-2.11-2.25,0-1.28,1.04-2.34,2.75-2.34.81,0,1.51.23,1.96.49l-.36,1.05c-.31-.2-.89-.46-1.63-.46-.86,0-1.33.49-1.33,1.09,0,.66.48.95,1.51,1.35,1.38.53,2.09,1.22,2.09,2.4,0,1.4-1.08,2.38-2.98,2.38-.87,0-1.68-.21-2.24-.54l.36-1.1Z" fill="#231f20"/>
    </g>
  </g>
</svg>