<?xml version="1.0" encoding="UTF-8"?>
<svg id="Layer_1" data-name="Layer 1" xmlns="http://www.w3.org/2000/svg" viewBox="0 0 281.25 132.02">
  <path d="m225.07,16.98c-.84.4-1.68.8-2.51,1.2-.18.09-.43.15-.38.44.05.29.3.26.5.28.2.02.35.09.43.28.08.19.02.35-.11.5-.53.63-1.11,1.2-1.78,1.69-1.26.93-2.66,1.46-4.25,1.48-1.27.01-1.82-.6-1.84-1.8-.04-2.19-.15-4.37-.22-6.56-.05-1.34-.11-2.68-.14-4.01-.02-.63.36-.99.98-1.03.93-.07,1.85-.16,2.77-.25.16-.02.29-.01.43.09.44.32,1.01.22,1.32-.21.29-.4.22-.98-.17-1.3-.4-.32-.99-.26-1.34.14-.07.07-.19.14-.29.14-.94.01-1.87,0-2.81,0-.6,0-.98-.37-1-.96-.02-.57-.03-1.13-.05-1.7,0-.15.04-.23.18-.31,1.65-.87,1.77-3.17.22-4.2-1.16-.77-2.73-.41-3.45.8-.71,1.18-.28,2.75.95,3.4.17.09.22.19.21.36-.02.54-.03,1.09-.05,1.63-.02.61-.41.99-1.02.99-.92,0-1.84,0-2.76,0-.14,0-.24-.03-.34-.15-.35-.42-.93-.46-1.33-.12-.4.34-.46.91-.14,1.31.33.41.89.47,1.33.16.08-.06.21-.1.32-.09.96.08,1.93.18,2.89.26.58.05.97.44.95,1.02-.07,1.82-.13,3.63-.2,5.45h-.02c0,.13,0,.27,0,.4-.06,1.7-.12,3.4-.18,5.1-.03.72-.52,1.3-1.21,1.39-.34.04-.69.05-1.04.03-2.38-.18-4.14-1.44-5.63-3.2-.23-.27-.09-.63.26-.71.07-.02.14-.02.21-.03.18-.01.35-.04.39-.26.04-.22-.11-.31-.27-.39-.89-.42-1.77-.85-2.66-1.27-.24-.12-.48.05-.44.32.02.19.07.39.15.57.3.64.61,1.27.94,1.9.97,1.86,2.42,3.27,4.21,4.33,1.23.73,2.51,1.39,3.76,2.08.93.51,1.88.99,2.72,1.65.05.04.17.02.23-.02.36-.24.7-.51,1.08-.72,1.34-.75,2.69-1.48,4.04-2.21,1.25-.68,2.45-1.43,3.49-2.4,1.21-1.13,2.04-2.53,2.74-4.01.17-.36.3-.74.39-1.13.07-.31-.18-.47-.47-.34Zm-11.38-12.98c-.61,0-1.1-.48-1.1-1.08,0-.58.49-1.07,1.06-1.08.6,0,1.1.48,1.1,1.09,0,.58-.49,1.08-1.06,1.08Z" fill="#faa71b"/>
  <path d="m80.19,13.61c-.15-.15-.35-.24-.57-.24h-.57c-.42,0-.98.26-1.42.32-.4.06-.8.09-1.2.08-.09-2.53-1.1-4.82-2.71-6.55.28-.29.59-.55.91-.79.36-.27.94-.48,1.24-.78l.4-.4c.16-.16.24-.37.24-.57,0-.2-.07-.39-.21-.55-.15-.14-.35-.21-.55-.21-.21,0-.41.08-.57.24l-.4.4c-.3.3-.51.88-.78,1.24-.24.32-.5.63-.79.91-1.73-1.61-4.02-2.62-6.55-2.71,0-.4.03-.8.08-1.2.06-.45.32-1,.32-1.42v-.57c0-.22-.09-.43-.24-.57-.14-.14-.33-.23-.54-.24-.21,0-.4.1-.54.24-.15.15-.24.35-.24.57v.57c0,.42.26.98.32,1.42.06.4.09.8.08,1.2-2.53.09-4.82,1.1-6.55,2.71-.29-.28-.55-.59-.79-.91-.27-.36-.48-.94-.78-1.24l-.4-.4c-.16-.16-.37-.24-.57-.24-.2,0-.39.07-.55.21-.14.15-.21.35-.21.55,0,.21.08.41.24.57l.4.4c.3.3.88.51,1.24.78.32.24.63.5.91.79-1.61,1.73-2.62,4.02-2.71,6.55-.4,0-.8-.03-1.2-.08-.45-.06-1-.32-1.42-.32h-.57c-.22,0-.43.09-.57.24-.14.14-.23.33-.24.54,0,.21.1.4.24.54.15.15.35.24.57.24h.57c.42,0,.98-.26,1.42-.32.4-.06.8-.09,1.2-.08.09,2.53,1.1,4.82,2.71,6.55-.28.29-.59.55-.91.79-.36.27-.94.48-1.24.78l-.4.4c-.16.16-.24.37-.24.57,0,.2.07.39.21.55.15.14.35.21.55.21.21,0,.41-.08.57-.24l.4-.4c.3-.3.51-.88.78-1.24.24-.32.5-.63.79-.91,1.73,1.61,4.02,2.62,6.55,2.71,0,.4-.03.8-.08,1.2-.06.45-.32,1-.32,1.42v.57c0,.22.09.43.24.57.14.14.33.23.54.24.21,0,.4-.1.54-.24.15-.15.24-.35.24-.57v-.57c0-.42-.26-.98-.32-1.42-.06-.4-.09-.8-.08-1.2,2.53-.09,4.82-1.1,6.55-2.71.29.28.55.59.79.91.27.36.48.94.78,1.24l.4.4c.16.16.37.24.57.24.2,0,.39-.07.55-.21.14-.15.21-.35.21-.55,0-.21-.08-.41-.24-.57l-.4-.4c-.3-.3-.88-.51-1.24-.78-.32-.24-.63-.5-.91-.79,1.61-1.73,2.62-4.02,2.71-6.55.4,0,.8.03,1.2.08.45.06,1,.32,1.42.32h.57c.22,0,.43-.09.57-.24.14-.14.23-.33.24-.54,0-.21-.1-.4-.24-.54Zm-19.75-4.22c.41.5.87,1.01,1.37,1.45.57.51,1.25.9,1.8,1.44.17.17.33.34.49.51.1.11.19.22.29.33-.07.13-.12.26-.17.4-.39.04-.77.06-1.15.06-.77,0-1.52-.21-2.29-.25-.66-.04-1.34-.01-1.99.06.15-1.51.75-2.89,1.66-4Zm0,9.52c-.91-1.11-1.51-2.49-1.66-4,.65.07,1.33.09,1.99.06.77-.04,1.52-.25,2.29-.25.38,0,.77.02,1.15.06.04.14.1.27.16.39-.25.3-.5.59-.77.86-.55.54-1.22.93-1.8,1.44-.49.44-.96.94-1.37,1.45Zm5.08,2.73c-1.51-.15-2.89-.75-4-1.66.5-.41,1.01-.87,1.45-1.37.51-.57.9-1.25,1.44-1.8.27-.27.56-.53.86-.77.12.06.25.12.38.16.04.39.07.77.07,1.15,0,.77-.21,1.52-.25,2.29-.04.66-.01,1.34.06,1.99Zm.13-9.56c-.13.04-.26.09-.38.16-.3-.24-.6-.49-.87-.77-.54-.55-.93-1.22-1.44-1.8-.44-.49-.94-.96-1.45-1.37,1.11-.91,2.49-1.51,4-1.66-.07.65-.09,1.33-.06,1.99.04.77.25,1.52.25,2.29,0,.38-.02.77-.06,1.15Zm1.19-1.15c0-.77.21-1.52.25-2.29.04-.66.01-1.34-.06-1.99,1.51.15,2.89.75,4,1.66-.5.41-1.01.87-1.45,1.37-.51.57-.9,1.25-1.44,1.8-.17.17-.34.33-.51.49-.11.1-.22.19-.33.29-.13-.07-.26-.12-.4-.17-.04-.39-.06-.77-.06-1.15Zm.19,10.71c.07-.65.09-1.33.06-1.99-.04-.77-.25-1.52-.25-2.29,0-.24,0-.47.02-.71,0-.15.02-.29.03-.44.14-.04.27-.1.4-.16.3.25.59.5.86.77.54.55.93,1.22,1.44,1.8.44.49.94.96,1.45,1.37-1.11.91-2.49,1.51-4,1.66Zm5.08-2.73c-.41-.5-.87-1.01-1.37-1.45-.57-.51-1.25-.9-1.8-1.44-.27-.27-.53-.56-.77-.86.06-.12.12-.25.16-.38.39-.04.77-.07,1.15-.07.77,0,1.52.21,2.29.25.66.04,1.34.01,1.99-.06-.15,1.51-.75,2.89-1.66,4Zm-.33-5.58c-.77.04-1.52.25-2.29.25-.24,0-.47,0-.71-.02-.15,0-.29-.02-.44-.03-.04-.14-.09-.27-.16-.39.24-.3.49-.6.77-.87.55-.54,1.22-.93,1.8-1.44.49-.44.96-.94,1.37-1.45.91,1.11,1.51,2.49,1.66,4-.65-.07-1.33-.09-1.99-.06Z" fill="#faa71b"/>
  <g>
    <path d="m7.99,125.66v-11.84h5.15v1.82h-3.25v3.08h2.84v1.84h-2.84v3.18h3.25v1.92h-5.15Z" fill="#faa71b"/>
    <path d="m19.07,125.08c-.49.46-1.16.7-2.04.7-.8,0-1.48-.31-2.01-.8-.54-.54-.87-1.28-.87-2.14v-.7h1.91v.58c0,.56.22,1.14.97,1.14.97,0,1.05-.53,1.05-1.6s-.1-1.33-.87-1.63l-1.22-.53c-.7-.32-1.17-.68-1.46-1.21-.26-.48-.36-1.05-.36-1.85,0-1.11.36-2.06,1.04-2.65.48-.41,1.12-.66,1.92-.66.73,0,1.38.26,1.91.71.6.53.97,1.24.97,2.04v.95h-1.92v-.51c0-.73-.26-1.28-1.02-1.28s-.97.61-.97,1.38c0,.85.05,1.09.83,1.41l1.31.54c.7.29,1.17.68,1.43,1.17.22.49.34,1.19.34,2.09,0,1.16-.26,2.18-.94,2.84Z" fill="#faa71b"/>
    <path d="m24.43,115.64v10.02h-1.91v-10.02h-1.9v-1.82h5.71v1.82h-1.9Z" fill="#faa71b"/>
    <path d="m32.06,124.79c-.56.6-1.36.87-2.38.87h-2.42v-11.84h2.57c.97,0,1.72.29,2.26.87.49.56.75,1.31.75,2.26v5.41c0,1.07-.26,1.87-.78,2.43Zm-1.12-7.84c0-.44-.08-.77-.24-.97-.19-.22-.44-.34-.9-.34h-.63v8.2h.63c.37,0,.65-.09.83-.27.2-.2.31-.56.31-1.05v-5.56Z" fill="#faa71b"/>
  </g>
  <g>
    <path d="m258.45,125.78v-9.68l-1.62,1.26v-2.09l1.7-1.33h1.82v11.84h-1.9Z" fill="#faa71b"/>
    <path d="m267.82,119.88l-2.19,5.9h-2.06s1.77-4.85,1.8-4.92c-.78.24-1.89-.32-2.19-1.12-.2-.51-.22-.73-.22-1.43v-.85c0-1.5.07-1.89.39-2.43.46-.77,1.24-1.19,2.19-1.19.46,0,.87.1,1.22.29.39.2.71.51.95.9.36.53.41.95.41,2.43s-.09,1.79-.31,2.42Zm-1.6-3.42c0-.43-.32-.7-.68-.7s-.66.27-.66.7v2.16c0,.42.32.7.66.7.36,0,.68-.27.68-.7v-2.16Z" fill="#faa71b"/>
    <path d="m269.42,125.78v-1.63l2.99-5.75c.27-.54.29-.88.29-1.48,0-.27,0-.58-.12-.83-.12-.19-.26-.32-.58-.32-.41,0-.66.24-.66.7v1.09h-1.92v-1.05c0-.36.07-.71.22-1.07.26-.56.7-1.04,1.24-1.31.36-.19.75-.27,1.14-.27.82,0,1.41.29,1.84.77.49.6.73,1.39.73,2.28,0,1.14-.07,1.51-.56,2.47l-2.31,4.51h2.87v1.92h-5.17Z" fill="#faa71b"/>
    <path d="m280.39,125.03c-.46.54-1.12.87-1.92.87-1.17,0-2.04-.75-2.36-1.77-.09-.26-.17-.44-.19-.83-.02-.26-.03-.56-.03-1.02,0-.42.02-.8.03-1.12.05-.53.14-.87.29-1.29l2.19-5.92h2.11c-1.14,2.94-1.87,4.92-1.92,5.05.19-.12.46-.24.78-.22.53.05,1.05.34,1.31.73.32.49.37.94.37,2.77,0,.97-.02,1.92-.66,2.76Zm-1.24-3.91c0-.42-.32-.7-.68-.7s-.66.27-.66.7v2.14c0,.46.32.71.66.71.36,0,.68-.26.68-.71v-2.14Z" fill="#faa71b"/>
  </g>
  <g>
    <path d="m18.44,48.04v48.5h-9.22v-48.5H0v-8.81h27.67v8.81h-9.22Z" fill="#273954"/>
    <path d="m32.19,96.54v-57.31h24.95v8.81h-15.73v14.9h13.75v8.89h-13.75v15.4h15.73v9.3h-24.95Z" fill="#273954"/>
    <path d="m76.57,97.12c-2.8,0-5.27-.58-7.41-1.73-3.87-2.06-6.34-5.93-6.34-12.19v-30.88c0-3.87,1.32-7,3.62-9.55,2.39-2.55,5.76-4.03,9.96-4.03s7.49,1.65,9.88,4.28c2.22,2.55,3.54,5.93,3.54,9.8v3.79h-9.22v-3.29c0-2.88-1.65-5.27-4.2-5.27-3.38,0-4.36,2.31-4.36,5.68v28.98c0,3.05,1.07,5.11,4.28,5.11,1.89,0,4.28-1.15,4.28-5.11v-3.38h9.22v4.12c0,7.25-5.68,13.67-13.26,13.67Z" fill="#273954"/>
    <path d="m115.18,96.54v-24.95h-8.56v24.95h-9.22v-57.31h9.22v23.71h8.56v-23.71h9.22v57.31h-9.22Z" fill="#273954"/>
    <path d="m153.38,96.54l-11.53-30.3v30.3h-9.22v-57.31h8.48l11.36,29.97.08-.08v-29.89h9.14v57.31h-8.32Z" fill="#273954"/>
    <path d="m170.1,96.54v-57.31h9.3v57.31h-9.3Z" fill="#273954"/>
    <path d="m201.38,97.12c-2.8,0-5.27-.58-7.41-1.73-3.87-2.06-6.34-5.93-6.34-12.19v-30.88c0-3.87,1.32-7,3.62-9.55,2.39-2.55,5.76-4.03,9.96-4.03s7.49,1.65,9.88,4.28c2.22,2.55,3.54,5.93,3.54,9.8v3.79h-9.22v-3.29c0-2.88-1.65-5.27-4.2-5.27-3.38,0-4.36,2.31-4.36,5.68v28.98c0,3.05,1.07,5.11,4.28,5.11,1.89,0,4.28-1.15,4.28-5.11v-3.38h9.22v4.12c0,7.25-5.68,13.67-13.26,13.67Z" fill="#273954"/>
    <path d="m242.22,96.54l-2.39-12.02h-9.8l-2.31,12.02h-9.06l12.19-57.31h8.23l12.35,57.31h-9.22Zm-7.25-38.29h-.08l-3.13,17.37h6.34l-3.13-17.37Z" fill="#273954"/>
    <path d="m256.3,96.54v-57.31h9.22v48h15.73v9.3h-24.95Z" fill="#273954"/>
  </g>
  <g>
    <path d="m105,13.07c-.96,1.61-2.47,2.58-5.05,2.58h-1.48v9.1h-3.85V.85h5.22c1.92,0,3.3.45,4.5,1.72,1.2,1.34,1.58,2.82,1.58,5.67,0,2.06-.1,3.5-.93,4.84Zm-5.08-8.55h-1.44v7.42h1.37c1.75,0,2.2-.62,2.37-1.89.03-.24.03-.52.03-.82v-.96c0-2.06.03-3.74-2.34-3.74Z" fill="#273954"/>
    <path d="m117.88,24.75l-1-5.01h-4.09l-.96,5.01h-3.78L113.14.85h3.43l5.15,23.9h-3.85Zm-3.02-15.97h-.03l-1.3,7.25h2.64l-1.3-7.25Z" fill="#273954"/>
    <path d="m134.81,13.07c-.96,1.61-2.47,2.58-5.05,2.58h-1.48v9.1h-3.85V.85h5.22c1.92,0,3.3.45,4.5,1.72,1.2,1.34,1.58,2.82,1.58,5.67,0,2.06-.1,3.5-.93,4.84Zm-5.08-8.55h-1.44v7.42h1.37c1.75,0,2.2-.62,2.37-1.89.03-.24.03-.52.03-.82v-.96c0-2.06.03-3.74-2.34-3.74Z" fill="#273954"/>
    <path d="m139.41,24.75V.85h3.88v23.9h-3.88Z" fill="#273954"/>
    <path d="m147.62,24.75V.85h3.85v20.02h6.56v3.88h-10.41Z" fill="#273954"/>
    <path d="m169.09,24.75l-1-5.01h-4.09l-.96,5.01h-3.78l5.08-23.9h3.43l5.15,23.9h-3.85Zm-3.02-15.97h-.03l-1.3,7.25h2.64l-1.3-7.25Z" fill="#273954"/>
    <path d="m185.02,23.58c-1,.93-2.33,1.41-4.12,1.41-1.61,0-2.99-.62-4.05-1.61-1.1-1.1-1.75-2.58-1.75-4.33v-1.41h3.85v1.17c0,1.13.45,2.3,1.96,2.3,1.96,0,2.13-1.06,2.13-3.23s-.21-2.68-1.75-3.3l-2.47-1.06c-1.41-.65-2.37-1.37-2.95-2.44-.51-.96-.72-2.13-.72-3.74,0-2.23.72-4.16,2.09-5.36.96-.82,2.27-1.34,3.88-1.34,1.48,0,2.78.51,3.85,1.44,1.2,1.06,1.96,2.51,1.96,4.12v1.92h-3.88v-1.03c0-1.48-.52-2.58-2.06-2.58s-1.96,1.24-1.96,2.78c0,1.72.1,2.2,1.68,2.85l2.64,1.1c1.41.58,2.37,1.37,2.88,2.37.45,1,.69,2.4.69,4.22,0,2.34-.51,4.4-1.89,5.73Z" fill="#273954"/>
  </g>
  <g>
    <path d="m105.74,116.86c0-.21.08-.44.24-.68,1.01-1.25,1.84-2.74,2.47-4.47.53-1.52.8-2.79.8-3.83l-.04-.6c-.08-.53-.2-.93-.36-1.2-.19-.24-.41-.37-.68-.4l-.32-.04c-.32,0-.76.11-1.32.32-.96.35-1.95.89-2.99,1.64-1.36.93-2.46,2.35-3.31,4.27-.43.88-.64,1.74-.64,2.59,0,.61.12,1.22.36,1.84.24.56.61,1.13,1.12,1.72.43.53.94,1.06,1.56,1.6l.56.52c.35.32.53.48.56.48l1.08,1.08c1.04,1.12,1.56,2.21,1.56,3.27,0,.96-.43,1.93-1.28,2.91-1.38,1.6-3.26,2.39-5.63,2.39-1.36,0-2.66-.27-3.91-.8-1.65-.72-2.85-1.68-3.59-2.87-.51-.85-.76-1.64-.76-2.35,0-.64.19-1.29.56-1.95.11-.27.32-.44.64-.52l.32-.08c.13,0,.31.05.52.16.27.19.44.4.52.64.03.08.04.19.04.32,0,.21-.05.39-.16.52-.16.27-.24.57-.24.92,0,.43.13.83.4,1.2.53.8,1.4,1.46,2.59,2,1.12.45,2.15.68,3.11.68,1.65,0,2.95-.56,3.91-1.68.56-.64.8-1.2.72-1.68-.03-.42-.35-.96-.96-1.6-.13-.16-.45-.47-.96-.92l-.52-.52-.6-.52c-.77-.74-1.36-1.34-1.76-1.8-.64-.8-1.1-1.56-1.4-2.27-.37-.88-.56-1.77-.56-2.67,0-1.14.28-2.33.84-3.55,1.09-2.29,2.43-3.99,4.03-5.11,2.21-1.54,4.07-2.31,5.59-2.31,1.2,0,2.11.44,2.75,1.32.43.58.68,1.33.76,2.23.03.19.04.47.04.84,0,1.36-.29,2.83-.88,4.43-.72,1.99-1.66,3.75-2.83,5.27-.21.27-.47.4-.76.4h-.12c-.24,0-.47-.08-.68-.24-.27-.19-.4-.42-.4-.72v-.16Z" fill="#273954"/>
    <path d="m113.08,125.2c-.35,0-.68-.04-1-.12-.21.93-.31,1.69-.28,2.27,0,.43.08.77.24,1.04.08.13.23.17.44.12,1.49-.08,3.42-.98,5.78-2.71,2.39-1.73,4.18-3.55,5.35-5.47.16-.24.39-.4.68-.48.05-.03.13-.04.24-.04.13,0,.33.05.6.16.24.16.4.39.48.68.03.08.04.17.04.28,0,.19-.05.37-.16.56-1.33,2.18-3.31,4.22-5.94,6.1-2.82,2.07-5.21,3.11-7.18,3.11-.88,0-1.57-.33-2.07-1-.45-.56-.68-1.4-.68-2.51,0-1.57.41-3.34,1.24-5.31.85-2.1,1.92-3.75,3.19-4.95.77-.69,1.53-1.12,2.27-1.28.32-.05.56-.08.72-.08.69,0,1.34.23,1.95.68.88.59,1.32,1.41,1.32,2.47,0,1.2-.59,2.45-1.76,3.75-.93.96-1.94,1.68-3.03,2.15-.9.37-1.72.56-2.43.56Zm-.36-2.23c.11.03.27.04.48.04.53,0,1.08-.15,1.64-.44.8-.37,1.49-.89,2.07-1.56.64-.69,1.02-1.34,1.16-1.95l.04-.24c0-.32-.13-.57-.4-.76-.32-.24-.63-.32-.92-.24-.43.08-.85.33-1.28.76-1.01.93-1.89,2.31-2.63,4.15-.05.05-.11.13-.16.24Z" fill="#273954"/>
    <path d="m123.41,120.85c0-.16.05-.35.16-.56l.16-.24.12-.24c.05-.08.11-.16.16-.24.05-.08.11-.16.16-.24l.64-1,.04-.12c-.37-.32-.63-.56-.76-.72-.56-.56-.98-1.14-1.28-1.76-.29-.66-.44-1.33-.44-2,0-1.01.29-2.02.88-3.03.29-.51.72-.98,1.28-1.44.5-.45,1.06-.73,1.68-.84.27-.05.48-.08.64-.08.53,0,1.01.17,1.44.52.69.56,1.04,1.53,1.04,2.91,0,.59-.05,1.14-.16,1.68-.16,1.01-.49,2.06-1,3.15l-.52,1.12c.11.08.21.16.32.24.11.08.21.16.32.24.51.45.93.91,1.28,1.36.45.61.69,1.22.72,1.84,0,.51-.2,1.22-.6,2.15l-.56,1.12-.32.6-.32.6-.28.48c-.69,1.38-1.1,2.39-1.24,3.03v.28h.32c1.09,0,2.47-1.08,4.15-3.23,1.44-1.91,2.59-3.84,3.47-5.79.11-.24.31-.42.6-.56.08-.03.21-.04.4-.04.21,0,.37.03.48.08.24.11.43.31.56.6.05.16.08.28.08.36,0,.16-.04.32-.12.48-1.06,2.31-2.31,4.39-3.75,6.22-1.01,1.28-1.9,2.19-2.67,2.75-1.12.88-2.18,1.32-3.19,1.32-.9,0-1.57-.25-1.99-.76-.35-.37-.52-.88-.52-1.52,0-.82.49-2.23,1.48-4.23.08-.08.15-.17.2-.28.05-.11.09-.19.12-.24l.28-.6c.05-.11.11-.21.16-.3.05-.09.11-.19.16-.3.08-.16.17-.33.26-.5.09-.17.18-.34.26-.5l.32-.8.08-.24v-.04c-.03-.43-.44-.98-1.24-1.68l-.28-.24-.52.84-.32.48-.04.08-.08.16h-.04l-.12.24c-.16.24-.39.4-.68.48-.05.03-.15.04-.28.04-.16,0-.35-.07-.56-.2-.24-.16-.4-.39-.48-.68-.03-.05-.04-.13-.04-.24Zm2.51-4.59c.53-1.09.9-2.15,1.12-3.19.11-.53.13-1.14.08-1.84-.05-.24-.11-.41-.16-.52l-.04-.12h-.04c-.05-.05-.12-.05-.2,0-.27.03-.55.17-.84.44-.29.24-.53.51-.72.8-.37.69-.56,1.33-.56,1.91,0,.37.08.72.24,1.04.16.4.53.89,1.12,1.48Z" fill="#273954"/>
    <path d="m148.27,116.5c-.37,1.38-.56,2.43-.56,3.15-.05.88.03,1.5.24,1.88.11.11.19.16.24.16.29.08.56.03.8-.14s.61-.54,1.12-1.1c.21-.21.47-.32.76-.32.27,0,.53.11.8.32.21.27.32.53.32.8-.05.35-.16.6-.32.76-.48.72-.94,1.18-1.38,1.38s-1.02.37-1.74.5c-1.04.13-1.85-.4-2.43-1.6-.08-.13-.17-.36-.28-.68-.9,1.44-1.9,2.75-2.99,3.95-1.52,1.7-2.99,2.95-4.43,3.75-1.41.83-2.77,1.24-4.07,1.24-.21,0-.53-.03-.96-.08-.29-.08-.53-.25-.72-.52-.11-.16-.16-.31-.16-.44-.03-.08-.04-.21-.04-.4l.12-.52c.13-.53.27-1,.4-1.4l.32-.96c.27-.74.41-1.2.44-1.36l.44-1.24.2-.6c.05-.16.1-.3.14-.42.04-.12.07-.22.1-.3,1.01-3.09,1.53-5.03,1.56-5.82.03-.27.15-.52.36-.76.21-.19.48-.28.8-.28.29.03.54.15.76.36.19.21.28.48.28.8-.03.98-.59,3.1-1.68,6.34l-.24.76-.2.6c-.03.11-.17.52-.44,1.24-.03.16-.17.61-.44,1.36-.11.29-.2.6-.28.92-.03.05-.08.2-.16.44,1.89-.27,3.98-1.66,6.26-4.19,1.2-1.3,2.26-2.75,3.19-4.35.96-1.68,1.57-3.09,1.84-4.23.08-.32.25-.53.52-.64.24-.16.52-.2.84-.12.32.08.53.24.64.48.16.24.2.51.12.8l-.04.24-.04.24Z" fill="#273954"/>
    <path d="m153.97,117.18c0,.16-.04.32-.12.48-.35.64-.74,1.49-1.2,2.55-.59,1.17-1.12,2.45-1.6,3.83-.51,1.49-.77,2.65-.8,3.47v.32c0,.24.03.47.08.68.05.13.11.21.16.24.37.21,1.04-.07,1.99-.84.88-.69,1.72-1.53,2.51-2.51.32-.37,1.02-1.34,2.11-2.91l.6-.92.72-1.08c.16-.27.4-.41.72-.44.05-.03.14-.04.28-.04.16,0,.33.07.52.2.24.13.4.37.48.72v.2c0,.24-.07.44-.2.6.03-.05-.2.29-.68,1.04l-.6.92c-.88,1.28-1.64,2.31-2.28,3.11-.88,1.09-1.81,2.02-2.79,2.79-.64.53-1.24.9-1.8,1.12-.4.19-.84.28-1.32.28-.51,0-.93-.11-1.28-.32-.58-.27-1-.74-1.24-1.44-.13-.48-.2-.97-.2-1.48,0-1.12.32-2.59.96-4.43.35-1.06.88-2.41,1.6-4.03.4-.85.84-1.74,1.32-2.67.13-.27.35-.44.64-.52.05-.03.15-.04.28-.04.19,0,.37.04.56.12.27.13.44.35.52.64.03.08.04.2.04.36Zm.32-6.98c.24,0,.44.08.6.24h.04c.5.08.89.41,1.16,1,.11.24.16.52.16.84,0,.4-.12.76-.36,1.08-.45.61-1.06.92-1.84.92-.51,0-.93-.17-1.28-.52-.37-.29-.56-.73-.56-1.32,0-.24.01-.43.04-.56.08-.5.35-.9.8-1.2.19-.13.48-.27.88-.4.16-.05.28-.08.36-.08Z" fill="#273954"/>
    <path d="m165.42,118.93l-.2-.96c-.08-.13-.21-.21-.4-.24-.21-.05-.37-.08-.48-.08-.59,0-1.16.28-1.72.84-.72.64-1.45,1.73-2.19,3.27-.27.53-.55,1.2-.84,1.99-.05.05-.15.25-.28.6-.13.37-.23.61-.28.72l-.12.36c-.51,1.22-.77,2.15-.8,2.79,0,.29.03.48.08.56h.24c.13,0,.25-.01.36-.04.58-.13,1.24-.4,1.95-.8,1.57-.85,3.2-2.02,4.91-3.51,1.78-1.57,3.06-2.94,3.83-4.11.16-.24.39-.39.68-.44.05-.03.15-.04.28-.04.16,0,.33.07.52.2.24.13.4.36.48.68.03.05.04.13.04.24,0,.21-.07.41-.2.6-.93,1.38-2.33,2.87-4.19,4.47-1.86,1.65-3.64,2.93-5.35,3.83-.93.53-1.74.88-2.43,1.04-.21.05-.51.08-.88.08-.64,0-1.16-.15-1.56-.44-.69-.48-1.01-1.29-.96-2.43.08-.93.4-2.09.96-3.47,0-.08.03-.16.08-.24l.2-.48.2-.56.2-.44c.5-1.17.81-1.88.92-2.11.82-1.68,1.69-2.97,2.59-3.87,1.01-.98,2.07-1.48,3.19-1.48.42,0,.81.05,1.16.16.8.24,1.37.69,1.72,1.36.16.29.31.85.44,1.68v.16c0,.21-.07.43-.2.64-.21.27-.45.41-.72.44h-.16c-.21,0-.43-.07-.64-.2-.27-.21-.41-.47-.44-.76Z" fill="#273954"/>
    <path d="m170.81,125.2c-.35,0-.68-.04-1-.12-.21.93-.31,1.69-.28,2.27,0,.43.08.77.24,1.04.08.13.23.17.44.12,1.49-.08,3.42-.98,5.78-2.71,2.39-1.73,4.18-3.55,5.35-5.47.16-.24.39-.4.68-.48.05-.03.13-.04.24-.04.13,0,.33.05.6.16.24.16.4.39.48.68.03.08.04.17.04.28,0,.19-.05.37-.16.56-1.33,2.18-3.31,4.22-5.94,6.1-2.82,2.07-5.21,3.11-7.18,3.11-.88,0-1.57-.33-2.07-1-.45-.56-.68-1.4-.68-2.51,0-1.57.41-3.34,1.24-5.31.85-2.1,1.91-3.75,3.19-4.95.77-.69,1.53-1.12,2.27-1.28.32-.05.56-.08.72-.08.69,0,1.34.23,1.95.68.88.59,1.32,1.41,1.32,2.47,0,1.2-.59,2.45-1.76,3.75-.93.96-1.94,1.68-3.03,2.15-.91.37-1.72.56-2.43.56Zm-.36-2.23c.11.03.27.04.48.04.53,0,1.08-.15,1.64-.44.8-.37,1.49-.89,2.07-1.56.64-.69,1.02-1.34,1.16-1.95l.04-.24c0-.32-.13-.57-.4-.76-.32-.24-.63-.32-.92-.24-.43.08-.85.33-1.28.76-1.01.93-1.89,2.31-2.63,4.15-.05.05-.11.13-.16.24Z" fill="#273954"/>
    <path d="m186.57,131.1c-.74.61-1.6.92-2.55.92-1.46,0-2.58-.55-3.35-1.64-.4-.61-.6-1.25-.6-1.91,0-.53.12-1.09.36-1.68.48-1.14,1.37-1.91,2.67-2.31.61-.21,1.14-.35,1.6-.4-.19-.37-.67-1.22-1.44-2.55l-.28.56c-.13.29-.35.48-.64.56-.08.03-.2.04-.36.04-.13,0-.28-.04-.44-.12-.29-.13-.48-.35-.56-.64-.03-.08-.04-.2-.04-.36s.04-.32.12-.48l.32-.6.64-1.24-.32-.64c-.53-1.14-.88-2.17-1.04-3.07-.11-.45-.16-.97-.16-1.56,0-1.3.33-2.49,1-3.55.64-1.09,1.48-1.9,2.51-2.43.53-.27,1.04-.4,1.52-.4s.89.13,1.24.4c.35.27.61.6.8,1,.13.32.21.68.24,1.08.05.72.03,1.4-.08,2.03-.13.77-.31,1.4-.52,1.88-.37.85-.81,1.77-1.32,2.75l-1.28,2.35c-.05.11-.08.17-.08.2l.6,1.16,1.04,1.76.4.84.44.88,1.72-.12c.43-.03.85-.12,1.28-.28.51-.19,1.02-.53,1.56-1.04.37-.35.82-.84,1.36-1.48l.36-.44c.13-.21.37-.35.72-.4h.16c.24,0,.45.08.64.24.21.19.35.43.4.72v.12c0,.24-.08.47-.24.68l-.36.44c-.67.82-1.2,1.41-1.6,1.76-.64.61-1.36,1.09-2.15,1.44-.51.21-1.12.36-1.84.44-.48.05-.9.08-1.28.08.08.27.15.69.2,1.28v.08c.08,1.57-.37,2.79-1.36,3.67Zm-1.04-4.87c-.61.03-1.2.12-1.76.28-.69.24-1.13.61-1.32,1.12-.13.32-.2.58-.2.8,0,.27.08.51.24.72.27.4.66.61,1.2.64.08.03.2.04.36.04.37,0,.73-.13,1.08-.4.37-.32.57-.81.6-1.48v-.16c.03-.45-.04-.97-.2-1.56Zm-.04-16.44c-.24.08-.41.15-.52.2-.61.32-1.14.84-1.6,1.56-.45.74-.68,1.56-.68,2.43,0,.35.04.72.12,1.12.05.37.23.97.52,1.8l.64-1.2c.66-1.33,1.08-2.19,1.24-2.59.08-.16.2-.61.36-1.36.05-.42.08-.73.08-.92l-.04-.52c0-.16-.03-.32-.08-.48l-.04-.04Z" fill="#273954"/>
  </g>
  <rect x="203.12" y="118.77" width="46.25" height="1.93" fill="#273954"/>
  <rect x="39.07" y="118.77" width="46.25" height="1.93" fill="#273954"/>
</svg>