<?xml version="1.0" encoding="utf-8"?>
<!-- Generator: Adobe Illustrator 27.4.0, SVG Export Plug-In . SVG Version: 6.00 Build 0)  -->
<svg version="1.1" id="Layer_1" xmlns="http://www.w3.org/2000/svg" xmlns:xlink="http://www.w3.org/1999/xlink" x="0px" y="0px"
	 viewBox="0 0 500 500" style="enable-background:new 0 0 500 500;" xml:space="preserve">
<style type="text/css">
	.st0{fill:#704B4A;}
	.st1{enable-background:new    ;}
	.st2{fill:#FFFFFF;}
	.st3{fill:none;}
	.st4{fill:#6E5350;}
</style>
<rect class="st0" width="500" height="500"/>
<g class="st1">
	<path class="st2" d="M145.7,341v-9.3l0,0l-2.3,6.8h-0.7l-2.3-6.8h0v9.3h-1.5v-13.6h1.6l2.7,7.7h0.1l2.7-7.7h1.6V341H145.7z"/>
	<path class="st2" d="M154.1,341.2c-1.7,0-3-1.3-3-3v-10.7h1.5v10.5c0,1.1,0.6,1.7,1.5,1.7c0.9,0,1.5-0.6,1.5-1.7v-10.5h1.5v10.7
		C157.1,339.8,155.8,341.2,154.1,341.2z"/>
	<path class="st2" d="M166,341l-3.5-9.1h0v9.1h-1.5v-13.6h1.5l3.5,9.1l0,0v-9.1h1.5V341H166z"/>
	<path class="st2" d="M171.2,341v-13.6h1.6V341H171.2z"/>
	<path class="st2" d="M181.7,340.2c-0.5,0.6-1.3,0.9-2.1,0.9c-0.6,0-1.2-0.1-1.7-0.4c-0.8-0.4-1.4-1.2-1.4-2.7v-7.8
		c0-0.8,0.3-1.6,0.8-2.1c0.5-0.6,1.3-0.9,2.2-0.9c0.9,0,1.7,0.3,2.2,0.9c0.5,0.5,0.8,1.3,0.8,2.2v0.6H181v-0.4
		c0-0.9-0.5-1.7-1.5-1.7c-1.2,0-1.5,0.9-1.5,1.9v7.2c0,0.9,0.4,1.7,1.4,1.7c0.6,0,1.5-0.4,1.5-1.6v-0.5h1.5v0.6
		C182.6,338.9,182.2,339.7,181.7,340.2z"/>
	<path class="st2" d="M186.2,341v-13.6h1.6V341H186.2z"/>
	<path class="st2" d="M197.2,334.2c-0.5,0.8-1.3,1.4-2.7,1.4h-1.3v5.5h-1.5v-13.6h2.8c1.1,0,1.8,0.3,2.4,0.9
		c0.6,0.7,0.8,1.6,0.8,3.1C197.7,332.7,197.7,333.5,197.2,334.2z M194.5,328.9h-1.3v5.2h1.2c0.9,0,1.4-0.3,1.7-0.9
		c0.1-0.3,0.1-0.5,0.2-0.8c0-0.1,0-0.3,0-0.4v-0.5C196.3,330,196.2,328.9,194.5,328.9z"/>
	<path class="st2" d="M206.1,341l-0.6-3h-3l-0.6,3h-1.5l2.9-13.6h1.4l2.9,13.6H206.1z M204,330.5L204,330.5l-1.3,6h2.5L204,330.5z"
		/>
	<path class="st2" d="M210.6,341v-13.6h1.5v12h4v1.6H210.6z"/>
	<path class="st2" d="M229.2,340.4c-0.6,0.5-1.3,0.8-2.1,0.8c-0.7,0-1.4-0.2-2-0.6c-0.7-0.5-1.2-1.4-1.2-2.6v-7.4
		c0-1,0.3-1.8,0.9-2.3c0.6-0.6,1.4-0.9,2.3-0.9c0.9,0,1.7,0.3,2.3,1c0.5,0.5,0.8,1.3,0.8,2.2v0.5h-1.5v-0.5c0-1.1-0.7-1.6-1.6-1.6
		c-0.4,0-0.8,0.1-1.1,0.4c-0.4,0.3-0.5,0.7-0.5,1.3v7.4c0,0.6,0.2,1,0.5,1.3c0.3,0.2,0.6,0.4,1.1,0.4c0.4,0,0.7-0.1,1-0.3
		c0.4-0.3,0.6-0.7,0.6-1.3V335h-1.6v-1.3h3.1v4.3C230.2,339,229.8,339.8,229.2,340.4z"/>
	<path class="st2" d="M238.9,341l-0.6-3h-3l-0.6,3h-1.5l2.9-13.6h1.4l2.9,13.6H238.9z M236.8,330.5L236.8,330.5l-1.3,6h2.5
		L236.8,330.5z"/>
	<path class="st2" d="M243.4,341v-13.6h1.5v12h4v1.6H243.4z"/>
	<path class="st2" d="M251.8,341v-13.6h1.5v12h4v1.6H251.8z"/>
	<path class="st2" d="M260.2,341v-13.6h5.5v1.4h-4v4.5h3.5v1.4h-3.5v4.6h4v1.6H260.2z"/>
	<path class="st2" d="M274,341l-1.9-6h-1.6v6H269v-13.6h3c2.2,0,3.3,1.3,3.3,3.9c0,1.5-0.4,2.7-1.7,3.4l2.1,6.3H274z M271.8,328.9
		h-1.3v4.8h1.4c1.6,0,1.8-1,1.8-2.4C273.7,329.8,273.5,328.9,271.8,328.9z"/>
	<path class="st2" d="M282.2,335.3v5.8h-1.5v-5.8l-2.7-7.9h1.6l1.8,5.6h0l1.8-5.6h1.6L282.2,335.3z"/>
	<path class="st2" d="M296,341.2c-1.5,0-3.1-1.1-3.1-3.2v-7.4c0-2.1,1.6-3.2,3.1-3.2c1.5,0,3.1,1.1,3.1,3.2v7.4
		C299.1,340.1,297.5,341.2,296,341.2z M297.6,330.5c0-1.1-0.7-1.6-1.6-1.6c-0.8,0-1.6,0.5-1.6,1.6v7.4c0,1.1,0.7,1.6,1.6,1.6
		c0.8,0,1.6-0.5,1.6-1.6V330.5z"/>
	<path class="st2" d="M304.4,328.9v4.6h3.5v1.4h-3.5v6.1h-1.5v-13.6h5.5v1.4H304.4z"/>
	<path class="st2" d="M321.7,341l-0.6-3h-3l-0.6,3h-1.5l2.9-13.6h1.4l2.9,13.6H321.7z M319.5,330.5L319.5,330.5l-1.3,6h2.5
		L319.5,330.5z"/>
	<path class="st2" d="M326.2,341v-13.6h5.5v1.4h-4v4.5h3.5v1.4h-3.5v4.6h4v1.6H326.2z"/>
	<path class="st2" d="M340,340.4c-0.6,0.5-1.3,0.8-2.1,0.8c-0.7,0-1.4-0.2-2-0.6c-0.7-0.5-1.2-1.4-1.2-2.6v-7.4c0-1,0.3-1.8,0.9-2.3
		c0.6-0.6,1.4-0.9,2.3-0.9c0.9,0,1.7,0.3,2.3,1c0.5,0.5,0.8,1.3,0.8,2.2v0.5h-1.5v-0.5c0-1.1-0.7-1.6-1.6-1.6
		c-0.4,0-0.8,0.1-1.1,0.4c-0.4,0.3-0.5,0.7-0.5,1.3v7.4c0,0.6,0.2,1,0.5,1.3c0.3,0.2,0.6,0.4,1.1,0.4c0.4,0,0.7-0.1,1-0.3
		c0.4-0.3,0.6-0.7,0.6-1.3V335h-1.6v-1.3h3.1v4.3C341.1,339,340.6,339.8,340,340.4z"/>
	<path class="st2" d="M344.8,341v-13.6h1.6V341H344.8z"/>
	<path class="st2" d="M355.3,341l-3.5-9.1h0v9.1h-1.5v-13.6h1.5l3.5,9.1l0,0v-9.1h1.5V341H355.3z"/>
	<path class="st2" d="M365.4,341l-0.6-3h-3l-0.6,3h-1.5l2.9-13.6h1.4L367,341H365.4z M363.3,330.5L363.3,330.5l-1.3,6h2.5
		L363.3,330.5z"/>
</g>
<g class="st1">
	<path class="st2" d="M138.1,320.8l3.1-14.8h1.6l3.2,14.8H138.1z M142,309.5c-0.1-0.1-1.3,6.7-2,9.8h4L142,309.5z"/>
	<path class="st2" d="M152.8,320.8V314h-3.2v6.8h-1.7V306h1.7v6.5h3.2V306h1.7v14.8H152.8z"/>
	<path class="st2" d="M165,320.8v-10.1l0,0l-2.6,7.4h-0.8l-2.6-7.4h0v10.1h-1.7V306h1.7l2.9,8.4h0.1l2.9-8.4h1.7v14.8H165z"/>
	<path class="st2" d="M172.9,320.9c-1.7,0-3.4-1.2-3.4-3.5v-8.1c0-2.3,1.7-3.5,3.4-3.5s3.4,1.2,3.4,3.5v8.1
		C176.3,319.7,174.5,320.9,172.9,320.9z M174.6,309.4c0-1.2-0.8-1.8-1.7-1.8s-1.7,0.6-1.7,1.8v8.1c0,1.2,0.8,1.8,1.7,1.8
		s1.7-0.6,1.7-1.8V309.4z"/>
	<path class="st2" d="M182.1,307.6v13.2h-1.7v-13.2h-2.5V306h6.7v1.6H182.1z"/>
	<path class="st2" d="M186.5,320.8V306h1.7v14.8H186.5z"/>
	<path class="st2" d="M197,320.8l-2.7-7.1l-1.4,2.8v4.3h-1.7V306h1.7v7.4h0l3.6-7.4h1.7l-2.9,5.8l3.4,8.9H197z"/>
	<path class="st2" d="M205.5,320.8V314h-3.2v6.8h-1.7V306h1.7v6.5h3.2V306h1.7v14.8H205.5z"/>
</g>
<g>
	<g>
		<path class="st2" d="M221,320.8v-13.3h-3.2v13.3h-1.7V306h6.5v14.8H221z"/>
		<path class="st2" d="M225.6,320.8V306h1.7v14.8H225.6z"/>
		<path class="st2" d="M235.7,320.8l-3.8-9.9v9.9h-1.7V306h1.6l3.8,9.9l0,0V306h1.7v14.8H235.7z"/>
		<path class="st2" d="M245.5,320.8l-0.7-3.3h-3.3l-0.7,3.3h-1.6l3.1-14.8h1.6l3.2,14.8H245.5z M243.1,309.4L243.1,309.4l-1.4,6.5
			h2.7L243.1,309.4z"/>
		<path class="st2" d="M254.9,320.8l-2.7-7.1l-1.4,2.8v4.3h-1.7V306h1.7v7.4h0l3.6-7.4h1.7l-2.9,5.8l3.4,8.9H254.9z"/>
		<path class="st2" d="M261.8,320.9c-1.7,0-3.4-1.2-3.4-3.5v-8.1c0-2.3,1.7-3.5,3.4-3.5c1.7,0,3.4,1.2,3.4,3.5v8.1
			C265.2,319.7,263.5,320.9,261.8,320.9z M263.5,309.4c0-1.2-0.8-1.8-1.7-1.8s-1.7,0.6-1.7,1.8v8.1c0,1.2,0.8,1.8,1.7,1.8
			s1.7-0.6,1.7-1.8V309.4z"/>
		<path class="st2" d="M271.2,320.9c-1.7,0-3.4-1.2-3.4-3.5v-8.1c0-2.3,1.7-3.5,3.4-3.5c1.7,0,3.4,1.2,3.4,3.5v8.1
			C274.6,319.7,272.9,320.9,271.2,320.9z M273,309.4c0-1.2-0.8-1.8-1.7-1.8s-1.7,0.6-1.7,1.8v3.1h3.4V309.4z M269.5,314.1v3.4
			c0,1.2,0.8,1.8,1.7,1.8s1.7-0.6,1.7-1.8v-3.4H269.5z"/>
		<path class="st2" d="M282.3,320.8V314h-3.2v6.8h-1.7V306h1.7v6.5h3.2V306h1.7v14.8H282.3z"/>
		<path class="st2" d="M292.7,320.8l-2.7-7.1l-1.4,2.8v4.3h-1.7V306h1.7v7.4h0l3.6-7.4h1.7l-2.9,5.8l3.4,8.9H292.7z"/>
		<path class="st2" d="M301.1,320.8V314h-3.2v6.8h-1.7V306h1.7v6.5h3.2V306h1.7v14.8H301.1z"/>
	</g>
</g>
<g class="st1">
	<path class="st2" d="M317.2,320.8l-0.7-3.3h-3.3l-0.7,3.3H311l3.1-14.8h1.6l3.2,14.8H317.2z M314.9,309.4L314.9,309.4l-1.4,6.5h2.7
		L314.9,309.4z"/>
	<path class="st2" d="M320.9,320.8V306h1.7v14.8H320.9z"/>
	<path class="st2" d="M327.2,307.6v13.2h-1.7V306h6v1.6H327.2z"/>
	<path class="st2" d="M333.9,320.8V306h1.7v14.8H333.9z"/>
	<path class="st2" d="M344,320.8l-3.8-9.9v9.9h-1.7V306h1.6l3.8,9.9l0,0V306h1.7v14.8H344z"/>
	<path class="st2" d="M353.7,320.8l-0.7-3.3h-3.3l-0.7,3.3h-1.6l3.1-14.8h1.6l3.2,14.8H353.7z M351.4,309.4L351.4,309.4l-1.4,6.5
		h2.7L351.4,309.4z"/>
	<path class="st2" d="M356.6,320.8v-1.7l2-6l-2.1-5.8V306h5.8v1.6h-4l2.1,5.6l-2.2,6.1h4.4v1.6H356.6z"/>
</g>
<polygon class="st2" points="325.1,207.7 325.1,189.7 326.4,189.7 326.4,183.7 296.5,183.7 296.5,189.7 297.8,189.7 297.8,207.7 
	299.5,207.7 299.5,186.3 310.8,186.3 310.8,207.7 311.4,207.7 311.4,186.3 322.7,186.3 322.7,207.7 "/>
<polygon class="st2" points="297.1,208.3 296,209.4 296,209.8 297.1,208.7 328.1,208.7 328.3,208.3 "/>
<polygon class="st2" points="297.1,209.2 296,210.4 296,211.4 297.3,210 328.1,210 328.1,209.3 "/>
<g>
	<polygon class="st2" points="297.6,210.7 296.8,211.5 326.3,211.5 327.3,210.7 	"/>
	<path class="st2" d="M311.6,211.6h-0.9C311,211.6,311.3,211.6,311.6,211.6z"/>
	<path class="st2" d="M310,211.6h0.7C310.4,211.6,310.2,211.6,310,211.6L310,211.6z"/>
</g>
<polygon class="st2" points="325.7,257.7 325.7,239.7 327,239.7 327,233.6 297.1,233.6 297.1,239.7 298.4,239.7 298.4,257.7 
	300.1,257.7 300.1,236.2 311.4,236.2 311.4,257.7 312,257.7 312,236.2 323.3,236.2 323.3,257.7 "/>
<polygon class="st2" points="298,261.3 296.8,260.9 296.8,260.4 298,260.9 328.7,261 328.7,261.4 "/>
<polygon class="st2" points="297.9,260.4 296.8,259.9 296.8,259 298.1,259.6 328.9,259.6 328.9,260.4 "/>
<polygon class="st2" points="298.1,259 296.6,258.2 327.4,258.2 329.5,259 "/>
<polygon class="st2" points="177,257.7 177,236.2 188.3,236.2 188.3,257.7 188.9,257.7 188.9,236.2 200.2,236.2 200.2,257.7 
	201.9,257.7 201.9,239.7 203.2,239.7 203.2,233.6 173.3,233.6 173.3,239.7 174.6,239.7 174.6,257.7 "/>
<polygon class="st2" points="202.4,261.3 203.5,260.9 203.5,260.4 202.3,260.9 171.7,261 171.6,261.4 "/>
<polygon class="st2" points="202.4,260.4 203.6,259.9 203.6,259 202.3,259.6 171.4,259.6 171.4,260.4 "/>
<polygon class="st2" points="202.2,259 203.7,258.2 172.9,258.2 170.8,259 "/>
<polygon class="st2" points="176.9,207.7 176.9,186.3 188.2,186.3 188.2,207.7 188.9,207.7 188.9,186.3 200.2,186.3 200.2,207.7 
	201.9,207.7 201.9,189.7 203.1,189.7 203.1,183.7 173.3,183.7 173.3,189.7 174.6,189.7 174.6,207.7 "/>
<polygon class="st2" points="202.6,208.3 203.7,209.4 203.7,209.8 202.6,208.7 171.6,208.7 171.3,208.3 "/>
<polygon class="st2" points="202.6,209.2 203.7,210.4 203.7,211.4 202.4,210 171.6,210 171.6,209.3 "/>
<g>
	<polygon class="st2" points="202.1,210.7 202.8,211.5 173.4,211.5 172.4,210.7 	"/>
	<path class="st2" d="M188,211.6h0.9C188.7,211.6,188.4,211.6,188,211.6z"/>
	<path class="st2" d="M189.7,211.6h-0.7C189.2,211.6,189.5,211.6,189.7,211.6L189.7,211.6z"/>
</g>
<line class="st3" x1="201.4" y1="208.1" x2="199.8" y2="208.1"/>
<g>
	<polygon class="st2" points="217.1,172.5 217.1,174.4 215.9,172.8 157.6,172.8 157.6,170.7 215.8,170.7 	"/>
	<polygon class="st2" points="217.1,179.1 217.1,176.1 215.6,174.1 158.6,174.1 158.6,177 215.6,177 	"/>
	<polygon class="st2" points="217.1,171.2 217.1,170.3 216.1,168.7 155.7,168.7 155.7,169.5 216.1,169.5 	"/>
	<polygon class="st2" points="215.9,165.9 216.5,167.5 157.5,167.4 157.5,165.9 	"/>
</g>
<g>
	<polygon class="st2" points="283.1,172.5 283.1,174.4 284.3,172.8 342.2,172.8 342.2,170.7 284.4,170.7 	"/>
	<polygon class="st2" points="283.1,179.1 283.1,176.1 284.6,174.1 341.2,174.1 341.2,177 284.6,177 	"/>
	<polygon class="st2" points="283.1,171.2 283.1,170.3 284.1,168.7 344,168.7 344,169.5 284.2,169.5 	"/>
	<polygon class="st2" points="284.4,165.9 283.7,167.5 342.3,167.4 342.3,165.9 	"/>
</g>
<rect x="219" y="172.7" class="st2" width="62.4" height="2"/>
<rect x="219" y="170.7" class="st2" width="62.4" height="0.9"/>
<rect x="219" y="167.9" class="st2" width="62.4" height="1.8"/>
<rect x="219" y="176.1" class="st2" width="62.4" height="2.9"/>
<rect x="160.3" y="183.1" class="st2" width="4.4" height="2.1"/>
<rect x="160.3" y="186.7" class="st2" width="2.2" height="2.1"/>
<rect x="160.3" y="193.9" class="st2" width="2.2" height="2.1"/>
<rect x="160.3" y="201.2" class="st2" width="2.2" height="2.1"/>
<rect x="160.3" y="208.4" class="st2" width="2.2" height="2.1"/>
<rect x="160.3" y="215.6" class="st2" width="2.2" height="2.1"/>
<rect x="160.3" y="222.8" class="st2" width="2.2" height="2.1"/>
<rect x="336.6" y="179.5" class="st2" width="2.2" height="2.1"/>
<rect x="160.3" y="179.5" class="st2" width="2.2" height="2.1"/>
<rect x="160.3" y="190.3" class="st2" width="4.4" height="2.1"/>
<rect x="160.3" y="197.6" class="st2" width="4.4" height="2.1"/>
<rect x="160.3" y="204.8" class="st2" width="4.4" height="2.1"/>
<rect x="160.3" y="212" class="st2" width="4.4" height="2.1"/>
<rect x="160.3" y="219.2" class="st2" width="4.4" height="2.1"/>
<rect x="334.5" y="183.1" class="st2" width="4.4" height="2.1"/>
<rect x="336.6" y="186.7" class="st2" width="2.2" height="2.1"/>
<rect x="336.6" y="193.9" class="st2" width="2.2" height="2.1"/>
<rect x="336.6" y="201.2" class="st2" width="2.2" height="2.1"/>
<rect x="336.6" y="208.4" class="st2" width="2.2" height="2.1"/>
<rect x="336.6" y="215.6" class="st2" width="2.2" height="2.1"/>
<rect x="336.6" y="222.8" class="st2" width="2.2" height="2.1"/>
<rect x="334.5" y="190.3" class="st2" width="4.4" height="2.1"/>
<rect x="334.5" y="197.6" class="st2" width="4.4" height="2.1"/>
<rect x="334.5" y="204.8" class="st2" width="4.4" height="2.1"/>
<rect x="334.5" y="212" class="st2" width="4.4" height="2.1"/>
<rect x="334.5" y="219.2" class="st2" width="4.4" height="2.1"/>
<polygon class="st2" points="214.6,179.5 212.2,179.5 212.2,179.5 212.2,181.5 214.4,181.5 215.9,183.2 215.9,181.1 "/>
<polygon class="st2" points="214.6,183.1 210.1,183.1 210,183.1 210,185.1 214.4,185.1 215.9,186.8 215.9,184.7 "/>
<polygon class="st2" points="214.6,186.7 212.2,186.7 212.1,186.7 212.1,188.7 214.4,188.7 215.9,190.4 215.9,188.3 "/>
<polygon class="st2" points="214.6,190.3 210.1,190.3 210,190.3 210,192.3 214.4,192.3 215.9,194.1 215.9,191.9 "/>
<polygon class="st2" points="214.6,193.9 212.2,193.9 212.1,193.9 212.1,195.9 214.4,195.9 215.9,197.7 215.9,195.5 "/>
<polygon class="st2" points="214.6,197.6 210.1,197.6 210,197.6 210,199.6 214.4,199.6 215.9,201.3 215.9,199.1 "/>
<polygon class="st2" points="214.6,201.2 212.2,201.2 212.1,201.2 212.1,203.2 214.4,203.2 215.9,204.9 215.9,202.7 "/>
<polygon class="st2" points="214.6,204.8 210.1,204.8 210,204.8 210,206.8 214.4,206.8 215.9,208.5 215.9,206.4 "/>
<polygon class="st2" points="214.6,208.4 212.2,208.4 212.1,208.4 212.1,210.4 214.4,210.4 215.9,212.1 215.9,210 "/>
<polygon class="st2" points="214.6,212 210.1,212 210,212 210,214 214.4,214 215.9,215.7 215.9,213.6 "/>
<polygon class="st2" points="214.6,215.6 212.2,215.6 212.1,215.6 212.1,217.6 214.4,217.6 215.9,219.3 215.9,217.2 "/>
<polygon class="st2" points="215.9,224.7 215.9,225.1 212.2,225.1 212.2,225.1 212.1,225.1 212.1,223.1 212.2,223.1 214.6,223.1 "/>
<polygon class="st2" points="214.6,219.2 210.1,219.2 210,219.2 210,221.2 214.4,221.2 215.9,222.9 215.9,220.8 "/>
<polygon class="st2" points="285.6,179.5 288,179.5 288,179.5 288,181.5 285.8,181.5 284.3,183.2 284.3,181.1 "/>
<polygon class="st2" points="285.6,183.1 290.1,183.1 290.2,183.1 290.2,185.1 285.8,185.1 284.3,186.8 284.3,184.7 "/>
<polygon class="st2" points="285.6,186.7 288,186.7 288,186.7 288,188.7 285.8,188.7 284.3,190.4 284.3,188.3 "/>
<polygon class="st2" points="285.6,190.3 290.1,190.3 290.2,190.3 290.2,192.3 285.8,192.3 284.3,194.1 284.3,191.9 "/>
<polygon class="st2" points="285.6,193.9 288,193.9 288,193.9 288,195.9 285.8,195.9 284.3,197.7 284.3,195.5 "/>
<polygon class="st2" points="285.6,197.6 290.1,197.6 290.2,197.6 290.2,199.6 285.8,199.6 284.3,201.3 284.3,199.1 "/>
<polygon class="st2" points="285.6,201.2 288,201.2 288,201.2 288,203.2 285.8,203.2 284.3,204.9 284.3,202.7 "/>
<polygon class="st2" points="285.6,204.8 290.1,204.8 290.2,204.8 290.2,206.8 285.8,206.8 284.3,208.5 284.3,206.4 "/>
<polygon class="st2" points="285.6,208.4 288,208.4 288,208.4 288,210.4 285.8,210.4 284.3,212.1 284.3,210 "/>
<polygon class="st2" points="285.6,212 290.1,212 290.2,212 290.2,214 285.8,214 284.3,215.7 284.3,213.6 "/>
<polygon class="st2" points="285.6,215.6 288,215.6 288,215.6 288,217.6 285.8,217.6 284.3,219.3 284.3,217.2 "/>
<polygon class="st2" points="284.3,224.7 284.3,225.1 288,225.1 288,225.1 288,225.1 288,223.1 288,223.1 285.6,223.1 "/>
<polygon class="st2" points="285.6,219.2 290.1,219.2 290.2,219.2 290.2,221.2 285.8,221.2 284.3,222.9 284.3,220.8 "/>
<polygon class="st2" points="282.7,227.2 283.5,226.6 344.7,226.6 344.7,225.6 283.6,225.6 282.7,226.1 "/>
<polygon class="st2" points="283.3,228.4 284.1,227.9 343.1,227.9 343.1,229.4 284.2,229.4 283.3,230 "/>
<polygon class="st2" points="283.8,231.2 283.8,232.8 284.5,232.3 342.1,232.3 342.1,230.6 284.5,230.6 "/>
<polygon class="st2" points="217.6,227.2 216.8,226.6 155.6,226.6 155.6,225.6 216.7,225.6 217.6,226.1 "/>
<polygon class="st2" points="217,228.4 216.3,227.9 157.3,227.9 157.3,229.4 216.2,229.4 217,230 "/>
<polygon class="st2" points="216.6,231.2 216.6,232.8 215.8,232.3 158.2,232.3 158.2,230.6 215.8,230.6 "/>
<polygon class="st2" points="340.6,274.9 285.1,274.9 284,273.8 284,233.9 285.1,233.9 285.1,273.3 285.5,273.9 339.5,273.9 
	339.5,233.8 340.6,233.8 "/>
<polygon class="st2" points="215.1,274.9 159.5,274.9 159.5,233.8 160.6,233.8 160.6,273.9 214.6,273.9 215.1,273.3 215.1,233.9 
	216.2,233.9 216.2,273.8 "/>
<rect x="209.5" y="158.6" class="st2" width="5.4" height="6.1"/>
<path class="st2" d="M208.9,156.6h6.2c0,0-0.3,1.1-0.3,1.1s-5.3,0-5.3,0L208.9,156.6z"/>
<polygon class="st2" points="207.9,154.6 208.4,155.6 215.3,155.6 218.2,162.7 218.9,162.7 215.6,154.6 "/>
<rect x="285.4" y="158.6" class="st2" width="5.4" height="6.1"/>
<path class="st2" d="M291.4,156.6h-6.2c0,0,0.3,1.1,0.3,1.1s5.3,0,5.3,0L291.4,156.6z"/>
<path class="st2" d="M339.7,156.6l-6.4,0c0,0,0.2,1.1,0.2,1.1s5.4,0,5.4,0L339.7,156.6L339.7,156.6z"/>
<polygon class="st2" points="292.3,154.6 291.9,155.6 285,155.6 282,162.7 281.4,162.7 284.7,154.6 "/>
<polygon class="st2" points="341.1,154.2 340.3,155.3 333.3,155.3 329.4,160.2 328.1,160.2 333,154.2 "/>
<rect x="333.6" y="158.8" class="st2" width="5.2" height="6.1"/>
<path class="st2" d="M160,156.6l6.4,0c0,0-0.2,1.1-0.2,1.1s-5.4,0-5.4,0L160,156.6L160,156.6z"/>
<polygon class="st2" points="158.6,154.2 159.4,155.3 166.4,155.3 170.3,160.2 171.5,160.2 166.6,154.2 "/>
<rect x="160.9" y="158.8" class="st2" width="5.2" height="6.1"/>
<polygon class="st2" points="168.9,162.8 209.8,162.8 209.8,160.9 167.4,160.9 "/>
<polygon class="st2" points="330.8,162.8 289.8,162.8 289.8,160.9 332.3,160.9 "/>
<polygon class="st2" points="217.8,165.5 282.6,165.5 283.2,164 217.2,164 "/>
<g>
	<rect x="219.9" y="165.4" class="st2" width="0.8" height="2.5"/>
	<rect x="223.9" y="165.4" class="st2" width="0.8" height="2.5"/>
	<rect x="227.8" y="165.4" class="st2" width="0.8" height="2.5"/>
	<rect x="231.8" y="165.4" class="st2" width="0.8" height="2.5"/>
	<rect x="235.8" y="165.4" class="st2" width="0.8" height="2.5"/>
	<rect x="239.8" y="165.4" class="st2" width="0.8" height="2.5"/>
	<rect x="243.8" y="165.4" class="st2" width="0.8" height="2.5"/>
	<rect x="247.8" y="165.4" class="st2" width="0.8" height="2.5"/>
	<rect x="251.8" y="165.4" class="st2" width="0.8" height="2.5"/>
	<rect x="255.8" y="165.4" class="st2" width="0.8" height="2.5"/>
	<rect x="259.8" y="165.4" class="st2" width="0.8" height="2.5"/>
	<rect x="263.7" y="165.4" class="st2" width="0.8" height="2.5"/>
	<rect x="267.7" y="165.4" class="st2" width="0.8" height="2.5"/>
	<rect x="271.7" y="165.4" class="st2" width="0.8" height="2.5"/>
	<rect x="275.7" y="165.4" class="st2" width="0.8" height="2.5"/>
	<rect x="279.7" y="165.4" class="st2" width="0.8" height="2.5"/>
</g>
<rect x="170.6" y="162.7" class="st2" width="0.8" height="2.1"/>
<rect x="174.3" y="162.7" class="st2" width="0.8" height="2.1"/>
<rect x="177.9" y="162.7" class="st2" width="0.8" height="2.1"/>
<rect x="181.6" y="162.7" class="st2" width="0.8" height="2.1"/>
<rect x="185.3" y="162.7" class="st2" width="0.8" height="2.1"/>
<rect x="189" y="162.7" class="st2" width="0.8" height="2.1"/>
<rect x="192.6" y="162.7" class="st2" width="0.8" height="2.1"/>
<rect x="196.3" y="162.7" class="st2" width="0.8" height="2.1"/>
<rect x="200" y="162.7" class="st2" width="0.8" height="2.1"/>
<rect x="203.7" y="162.7" class="st2" width="0.8" height="2.1"/>
<rect x="207.4" y="162.7" class="st2" width="0.8" height="2.1"/>
<rect x="292.2" y="162.6" class="st2" width="0.8" height="2.3"/>
<rect x="295.8" y="162.6" class="st2" width="0.8" height="2.3"/>
<rect x="299.4" y="162.6" class="st2" width="0.8" height="2.3"/>
<rect x="303.1" y="162.6" class="st2" width="0.8" height="2.3"/>
<rect x="306.7" y="162.6" class="st2" width="0.8" height="2.3"/>
<rect x="310.4" y="162.6" class="st2" width="0.8" height="2.3"/>
<rect x="314" y="162.6" class="st2" width="0.8" height="2.3"/>
<rect x="317.6" y="162.6" class="st2" width="0.8" height="2.3"/>
<rect x="321.3" y="162.6" class="st2" width="0.8" height="2.3"/>
<rect x="324.9" y="162.6" class="st2" width="0.8" height="2.3"/>
<rect x="328.5" y="162.6" class="st2" width="0.8" height="2.3"/>
<rect x="219.7" y="226.1" class="st2" width="61" height="1.1"/>
<rect x="219.1" y="228.4" class="st2" width="62.1" height="1.6"/>
<rect x="218.7" y="231.2" class="st2" width="63" height="1.6"/>
<rect x="215.5" y="272.9" class="st2" width="69.2" height="1.1"/>
<rect x="208.4" y="236.3" class="st2" width="5.8" height="0.6"/>
<rect x="204.9" y="239.4" class="st2" width="9.3" height="0.6"/>
<rect x="208.2" y="242.6" class="st2" width="6" height="0.6"/>
<rect x="208.4" y="245.7" class="st2" width="5.8" height="0.6"/>
<rect x="204.9" y="248.9" class="st2" width="9.3" height="0.6"/>
<rect x="208.2" y="252" class="st2" width="6" height="0.6"/>
<rect x="208.4" y="255.2" class="st2" width="5.8" height="0.6"/>
<rect x="204.9" y="258.3" class="st2" width="9.3" height="0.6"/>
<rect x="208.2" y="261.5" class="st2" width="6" height="0.6"/>
<rect x="208.4" y="264.6" class="st2" width="5.8" height="0.6"/>
<rect x="215.7" y="269.6" class="st2" width="5.1" height="0.5"/>
<rect x="215.7" y="263.1" class="st2" width="5.1" height="0.5"/>
<rect x="204.9" y="267.8" class="st2" width="9.3" height="0.6"/>
<rect x="215.6" y="266.3" class="st2" width="8.2" height="0.5"/>
<rect x="279.6" y="269.6" class="st2" width="5.1" height="0.5"/>
<rect x="279.6" y="263.1" class="st2" width="5.1" height="0.5"/>
<rect x="276.6" y="266.3" class="st2" width="8.2" height="0.5"/>
<rect x="208.2" y="270.9" class="st2" width="6" height="0.6"/>
<rect x="160.1" y="236.3" class="st2" width="4.3" height="0.6"/>
<rect x="160.1" y="239.4" class="st2" width="6.9" height="0.6"/>
<rect x="160.1" y="242.6" class="st2" width="4.5" height="0.6"/>
<rect x="160.1" y="245.7" class="st2" width="4.3" height="0.6"/>
<rect x="160.1" y="248.9" class="st2" width="6.9" height="0.6"/>
<rect x="160.1" y="252" class="st2" width="4.5" height="0.6"/>
<rect x="160.1" y="255.2" class="st2" width="4.3" height="0.6"/>
<rect x="160.1" y="258.3" class="st2" width="6.9" height="0.6"/>
<rect x="160.1" y="261.5" class="st2" width="4.5" height="0.6"/>
<rect x="160.1" y="264.6" class="st2" width="4.3" height="0.6"/>
<rect x="160.1" y="267.8" class="st2" width="6.9" height="0.6"/>
<rect x="160.1" y="270.9" class="st2" width="4.5" height="0.6"/>
<rect x="334.5" y="236.3" class="st2" width="5.8" height="0.6"/>
<rect x="331" y="239.4" class="st2" width="9.3" height="0.6"/>
<rect x="334.3" y="242.6" class="st2" width="6" height="0.6"/>
<rect x="334.5" y="245.7" class="st2" width="5.8" height="0.6"/>
<rect x="331" y="248.9" class="st2" width="9.3" height="0.6"/>
<rect x="334.3" y="252" class="st2" width="6" height="0.6"/>
<rect x="334.5" y="255.2" class="st2" width="5.8" height="0.6"/>
<rect x="331" y="258.3" class="st2" width="9.3" height="0.6"/>
<rect x="334.3" y="261.5" class="st2" width="6" height="0.6"/>
<rect x="334.5" y="264.6" class="st2" width="5.8" height="0.6"/>
<rect x="331" y="267.8" class="st2" width="9.3" height="0.6"/>
<rect x="334.3" y="270.9" class="st2" width="6" height="0.6"/>
<rect x="285.8" y="236.3" class="st2" width="4.3" height="0.6"/>
<rect x="285.8" y="239.4" class="st2" width="6.9" height="0.6"/>
<rect x="285.8" y="242.6" class="st2" width="4.5" height="0.6"/>
<rect x="285.8" y="245.7" class="st2" width="4.3" height="0.6"/>
<rect x="285.8" y="248.9" class="st2" width="6.9" height="0.6"/>
<rect x="285.8" y="252" class="st2" width="4.5" height="0.6"/>
<rect x="285.8" y="255.2" class="st2" width="4.3" height="0.6"/>
<rect x="285.8" y="258.3" class="st2" width="6.9" height="0.6"/>
<rect x="285.8" y="261.5" class="st2" width="4.5" height="0.6"/>
<rect x="285.8" y="264.6" class="st2" width="4.3" height="0.6"/>
<rect x="285.8" y="267.8" class="st2" width="6.9" height="0.6"/>
<rect x="285.8" y="270.9" class="st2" width="4.5" height="0.6"/>
<rect x="182.4" y="185.9" class="st2" width="0.3" height="21.8"/>
<rect x="182.4" y="235.8" class="st2" width="0.3" height="21.8"/>
<rect x="194.4" y="235.8" class="st2" width="0.3" height="21.8"/>
<rect x="175.7" y="202" class="st2" width="25.1" height="0.3"/>
<rect x="175.7" y="191.3" class="st2" width="25.1" height="0.3"/>
<rect x="175.7" y="196.7" class="st2" width="25.1" height="0.3"/>
<rect x="175.7" y="241.4" class="st2" width="25.1" height="0.3"/>
<rect x="175.7" y="246.8" class="st2" width="25.1" height="0.3"/>
<rect x="175.6" y="252.1" class="st2" width="25.1" height="0.3"/>
<rect x="194.4" y="185.9" class="st2" width="0.3" height="21.8"/>
<rect x="304.9" y="185.9" class="st2" width="0.3" height="21.8"/>
<rect x="298.6" y="202.1" class="st2" width="25.1" height="0.3"/>
<rect x="298.5" y="191.3" class="st2" width="25.1" height="0.3"/>
<rect x="298.6" y="196.7" class="st2" width="25.1" height="0.3"/>
<rect x="317" y="185.9" class="st2" width="0.3" height="21.8"/>
<rect x="179.5" y="235" transform="matrix(0.6872 -0.7265 0.7265 0.6872 -117.2731 205.2475)" class="st2" width="0.4" height="7.6"/>
<rect x="185.4" y="235" transform="matrix(0.6894 -0.7244 0.7244 0.6894 -115.3557 208.5912)" class="st2" width="0.4" height="7.6"/>
<rect x="179.5" y="240.5" transform="matrix(0.677 -0.736 0.736 0.677 -121.692 211.1309)" class="st2" width="0.4" height="7.5"/>
<rect x="185.3" y="240.5" transform="matrix(0.6738 -0.7389 0.7389 0.6738 -119.9736 216.7674)" class="st2" width="0.4" height="7.5"/>
<rect x="179.5" y="245.9" transform="matrix(0.6758 -0.737 0.737 0.6758 -125.7133 213.3498)" class="st2" width="0.4" height="7.5"/>
<rect x="185.3" y="245.8" transform="matrix(0.6685 -0.7437 0.7437 0.6685 -124.096 220.7158)" class="st2" width="0.4" height="7.5"/>
<rect x="179.6" y="251.2" transform="matrix(0.6665 -0.7455 0.7455 0.6665 -130.1646 219.0229)" class="st2" width="0.4" height="7.6"/>
<rect x="185.4" y="251.2" transform="matrix(0.6695 -0.7428 0.7428 0.6695 -128.0518 222.1076)" class="st2" width="0.4" height="7.6"/>
<rect x="181.7" y="238.6" transform="matrix(0.7257 -0.688 0.688 0.7257 -113.4159 193.1229)" class="st2" width="7.6" height="0.4"/>
<rect x="175.9" y="238.6" transform="matrix(0.7219 -0.692 0.692 0.7219 -115.2996 190.7595)" class="st2" width="7.6" height="0.4"/>
<rect x="181.8" y="244.1" transform="matrix(0.7363 -0.6766 0.6766 0.7363 -116.3612 189.9279)" class="st2" width="7.5" height="0.4"/>
<rect x="176" y="244.1" transform="matrix(0.7355 -0.6775 0.6775 0.7355 -117.9517 186.3525)" class="st2" width="7.5" height="0.4"/>
<rect x="181.8" y="249.4" transform="matrix(0.7372 -0.6757 0.6757 0.7372 -119.9111 190.968)" class="st2" width="7.5" height="0.4"/>
<rect x="176" y="249.4" transform="matrix(0.7355 -0.6775 0.6775 0.7355 -121.5878 187.7842)" class="st2" width="7.5" height="0.4"/>
<rect x="181.7" y="254.7" transform="matrix(0.7414 -0.6711 0.6711 0.7414 -123.1013 190.3976)" class="st2" width="7.6" height="0.4"/>
<rect x="175.9" y="254.8" transform="matrix(0.7406 -0.672 0.672 0.7406 -124.7357 186.8829)" class="st2" width="7.5" height="0.4"/>
<rect x="191.5" y="235" transform="matrix(0.6837 -0.7298 0.7298 0.6837 -113.6317 215.4285)" class="st2" width="0.4" height="7.6"/>
<rect x="197.3" y="235" transform="matrix(0.6958 -0.7182 0.7182 0.6958 -111.4673 214.5139)" class="st2" width="0.4" height="7.6"/>
<rect x="191.5" y="240.5" transform="matrix(0.6744 -0.7383 0.7383 0.6744 -117.9373 221.0648)" class="st2" width="0.4" height="7.5"/>
<rect x="197.3" y="240.5" transform="matrix(0.6787 -0.7344 0.7344 0.6787 -115.9343 223.5599)" class="st2" width="0.4" height="7.5"/>
<rect x="191.5" y="245.8" transform="matrix(0.6743 -0.7385 0.7385 0.6743 -121.8687 222.8428)" class="st2" width="0.4" height="7.5"/>
<rect x="197.4" y="245.8" transform="matrix(0.6642 -0.7476 0.7476 0.6642 -120.2319 231.5042)" class="st2" width="0.4" height="7.5"/>
<rect x="191.6" y="251.1" transform="matrix(0.6711 -0.7414 0.7414 0.6711 -125.9333 226.0134)" class="st2" width="0.4" height="7.6"/>
<rect x="197.4" y="251.2" transform="matrix(0.6721 -0.7405 0.7405 0.6721 -124.0228 229.9012)" class="st2" width="0.4" height="7.6"/>
<rect x="193.7" y="238.6" transform="matrix(0.7216 -0.6923 0.6923 0.7216 -110.3551 203.2008)" class="st2" width="7.5" height="0.4"/>
<rect x="187.9" y="238.6" transform="matrix(0.7281 -0.6854 0.6854 0.7281 -111.5467 196.3118)" class="st2" width="7.6" height="0.4"/>
<rect x="193.8" y="244.1" transform="matrix(0.7424 -0.6699 0.6699 0.7424 -112.7705 195.2377)" class="st2" width="7.4" height="0.4"/>
<rect x="187.9" y="244.1" transform="matrix(0.7403 -0.6722 0.6722 0.7403 -114.4163 192.2825)" class="st2" width="7.5" height="0.4"/>
<rect x="193.8" y="249.4" transform="matrix(0.7347 -0.6784 0.6784 0.7347 -116.9395 200.2302)" class="st2" width="7.5" height="0.4"/>
<rect x="188" y="249.4" transform="matrix(0.7449 -0.6672 0.6672 0.7449 -117.6193 191.5702)" class="st2" width="7.4" height="0.4"/>
<rect x="193.7" y="254.8" transform="matrix(0.7325 -0.6807 0.6807 0.7325 -120.7312 202.5818)" class="st2" width="7.6" height="0.4"/>
<rect x="187.8" y="254.8" transform="matrix(0.7427 -0.6696 0.6696 0.7427 -121.4197 193.9415)" class="st2" width="7.6" height="0.4"/>
<polygon class="st2" points="239.6,270.7 260.8,270.7 263.7,283.5 236.2,283.5 "/>
<polygon class="st2" points="223.1,260.1 223.1,260.9 240,260.9 240,260 237.1,260 223.1,260.1 "/>
<g>
	<path class="st2" d="M222.7,259.4c0.1,0,0.2,0,0.3,0c0.4,0,1,0,1.8,0l12.2,0h0.1c1.4,0,2.4,0,2.9,0l0.3-0.4h-1.8c0,0-15,0-15.1,0
		L222.7,259.4L222.7,259.4z"/>
	<path class="st2" d="M224.8,259.4h-1C224.1,259.4,224.4,259.4,224.8,259.4z"/>
	<path class="st2" d="M223,259.4h0.8C223.5,259.4,223.3,259.4,223,259.4L223,259.4z"/>
</g>
<polygon class="st2" points="277.1,260.1 277.1,260.9 260.4,260.9 260.4,260 263.2,260 277.1,260.1 "/>
<g>
	<path class="st2" d="M277.4,259.4c-0.1,0-0.2,0-0.3,0c-0.4,0-1,0-1.7,0l-12.1,0h0c-1.3,0-2.4,0-2.9,0l-0.3-0.4h1.8
		c0,0,14.8,0,14.9,0L277.4,259.4L277.4,259.4z"/>
	<path class="st2" d="M275.4,259.4h1C276.1,259.4,275.7,259.4,275.4,259.4z"/>
	<path class="st2" d="M277.1,259.4h-0.8C276.6,259.4,276.9,259.4,277.1,259.4L277.1,259.4z"/>
</g>
<polygon class="st2" points="276.2,234.2 276.2,240.3 275.1,240.3 275.1,258.2 273,258.2 273,236.1 262.8,236.1 262.8,258.2 
	260.9,258.2 260.9,236.2 239.5,236.2 239.5,258.2 237.6,258.2 237.6,236.1 227.4,236.1 227.4,258.2 225.3,258.2 225.3,240.3 
	224.2,240.3 224.2,234.2 "/>
<rect x="237.6" y="261.6" class="st2" width="1.9" height="7.3"/>
<rect x="260.9" y="261.6" class="st2" width="1.9" height="7.3"/>
<polygon class="st4" points="239.5,258.2 237.6,258.2 237.6,258.2 "/>
<rect x="232.4" y="235.9" class="st2" width="0.3" height="22.4"/>
<rect x="267.7" y="235.9" class="st2" width="0.3" height="22.4"/>
<rect x="227.2" y="241.5" class="st2" width="10.6" height="0.3"/>
<rect x="227.2" y="247" class="st2" width="10.6" height="0.3"/>
<rect x="227.2" y="252.5" class="st2" width="10.5" height="0.3"/>
<rect x="262.7" y="241.5" class="st2" width="10.6" height="0.3"/>
<rect x="262.7" y="247" class="st2" width="10.6" height="0.3"/>
<rect x="262.7" y="252.5" class="st2" width="10.5" height="0.3"/>
<rect x="229.7" y="235" transform="matrix(0.7352 -0.6779 0.6779 0.7352 -100.9654 219.0457)" class="st2" width="0.4" height="7.4"/>
<rect x="234.9" y="235" transform="matrix(0.7438 -0.6684 0.6684 0.7438 -99.3541 218.2921)" class="st2" width="0.4" height="7.5"/>
<rect x="229.7" y="240.8" transform="matrix(0.7172 -0.6969 0.6969 0.7172 -105.3214 229.3435)" class="st2" width="0.4" height="7.2"/>
<rect x="235" y="240.8" transform="matrix(0.7257 -0.688 0.688 0.7257 -103.6385 228.8016)" class="st2" width="0.4" height="7.2"/>
<rect x="229.7" y="246.3" transform="matrix(0.7249 -0.6889 0.6889 0.7249 -108.9275 227.1151)" class="st2" width="0.4" height="7.2"/>
<rect x="235" y="246.3" transform="matrix(0.7189 -0.6952 0.6952 0.7189 -107.5946 233.7239)" class="st2" width="0.4" height="7.1"/>
<rect x="235" y="251.8" transform="matrix(0.7157 -0.6984 0.6984 0.7157 -111.5487 236.9036)" class="st2" width="0.4" height="7.3"/>
<rect x="229.8" y="251.7" transform="matrix(0.7236 -0.6903 0.6903 0.7236 -112.7242 229.3079)" class="st2" width="0.4" height="7.4"/>
<rect x="231.5" y="238.6" transform="matrix(0.6757 -0.7372 0.7372 0.6757 -99.7323 250.7634)" class="st2" width="7.4" height="0.4"/>
<rect x="226.2" y="238.6" transform="matrix(0.6716 -0.7409 0.7409 0.6716 -101.4279 248.7532)" class="st2" width="7.4" height="0.4"/>
<rect x="231.6" y="244.3" transform="matrix(0.6949 -0.7191 0.7191 0.6949 -104.0416 243.6702)" class="st2" width="7.1" height="0.4"/>
<rect x="226.3" y="244.2" transform="matrix(0.6877 -0.726 0.726 0.6877 -105.6272 243.2108)" class="st2" width="7.2" height="0.4"/>
<rect x="231.5" y="249.8" transform="matrix(0.6886 -0.7251 0.7251 0.6886 -108.0263 248.3451)" class="st2" width="7.2" height="0.4"/>
<rect x="226.3" y="249.7" transform="matrix(0.6947 -0.7193 0.7193 0.6947 -109.5871 241.6571)" class="st2" width="7.2" height="0.4"/>
<rect x="226.2" y="255.3" transform="matrix(0.696 -0.718 0.718 0.696 -113.5621 242.665)" class="st2" width="7.3" height="0.4"/>
<rect x="231.4" y="255.2" transform="matrix(0.6897 -0.7241 0.7241 0.6897 -111.9923 249.4846)" class="st2" width="7.4" height="0.4"/>
<rect x="265" y="235" transform="matrix(0.74 -0.6726 0.6726 0.74 -91.6486 240.4734)" class="st2" width="0.4" height="7.5"/>
<rect x="270.3" y="235" transform="matrix(0.7424 -0.6699 0.6699 0.7424 -90.3 242.6892)" class="st2" width="0.4" height="7.6"/>
<rect x="265.1" y="240.9" transform="matrix(0.7182 -0.6958 0.6958 0.7182 -95.3667 253.4274)" class="st2" width="0.4" height="7.2"/>
<rect x="270.4" y="240.7" transform="matrix(0.7328 -0.6805 0.6805 0.7328 -93.9643 249.381)" class="st2" width="0.4" height="7.2"/>
<rect x="265" y="246.1" transform="matrix(0.7321 -0.6812 0.6812 0.7321 -99.1061 247.6102)" class="st2" width="0.4" height="7.4"/>
<rect x="270.3" y="246.3" transform="matrix(0.7207 -0.6933 0.6933 0.7207 -97.676 257.3467)" class="st2" width="0.4" height="7.2"/>
<rect x="270.4" y="251.8" transform="matrix(0.7236 -0.6903 0.6903 0.7236 -101.5377 257.3923)" class="st2" width="0.4" height="7.3"/>
<rect x="265.1" y="251.6" transform="matrix(0.7306 -0.6828 0.6828 0.7306 -102.8949 249.9113)" class="st2" width="0.4" height="7.5"/>
<rect x="266.8" y="238.6" transform="matrix(0.6658 -0.7462 0.7462 0.6658 -87.729 281.6949)" class="st2" width="7.5" height="0.4"/>
<rect x="261.6" y="238.6" transform="matrix(0.6693 -0.743 0.743 0.6693 -89.7071 276.0755)" class="st2" width="7.4" height="0.4"/>
<rect x="267" y="244.3" transform="matrix(0.6938 -0.7202 0.7202 0.6938 -93.2003 269.6944)" class="st2" width="7.1" height="0.4"/>
<rect x="261.7" y="244.2" transform="matrix(0.7097 -0.7045 0.7045 0.7097 -95.1873 257.8091)" class="st2" width="7.1" height="0.4"/>
<rect x="267" y="249.7" transform="matrix(0.6935 -0.7204 0.7204 0.6935 -97.1424 271.4882)" class="st2" width="7.1" height="0.4"/>
<rect x="261.6" y="249.7" transform="matrix(0.7038 -0.7104 0.7104 0.7038 -98.9541 262.4379)" class="st2" width="7.2" height="0.4"/>
<rect x="261.5" y="255.2" transform="matrix(0.6923 -0.7216 0.7216 0.6923 -102.6867 269.9637)" class="st2" width="7.4" height="0.4"/>
<rect x="266.8" y="255.3" transform="matrix(0.6904 -0.7234 0.7234 0.6904 -101.0653 274.7599)" class="st2" width="7.4" height="0.4"/>
<rect x="254.2" y="238.6" class="st2" width="0.3" height="19.3"/>
<rect x="241.5" y="243.3" class="st2" width="17.4" height="0.3"/>
<rect x="241.5" y="248.1" class="st2" width="17.4" height="0.3"/>
<rect x="241.5" y="252.9" class="st2" width="17.4" height="0.3"/>
<rect x="249.9" y="238.4" class="st2" width="0.7" height="29.9"/>
<rect x="241.5" y="238.4" class="st2" width="0.7" height="19.7"/>
<rect x="241.6" y="238.4" class="st2" width="17.1" height="0.6"/>
<rect x="241.6" y="257.5" class="st2" width="17.1" height="0.6"/>
<rect x="258.2" y="238.4" class="st2" width="0.7" height="19.7"/>
<rect x="241.5" y="259.9" class="st2" width="6.5" height="7.6"/>
<rect x="252.3" y="259.9" class="st2" width="6.5" height="7.6"/>
<rect x="245.9" y="238.6" class="st2" width="0.3" height="19.3"/>
<rect x="243.8" y="238.3" transform="matrix(0.7575 -0.6529 0.6529 0.7575 -98.2783 217.8071)" class="st2" width="0.4" height="5.8"/>
<rect x="247.9" y="238.3" transform="matrix(0.7613 -0.6484 0.6484 0.7613 -97.1843 218.3855)" class="st2" width="0.4" height="5.7"/>
<rect x="243.9" y="243" transform="matrix(0.7704 -0.6376 0.6376 0.7704 -100.7287 212.0379)" class="st2" width="0.4" height="5.8"/>
<rect x="247.9" y="243" transform="matrix(0.7746 -0.6324 0.6324 0.7746 -99.6096 212.2872)" class="st2" width="0.4" height="5.8"/>
<rect x="243.8" y="247.7" transform="matrix(0.7693 -0.6389 0.6389 0.7693 -103.8366 213.7297)" class="st2" width="0.4" height="5.9"/>
<rect x="247.8" y="247.7" transform="matrix(0.7693 -0.6389 0.6389 0.7693 -102.905 216.2857)" class="st2" width="0.4" height="5.9"/>
<rect x="243.8" y="252.5" transform="matrix(0.7611 -0.6487 0.6487 0.7611 -107.3461 219.2956)" class="st2" width="0.4" height="5.7"/>
<rect x="247.9" y="252.5" transform="matrix(0.7615 -0.6481 0.6481 0.7615 -106.3342 221.6444)" class="st2" width="0.4" height="5.7"/>
<rect x="245.1" y="241" transform="matrix(0.6529 -0.7575 0.7575 0.6529 -96.5901 271.5344)" class="st2" width="5.8" height="0.4"/>
<rect x="241.1" y="241" transform="matrix(0.6583 -0.7528 0.7528 0.6583 -98.2022 266.0885)" class="st2" width="5.7" height="0.4"/>
<rect x="245" y="245.7" transform="matrix(0.638 -0.7701 0.7701 0.638 -99.5927 279.9702)" class="st2" width="5.8" height="0.4"/>
<rect x="241.1" y="245.7" transform="matrix(0.6452 -0.764 0.764 0.6452 -101.266 273.6677)" class="st2" width="5.9" height="0.4"/>
<rect x="245" y="250.5" transform="matrix(0.6392 -0.7691 0.7691 0.6392 -103.3003 281.1428)" class="st2" width="5.9" height="0.4"/>
<rect x="241" y="250.5" transform="matrix(0.6392 -0.7691 0.7691 0.6392 -104.7437 278.0543)" class="st2" width="5.9" height="0.4"/>
<rect x="245.1" y="255.2" transform="matrix(0.6487 -0.7611 0.7611 0.6487 -107.249 278.4417)" class="st2" width="5.8" height="0.4"/>
<rect x="241.1" y="255.2" transform="matrix(0.6477 -0.7619 0.7619 0.6477 -108.625 275.8206)" class="st2" width="5.8" height="0.4"/>
<rect x="252.2" y="238.3" transform="matrix(0.7575 -0.6529 0.6529 0.7575 -96.2574 223.2639)" class="st2" width="0.4" height="5.8"/>
<rect x="256.2" y="238.3" transform="matrix(0.7613 -0.6484 0.6484 0.7613 -95.1958 223.799)" class="st2" width="0.4" height="5.7"/>
<rect x="252.2" y="243" transform="matrix(0.7704 -0.6376 0.6376 0.7704 -98.8109 217.3562)" class="st2" width="0.4" height="5.8"/>
<rect x="256.2" y="243" transform="matrix(0.7746 -0.6324 0.6324 0.7746 -97.7275 217.5666)" class="st2" width="0.4" height="5.8"/>
<rect x="252.2" y="247.7" transform="matrix(0.7693 -0.6389 0.6389 0.7693 -101.915 219.0616)" class="st2" width="0.4" height="5.9"/>
<rect x="256.2" y="247.7" transform="matrix(0.7693 -0.6389 0.6389 0.7693 -100.9874 221.6263)" class="st2" width="0.4" height="5.9"/>
<rect x="252.2" y="252.5" transform="matrix(0.7611 -0.6487 0.6487 0.7611 -105.3524 224.716)" class="st2" width="0.4" height="5.7"/>
<rect x="256.2" y="252.5" transform="matrix(0.7615 -0.6481 0.6481 0.7615 -104.3551 227.0598)" class="st2" width="0.4" height="5.7"/>
<rect x="253.4" y="241" transform="matrix(0.6529 -0.7575 0.7575 0.6529 -93.6952 277.8622)" class="st2" width="5.8" height="0.4"/>
<rect x="249.5" y="241" transform="matrix(0.6583 -0.7528 0.7528 0.6583 -95.3534 272.3732)" class="st2" width="5.7" height="0.4"/>
<rect x="253.4" y="245.7" transform="matrix(0.638 -0.7701 0.7701 0.638 -96.5707 286.398)" class="st2" width="5.8" height="0.4"/>
<rect x="249.4" y="245.7" transform="matrix(0.6452 -0.764 0.764 0.6452 -98.3046 280.0453)" class="st2" width="5.9" height="0.4"/>
<rect x="253.4" y="250.5" transform="matrix(0.6392 -0.7691 0.7691 0.6392 -100.2871 287.5616)" class="st2" width="5.9" height="0.4"/>
<rect x="249.4" y="250.5" transform="matrix(0.6392 -0.7691 0.7691 0.6392 -101.7305 284.4731)" class="st2" width="5.9" height="0.4"/>
<rect x="253.4" y="255.2" transform="matrix(0.6487 -0.7611 0.7611 0.6487 -104.3168 284.8032)" class="st2" width="5.8" height="0.4"/>
<rect x="249.4" y="255.2" transform="matrix(0.6477 -0.7619 0.7619 0.6477 -105.6828 282.1805)" class="st2" width="5.8" height="0.4"/>
<g>
	<polygon class="st2" points="250.5,211.9 249.7,211.9 223.8,211.9 224.6,212.8 249.7,212.8 250.5,212.8 275.6,212.8 276.5,211.9 	
		"/>
	<polygon class="st2" points="250.5,209.7 249.7,209.7 222.8,209.7 223.6,210.1 249.7,210.1 250.5,210.1 276.6,210.1 277.5,209.7 	
		"/>
	<polygon class="st2" points="250.5,210.6 249.7,210.6 223.6,210.6 223.6,211.3 249.7,211.3 250.5,211.3 276.7,211.3 276.7,210.6 	
		"/>
</g>
<polygon class="st2" points="272.8,187.8 272.8,209.2 275.1,209.2 275.1,191.3 276.1,191.3 276.1,185.2 224.2,185.2 224.2,191.3 
	225.2,191.3 225.2,209.2 227.7,209.2 227.7,187.8 "/>
<rect x="226.8" y="192.6" class="st2" width="46.7" height="0.3"/>
<rect x="226.9" y="198" class="st2" width="46.5" height="0.3"/>
<rect x="226.9" y="203.4" class="st2" width="46.5" height="0.3"/>
<rect x="244.4" y="187.3" class="st2" width="0.3" height="21.8"/>
<rect x="233.2" y="187.3" class="st2" width="0.3" height="21.8"/>
<rect x="255.7" y="187.3" class="st2" width="0.3" height="21.8"/>
<rect x="267" y="187.3" class="st2" width="0.3" height="21.8"/>
<rect x="238.5" y="187.6" class="st2" width="0.9" height="21.4"/>
<rect x="249.8" y="187.6" class="st2" width="0.9" height="21.4"/>
<rect x="261.1" y="187.6" class="st2" width="0.9" height="21.4"/>
<g>
	<rect x="305.5" y="235.8" class="st2" width="0.3" height="21.8"/>
	<rect x="317.5" y="235.8" class="st2" width="0.3" height="21.8"/>
	<rect x="298.8" y="241.3" class="st2" width="25.1" height="0.3"/>
	<rect x="298.8" y="246.7" class="st2" width="25.1" height="0.3"/>
	<rect x="298.7" y="252.1" class="st2" width="25.1" height="0.3"/>
	
		<rect x="302.6" y="234.9" transform="matrix(0.6872 -0.7265 0.7265 0.6872 -78.7237 294.6503)" class="st2" width="0.4" height="7.6"/>
	
		<rect x="308.5" y="235" transform="matrix(0.6894 -0.7244 0.7244 0.6894 -77.0811 297.7428)" class="st2" width="0.4" height="7.6"/>
	<rect x="302.6" y="240.4" transform="matrix(0.677 -0.736 0.736 0.677 -81.8784 301.7112)" class="st2" width="0.4" height="7.5"/>
	
		<rect x="308.4" y="240.5" transform="matrix(0.6738 -0.7389 0.7389 0.6738 -79.7679 307.7155)" class="st2" width="0.4" height="7.5"/>
	
		<rect x="302.6" y="245.8" transform="matrix(0.6758 -0.737 0.737 0.6758 -85.7648 304.062)" class="st2" width="0.4" height="7.5"/>
	
		<rect x="308.4" y="245.8" transform="matrix(0.6685 -0.7437 0.7437 0.6685 -83.2382 312.2367)" class="st2" width="0.4" height="7.5"/>
	
		<rect x="302.7" y="251.2" transform="matrix(0.6665 -0.7455 0.7455 0.6665 -89.0638 310.7753)" class="st2" width="0.4" height="7.5"/>
	
		<rect x="308.5" y="251.2" transform="matrix(0.6696 -0.7427 0.7427 0.6696 -87.3794 313.4794)" class="st2" width="0.4" height="7.6"/>
	
		<rect x="304.8" y="238.6" transform="matrix(0.7257 -0.688 0.688 0.7257 -79.6054 277.7931)" class="st2" width="7.6" height="0.4"/>
	<rect x="299" y="238.6" transform="matrix(0.7219 -0.692 0.692 0.7219 -81.0206 275.9313)" class="st2" width="7.6" height="0.4"/>
	
		<rect x="304.9" y="244" transform="matrix(0.7363 -0.6766 0.6766 0.7363 -83.8586 273.2037)" class="st2" width="7.5" height="0.4"/>
	
		<rect x="299.1" y="244" transform="matrix(0.7355 -0.6775 0.6775 0.7355 -85.3514 269.7469)" class="st2" width="7.5" height="0.4"/>
	
		<rect x="304.9" y="249.4" transform="matrix(0.7372 -0.6757 0.6757 0.7372 -87.5171 274.137)" class="st2" width="7.5" height="0.4"/>
	
		<rect x="299.1" y="249.4" transform="matrix(0.7355 -0.6775 0.6775 0.7355 -88.9802 271.1626)" class="st2" width="7.5" height="0.4"/>
	
		<rect x="304.8" y="254.7" transform="matrix(0.7414 -0.6711 0.6711 0.7414 -91.2193 272.9872)" class="st2" width="7.6" height="0.4"/>
	<rect x="299" y="254.7" transform="matrix(0.7406 -0.672 0.672 0.7406 -92.7543 269.5703)" class="st2" width="7.5" height="0.4"/>
	
		<rect x="314.6" y="234.9" transform="matrix(0.6837 -0.7298 0.7298 0.6837 -74.626 305.2339)" class="st2" width="0.4" height="7.6"/>
	
		<rect x="320.4" y="235" transform="matrix(0.6958 -0.7182 0.7182 0.6958 -73.9745 302.9186)" class="st2" width="0.4" height="7.6"/>
	
		<rect x="314.6" y="240.5" transform="matrix(0.6744 -0.7383 0.7383 0.6744 -77.8104 311.9331)" class="st2" width="0.4" height="7.5"/>
	
		<rect x="320.4" y="240.5" transform="matrix(0.6787 -0.7344 0.7344 0.6787 -76.3286 313.9503)" class="st2" width="0.4" height="7.5"/>
	
		<rect x="314.6" y="245.7" transform="matrix(0.6743 -0.7385 0.7385 0.6743 -81.7229 313.7167)" class="st2" width="0.4" height="7.5"/>
	
		<rect x="320.5" y="245.8" transform="matrix(0.6642 -0.7476 0.7476 0.6642 -78.8433 323.4973)" class="st2" width="0.4" height="7.5"/>
	
		<rect x="314.7" y="251" transform="matrix(0.6711 -0.7414 0.7414 0.6711 -85.3928 317.2548)" class="st2" width="0.4" height="7.6"/>
	
		<rect x="320.5" y="251.1" transform="matrix(0.6721 -0.7405 0.7405 0.6721 -83.6043 321.0219)" class="st2" width="0.4" height="7.6"/>
	
		<rect x="316.8" y="238.6" transform="matrix(0.7216 -0.6923 0.6923 0.7216 -76.0398 288.4037)" class="st2" width="7.5" height="0.4"/>
	
		<rect x="311" y="238.5" transform="matrix(0.7281 -0.6854 0.6854 0.7281 -78.0372 280.668)" class="st2" width="7.6" height="0.4"/>
	
		<rect x="316.9" y="244" transform="matrix(0.7424 -0.6699 0.6699 0.7424 -81.0196 277.6818)" class="st2" width="7.4" height="0.4"/>
	<rect x="311" y="244" transform="matrix(0.7403 -0.6722 0.6722 0.7403 -82.4022 275.0145)" class="st2" width="7.5" height="0.4"/>
	
		<rect x="316.9" y="249.4" transform="matrix(0.7347 -0.6784 0.6784 0.7347 -84.2401 283.7269)" class="st2" width="7.5" height="0.4"/>
	
		<rect x="311.1" y="249.3" transform="matrix(0.7449 -0.6672 0.6672 0.7449 -86.1742 273.6843)" class="st2" width="7.5" height="0.4"/>
	
		<rect x="316.8" y="254.7" transform="matrix(0.7325 -0.6807 0.6807 0.7325 -87.7614 286.3593)" class="st2" width="7.6" height="0.4"/>
	
		<rect x="310.9" y="254.7" transform="matrix(0.7427 -0.6696 0.6696 0.7427 -89.6933 276.3536)" class="st2" width="7.6" height="0.4"/>
</g>
<rect x="125" y="274.1" class="st2" width="250" height="1.7"/>
</svg>
