<?xml version="1.0" encoding="utf-8"?>
<!-- Generator: Adobe Illustrator 27.4.0, SVG Export Plug-In . SVG Version: 6.00 Build 0)  -->
<svg version="1.1" id="Layer_1" xmlns="http://www.w3.org/2000/svg" xmlns:xlink="http://www.w3.org/1999/xlink" x="0px" y="0px"
	 viewBox="0 0 101.9 90" style="enable-background:new 0 0 101.9 90;" xml:space="preserve">
<style type="text/css">
	.st0{fill:#FFFFFF;}
</style>
<path class="st0" d="M93.8,21.4h-30v-8.6h30V21.4z M101.2,64.3c-1.9,5.6-8.7,12.8-21.8,12.8s-23.8-7.4-23.8-24.3
	c0-16.8,9.9-25.3,23.4-25.3c13.2,0,21.3,7.6,23,19c0.4,2.1,0.4,5.1,0.4,9.1H67.9c0.6,13.8,14.9,14.2,19.6,8.7H101.2z M68.2,47.1
	h21.3c-0.4-6.6-4.9-9.5-10.6-9.5C72.6,37.6,69.2,40.9,68.2,47.1z M27.3,77H-0.4V13h29.8C52.8,13.3,53.2,36.3,41,42.6
	C55.8,47.9,56.3,77,27.3,77z M12.4,38.6h15.3c10.7,0,12.4-12.8-1.4-12.8h-14V38.6z M26.9,51.4H12.4v12.9h14.3
	C39.8,64.3,39,51.4,26.9,51.4z"/>
</svg>
