<?xml version="1.0" encoding="utf-8"?>
<!-- Generator: Adobe Illustrator 27.4.0, SVG Export Plug-In . SVG Version: 6.00 Build 0)  -->
<svg version="1.1" id="Layer_1" xmlns="http://www.w3.org/2000/svg" xmlns:xlink="http://www.w3.org/1999/xlink" x="0px" y="0px"
	 viewBox="0 0 144 144" style="enable-background:new 0 0 144 144;" xml:space="preserve">
<path d="M128,0H16C7.2,0,0,7.2,0,16v112c0,8.8,7.2,16,16,16h112c8.8,0,16-7.2,16-16V16C144,7.2,136.8,0,128,0z M48,112H27.8V56H48
	V112z M37.6,45.7c-6.2,0-10.3-4.1-10.3-9.6s4.1-9.6,11-9.6c6.2,0,10.3,4.1,10.3,9.6S44.4,45.7,37.6,45.7z M120,112h-19.5V81.4
	c0-8.5-5.2-10.4-7.2-10.4s-8.5,1.3-8.5,10.4c0,1.3,0,30.6,0,30.6H64.7V56h20.2v7.8c2.6-4.6,7.8-7.8,17.6-7.8S120,63.8,120,81.4V112z
	"/>
</svg>
