<?xml version="1.0" encoding="utf-8"?>
<!-- Generator: Adobe Illustrator 27.4.0, SVG Export Plug-In . SVG Version: 6.00 Build 0)  -->
<svg version="1.1" id="a" xmlns="http://www.w3.org/2000/svg" xmlns:xlink="http://www.w3.org/1999/xlink" x="0px" y="0px"
	 viewBox="0 0 300 299.4" style="enable-background:new 0 0 300 299.4;" xml:space="preserve">
<style type="text/css">
	.st0{fill:#DE9168;}
</style>
<path class="st0" d="M300,149.2c0,12.9-1.7,25.5-4.8,37.5c-0.1,0.1-0.3,0.1-0.5,0.2c-18.2,8.7-38.5,13.5-60,13.5
	c-38.5,0-73.3-15.6-98.6-40.7c-4.1-4.1-8-8.5-11.6-13.1c6.8,22.4,19.1,42.4,35.3,58.5c25.3,25.1,60,40.5,98.4,40.5
	c1.9,0,3.8,0,5.8-0.1c0.3,0,0.6,0,0.8,0c0.4,0,0.8,0,1.2-0.1c-27.5,33-69,54-115.3,54c-18.9,0-36.9-3.5-53.5-9.8
	c0.1-0.3,0.2-0.6,0.3-0.9c0.1-0.2,0.1-0.4,0.2-0.5c2.7-8.4,4.1-17.2,4.1-26.5c0-24.1-9.8-46-25.6-61.8
	c-15.8-15.8-37.6-25.6-61.8-25.6c-3.6,0-7.2,0.2-10.7,0.6c-1.5-8.4-2.2-16.9-2.2-25.7c0-13.3,1.7-26.2,5-38.4
	c18.2-8.7,38.5-13.5,60-13.5c38.5,0,73.3,15.6,98.6,40.7c4.1,4.1,8,8.5,11.6,13.1c-6.8-22.4-19.1-42.4-35.3-58.5
	c-25.3-25.1-60-40.5-98.4-40.5c-1.9,0-3.8,0-5.8,0.1C64.7,20.3,105.3,0,150.8,0c18.6,0,36.4,3.4,52.9,9.6
	c41.5,15.7,74.2,49.5,88.5,91.7c0,0,0,0.1,0,0.1c2.3,6.9,4.2,14.1,5.5,21.4C299.2,131.4,300,140.2,300,149.2L300,149.2L300,149.2z"
	/>
</svg>
