<?xml version="1.0" encoding="utf-8"?>
<!-- Generator: Adobe Illustrator 27.1.1, SVG Export Plug-In . SVG Version: 6.00 Build 0)  -->
<svg version="1.1" id="a" xmlns="http://www.w3.org/2000/svg" xmlns:xlink="http://www.w3.org/1999/xlink" x="0px" y="0px"
	 viewBox="0 0 944.6 253.2" style="enable-background:new 0 0 944.6 253.2;" xml:space="preserve">
<style type="text/css">
	.st0{fill:#DE9168;}
</style>
<path class="st0" d="M239.5,118.9c0,9.9-1.3,19.6-3.7,28.8c-0.1,0.1-0.2,0.1-0.4,0.2c-14,6.7-29.6,10.4-46.1,10.4
	c-29.6,0-56.3-12-75.7-31.2c-3.1-3.1-6.1-6.5-8.9-10.1c5.2,17.2,14.7,32.5,27.1,44.9c19.4,19.3,46.1,31.1,75.5,31.1
	c1.5,0,2.9,0,4.5-0.1c0.2,0,0.5,0,0.6,0c0.3,0,0.6,0,0.9-0.1c-21.1,25.3-53,41.5-88.5,41.5c-14.5,0-28.3-2.7-41.1-7.5
	c0.1-0.2,0.2-0.5,0.2-0.7c0.1-0.2,0.1-0.3,0.2-0.4c2.1-6.4,3.1-13.2,3.1-20.3c0-18.5-7.5-35.3-19.7-47.4
	c-12.1-12.1-28.9-19.7-47.4-19.7c-2.8,0-5.5,0.2-8.2,0.5c-1.2-6.4-1.7-13-1.7-19.7c0-10.2,1.3-20.1,3.8-29.5
	c14-6.7,29.6-10.4,46.1-10.4c29.6,0,56.3,12,75.7,31.2c3.1,3.1,6.1,6.5,8.9,10.1c-5.2-17.2-14.7-32.5-27.1-44.9
	C98.3,56.2,71.7,44.4,42.2,44.4c-1.5,0-2.9,0-4.5,0.1C58.8,20,90,4.4,124.9,4.4c14.3,0,27.9,2.6,40.6,7.4c31.9,12.1,57,38,67.9,70.4
	v0.1c1.8,5.3,3.2,10.8,4.2,16.4C238.9,105.3,239.5,112,239.5,118.9L239.5,118.9L239.5,118.9z"/>
<g>
	<path d="M290.8,57.5c4.6,2.4,10.5,3.6,17.9,3.6h18.5V45.9h-18.9c-7.5,0-13.3-1.6-17.4-4.7V22.5h53.5V6.8h-69.1v96.5h71.3V87.7
		h-55.7V57.5z"/>
	<polygon points="405.3,103.4 442.5,6.8 425,6.8 398.8,76 372.3,6.8 355.2,6.8 392.6,103.4 	"/>
	<path d="M474.6,6.8l-37.5,96.5h17.1l8.5-22.2c4.1,1,9.6,1.9,15.3,1.9c7,0,14.5-1.5,20.2-2.9l8.8,23.1h17.4L487.3,6.8H474.6z
		 M478.1,67.7c-3.1,0-6.4-0.3-9.7-0.9l12.4-32.6l12.1,31.6C488.9,66.7,483.3,67.7,478.1,67.7z"/>
	<path d="M554.9,43.2c11,16.9,25.7,30.1,45.7,41.2v19h15.6V6.8h-15.6v59.4c-20.7-14.1-33.7-27.7-45.8-57.9l-0.6-1.4h-14.8v96.5h15.6
		V43.2z"/>
	<path d="M673.3,105.8c17,0,36.9-7.5,36.9-28.6c0-20.4-15-26.8-28.1-30.2c-1.2-0.3-2.4-0.6-3.6-0.8c-12.7-2.9-21.6-5.5-21.6-13.4
		c0-11.8,11.6-13.1,16.6-13.1c9.2,0,19.1,4.1,19.1,15.6v3.4l15.3-6.3v-1.5c0-14.9-15.2-26.6-34.5-26.6c-20.2,0-32.3,10.6-32.3,28.4
		c0,19.1,14.7,24.9,25.8,27.6c1.6,0.4,3.4,0.8,5.3,1.1c12.8,2.6,22.5,5.3,22.5,15.7c0,12.9-17.7,13.6-21.3,13.6
		c-12.8,0-19.6-6.8-19.6-19.6v-3.3l-15.6,5.9v1.6C638.1,94.4,656,105.8,673.3,105.8z"/>
	<path d="M316,186c-1.2-0.3-2.4-0.6-3.6-0.8c-12.7-2.9-21.6-5.5-21.6-13.4c0-11.8,11.6-13.1,16.6-13.1c9.2,0,19.1,4.1,19.1,15.6v3.4
		l15.3-6.3v-1.5c0-14.9-15.2-26.6-34.5-26.6c-20.2,0-32.3,10.6-32.3,28.4c0,19.1,14.7,24.9,25.8,27.6c1.6,0.4,3.4,0.8,5.3,1.1
		c12.8,2.6,22.5,5.3,22.5,15.7c0,12.9-17.7,13.6-21.3,13.6c-12.8,0-19.6-6.8-19.6-19.6v-3.3l-15.6,5.9v1.6
		c0,19.1,17.9,30.5,35.1,30.5c17,0,36.9-7.5,36.9-28.6C344.1,195.8,329.1,189.4,316,186z"/>
	<polygon points="358.8,161.4 387.7,161.4 387.7,242.4 403.3,242.4 403.3,161.4 432.4,161.4 432.4,145.8 358.8,145.8 	"/>
	<path d="M465.6,196.5c4.6,2.4,10.5,3.6,17.9,3.6h18.5v-15.2H483c-7.5,0-13.3-1.6-17.4-4.7v-18.6h53.5v-15.7h-69.1v96.5h71.3v-15.7
		h-55.7V196.5z"/>
	<path d="M601.4,205.2c-20.7-14.1-33.7-27.7-45.8-57.9l-0.6-1.4h-14.8v96.5h15.6v-60.1c11,16.9,25.7,30.1,45.7,41.2v19H617v-96.5
		h-15.6V205.2z"/>
	<path d="M669.3,145.8l-37.5,96.5h17.1l8.5-22.2c4.1,1,9.6,1.9,15.3,1.9c7,0,14.5-1.5,20.2-2.9l8.8,23.1h17.4l-37.2-96.5H669.3z
		 M672.8,206.7c-3.1,0-6.4-0.3-9.7-0.9l12.4-32.6l12.1,31.6C683.6,205.7,678,206.7,672.8,206.7z"/>
	<path d="M793.8,145.8l-44.2,43.3v-43.3h-15.7v96.5h15.7v-31.1l8.8-8.7c5.3,12.5,19,39.9,35.8,39.9h14.7v-14.6h-12.2
		c-7.6,0-18.5-19.3-25.7-37.6l45.2-44.3H793.8z"/>
	<rect x="828.8" y="145.8" width="15.6" height="96.5"/>
	<path d="M910.2,186c-1.2-0.3-2.4-0.6-3.6-0.8c-12.7-2.9-21.6-5.5-21.6-13.4c0-11.8,11.6-13.1,16.6-13.1c9.2,0,19.1,4.1,19.1,15.6
		v3.4l15.3-6.3v-1.5c0-14.9-15.2-26.6-34.5-26.6c-20.2,0-32.3,10.6-32.3,28.4c0,19.1,14.7,24.9,25.8,27.6c1.6,0.4,3.4,0.8,5.3,1.1
		c12.8,2.6,22.5,5.3,22.5,15.7c0,12.9-17.7,13.6-21.3,13.6c-12.8,0-19.6-6.8-19.6-19.6v-3.3l-15.6,5.9v1.6
		c0,19.1,17.9,30.5,35.1,30.5c17,0,36.9-7.5,36.9-28.6C938.3,195.8,923.3,189.4,910.2,186z"/>
</g>
</svg>
