<?xml version="1.0" encoding="utf-8"?>
<!-- Generator: Adobe Illustrator 27.1.1, SVG Export Plug-In . SVG Version: 6.00 Build 0)  -->
<svg version="1.1" id="a" xmlns="http://www.w3.org/2000/svg" xmlns:xlink="http://www.w3.org/1999/xlink" x="0px" y="0px"
	 viewBox="0 0 229.3 229.9" style="enable-background:new 0 0 229.3 229.9;" xml:space="preserve">
<style type="text/css">
	.st0{fill:#DE9168;}
</style>
<path class="st0" d="M229.3,114.5c0,9.9-1.3,19.6-3.7,28.8c-0.1,0.1-0.2,0.1-0.4,0.2c-14,6.7-29.6,10.4-46.1,10.4
	c-29.6,0-56.3-12-75.7-31.2c-3.1-3.1-6.1-6.5-8.9-10.1c5.2,17.2,14.7,32.5,27.1,44.9c19.4,19.3,46.1,31.1,75.5,31.1
	c1.5,0,2.9,0,4.5-0.1c0.2,0,0.5,0,0.6,0c0.3,0,0.6,0,0.9-0.1c-21.1,25.3-53,41.5-88.5,41.5c-14.5,0-28.3-2.7-41.1-7.5
	c0.1-0.2,0.2-0.5,0.2-0.7c0.1-0.2,0.1-0.3,0.2-0.4C76,214.9,77,208.1,77,201c0-18.5-7.5-35.3-19.7-47.4
	c-12.1-12.1-28.9-19.7-47.4-19.7c-2.8,0-5.5,0.2-8.2,0.5C0.5,128,0,121.4,0,114.7c0-10.2,1.3-20.1,3.8-29.5
	c14-6.7,29.6-10.4,46.1-10.4c29.6,0,56.3,12,75.7,31.2c3.1,3.1,6.1,6.5,8.9,10.1c-5.2-17.2-14.7-32.5-27.1-44.9
	C88.1,51.8,61.5,40,32,40c-1.5,0-2.9,0-4.5,0.1C48.6,15.6,79.8,0,114.7,0c14.3,0,27.9,2.6,40.6,7.4c31.9,12.1,57,38,67.9,70.4v0.1
	c1.8,5.3,3.2,10.8,4.2,16.4C228.7,100.9,229.3,107.6,229.3,114.5L229.3,114.5L229.3,114.5z"/>
</svg>
